<?xml version="1.0" encoding="UTF-8" standalone="no"?>
<svg width="166px" height="32px" viewBox="0 0 166 32" version="1.1" xmlns="http://www.w3.org/2000/svg" xmlns:xlink="http://www.w3.org/1999/xlink" xmlns:sketch="http://www.bohemiancoding.com/sketch/ns">
    <g id="Page-1" stroke="none" stroke-width="1" fill="none" fill-rule="evenodd" sketch:type="MSPage">
        <g sketch:type="MSLayerGroup">
            <g sketch:type="MSShapeGroup">
                <g>
                    <path d="M34,9.1 C34,8.3 33.5,7.7 32.7,7.7 L29.1,7.7 C29.1,7.7 26.3,7.5 25.6,4.4 C25,2 24.6,0.1 21.7,0.1 L19.2,0.1 L14.7,0.1 L12.2,0.1 C9.4,4.18692858e-14 8.9,1.9 8.3,4.3 C7.6,7.4 4.9,7.6 4.9,7.6 L1.3,7.6 C0.6,7.6 0,8.3 0,9.1 L0.5,18.6 L0.5,18.7 L0,30.9 C0,31.6 0.6,32 1.3,32 L32.7,32 C33.4,32 34,31.6 34,30.9 L33.5,18.5 C33.5,18.5 33.5,18.5 33.5,18.4 L34,9.1 L34,9.1 Z M14.7,4 L19.1,4 C19.7,4 20.3,4.8 20.4,5.4 C20.5,6.1 19.9,7 19.3,7 L14.9,7 C14.3,7 13.7,6.2 13.6,5.6 C13.5,4.9 14.1,4 14.7,4 L14.7,4 Z" id="Shape" fill="#FFFFFF"></path>
                    <g transform="translate(10.000000, 11.000000)">
                        <path d="M10.9,6.7 C10.3,3.4 8.2,0.2 7.3,0.2 C6.3,0.2 4,3.5 3.3,6.7 L0.7,8.9 L0.7,15 L3,15 L5.1,12.6 C5.3,12.8 5.6,13 5.8,13 L8.5,13 C8.8,13 9,12.9 9.2,12.6 L11.3,15 L13.3,15 L13.3,8.9 L10.9,6.7 L10.9,6.7 Z M7.1,5.6 C6.6,5.6 6.2,5.6 5.8,5.7 C6.2,4.5 6.8,3.6 7.1,3.6 C7.4,3.6 8,4.6 8.4,5.7 C8,5.6 7.6,5.6 7.1,5.6 L7.1,5.6 Z" id="Shape" fill="#09245D"></path>
                        <path d="M7.7,14 C7.8,14 7.8,14.4 7.8,14.7 C7.8,15.4 7.3,15.9 7.1,15.9 C6.9,15.9 6.4,15.4 6.4,14.7 C6.4,14.4 6.4,14 6.5,14 L5.7,14 C5.6,14 5.6,14.7 5.6,15.1 C5.6,16.6 6.7,17.8 7.1,17.8 C7.5,17.8 8.6,16.6 8.6,15.1 C8.6,14.7 8.5,14 8.5,14 L7.7,14 L7.7,14 Z" id="Shape" fill="#0B225D"></path>
                    </g>
                </g>
            </g>
            <g id="Imported-Layers" transform="translate(41.572165, 6.000000)" fill="#FFFFFF" sketch:type="MSShapeGroup">
                <path d="M15.6658144,19.5952165 L14.8254021,8.32816495 C14.7464742,7.17253608 14.6940206,5.80684536 14.6940206,5.25517526 C14.5625567,5.85954639 14.3263505,6.93608247 13.9849072,8.09204124 L10.6755464,19.5952165 L8.10193814,19.5952165 L5.08156701,8.59101031 C4.74020619,7.38276289 4.39868041,5.83323711 4.29369072,5.22919588 C4.29369072,5.83323711 4.18861856,7.48775258 4.10993814,8.61698969 L3.32181443,19.5952165 L0.35414433,19.5952165 L2.00882474,1.42094845 L6.02705155,1.42094845 L8.81096907,11.7162062 C9.23117526,13.2392577 9.38870103,14.1851546 9.4937732,14.7364948 C9.57270103,14.1851546 9.80898969,13.0291959 10.1503505,11.7685773 L13.0131134,1.42094845 L17.0315052,1.42094845 L18.6334845,19.5952165 L15.6658144,19.5952165" id="Fill-1"></path>
                <path d="M29.9796289,20.1468041 C29.1653608,19.8316701 28.4827216,19.2013196 28.1675052,18.3609897 C27.0906392,19.5689072 25.9350928,19.9890309 24.516866,19.9890309 C21.470268,19.9890309 20.1045773,18.3081237 20.1045773,15.9971134 C20.1045773,12.9244536 22.4158351,11.3746804 26.670433,11.3746804 L27.5633814,11.3746804 L27.5633814,10.665567 C27.5633814,9.14268041 27.300701,8.32816495 25.7250309,8.32816495 C23.8075876,8.32816495 21.7592577,9.85162887 21.7592577,9.85162887 L20.4722474,7.77657732 C22.4682887,6.51587629 24.1228041,5.96453608 26.1188454,5.96453608 C28.193732,5.96453608 29.585567,6.72602062 30.1635464,8.17072165 C30.3998351,8.74837113 30.3998351,9.45748454 30.3736907,11.4273814 L30.3209897,15.2356289 C30.2948454,17.0212784 30.4523711,17.5992577 31.4765361,18.3081237 L29.9796289,20.1468041 L29.9796289,20.1468041 Z M26.9856495,13.3183505 C24.0965773,13.3183505 23.2300206,14.1588454 23.2300206,15.8397526 C23.2300206,17.1003711 23.9126598,17.888 25.0682887,17.888 C25.9876289,17.888 26.8805773,17.3368247 27.4583093,16.4964124 L27.5108454,13.3447423 C27.5108454,13.3447423 27.1957113,13.3183505 26.9856495,13.3183505 L26.9856495,13.3183505 Z" id="Fill-2"></path>
                <path d="M39.3031753,8.82705155 C39.0143505,8.72247423 38.8042887,8.64338144 38.4891546,8.64338144 C37.2810722,8.64338144 36.2566598,9.53649485 35.9942268,10.6132784 L35.9942268,19.5952165 L33.1050722,19.5952165 L33.1050722,10.2190515 C33.1050722,8.53830928 32.9213196,7.4617732 32.6324948,6.64725773 L35.2850309,5.96453608 C35.6001649,6.56865979 35.7840825,7.33039175 35.7840825,8.06573196 C36.8346392,6.62127835 37.8851959,5.93830928 39.1719588,5.93830928 C39.5921649,5.93830928 39.8548454,5.99101031 40.1963711,6.14837113 L39.3031753,8.82705155" id="Fill-3"></path>
                <path d="M40.852701,19.5952165 L40.852701,4.12593814 C40.852701,2.83934021 40.7739381,1.94630928 40.5638763,0.922061856 L43.4526186,0.212618557 C43.6103918,1.05319588 43.7155464,2.34020619 43.7155464,3.73212371 L43.7155464,19.5952165 L40.852701,19.5952165 L40.852701,19.5952165 Z M48.9418557,19.5952165 L43.9256082,12.0841237 L47.8648247,6.30573196 L51.3581031,6.30573196 L46.8143505,11.926268 L52.4348866,19.5952165 L48.9418557,19.5952165 L48.9418557,19.5952165 Z" id="Fill-4"></path>
                <path d="M55.0877526,13.7385567 L55.0877526,13.948701 C55.0877526,15.7870515 55.7706392,17.7304742 58.3706392,17.7304742 C59.6051134,17.7304742 60.6818969,17.2841237 61.6799175,16.4174021 L62.8092371,18.1771546 C61.4172371,19.3587629 59.8152577,19.9366598 58.0292784,19.9366598 C54.2734845,19.9366598 51.9100206,17.2314227 51.9100206,12.9768247 C51.9100206,10.6393402 52.4089897,9.08989691 53.5644536,7.77657732 C54.6414021,6.54218557 55.9543918,5.99101031 57.6352165,5.99101031 C58.9486186,5.99101031 60.1565361,6.33212371 61.2859381,7.35628866 C62.441567,8.40692784 63.019299,10.0354639 63.019299,13.1345979 L63.019299,13.7385567 L55.0877526,13.7385567 L55.0877526,13.7385567 Z M57.6352165,8.17072165 C56.0070928,8.17072165 55.1139794,9.45748454 55.1139794,11.611134 L60.0253196,11.611134 C60.0253196,9.45748454 59.0799175,8.17072165 57.6352165,8.17072165 L57.6352165,8.17072165 Z" id="Fill-5"></path>
                <path d="M67.694433,6.30573196 L70.8722474,6.30573196 L70.1106804,8.30218557 L67.6680412,8.30218557 L67.6680412,15.7606598 C67.6680412,17.4155052 68.0357938,17.888 69.2964124,17.888 C69.6903918,17.888 70.0317526,17.8093196 70.5308866,17.6254845 L70.8983918,19.3587629 C70.0317526,19.7525773 69.1913402,19.9366598 68.2983093,19.9366598 C65.7245361,19.9366598 64.8315876,18.4132784 64.8315876,16.5223918 L64.8315876,8.30218557 L63.3608247,8.30218557 L63.3608247,6.30573196 L64.8315876,6.30573196 C64.8315876,5.17657732 64.8315876,4.02094845 64.9629691,3.02301031 L67.9307216,2.31381443 C67.7994227,3.39059794 67.694433,4.99274227 67.694433,6.30573196" id="Fill-6"></path>
                <path d="M78.1211546,19.8579794 C76.9915876,19.8579794 75.8884948,19.4901443 74.9694845,18.7811134 C74.9694845,18.7811134 75.0218557,19.3587629 75.0218557,20.0941031 L75.0218557,24.5327835 L72.2381031,25.2418144 L72.2381031,9.74663918 C72.2381031,8.09204124 72.1591753,7.40898969 71.9751753,6.43719588 L74.6278763,5.96453608 C74.7593402,6.41121649 74.8117113,6.77863918 74.8381031,7.59282474 C75.6785155,6.56865979 76.9915876,6.01690722 78.3835052,6.01690722 C81.0625155,6.01690722 83.3999175,8.03934021 83.3999175,12.6616907 C83.3999175,17.0739794 81.5090309,19.8579794 78.1211546,19.8579794 L78.1211546,19.8579794 Z M75.0218557,9.77286598 L75.0218557,16.3909278 C75.7048247,17.0739794 76.6239175,17.5730309 77.4907216,17.5730309 C79.4341443,17.5730309 80.300866,16.1285773 80.300866,12.9768247 C80.300866,10.0090722 79.7230515,8.40692784 77.8320825,8.40692784 C76.7816082,8.40692784 75.8098969,8.87983505 75.0218557,9.77286598 L75.0218557,9.77286598 Z" id="Fill-7"></path>
                <path d="M88.0223505,19.8840412 C85.107299,19.8840412 85.107299,17.257732 85.107299,16.1285773 L85.107299,4.80898969 C85.107299,2.99678351 85.028701,2.02498969 84.844701,0.922061856 L87.8123711,0.265402062 C88.0223505,1.07950515 88.0488247,2.18276289 88.0488247,3.91579381 L88.0488247,15.1830103 C88.0488247,16.9689072 88.1275052,17.257732 88.3376495,17.5730309 C88.4953402,17.8093196 88.9417732,17.9407835 89.283134,17.7830103 L89.7560412,19.5689072 C89.2307629,19.7789691 88.6790928,19.8840412 88.0223505,19.8840412" id="Fill-8"></path>
                <path d="M100.235052,20.1468041 C99.4209485,19.8316701 98.7378969,19.2013196 98.4228454,18.3609897 C97.3459794,19.5689072 96.190433,19.9890309 94.7722062,19.9890309 C91.7256907,19.9890309 90.36,18.3081237 90.36,15.9971134 C90.36,12.9244536 92.6712577,11.3746804 96.9259381,11.3746804 L97.8188041,11.3746804 L97.8188041,10.665567 C97.8188041,9.14268041 97.5560412,8.32816495 95.9803711,8.32816495 C94.0631753,8.32816495 92.0145155,9.85162887 92.0145155,9.85162887 L90.7275876,7.77657732 C92.7237113,6.51587629 94.3783918,5.96453608 96.3743505,5.96453608 C98.4490722,5.96453608 99.8411546,6.72602062 100.418804,8.17072165 C100.655258,8.74837113 100.655258,9.45748454 100.628866,11.4273814 L100.576495,15.2356289 C100.550268,17.0212784 100.707794,17.5992577 101.732124,18.3081237 L100.235052,20.1468041 L100.235052,20.1468041 Z M97.2409897,13.3183505 C94.352,13.3183505 93.4852784,14.1588454 93.4852784,15.8397526 C93.4852784,17.1003711 94.1682474,17.888 95.3238763,17.888 C96.2429691,17.888 97.1359175,17.3368247 97.713732,16.4964124 L97.766268,13.3447423 C97.766268,13.3447423 97.4510515,13.3183505 97.2409897,13.3183505 L97.2409897,13.3183505 Z" id="Fill-9"></path>
                <path d="M108.16668,19.9366598 C104.542351,19.9366598 102.520165,17.3891959 102.520165,13.1082062 C102.520165,8.27579381 105.40899,5.96453608 108.376742,5.96453608 C109.821196,5.96453608 110.871753,6.30573196 112.053773,7.40898969 L110.609402,9.32635052 C109.821196,8.61698969 109.138557,8.30218557 108.376742,8.30218557 C107.457732,8.30218557 106.696,8.77484536 106.275794,9.64156701 C105.881897,10.4555052 105.724206,11.6898144 105.724206,13.3447423 C105.724206,15.1566186 106.013113,16.3122474 106.617237,16.9689072 C107.037526,17.441567 107.667876,17.7304742 108.376742,17.7304742 C109.295918,17.7304742 110.189113,17.2841237 111.055753,16.4174021 L112.421361,18.1771546 C111.213278,19.3851546 109.95266,19.9366598 108.16668,19.9366598" id="Fill-10"></path>
                <path d="M115.888247,13.7385567 L115.888247,13.948701 C115.888247,15.7870515 116.571052,17.7304742 119.171052,17.7304742 C120.405443,17.7304742 121.482309,17.2841237 122.48033,16.4174021 L123.609567,18.1771546 C122.217649,19.3587629 120.615588,19.9366598 118.829691,19.9366598 C115.073897,19.9366598 112.710351,17.2314227 112.710351,12.9768247 C112.710351,10.6393402 113.209402,9.08989691 114.364866,7.77657732 C115.441814,6.54218557 116.754722,5.99101031 118.435629,5.99101031 C119.749031,5.99101031 120.957031,6.33212371 122.086351,7.35628866 C123.241979,8.40692784 123.819711,10.0354639 123.819711,13.1345979 L123.819711,13.7385567 L115.888247,13.7385567 L115.888247,13.7385567 Z M118.435629,8.17072165 C116.807505,8.17072165 115.914392,9.45748454 115.914392,11.611134 L120.825732,11.611134 C120.825732,9.45748454 119.880165,8.17072165 118.435629,8.17072165 L118.435629,8.17072165 Z" id="Fill-11"></path>
            </g>
        </g>
    </g>
</svg>
