<?xml version="1.0" encoding="UTF-8" standalone="no"?>
<svg xmlns="http://www.w3.org/2000/svg" version="1.1" width="24" height="24" viewBox="0 0 24 24" id="Layer_1">
  <defs id="defs9" /><g transform="matrix(0.20929624,0,0,0.20929624,-9.5976977,-3.6271041)" id="g3"><path d="m 160.527,74.665 c 0,31.649 -25.681,57.334 -57.335,57.334 -31.654,0 -57.335,-25.685 -57.335,-57.334 0,-31.649 25.681,-57.335 57.335,-57.335 31.654,0 57.335,25.685 57.335,57.335 z M 113.944,38.378 c 0,-0.522 -0.228,-1.045 -0.75,-1.339 -0.446,-0.37 -1.115,-0.598 -1.79,-0.598 H 94.98 c -0.675,0 -1.344,0.228 -1.79,0.598 -0.522,0.294 -0.75,0.816 -0.75,1.339 l 1.273,46.364 c 0,1.045 1.121,1.871 2.536,1.871 h 13.811 c 1.345,0 2.466,-0.826 2.541,-1.871 l 1.343,-46.364 z m -1.196,57.858 c 0,-1.339 -1.045,-2.46 -2.312,-2.46 H 96.102 c -1.344,0 -2.465,1.121 -2.465,2.46 v 14.191 c 0,1.34 1.121,2.46 2.465,2.46 h 14.333 c 1.268,0 2.312,-1.12 2.312,-2.46 V 96.236 z" id="path5" style="fill:#f1f1f1" /></g></svg>
