<?xml version="1.0" encoding="UTF-8" standalone="no"?>
<svg width="138px" height="2624px" viewBox="0 0 138 2624" version="1.1" xmlns="http://www.w3.org/2000/svg" xmlns:xlink="http://www.w3.org/1999/xlink" xmlns:sketch="http://www.bohemiancoding.com/sketch/ns">
    <title>Slice 1</title>
    <description>Created with Sketch (http://www.bohemiancoding.com/sketch)</description>
    <defs></defs>
    <g id="Page 1" stroke="none" stroke-width="1" fill="none" fill-rule="evenodd">
        <g id="cat-icons" transform="translate(-1.00, -1.00)" fill="#FFFFFF">
            <g id="Page 1">
                <g id="Iconography">
                    <path d="M115.43,2544.43 C113.57,2543.99 111.77,2543.73 110.02,2543.61 C109.03,2542.45 107.49,2541.81 105.88,2542.04 L89.26,2544.44 C87.66,2544.67 86.38,2545.70 85.76,2547.07 C79.79,2547.74 72.13,2547.84 69.99,2547.86 C67.86,2547.84 60.20,2547.74 54.23,2547.07 C53.61,2545.70 52.32,2544.67 50.72,2544.44 L34.11,2542.04 C32.50,2541.81 30.96,2542.45 29.97,2543.61 C28.22,2543.73 26.42,2543.99 24.56,2544.43 C14.21,2546.92 -3.03,2591.43 11.91,2615.08 C26.86,2638.72 39.84,2614.29 48.72,2601.69 C54.46,2593.54 65.79,2592.71 69.42,2592.66 L69.42,2592.67 C69.42,2592.67 69.63,2592.66 69.99,2592.66 C70.36,2592.66 70.57,2592.67 70.57,2592.67 L70.57,2592.66 C74.20,2592.71 85.53,2593.54 91.28,2601.69 C100.15,2614.29 113.13,2638.73 128.08,2615.08 C143.03,2591.43 125.78,2546.92 115.43,2544.43 L115.43,2544.43 L115.43,2544.43 Z M35.66,2589.24 C26.81,2589.24 19.63,2582.08 19.63,2573.24 C19.63,2564.40 26.81,2557.24 35.66,2557.24 C44.51,2557.24 51.68,2564.40 51.68,2573.24 C51.68,2582.08 44.51,2589.24 35.66,2589.24 L35.66,2589.24 L35.66,2589.24 Z M104.33,2557.24 C107.28,2557.24 109.67,2559.62 109.67,2562.57 C109.67,2565.52 107.28,2567.91 104.33,2567.91 C101.38,2567.91 98.99,2565.52 98.99,2562.57 C98.99,2559.62 101.38,2557.24 104.33,2557.24 L104.33,2557.24 L104.33,2557.24 Z M93.65,2578.57 C90.70,2578.57 88.31,2576.19 88.31,2573.24 C88.31,2570.29 90.70,2567.91 93.65,2567.91 C96.60,2567.91 98.99,2570.29 98.99,2573.24 C98.99,2576.19 96.60,2578.57 93.65,2578.57 L93.65,2578.57 L93.65,2578.57 Z M104.33,2589.24 C101.38,2589.24 98.99,2586.86 98.99,2583.91 C98.99,2580.96 101.38,2578.57 104.33,2578.57 C107.28,2578.57 109.67,2580.96 109.67,2583.91 C109.67,2586.86 107.28,2589.24 104.33,2589.24 L104.33,2589.24 L104.33,2589.24 Z M115.01,2578.57 C112.07,2578.57 109.67,2576.18 109.67,2573.24 C109.67,2570.29 112.07,2567.91 115.01,2567.91 C117.96,2567.91 120.35,2570.29 120.35,2573.24 C120.35,2576.19 117.96,2578.57 115.01,2578.57 L115.01,2578.57 L115.01,2578.57 Z M35.66,2561.00 C29.93,2561.00 25.29,2565.64 25.29,2571.36 C25.29,2577.08 29.93,2581.71 35.66,2581.71 C41.38,2581.71 46.03,2577.08 46.03,2571.36 C46.03,2565.64 41.38,2561.00 35.66,2561.00 L35.66,2561.00 L35.66,2561.00 Z M35.66,2561.00" id="Shape"></path>
                    <path d="M115.43,3.42 C113.57,2.98 111.77,2.72 110.02,2.60 C109.03,1.44 107.49,0.80 105.88,1.03 L89.26,3.43 C87.66,3.66 86.38,4.69 85.76,6.06 C79.79,6.73 72.13,6.83 69.99,6.85 C67.86,6.83 60.20,6.73 54.23,6.06 C53.61,4.69 52.32,3.66 50.72,3.43 L34.11,1.03 C32.50,0.80 30.96,1.44 29.97,2.60 C28.22,2.72 26.42,2.98 24.56,3.42 C14.21,5.91 -3.03,50.41 11.91,74.06 C26.86,97.71 39.84,73.28 48.72,60.68 C54.46,52.53 65.79,51.70 69.42,51.65 L69.42,51.66 C69.42,51.66 69.63,51.65 69.99,51.65 C70.36,51.65 70.57,51.66 70.57,51.66 L70.57,51.65 C74.20,51.70 85.53,52.53 91.28,60.68 C100.15,73.28 113.13,97.71 128.08,74.06 C143.03,50.41 125.78,5.91 115.43,3.42 L115.43,3.42 L115.43,3.42 Z M35.66,48.23 C26.81,48.23 19.63,41.07 19.63,32.23 C19.63,23.39 26.81,16.22 35.66,16.22 C44.51,16.22 51.68,23.39 51.68,32.23 C51.68,41.07 44.51,48.23 35.66,48.23 L35.66,48.23 L35.66,48.23 Z M104.33,16.22 C107.28,16.22 109.67,18.61 109.67,21.56 C109.67,24.51 107.28,26.89 104.33,26.89 C101.38,26.89 98.99,24.51 98.99,21.56 C98.99,18.61 101.38,16.22 104.33,16.22 L104.33,16.22 L104.33,16.22 Z M93.65,37.56 C90.70,37.56 88.31,35.17 88.31,32.23 C88.31,29.28 90.70,26.89 93.65,26.89 C96.60,26.89 98.99,29.28 98.99,32.23 C98.99,35.17 96.60,37.56 93.65,37.56 L93.65,37.56 L93.65,37.56 Z M104.33,48.23 C101.38,48.23 98.99,45.84 98.99,42.90 C98.99,39.95 101.38,37.56 104.33,37.56 C107.28,37.56 109.67,39.95 109.67,42.90 C109.67,45.84 107.28,48.23 104.33,48.23 L104.33,48.23 L104.33,48.23 Z M115.01,37.56 C112.07,37.56 109.67,35.17 109.67,32.23 C109.67,29.28 112.07,26.89 115.01,26.89 C117.96,26.89 120.35,29.28 120.35,32.23 C120.35,35.17 117.96,37.56 115.01,37.56 L115.01,37.56 L115.01,37.56 Z M35.66,19.99 C29.93,19.99 25.29,24.63 25.29,30.35 C25.29,36.06 29.93,40.70 35.66,40.70 C41.38,40.70 46.03,36.06 46.03,30.35 C46.03,24.63 41.38,19.99 35.66,19.99 L35.66,19.99 L35.66,19.99 Z M35.66,19.99" id="Shape"></path>
                    <path d="M133.99,177.61 L127.00,169.62 L129.58,159.33 L119.93,154.87 L118.09,144.42 L107.44,144.26 L101.50,135.46 L91.71,139.62 L82.69,134 L75.45,141.76 L64.90,140.28 L61.46,150.31 L51.22,153.22 L52.17,163.78 L44.31,170.35 L60.09,170.35 C64.21,158.75 75.29,150.42 88.34,150.42 C104.91,150.42 118.34,163.80 118.34,180.31 C118.34,190.8 112.31,199.63 104.11,204.97 C104.09,210.10 104.12,215.67 104.11,220.01 L109.26,212.33 L119.88,211.60 L121.16,201.07 L130.57,196.10 L127.44,185.97 L133.99,177.61 L133.99,177.61 Z M90.73,229.03 C90.69,229.03 90.64,229.03 90.60,229.02 C90.57,229.02 90.55,229.03 90.52,229.03 L90.73,229.03 L90.73,229.03 Z M100.34,179.68 C99.72,179.68 99.57,180.28 99.57,180.91 L99.57,224.52 C99.57,228.04 95.56,232.04 92.03,232.04 L15.05,232.04 C11.52,232.04 9.01,229.54 9.01,226.02 L9.01,177.90 C9.02,177.47 9.14,176.4 10.52,176.4 L84.48,176.4 C84.50,176.4 84.51,176.39 84.52,176.39 C84.50,176.44 84.49,176.53 84.50,176.68 L84.50,222.83 C84.50,226.20 87.22,228.95 90.60,229.02 C93.99,228.98 96.56,226.41 96.56,223.01 L96.56,179.40 C96.56,178.78 96.65,178.18 96.03,178.18 C95.40,178.18 94.89,178.68 94.89,179.30 L94.89,222.83 C94.89,225.00 92.71,226.02 90.52,226.02 C88.33,226.02 87.50,225.19 87.50,223.01 L87.50,176.39 C87.49,175.26 86.64,173.39 84.48,173.39 L10.52,173.39 C7.77,173.39 6.01,176.25 5.99,177.90 L5.99,226.02 C5.99,230.79 10.27,235.04 15.05,235.04 L92.03,235.04 C96.81,235.04 101.09,229.28 101.09,224.52 L101.09,180.91 C101.08,180.28 100.97,179.68 100.34,179.68 L100.34,179.68 L100.34,179.68 Z M79.95,180.91 L13.54,180.91 L13.54,185.42 L79.95,185.42 L79.95,180.91 L79.95,180.91 Z M79.95,191.43 L60.33,191.43 L60.33,194.44 L79.95,194.44 C80.11,194.44 79.95,191.43 79.95,191.43 L79.95,191.43 L79.95,191.43 Z M91.10,223.25 C91.72,223.25 92.03,222.13 92.03,221.51 L92.03,177.90 C92.03,177.28 91.72,176.15 91.10,176.15 C90.47,176.15 90.52,177.28 90.52,177.90 L90.52,221.51 C90.52,222.13 90.47,223.25 91.10,223.25 L91.10,223.25 L91.10,223.25 Z M40.32,212.66 C39.91,214.78 35.06,213.83 37.41,215.20 C39.77,216.58 45.17,216.02 46.42,218.23 C47.66,220.44 48.91,223.15 49.33,225.18 C49.34,225.21 49.78,225.99 49.77,226.02 L52.79,226.02 C53.93,226.02 55.80,224.15 55.80,223.01 L55.80,194.44 C55.80,193.30 53.93,191.43 52.79,191.43 L16.56,191.43 C15.41,191.43 13.54,193.30 13.54,194.44 L13.54,223.01 C13.54,224.15 15.41,226.02 16.56,226.02 L18.07,226.02 C18.16,223.66 18.40,218.75 21.34,217.68 C25.50,216.16 30.21,214.78 30.35,213.81 C30.48,212.85 28.82,209.54 28.55,206.09 C28.27,202.64 30.76,199.73 32.15,198.91 C33.53,198.08 37.28,198.13 39.08,199.83 C40.88,201.53 41.55,201.81 41.21,205.95 C40.88,210.09 40.74,210.53 40.32,212.66 L40.32,212.66 L40.32,212.66 Z M79.95,197.45 L60.33,197.45 L60.33,200.46 L79.95,200.46 C80.11,200.46 79.95,197.45 79.95,197.45 L79.95,197.45 L79.95,197.45 Z M79.95,203.46 L60.33,203.46 L60.33,206.47 L79.95,206.47 C80.11,206.47 79.95,203.46 79.95,203.46 L79.95,203.46 L79.95,203.46 Z M79.95,209.48 L60.33,209.48 L60.33,212.49 L79.95,212.49 C80.11,212.49 79.95,209.48 79.95,209.48 L79.95,209.48 L79.95,209.48 Z M79.95,215.49 L60.33,215.49 L60.33,218.50 L79.95,218.50 C80.11,218.50 79.95,215.49 79.95,215.49 L79.95,215.49 L79.95,215.49 Z M79.95,215.49" id="Shape"></path>
                    <path d="M118.91,306.06 C115.46,305.61 97.56,303.10 85.76,299.22 C74.68,295.57 59.28,288.29 54.79,286.13 C53.98,285.74 53.52,286.25 53.52,286.98 L53.52,289.10 L53.52,316.77 L53.52,373.39 C50.07,370.48 44.99,368.64 39.30,368.64 C28.91,368.64 20.49,374.76 20.49,382.31 C20.49,389.87 28.91,395.99 39.30,395.99 C49.68,395.99 58.10,389.87 58.10,382.31 L58.10,319.09 C64.13,322.07 75.06,327.19 84.41,330.05 C94.20,333.04 107.88,335.50 114.92,336.67 L114.92,391.29 C111.47,388.38 106.38,386.54 100.69,386.54 C90.31,386.54 81.89,392.66 81.89,400.22 C81.89,407.77 90.31,413.89 100.69,413.89 C111.08,413.89 119.50,407.77 119.50,400.22 L119.50,337.39 L119.50,306.99 L119.50,306.75 C119.49,306.51 119.29,306.12 118.91,306.06 L118.91,306.06 L118.91,306.06 Z M118.91,306.06" id="Shape"></path>
                    <path d="M138.39,542.51 C139.81,537.08 138.41,532.42 137.51,530.20 C96.18,519.24 78.91,520.50 68.35,523.43 L103.66,539.05 L103.80,539.11 L134.48,544.59 C133.60,544.79 134.59,544.38 134.48,544.59 C133.27,546.97 130.88,550.13 125.30,548.63 C121.19,547.53 98.7,541.62 75.42,535.27 C47.03,527.51 14.77,519.02 7.40,517.04 C5.00,516.40 4.26,514.56 3.68,512.79 C2.50,509.25 6.03,505.08 8.44,501.05 C9.26,499.68 10.10,499.33 10.77,498.42 L65.05,521.97 C75.4,518.55 91.65,515.98 134.49,526.98 C130.87,524.17 123.51,518.44 115.18,511.86 C116.08,510.08 115.73,507.79 114.15,506.28 C113.54,505.70 112.79,505.28 112.00,505.06 C110.49,504.66 108.94,505.05 107.82,506.04 C106.88,505.28 105.93,504.52 104.98,503.77 C106.05,501.96 105.72,499.51 104.07,497.93 C103.46,497.35 102.72,496.93 101.92,496.71 C100.44,496.32 98.93,496.69 97.82,497.63 C96.88,496.68 95.98,495.71 95.13,494.72 C96.08,492.93 95.74,490.59 94.13,489.06 C93.52,488.47 92.78,488.05 91.98,487.84 C91.26,487.65 90.54,487.66 89.85,487.80 C88.75,486.19 87.68,484.60 86.68,483.07 C82.48,476.66 78.85,471.12 73.76,469.68 C70.76,468.88 66.61,471.62 64.01,474.51 C61.75,477.02 60.63,479.54 60.75,481.66 C57.27,482.36 53.31,482.40 49.11,481.28 C38.20,478.35 35.49,473.84 31.71,467.10 C29.74,463.59 26.42,463.59 25.25,464.51 C16.10,471.72 9.66,487.40 7.71,496.10 C5.66,498.92 -0.67,508.38 1.41,514.71 C2.26,517.26 3.41,519.23 6.58,520.08 C13.95,522.05 46.21,530.55 74.60,538.30 C97.88,544.66 120.67,550.71 124.79,551.81 C132.89,553.98 137.01,547.51 138.07,543.78 L138.42,542.51 L138.39,542.51 L138.39,542.51 Z M111.39,507.34 C111.81,507.45 112.20,507.67 112.53,507.98 C113.50,508.92 113.61,510.39 112.78,511.27 L109.62,514.60 C108.81,515.45 107.29,515.41 106.34,514.50 C105.36,513.56 105.25,512.09 106.08,511.21 L109.24,507.88 C109.78,507.32 110.58,507.12 111.39,507.34 L111.39,507.34 L111.39,507.34 Z M101.31,498.99 C101.73,499.10 102.12,499.32 102.45,499.63 C103.42,500.57 103.53,502.04 102.70,502.92 L99.54,506.25 C98.73,507.09 97.21,507.06 96.26,506.15 C95.28,505.21 95.17,503.74 96.00,502.86 L99.17,499.53 C99.7,498.97 100.50,498.77 101.31,498.99 L101.31,498.99 L101.31,498.99 Z M92.51,490.76 C93.49,491.69 93.60,493.17 92.76,494.05 L89.60,497.37 C88.79,498.22 87.27,498.19 86.32,497.28 C85.34,496.34 85.23,494.87 86.06,493.99 L89.23,490.66 C89.76,490.10 90.56,489.90 91.37,490.12 C91.79,490.23 92.18,490.45 92.51,490.76 L92.51,490.76 L92.51,490.76 Z M65.75,476.08 C68.23,473.32 71.48,471.51 73.17,471.96 C77.37,473.15 80.77,478.35 84.72,484.36 C85.67,485.82 86.69,487.34 87.74,488.87 C87.67,488.93 87.59,488.97 87.53,489.03 L87.25,489.33 C81.99,484.93 77.89,481.33 76.19,479.45 C74.04,477.08 70.88,477.23 67.93,478.97 C66.53,479.80 64.89,480.51 63.09,481.06 C63.21,479.67 64.16,477.85 65.75,476.08 L65.75,476.08 L65.75,476.08 Z M58.90,493.45 C66.46,493.32 69.86,494.16 73.22,496.97 C76.65,499.84 77.72,504.14 76.05,507.67 C74.20,511.58 69.38,514.18 63.15,512.56 C46.04,508.11 49.75,496.94 49.75,496.94 C49.75,496.94 53.81,505.78 61.30,506.43 C64.35,506.70 67.37,503.64 65.11,500.59 C62.82,497.51 54.15,498.10 50.05,492.58 C47.60,489.29 48.78,485.11 48.67,484.99 C48.56,484.87 51.15,493.58 58.90,493.45 L58.90,493.45 L58.90,493.45 Z M58.90,493.45" id="Shape"></path>
                    <path d="M120.96,962.64 C118.05,962.64 115.37,963.61 113.20,965.22 C113.16,964.35 112.94,963.50 112.47,962.68 C108.94,956.16 93.17,950.95 72.75,949.36 C75.24,946.46 78.63,941.15 78.63,933.57 C78.63,921.58 70.13,920.52 70.13,908.00 C70.13,908.00 63.99,923.34 70.13,932.34 C74.38,938.56 72.75,945.55 71.34,949.26 C70.33,949.19 69.32,949.12 68.29,949.07 C68.46,947.7 68.58,946.28 68.58,944.79 C68.58,927.53 56.36,926.01 56.36,908 C56.36,908 47.52,930.07 56.36,943.01 C57.66,944.93 58.55,946.89 59.17,948.85 C57.69,948.85 56.22,948.87 54.77,948.91 C52.48,942.51 47.36,939.69 47.36,929.95 C47.36,929.95 43.10,940.67 45.28,949.44 C25.44,951.14 10.21,956.29 6.76,962.68 C6.24,963.57 6.00,964.50 6.00,965.45 L6.00,971.62 C6.00,1001.22 30.01,1025.23 59.61,1025.23 C84.70,1025.23 105.76,1008 111.61,984.73 C113.97,987.17 117.29,988.70 120.96,988.70 C128.16,988.70 133.99,982.86 133.99,975.67 C134.00,968.47 128.16,962.64 120.96,962.64 L120.96,962.64 L120.96,962.64 Z M107.87,967.49 C107.86,967.49 107.84,967.49 107.82,967.50 C107.80,967.60 107.78,967.71 107.75,967.82 C105.61,975.47 84.86,981.48 59.59,981.48 C34.31,981.48 13.56,975.47 11.42,967.82 C11.41,967.79 11.41,967.76 11.40,967.74 C11.39,967.73 11.37,967.73 11.35,967.73 C11.35,967.69 11.37,967.66 11.37,967.63 C11.37,967.59 11.36,967.56 11.35,967.53 C11.37,967.52 11.39,967.52 11.40,967.51 C11.42,967.40 11.44,967.30 11.47,967.20 C13.25,960.84 27.85,955.63 47.21,954.04 C47.26,954.12 47.30,954.21 47.36,954.30 C53.50,963.29 47.36,973.88 47.36,973.88 C47.36,973.88 55.86,967.53 55.86,955.53 C55.86,954.84 55.82,954.20 55.77,953.58 C57.05,953.55 58.33,953.53 59.64,953.53 C59.80,953.53 59.97,953.53 60.14,953.54 C61.08,963 56.36,971.17 56.36,971.17 C56.36,971.17 64.37,965.18 67.42,953.73 C89.06,954.81 105.89,960.34 107.81,967.20 C107.82,967.22 107.82,967.25 107.83,967.27 C107.84,967.28 107.86,967.28 107.87,967.29 C107.87,967.32 107.86,967.35 107.85,967.39 C107.86,967.42 107.87,967.45 107.87,967.49 L107.87,967.49 L107.87,967.49 Z M120.96,983.31 C116.74,983.31 113.32,979.89 113.32,975.67 C113.32,971.45 116.74,968.03 120.96,968.03 C125.18,968.03 128.61,971.45 128.61,975.67 C128.61,979.89 125.18,983.31 120.96,983.31 L120.96,983.31 L120.96,983.31 Z M120.96,983.31" id="Shape"></path>
                    <path d="M69.99,603 L5.99,634.78 L29.61,646.52 L29.61,640.32 C29.61,640.32 43.98,627.49 70.18,627.49 C96.38,627.49 109.06,640.32 109.06,640.32 L109.06,647.17 L118.78,642.34 L118.78,627.23 L69.99,603 L69.99,603 Z M121.31,628.49 L121.31,641.08 L133.99,634.78 L121.31,628.49 L121.31,628.49 Z M122.71,662.48 C123.63,661.71 124.23,660.56 124.23,659.27 C124.23,657.39 123.00,655.81 121.31,655.28 L121.31,641.08 L118.78,642.34 L118.78,655.31 C117.13,655.86 115.94,657.42 115.94,659.27 C115.94,660.57 116.54,661.71 117.45,662.48 C114.43,665.99 113.85,674.47 113.83,674.80 C113.83,674.80 113.83,674.80 113.83,674.80 L113.83,674.80 C113.83,674.80 113.83,674.81 113.83,674.81 C113.83,674.81 113.83,674.83 113.83,674.83 L113.84,674.83 C113.92,675.57 116.68,676.16 120.09,676.16 C123.49,676.16 126.25,675.57 126.33,674.83 L126.35,674.83 L126.35,674.81 L126.35,674.80 C126.35,674.80 126.34,674.80 126.34,674.80 C126.32,674.47 125.74,665.99 122.71,662.48 L122.71,662.48 L122.71,662.48 Z M76.88,665.63 C74.38,665.43 71.79,667.89 69.13,667.89 C66.35,667.89 63.64,665.44 61.04,665.65 C45.56,666.95 33.97,671.87 33.51,677.80 C33.51,677.92 33.47,678.04 33.47,678.16 C33.47,685.24 49.43,690.99 69.13,690.99 C88.82,690.99 104.78,685.24 104.78,678.16 C104.78,678.03 104.75,677.92 104.74,677.80 C104.28,671.83 92.53,666.88 76.88,665.63 L76.88,665.63 L76.88,665.63 Z M33.73,643.27 L33.73,648.56 L33.73,671.55 C37.59,667.00 48.02,663.47 61.07,662.43 C63.66,662.23 66.36,664.68 69.13,664.68 C71.90,664.68 74.60,662.23 77.20,662.44 C90.71,663.52 101.45,667.26 104.95,672.05 L104.95,649.21 L104.95,643.26 C104.95,643.26 93.58,631.76 70.09,631.76 C46.61,631.77 33.73,643.27 33.73,643.27 L33.73,643.27 L33.73,643.27 Z M33.73,643.27" id="Shape"></path>
                    <path d="M121.60,776.19 C117.29,780.52 111.65,782.66 106.13,782.60 C105.34,782.64 102.64,782.81 99.46,783.52 C95.68,784.37 93.48,787.22 93.48,787.22 L58.49,821.90 C58.49,821.90 55.65,824.11 54.81,827.91 C54.07,831.22 53.92,834.03 53.89,834.69 C54.05,840.36 51.92,846.17 47.51,850.61 C42.46,855.67 35.62,857.75 29.25,856.80 L37.77,843.63 L37.31,838.08 L31.33,833.46 L24.88,833.46 L15.13,847.23 C10.58,839.35 11.87,828.85 18.86,821.83 C23.17,817.50 28.80,815.35 34.33,815.42 C35.12,815.38 37.82,815.21 41.00,814.50 C44.77,813.65 46.98,810.80 46.98,810.80 L81.97,776.12 C81.97,776.12 84.81,773.90 85.65,770.11 C86.39,766.80 86.54,763.99 86.57,763.32 C86.40,757.66 88.54,751.84 92.95,747.41 C98.00,742.35 104.84,740.27 111.21,741.22 L102.69,754.39 L103.15,759.94 L109.13,764.56 L115.58,764.56 L125.33,750.79 C129.88,758.67 128.59,769.17 121.60,776.19 L121.60,776.19 L121.60,776.19 Z M72.08,781.22 L60.85,792.49 C60.04,791.15 59.92,790.53 59.41,789.53 C56.04,782.99 47.90,773.35 47.90,773.35 C47.90,773.35 44.04,769.43 40.08,769.18 C36.11,768.94 31.80,772.78 31.79,774.27 C31.78,775.76 32.71,777.04 32.71,777.04 L25.80,783.52 L21.20,783.05 L11.99,773.81 L11.99,768.72 C11.99,768.72 18.44,764.96 20.74,763.17 C23.04,761.39 21.14,760.07 26.72,753.46 C32.97,746.07 36.71,742.57 49.74,741.44 C64.85,740.13 72.30,746.53 72.30,746.53 L69.08,746.53 L71.38,749.30 C71.38,749.30 65.38,746.33 59.87,746.06 C54.37,745.80 51.00,747.91 48.82,751.61 C47.03,754.66 49.42,758.62 52.51,762.71 C54.85,765.82 61.06,770.44 72.08,781.22 L72.08,781.22 L72.08,781.22 Z M113.73,828.37 C116.83,832.91 119.55,835.57 122.02,837.62 C124.50,839.67 125.24,840.86 125.24,840.86 C125.24,840.86 124.00,846.56 117.88,852.42 C111.76,858.27 106.83,855.65 106.83,855.65 L103.60,853.80 C103.60,853.80 103.41,844.70 101.77,840.86 C100.12,837.01 91.53,831.84 82.43,821.44 C79.58,818.18 76.60,814.49 73.74,810.75 L87.38,797.04 C103.22,814.20 110.83,824.10 113.73,828.37 L113.73,828.37 L113.73,828.37 Z M113.73,828.37" id="Shape"></path>
                    <path d="M48.34,1135.25 L56.68,1143.60 L86.89,1113.38 L94.04,1120.54 L111.25,1103.32 L107.03,1099.11 L94.04,1112.12 L86.89,1104.96 L56.68,1135.18 L48.34,1126.83 L29.14,1146.03 L33.35,1150.25 L48.34,1135.25 L48.34,1135.25 Z M129.99,1087.24 L129.99,1076 L9.99,1076 L9.99,1087.24 L18.09,1087.24 L18.09,1160.73 L9.99,1160.73 L9.99,1171.97 L129.99,1171.97 L129.99,1160.73 L122.10,1160.73 L122.10,1087.24 L129.99,1087.24 L129.99,1087.24 Z M119.07,1160.73 L21.12,1160.73 L21.12,1087.24 L119.07,1087.24 L119.07,1160.73 L119.07,1160.73 Z M119.07,1160.73" id="Shape"></path>
                    <path d="M49.89,1255.01 L55.62,1243.37 L43.96,1243.37 L48.44,1252.35 L49.89,1255.01 L49.89,1255.01 Z M91.55,1252.35 L96.03,1243.37 L84.37,1243.37 L90.10,1255.01 L91.55,1252.35 L91.55,1252.35 Z M68.69,1289.54 L69.11,1290.31 L69.11,1291.24 C69.41,1291.23 69.70,1291.20 70.00,1291.20 C70.29,1291.20 70.59,1291.23 70.88,1291.24 L70.88,1290.31 L71.30,1289.54 L88.08,1258.72 L70.00,1222 L51.91,1258.72 L68.69,1289.54 L68.69,1289.54 Z M134.00,1268.59 L106.56,1264.59 L87.33,1299.91 C90.06,1303.54 91.69,1308.04 91.69,1312.94 C91.69,1319.94 88.38,1326.14 83.26,1330.12 L109.55,1343.97 L101.99,1299.84 L134.00,1268.59 L134.00,1268.59 Z M48.30,1312.94 C48.30,1308.05 49.93,1303.54 52.66,1299.91 L33.43,1264.59 L5.99,1268.59 L37.99,1299.84 L30.44,1343.97 L56.73,1330.12 C51.61,1326.14 48.30,1319.94 48.30,1312.94 L48.30,1312.94 L48.30,1312.94 Z M65.66,1291.64 L65.66,1291.20 L39.62,1243.37 L35.28,1243.37 L35.28,1260.76 L55.09,1297.16 C57.98,1294.42 61.61,1292.46 65.66,1291.64 L65.66,1291.64 L65.66,1291.64 Z M74.34,1291.64 C78.38,1292.46 82.01,1294.42 84.90,1297.16 L104.71,1260.76 L104.71,1243.37 L100.37,1243.37 L74.34,1291.20 L74.34,1291.64 L74.34,1291.64 Z M70.00,1295.55 C60.41,1295.55 52.64,1303.33 52.64,1312.94 C52.64,1322.55 60.41,1330.33 70.00,1330.33 C79.58,1330.33 87.35,1322.55 87.35,1312.94 C87.35,1303.33 79.58,1295.55 70.00,1295.55 L70.00,1295.55 L70.00,1295.55 Z M70.00,1295.55" id="Shape"></path>
                    <path d="M99.07,1424.79 L106.02,1424.79 C106.02,1424.79 84.00,1396.10 83.04,1394.96 C82.07,1393.82 80.35,1393.67 79.19,1394.62 C78.03,1395.57 77.88,1397.26 78.84,1398.41 C79.81,1399.54 99.07,1424.79 99.07,1424.79 L99.07,1424.79 L99.07,1424.79 Z M61.19,1398.41 C62.15,1397.26 62.00,1395.57 60.84,1394.62 C59.68,1393.67 57.96,1393.82 56.99,1394.96 C56.03,1396.10 34.01,1424.79 34.01,1424.79 L40.96,1424.79 C40.96,1424.79 60.22,1399.54 61.19,1398.41 L61.19,1398.41 L61.19,1398.41 Z M120.17,1448.68 L18.27,1448.68 C15.60,1448.68 15.80,1448.68 15.30,1449.20 C14.81,1449.72 15.80,1452.31 15.80,1452.31 L27.67,1492.21 C27.67,1492.21 28.33,1495.26 30.64,1497.39 C33.85,1500.37 37.07,1499.98 37.07,1499.98 L101.30,1499.96 C101.30,1499.96 104.50,1500.35 107.71,1497.38 C110.00,1495.26 110.67,1492.23 110.67,1492.23 L122.50,1452.52 C122.50,1452.52 123.49,1449.94 122.99,1449.42 C122.26,1448.65 122.22,1448.68 120.17,1448.68 L120.17,1448.68 L120.17,1448.68 Z M39.75,1489.97 C36.03,1489.97 35.28,1486.97 35.28,1486.97 L27.85,1461.49 C27.85,1461.49 26.30,1457.00 31.32,1457.00 C35.50,1457.00 36.28,1461.49 36.28,1461.49 L43.22,1486.97 C43.22,1486.97 43.46,1489.97 39.75,1489.97 L39.75,1489.97 L39.75,1489.97 Z M54.62,1489.97 C50.91,1489.97 50.16,1486.97 50.16,1486.97 L47.18,1461.49 C47.18,1461.49 46.14,1457.00 51.15,1457.00 C55.33,1457.00 55.62,1461.49 55.62,1461.49 L58.10,1486.97 C58.09,1486.97 58.34,1489.97 54.62,1489.97 L54.62,1489.97 L54.62,1489.97 Z M73.96,1486.47 C73.96,1486.47 73.72,1489.97 70.00,1489.97 C66.27,1489.97 66.03,1486.47 66.03,1486.47 L65.53,1461.49 C65.53,1461.49 65.59,1457.00 70.00,1457.00 C74.40,1457.00 74.46,1461.49 74.46,1461.49 L73.96,1486.47 L73.96,1486.47 Z M92.73,1461.49 L89.77,1486.97 C89.77,1486.97 89.03,1489.97 85.34,1489.97 C81.66,1489.97 81.90,1486.97 81.90,1486.97 L84.36,1461.49 C84.36,1461.49 84.64,1457.00 88.79,1457.00 C93.77,1457.00 92.73,1461.49 92.73,1461.49 L92.73,1461.49 L92.73,1461.49 Z M111.93,1461.49 L104.54,1486.97 C104.54,1486.97 103.80,1489.97 100.11,1489.97 C96.43,1489.97 96.67,1486.97 96.67,1486.97 L103.56,1461.49 C103.56,1461.49 104.33,1457.00 108.48,1457.00 C113.46,1457.00 111.93,1461.49 111.93,1461.49 L111.93,1461.49 L111.93,1461.49 Z M126.43,1428.37 L13.57,1428.37 C11.59,1428.37 10.00,1429.98 10.00,1431.95 L10.00,1441.70 C10.00,1443.68 11.59,1445.28 13.57,1445.28 L126.42,1445.28 C128.40,1445.28 129.99,1443.68 129.99,1441.70 L129.99,1431.95 C130.00,1429.98 128.40,1428.37 126.43,1428.37 L126.43,1428.37 L126.43,1428.37 Z M126.43,1428.37" id="Shape"></path>
                    <path d="M69.99,1586.33 C69.51,1586.33 69.12,1586.72 69.12,1587.21 C69.12,1587.69 69.51,1588.08 69.99,1588.08 C77.19,1588.08 83.05,1593.98 83.05,1601.22 C83.05,1601.71 83.43,1602.10 83.92,1602.10 C84.39,1602.10 84.78,1601.71 84.78,1601.22 C84.78,1593.01 78.15,1586.33 69.99,1586.33 L69.99,1586.33 L69.99,1586.33 Z M69.99,1572.57 C54.31,1572.57 41.55,1585.42 41.55,1601.22 C41.55,1617.03 54.31,1629.88 69.99,1629.88 C85.68,1629.88 98.43,1617.02 98.43,1601.22 C98.43,1585.42 85.68,1572.57 69.99,1572.57 L69.99,1572.57 L69.99,1572.57 Z M69.99,1620.57 C59.39,1620.57 50.79,1611.91 50.79,1601.22 C50.79,1590.54 59.39,1581.88 69.99,1581.88 C80.60,1581.88 89.20,1590.54 89.20,1601.22 C89.20,1611.91 80.60,1620.57 69.99,1620.57 L69.99,1620.57 L69.99,1620.57 Z M119.39,1563.43 L87.64,1563.43 C85.75,1558.89 83.55,1551 82.34,1551 L57.65,1551 C56.44,1551 54.24,1558.89 52.35,1563.43 L20.60,1563.43 C14.91,1563.43 9.99,1568.77 9.99,1574.50 L9.99,1631.50 C9.99,1637.23 14.91,1641.63 20.60,1641.63 L62.94,1641.63 L51.92,1659.76 L54.97,1661.67 L68.23,1641.63 L68.23,1662.96 L71.76,1662.96 L71.76,1641.63 L84.44,1661.67 L87.49,1659.76 L77.05,1641.63 L119.39,1641.63 C125.08,1641.63 129.99,1637.23 129.99,1631.50 L129.99,1574.50 C129.99,1568.77 125.08,1563.43 119.39,1563.43 L119.39,1563.43 L119.39,1563.43 Z M40.00,1629.19 C38.23,1629.19 36.48,1627.42 36.48,1625.64 C36.48,1623.85 38.23,1622.08 40.00,1622.08 C41.78,1622.08 43.53,1623.85 43.53,1625.64 C43.53,1627.42 41.78,1629.19 40.00,1629.19 L40.00,1629.19 L40.00,1629.19 Z M69.99,1632.07 C53.11,1632.07 39.37,1618.24 39.37,1601.22 C39.37,1584.21 53.11,1570.37 69.99,1570.37 C86.88,1570.37 100.62,1584.21 100.62,1601.22 C100.62,1618.24 86.88,1632.07 69.99,1632.07 L69.99,1632.07 L69.99,1632.07 Z M119.39,1579.43 C119.39,1580.34 118.53,1581.21 117.63,1581.21 L105.28,1581.21 C104.37,1581.21 103.51,1580.34 103.51,1579.43 L103.51,1574.10 C103.51,1573.18 104.37,1572.32 105.28,1572.32 L117.63,1572.32 C118.53,1572.32 119.39,1573.18 119.39,1574.10 L119.39,1579.43 L119.39,1579.43 Z M119.39,1579.43" id="Shape"></path>
                    <path d="M17.28,1823.42 C15.77,1822.08 14.95,1821.97 14.53,1822.09 L9.99,1830.56 L18.99,1825.76 C18.93,1825.31 18.57,1824.57 17.28,1823.42 L17.28,1823.42 L17.28,1823.42 Z M23.72,1804.92 L15.40,1820.47 C15.92,1820.23 17.27,1819.85 18.93,1821.36 C20.56,1822.84 20.51,1824.37 20.39,1825.01 L35.69,1816.85 C35.70,1815.45 35.55,1810.60 32.71,1807.88 C29.88,1805.17 25.10,1804.93 23.72,1804.92 L23.72,1804.92 L23.72,1804.92 Z M90.49,1750.20 C85.72,1745.66 80.62,1746.74 80.61,1746.75 L71.72,1755.62 C71.73,1755.62 77.47,1755.08 81.60,1759.07 C85.73,1763.06 85.06,1768.93 85.06,1768.93 L84.96,1769.03 L93.45,1760.55 C93.45,1760.55 95.27,1754.74 90.49,1750.20 L90.49,1750.20 L90.49,1750.20 Z M129.99,1731.46 L127.03,1728.50 L123.08,1732.45 C123.08,1732.45 123.95,1732.75 123.08,1733.93 C122.32,1734.96 102.38,1756.56 97.49,1761.85 L96.30,1757.71 L126.54,1727.52 C126.54,1727.52 128.69,1721.29 124.07,1716.67 C119.44,1712.05 113.20,1714.21 113.20,1714.21 L108.76,1718.64 C108.77,1718.64 114.51,1718.11 118.64,1722.10 C122.77,1726.08 122.09,1731.96 122.09,1731.96 L120.12,1733.93 C120.12,1733.93 121.93,1728.11 117.15,1723.57 C112.38,1719.04 107.28,1720.12 107.28,1720.12 L90.33,1737.05 L85.05,1718.81 L77.16,1721.15 L75.67,1715.59 C75.17,1713.73 73.24,1712.62 71.36,1713.11 C69.49,1713.62 68.38,1715.54 68.88,1717.41 L70.42,1723.15 L66.53,1724.31 L65.13,1719.10 C64.63,1717.23 62.70,1716.12 60.83,1716.62 C58.96,1717.12 57.85,1719.04 58.35,1720.91 L59.80,1726.30 L55.90,1727.46 L54.60,1722.61 C54.09,1720.74 52.17,1719.63 50.30,1720.13 C48.42,1720.63 47.31,1722.55 47.81,1724.42 L49.17,1729.46 L45.27,1730.61 L44.06,1726.11 C43.56,1724.24 41.64,1723.13 39.76,1723.63 C37.89,1724.13 36.78,1726.06 37.28,1727.93 L38.54,1732.61 L34.64,1733.77 L33.53,1729.62 C33.03,1727.75 31.10,1726.64 29.23,1727.14 C27.35,1727.64 26.24,1729.56 26.74,1731.43 L27.91,1735.77 L20.09,1738.09 L35.36,1791.93 L25.31,1801.95 C26.81,1801.96 31.39,1802.26 35.18,1805.41 C38.97,1808.56 38.86,1813.55 38.71,1815.21 L41.24,1812.68 L46.43,1831.00 L111.39,1809.96 L98.51,1765.36 L129.50,1734.42 L129.99,1731.46 L129.99,1731.46 Z M71.82,1714.81 L76.82,1733.44 C75.88,1733.68 74.92,1733.13 74.67,1732.20 L70.58,1716.96 C70.33,1716.02 70.88,1715.06 71.82,1714.81 L71.82,1714.81 L71.82,1714.81 Z M61.29,1718.32 L66.29,1736.94 C65.35,1737.19 64.38,1736.64 64.13,1735.70 L60.04,1720.46 C59.79,1719.53 60.35,1718.57 61.29,1718.32 L61.29,1718.32 L61.29,1718.32 Z M50.75,1721.82 L55.75,1740.45 C54.81,1740.70 53.85,1740.14 53.60,1739.21 L49.51,1723.97 C49.26,1723.03 49.82,1722.07 50.75,1721.82 L50.75,1721.82 L50.75,1721.82 Z M40.22,1725.33 L45.22,1743.95 C44.28,1744.20 43.32,1743.65 43.07,1742.71 L38.98,1727.48 C38.73,1726.54 39.28,1725.58 40.22,1725.33 L40.22,1725.33 L40.22,1725.33 Z M29.68,1728.83 L34.68,1747.46 C33.74,1747.71 32.78,1747.15 32.53,1746.22 L28.44,1730.98 C28.19,1730.05 28.75,1729.08 29.68,1728.83 L29.68,1728.83 L29.68,1728.83 Z M103.72,1795.67 C103.13,1796.09 102.23,1796.54 100.85,1796.97 C95.55,1798.65 91.50,1796.23 91.51,1796.24 C91.51,1796.24 92.41,1800.35 91.32,1805.60 C90.57,1809.23 89.19,1811.40 88.06,1812.66 L48.75,1825.43 L44.25,1809.68 L83.08,1770.90 C83.09,1770.89 84.89,1765.08 80.12,1760.55 C75.34,1756.01 70.24,1757.10 70.24,1757.10 L70.99,1756.35 L38.33,1788.96 L24.60,1740.92 L28.94,1739.63 L30.83,1746.67 C31.34,1748.54 33.26,1749.65 35.13,1749.15 C37.01,1748.65 38.12,1746.73 37.62,1744.86 L35.68,1737.63 L39.57,1736.48 L41.37,1743.17 C41.87,1745.04 43.80,1746.15 45.67,1745.65 C47.54,1745.15 48.66,1743.22 48.15,1741.35 L46.31,1734.48 L50.20,1733.33 L51.90,1739.66 C52.40,1741.53 54.33,1742.64 56.20,1742.14 C58.08,1741.64 59.19,1739.72 58.69,1737.85 L56.94,1731.33 L60.83,1730.17 L62.44,1736.15 C62.94,1738.02 64.86,1739.13 66.74,1738.63 C68.61,1738.13 69.72,1736.21 69.22,1734.34 L67.57,1728.18 L71.46,1727.02 L72.97,1732.65 C73.47,1734.52 75.40,1735.63 77.28,1735.13 C79.15,1734.63 80.26,1732.70 79.76,1730.83 L78.20,1725.02 L82.73,1723.68 L87.46,1739.90 L82.09,1745.27 C82.11,1745.27 87.84,1744.73 91.97,1748.72 C96.10,1752.71 95.42,1758.58 95.42,1758.58 L93.47,1760.52 L94.16,1762.89 C93.25,1763.03 92.23,1763.45 91.47,1764.49 C88.45,1768.64 92.46,1771.40 92.46,1771.40 L95.70,1768.16 L103.72,1795.67 L103.72,1795.67 Z M103.72,1795.67" id="Shape"></path>
                    <path d="M84.89,1924.82 C97.12,1924.82 108.22,1928.29 116.38,1933.92 C118.82,1929.62 120.17,1924.95 120.17,1920.05 C120.17,1899.03 95.57,1882 65.24,1882 C34.91,1882 10.32,1899.03 10.32,1920.05 C10.32,1930.03 15.87,1939.10 24.94,1945.89 C24.38,1947.84 23.48,1950.36 22.13,1952.42 C19.52,1956.38 10.91,1956.96 10.91,1956.96 C10.91,1956.96 20.10,1959.92 29.22,1958.66 C33.01,1958.14 36.61,1956.97 39.53,1955.78 C40.68,1938.55 60.55,1924.82 84.89,1924.82 L84.89,1924.82 L84.89,1924.82 Z M119.63,1983.08 C118.08,1981 117.24,1977.84 116.89,1976.20 C123.12,1971.12 126.88,1964.54 126.88,1957.35 C126.88,1941.27 108.09,1928.23 84.89,1928.23 C61.71,1928.23 42.91,1941.27 42.91,1957.35 C42.91,1973.43 61.71,1986.47 84.89,1986.47 C91.39,1986.47 97.54,1985.45 103.03,1983.62 C104.24,1984.77 107.56,1987.5 113.14,1988.76 C120.68,1990.48 129.67,1988.2 129.67,1988.2 C129.67,1988.2 121.80,1986.01 119.63,1983.08 L119.63,1983.08 L119.63,1983.08 Z M119.63,1983.08" id="Shape"></path>
                    <path d="M106.37,2052.97 L99.62,2054.98 L97.58,2047.92 L79.43,2053.32 L77.05,2045.05 L70.30,2047.06 L68.27,2040 L9.99,2057.35 L10.17,2057.98 C10.16,2057.96 10.15,2057.94 10.15,2057.92 C12.08,2065.00 31.57,2136.42 33.62,2140.97 C35.78,2145.77 42.41,2146.04 42.41,2146.04 L60.20,2140.25 C61.57,2144.88 62.55,2148.05 62.94,2148.89 C65.09,2153.69 71.72,2153.95 71.72,2153.95 L129.99,2135.02 L106.37,2052.97 L106.37,2052.97 Z M20.91,2061.77 C16.02,2062.45 14.04,2059.90 14.04,2059.90 L66.19,2044.38 L67.23,2047.98 L20.91,2061.77 L20.91,2061.77 Z M95.50,2052.30 L96.55,2055.90 L50.23,2069.7 C45.34,2070.37 43.35,2067.82 43.35,2067.82 L95.50,2052.30 L95.50,2052.30 Z M64.56,2144.43 C62.62,2138.15 43.48,2071.33 43.48,2071.33 C43.48,2071.33 45.29,2072.65 47.10,2072.98 C48.60,2073.25 49.57,2073.14 49.57,2073.14 L70.49,2149.54 C70.49,2149.54 66.04,2149.21 64.56,2144.43 L64.56,2144.43 L64.56,2144.43 Z M52.36,2072.83 L104.51,2057.13 L126.17,2132.52 L74.02,2149.71 L52.36,2072.83 L52.36,2072.83 Z M96.03,2077.24 L70.87,2085.12 L72.25,2089.53 L97.40,2081.65 L96.03,2077.24 L96.03,2077.24 Z M73.23,2092.68 L74.61,2097.09 L99.76,2089.21 L98.38,2084.80 L73.23,2092.68 L73.23,2092.68 Z M73.23,2092.68" id="Shape"></path>
                    <path d="M129.99,2204 C127.46,2204.11 121.44,2205.64 116.13,2208.02 C109.40,2211.04 105.31,2214.60 105.31,2214.60 L93.16,2226.55 C92.15,2227.24 91.03,2228.05 89.81,2228.97 L78.34,2228.27 C81.62,2225.08 82.91,2222.89 82.91,2222.89 C82.91,2222.89 82.76,2220.14 80.12,2217.66 C77.48,2215.17 75.16,2214.33 75.16,2214.33 C75.16,2214.33 72.74,2214.62 66.42,2221.97 C65.41,2223.14 64.52,2224.38 63.73,2225.63 L25.45,2213.08 L18.75,2216.12 L36.76,2227.15 C34.54,2229.20 32.79,2231.86 33.18,2232.33 C33.52,2232.73 37.46,2231.03 39.70,2228.95 L49.54,2234.97 C46.91,2237.06 44.59,2240.41 45.03,2240.94 C45.37,2241.36 49.53,2239.55 51.73,2237.40 C51.86,2237.26 51.99,2237.13 52.12,2237.00 L57.40,2241.45 L61.36,2245.88 C61.07,2246.08 60.77,2246.29 60.49,2246.52 C57.80,2248.59 55.40,2252.06 55.85,2252.6 C56.19,2253.01 60.35,2251.20 62.55,2249.05 C62.85,2248.75 63.13,2248.45 63.40,2248.16 L66.30,2251.39 C64.84,2253.24 63.63,2254.97 62.63,2256.57 L42.45,2276.40 C42.45,2276.40 41.57,2277.28 40.10,2279.67 L9.99,2281.47 L9.99,2283.5 L33.66,2293.99 C32.93,2296.11 32.40,2297.92 32.06,2299.12 L32.14,2299.20 C32.14,2299.20 31.72,2299.87 32.14,2300.21 C32.56,2300.56 33.17,2300.21 33.17,2300.21 L33.20,2300.31 C34.43,2299.98 36.28,2299.45 38.47,2298.73 L49.14,2321.99 L51.20,2321.99 L53.02,2292.40 C55.46,2290.96 56.35,2290.09 56.35,2290.09 L76.52,2270.25 C78.14,2269.27 79.89,2268.08 81.77,2266.65 L85.07,2269.50 C84.77,2269.76 84.46,2270.04 84.16,2270.34 C81.97,2272.50 80.13,2276.58 80.55,2276.92 C81.10,2277.36 84.62,2275.00 86.73,2272.36 C86.96,2272.08 87.17,2271.79 87.38,2271.50 L91.88,2275.40 L96.41,2280.59 C96.27,2280.71 96.14,2280.84 96.00,2280.97 C93.82,2283.13 91.98,2287.22 92.40,2287.55 C92.94,2287.99 96.35,2285.71 98.47,2283.13 L104.59,2292.79 C102.48,2294.99 100.74,2298.87 101.15,2299.20 C101.63,2299.58 104.33,2297.86 106.42,2295.68 L117.63,2313.38 L120.73,2306.80 L107.97,2269.18 C109.24,2268.40 110.50,2267.52 111.69,2266.53 C119.16,2260.32 119.46,2257.94 119.46,2257.94 C119.46,2257.94 118.60,2255.66 116.07,2253.06 C113.55,2250.47 110.75,2250.33 110.75,2250.33 C110.75,2250.33 108.53,2251.59 105.28,2254.82 L104.57,2243.54 C105.51,2242.34 106.33,2241.24 107.03,2240.25 L119.18,2228.31 C119.18,2228.31 122.79,2224.29 125.87,2217.67 C128.30,2212.46 129.85,2206.54 129.96,2204.05 L64.55,2268.35 L129.99,2204 L129.99,2204 Z M129.99,2204" id="Shape"></path>
                    <g id="Group" transform="translate(19.49, 2372.00)">
                        <path d="M5.02,0.61 C2.24,0.61 0,2.85 0,5.63 L0,39.34 C0,42.12 2.22,44.36 5.02,44.36 L38.73,44.36 C41.50,44.36 43.75,42.13 43.75,39.34 L43.75,5.63 C43.75,2.86 41.52,0.61 38.73,0.61 L5.02,0.61 L5.02,0.61 Z M5.02,0.61" id="Shape"></path>
                        <path d="M61.27,0.61 C58.49,0.61 56.25,2.85 56.25,5.63 L56.25,39.34 C56.25,42.12 58.47,44.36 61.27,44.36 L94.98,44.36 C97.75,44.36 100.00,42.13 100.00,39.34 L100.00,5.63 C100.00,2.86 97.77,0.61 94.98,0.61 L61.27,0.61 L61.27,0.61 Z M61.27,0.61" id="Shape"></path>
                        <path d="M5.02,56.86 C2.24,56.86 0,59.10 0,61.88 L0,95.6 C0,98.37 2.22,100.61 5.02,100.61 L38.73,100.61 C41.50,100.61 43.75,98.38 43.75,95.6 L43.75,61.88 C43.75,59.11 41.52,56.86 38.73,56.86 L5.02,56.86 L5.02,56.86 Z M5.02,56.86" id="Shape"></path>
                        <path d="M61.27,56.86 C58.49,56.86 56.25,59.10 56.25,61.88 L56.25,95.6 C56.25,98.37 58.47,100.61 61.27,100.61 L94.98,100.61 C97.75,100.61 100.00,98.38 100.00,95.6 L100.00,61.88 C100.00,59.11 97.77,56.86 94.98,56.86 L61.27,56.86 L61.27,56.86 Z M61.27,56.86" id="Shape"></path>
                    </g>
                </g>
            </g>
        </g>
    </g>
</svg>