<?xml version="1.0" encoding="UTF-8" standalone="no"?>
<!-- Created with Inkscape (http://www.inkscape.org/) -->

<svg
   xmlns:dc="http://purl.org/dc/elements/1.1/"
   xmlns:cc="http://creativecommons.org/ns#"
   xmlns:rdf="http://www.w3.org/1999/02/22-rdf-syntax-ns#"
   xmlns:svg="http://www.w3.org/2000/svg"
   xmlns="http://www.w3.org/2000/svg"
   xmlns:xlink="http://www.w3.org/1999/xlink"
   version="1.1"
   width="180"
   height="1218.75"
   viewBox="0 0 180 1218.75"
   id="svg2">
  <title
     id="title4">Cat Icons</title>
  <metadata
     id="metadata176">
    <rdf:RDF>
      <cc:Work
         rdf:about="">
        <dc:format>image/svg+xml</dc:format>
        <dc:type
           rdf:resource="http://purl.org/dc/dcmitype/StillImage" />
        <dc:title>Cat Icons</dc:title>
      </cc:Work>
    </rdf:RDF>
  </metadata>
  <description
     id="description6" />
  <defs
     id="defs8">
    <g
       transform="matrix(0.43557711,0,0,0.43557711,-0.43523341,75.360158)"
       id="Iconography">
      <path
         d="m 115.43445,-170.57298 c -1.858,-0.446 -3.662,-0.705 -5.414,-0.827 -0.984,-1.155 -2.521,-1.797 -4.135,-1.565 l -16.616003,2.396 c -1.6,0.23 -2.886,1.266 -3.509,2.634 -5.97,0.672 -13.626,0.771 -15.761,0.787 -2.135,-0.016 -9.791,-0.115 -15.761,-0.787 -0.625,-1.369 -1.909,-2.404 -3.511,-2.634 l -16.615,-2.396 c -1.612,-0.232 -3.15,0.41 -4.137,1.565 -1.75,0.122 -3.552,0.38 -5.409,0.827 -10.353,2.49 -27.6049999,46.992 -12.653,70.641 14.954,23.648997 27.93,-0.787 36.808,-13.384 5.745,-8.153 17.072,-8.983 20.704,-9.031 l 0,0.011 c 0,0 0.205,-0.01 0.574,-0.013 0.369,0.003 0.574,0.013 0.574,0.013 l 0,-0.011 c 3.63,0.048 14.959,0.878 20.707,9.031 8.875003,12.598 21.851003,37.033997 36.806003,13.384 14.951,-23.649 -2.301,-68.151 -12.652,-70.641 l 0,0 0,0 z m -79.771003,44.808 c -8.851,0 -16.024,-7.165 -16.024,-16.003 0,-8.839 7.173,-16.003 16.024,-16.003 8.847,0 16.023,7.164 16.023,16.003 0,8.839 -7.176,16.003 -16.023,16.003 l 0,0 0,0 z m 68.672003,-32.006 c 2.95,0 5.343,2.388 5.343,5.335 0,2.947 -2.393,5.334 -5.343,5.334 -2.949,0 -5.341003,-2.387 -5.341003,-5.334 0,-2.947 2.392003,-5.335 5.341003,-5.335 l 0,0 0,0 z m -10.681003,21.337 c -2.951,0 -5.343,-2.387 -5.343,-5.334 0,-2.946 2.392,-5.334 5.343,-5.334 2.949,0 5.34,2.389 5.34,5.334 0,2.947 -2.391,5.334 -5.34,5.334 l 0,0 0,0 z m 10.681003,10.669 c -2.949,0 -5.341003,-2.387 -5.341003,-5.333 0,-2.947 2.392003,-5.335 5.341003,-5.335 2.95,0 5.343,2.388 5.343,5.335 0,2.946 -2.393,5.333 -5.343,5.333 l 0,0 0,0 z m 10.682,-10.669 c -2.947,0 -5.339,-2.389 -5.339,-5.334 0,-2.946 2.392,-5.334 5.339,-5.334 2.951,0 5.342,2.389 5.342,5.334 -10e-4,2.946 -2.391,5.334 -5.342,5.334 l 0,0 0,0 z m -79.354003,-17.572 c -5.727,0 -10.369,4.637 -10.369,10.357 0,5.717 4.642,10.353 10.369,10.353 5.725,0 10.368,-4.635 10.368,-10.353 -10e-4,-5.72 -4.643,-10.357 -10.368,-10.357 l 0,0 0,0 z m 0,0"
         id="Shape" />
      <path
         d="m 133.99966,29.86034 -6.996,-7.989 2.586,-10.286 -9.656,-4.465 -1.841,-10.446 -10.644,-0.165 -5.943,-8.796 -9.788004,4.156 -9.022,-5.623 -7.244,7.768 -10.543,-1.484 -3.445,10.031 -10.235,2.914 0.944,10.56 -7.855,6.561 15.778,0 c 4.124,-11.6 15.197,-19.923 28.254,-19.923 16.564004,0 29.995004,13.381 29.995004,29.888 0,10.485 -6.034,19.324 -14.234,24.659 -0.014,5.135 0.012,10.696 0,15.039 l 5.159,-7.681 10.617,-0.731 1.282,-10.527 9.403,-4.969 -3.131,-10.135 6.559,-8.356 0,0 z m -43.265004,51.422 c -0.044,0 -0.087,-0.006 -0.132,-0.007 -0.026,0 -0.052,0.004 -0.078,0.004 l 0.21,0.003 0,0 z m 9.612004,-49.349 c -0.622004,0 -0.767004,0.602 -0.767004,1.224 l 0,43.61 c 0,3.524 -4.013,7.519 -7.546,7.519 l -76.977,0 c -3.535,0 -6.0390001,-2.491 -6.0390001,-6.015 l 0,-48.122 c 0.011,-0.432 0.126,-1.503 1.5100001,-1.503 l 73.959,0 c 0.016,0 0.024,-0.004 0.036,-0.006 -0.017,0.051 -0.027,0.139 -0.019,0.292 l 0,46.146 c 0,3.376 2.725,6.127 6.098,6.197 3.398,-0.04 5.96,-2.618 5.96,-6.011 l 0,-43.611 c 0,-0.623 0.095,-1.226 -0.531,-1.226 -0.624,0 -1.132,0.505 -1.132,1.127 l 0,43.523 c 0,2.177 -2.187,3.193 -4.375,3.193 -2.186,0 -3.02,-0.832 -3.02,-3.007 l 0,-46.618 c -0.01,-1.13 -0.857,-3.008 -3.018,-3.008 l -73.958,0 c -2.7520001,0 -4.5080001,2.866 -4.5280001,4.512 l 0,48.122 c 0,4.769 4.2720001,9.023 9.0570001,9.023 l 76.978,0 c 4.781,0 9.056004,-5.759 9.056004,-10.527 l 0,-43.61 c -0.001,-0.623 -0.118,-1.224 -0.744,-1.224 l 0,0 0,0 z m -20.389004,1.224 -66.411,0 0,4.512 66.411,0 0,-4.512 0,0 z m 0,10.526 -19.62,0 0,3.008 19.62,0 c 0.159,0.001 0,-3.008 0,-3.008 l 0,0 0,0 z m 11.146,31.816 c 0.624,0 0.931,-1.117 0.931,-1.739 l 0,-43.611 c 0,-0.622 -0.307,-1.752 -0.931,-1.752 -0.624,0 -0.579,1.13 -0.579,1.752 l 0,43.611 c 0,0.622 -0.045,1.739 0.579,1.739 l 0,0 0,0 z m -50.776,-10.591 c -0.416,2.124 -5.265,1.173 -2.91,2.543 2.355,1.375 7.759,0.822 9.006,3.032 1.246,2.209 2.493,4.922 2.909,6.945 0.009,0.033 0.451,0.81 0.438,0.842 l 3.021,0 c 1.146,0 3.018,-1.866 3.018,-3.007 l 0,-28.572 c 0,-1.142 -1.872,-3.008 -3.018,-3.008 l -36.227,0 c -1.146,0 -3.018,1.867 -3.018,3.008 l 0,28.572 c 0,1.141 1.872,3.007 3.018,3.007 l 1.51,0 c 0.091,-2.357 0.333,-7.268 3.271,-8.342 4.157,-1.517 8.866,-2.897 9.005,-3.865 0.139,-0.962 -1.523,-4.275 -1.799,-7.725 -0.278,-3.452 2.217,-6.354 3.602,-7.182 1.384,-0.828 5.127,-0.774 6.928,0.925 1.802,1.698 2.474,1.977 2.138,6.116 -0.337,4.142 -0.476,4.588 -0.892,6.711 l 0,0 0,0 z m 39.63,-15.209 -19.62,0 0,3.007 19.62,0 c 0.159,0 0,-3.007 0,-3.007 l 0,0 0,0 z m 0,6.015 -19.62,0 0,3.007 19.62,0 c 0.159,-10e-4 0,-3.007 0,-3.007 l 0,0 0,0 z m 0,6.016 -19.62,0 0,3.007 19.62,0 c 0.159,0 0,-3.007 0,-3.007 l 0,0 0,0 z m 0,6.015 -19.62,0 0,3.007 19.62,0 c 0.159,0 0,-3.007 0,-3.007 l 0,0 0,0 z m 0,0"
         id="path19" />
      <path
         d="m 118.91616,161.17414 c -3.451,-0.459 -21.354004,-2.967 -33.152004,-6.849 -11.08,-3.645 -26.477,-10.926 -30.966,-13.085 -0.818,-0.393 -1.273,0.122 -1.273,0.852 l 0,2.116 0,27.668 0,56.62 c -3.448,-2.903 -8.535,-4.749 -14.223,-4.749 -10.385,0 -18.803,6.124 -18.803,13.676 0,7.556 8.418,13.68 18.803,13.68 10.383,0 18.801,-6.124 18.801,-13.68 l 0,-63.226 c 6.03,2.98 16.963,8.1 26.307,10.958 9.798,2.997 23.479004,5.458 30.514004,6.623 l 0,54.617 c -3.449,-2.903 -8.535,-4.75 -14.225,-4.75 -10.385004,0 -18.803004,6.123 -18.803004,13.68 0,7.551 8.418,13.675 18.803004,13.675 10.387,0 18.801,-6.124 18.801,-13.675 l 0,-62.823 0,-30.398 0,-0.24 c -10e-4,-0.242 -0.204,-0.639 -0.584,-0.69 l 0,0 0,0 z m 0,0"
         id="path21" />
      <path
         d="m 138.396,407.72344 c 1.414,-5.426 0.022,-10.086 -0.886,-12.308 -41.33,-10.958 -58.598,-9.703 -69.155,-6.774 l 35.312,15.618 0.137,0.06 30.685,5.48 c -0.886,0.209 0.108,-0.208 0,0 -1.219,2.384 -3.602,5.543 -9.184,4.047 -4.114,-1.102 -26.605,-7.008 -49.882,-13.365 -28.393,-7.754 -60.649,-16.25 -68.021,-18.226 -2.396,-0.643 -3.134,-2.478 -3.721,-4.251 -1.176,-3.542 2.354,-7.71 4.766,-11.739 0.817,-1.368 1.661,-1.723 2.323,-2.631 l 54.28,23.547 c 10.35,-3.414 26.604,-5.986 69.44,5.008 -3.616,-2.805 -10.978,-8.537 -19.309,-15.112 0.903,-1.78 0.553,-4.07 -1.031,-5.587 -0.607,-0.581 -1.352,-1 -2.149,-1.214 -1.506,-0.403 -3.059,-0.013 -4.172,0.974 -0.947,-0.756 -1.895,-1.512 -2.843,-2.271 1.069,-1.807 0.742,-4.253 -0.914,-5.838 -0.607,-0.582 -1.352,-1.002 -2.149,-1.217 -1.475,-0.395 -2.992,-0.022 -4.099,0.919 -0.943,-0.949 -1.84,-1.92 -2.694,-2.91 0.954,-1.791 0.611,-4.128 -0.994,-5.663 -0.609,-0.582 -1.354,-1.002 -2.151,-1.217 -0.716,-0.191 -1.438,-0.182 -2.127,-0.043 -1.108,-1.604 -2.171,-3.198 -3.174,-4.731 -4.201,-6.407 -7.827,-11.941 -12.921,-13.387 -2.997,-0.803 -7.153,1.939 -9.751,4.827 -2.262,2.515 -3.382,5.037 -3.253,7.15 -3.483,0.704 -7.441,0.748 -11.643,-0.379 -10.912,-2.923 -13.623,-7.437 -17.403,-14.178 -1.966,-3.51 -5.288,-3.504 -6.454,-2.585 -9.152,7.203 -15.591,22.886 -17.541,31.585 -2.054,2.826 -8.397,12.285 -6.299,18.611 0.844,2.547 1.996,4.517 5.168,5.367 7.368,1.975 39.632,10.473 68.021,18.226 23.279,6.359 46.068,12.405 50.188,13.509 8.097,2.169 12.223,-4.305 13.276,-8.032 l 0.355,-1.265 -0.031,-0.005 0,0 z m -27.003,-35.171 c 0.42,0.113 0.812,0.335 1.138,0.644 0.974,0.934 1.087,2.409 0.254,3.288 l -3.163,3.327 c -0.806,0.848 -2.327,0.812 -3.279,-0.101 -0.977,-0.935 -1.091,-2.411 -0.257,-3.29 l 3.163,-3.326 c 0.531,-0.556 1.331,-0.759 2.144,-0.542 l 0,0 0,0 z m -10.081,-8.352 c 0.42,0.112 0.815,0.335 1.14,0.647 0.974,0.933 1.087,2.409 0.254,3.287 l -3.163,3.325 c -0.808,0.849 -2.332,0.812 -3.281,-0.096 -0.975,-0.937 -1.089,-2.412 -0.257,-3.29 l 3.165,-3.326 c 0.53,-0.56 1.332,-0.763 2.142,-0.547 l 0,0 0,0 z m -8.796,-8.223 c 0.974,0.931 1.087,2.404 0.252,3.286 l -3.161,3.325 c -0.809,0.848 -2.332,0.812 -3.282,-0.098 -0.976,-0.935 -1.091,-2.411 -0.256,-3.29 l 3.163,-3.328 c 0.532,-0.558 1.331,-0.761 2.145,-0.543 0.418,0.114 0.811,0.337 1.139,0.648 l 0,0 0,0 z m -26.763,-14.682 c 2.482,-2.761 5.734,-4.574 7.421,-4.121 4.201,1.191 7.604,6.386 11.547,12.403 0.957,1.458 1.973,2.976 3.024,4.504 -0.066,0.061 -0.148,0.102 -0.21,0.167 l -0.28,0.294 c -5.264,-4.403 -9.36,-8 -11.057,-9.877 -2.149,-2.375 -5.312,-2.224 -8.261,-0.481 -1.402,0.832 -3.046,1.541 -4.839,2.094 0.12,-1.396 1.067,-3.217 2.655,-4.983 l 0,0 0,0 z m -6.847,17.367 c 7.554,-0.131 10.959,0.712 14.316,3.518 3.431,2.87 4.504,7.175 2.832,10.704 -1.852,3.911 -6.671,6.507 -12.901,4.887 -17.11,-4.447 -13.396,-15.613 -13.396,-15.613 0,0 4.056,8.836 11.547,9.486 3.055,0.267 6.074,-2.792 3.808,-5.838 -2.288,-3.081 -10.961,-2.494 -15.062,-8.013 -2.443,-3.29 -1.262,-7.474 -1.374,-7.59 -0.115,-0.118 2.478,8.595 10.23,8.459 l 0,0 0,0 z m 0,0"
         id="path23" />
      <path
         d="m 120.96716,874.20589 c -2.914,0 -5.594,0.968 -7.763,2.583 -0.037,-0.87 -0.26,-1.725 -0.73,-2.544 -3.525,-6.515 -19.304004,-11.726 -39.723004,-13.321 2.496,-2.895 5.879,-8.211 5.879,-15.785 0,-11.994 -8.492,-13.052 -8.492,-25.576 0,0 -6.143,15.346 0,24.341 4.25,6.227 2.615,13.208 1.208,16.919 -1.011,-0.07 -2.022,-0.135 -3.053,-0.187 0.167,-1.374 0.287,-2.787 0.287,-4.284 0,-17.253 -12.218,-18.775 -12.218,-36.79 0,0 -8.834,22.075 0,35.015 1.307,1.915 2.191,3.879 2.81,5.837 -1.48,0.004 -2.952,0.021 -4.401,0.061 -2.287,-6.395 -7.404,-9.222 -7.404,-18.954 0,0 -4.264,10.714 -2.086,19.486 -19.841,1.702 -35.063,6.848 -38.5210001,13.236 -0.515,0.892 -0.76,1.822 -0.76,2.771 l 0,6.168 c 0,29.60701 24.0100001,53.61701 53.6160001,53.61701 25.086,0 46.145004,-17.237 51.994004,-40.507 2.368,2.445 5.683,3.972 9.356,3.972 7.198,0 13.033,-5.833 13.033,-13.03001 0.001,-7.195 -5.834,-13.028 -13.032,-13.028 l 0,0 0,0 z m -13.09,4.847 c -0.015,0.003 -0.033,0.007 -0.048,0.013 -0.026,0.105 -0.041,0.213 -0.074,0.317 -2.139,7.655 -22.891004,13.66401 -48.164004,13.66401 -25.273,0 -46.029,-6.00901 -48.167,-13.66401 -0.011,-0.026 -0.011,-0.052 -0.019,-0.076 -0.015,-0.006 -0.034,-0.01 -0.048,-0.013 0,-0.033 0.015,-0.067 0.022,-0.1 -0.008,-0.033 -0.019,-0.067 -0.022,-0.1 0.015,-0.005 0.033,-0.011 0.048,-0.015 0.022,-0.108 0.041,-0.213 0.074,-0.315 1.775,-6.354 16.375,-11.57 35.737,-13.161 0.053,0.085 0.092,0.178 0.15,0.262 6.142,8.996 0,19.579 0,19.579 0,0 8.496,-6.35 8.496,-18.345 0,-0.688 -0.035,-1.33 -0.088,-1.95 1.277,-0.032 2.565,-0.051 3.869,-0.051 0.166,0 0.331,0.003 0.498,0.004 0.939,9.46 -3.779,17.639 -3.779,17.639 0,0 8.014,-5.998 11.06,-17.446 21.638,1.085 38.474004,6.615 40.389004,13.469 0.011,0.026 0.011,0.05 0.019,0.074 0.015,0.005 0.033,0.009 0.048,0.015 -0.003,0.031 -0.015,0.066 -0.021,0.1 0.005,0.031 0.017,0.063 0.02,0.1 l 0,0 0,0 z m 13.09,15.82701 c -4.219,0 -7.644,-3.421 -7.644,-7.64401 0,-4.222 3.425,-7.644 7.644,-7.644 4.222,0 7.644,3.421 7.644,7.644 -0.001,4.22301 -3.423,7.64401 -7.644,7.64401 l 0,0 0,0 z m 0,0"
         id="path25" />
      <path
         d="m 69.999656,497.61999 -64.0000001,31.789 23.6200001,11.733 0,-6.195 c 0,0 14.37,-12.828 40.567,-12.828 26.197,0 38.875004,12.828 38.875004,12.828 l 0,6.851 9.72,-4.83 0,-15.117 -48.782004,-24.231 0,0 z m 51.318004,25.49 0,12.598 12.682,-6.299 -12.682,-6.299 0,0 z m 1.402,33.995 c 0.919,-0.77 1.517,-1.917 1.517,-3.215 0,-1.879 -1.231,-3.451 -2.918,-3.983 l 0,-14.198 -2.536,1.259 0,12.964 c -1.645,0.557 -2.84,2.109 -2.84,3.959 0,1.299 0.599,2.446 1.516,3.215 -3.023,3.509 -3.603,11.993 -3.625,12.317 0,10e-4 -0.002,0.004 -0.002,0.004 l 0,10e-4 c 0,10e-4 0.002,0.002 0.002,0.003 0,0.003 -0.002,0.027 -0.002,0.027 l 0.016,0 c 0.077,0.737 2.836,1.331 6.244,1.331 3.407,0 6.166,-0.594 6.243,-1.331 l 0.016,0 0,-0.027 0,-0.003 c 0,0 -0.003,-0.004 -0.003,-0.005 -0.021,-0.325 -0.6,-8.809 -3.628,-12.318 l 0,0 0,0 z m -45.834004,3.148 c -2.498,-0.199 -5.093,2.261 -7.755,2.261 -2.78,0 -5.486,-2.452 -8.081,-2.235 -15.483,1.292 -27.07,6.216 -27.53,12.142 -0.009,0.121 -0.045,0.239 -0.045,0.36 0,7.087 15.965,12.832 35.656,12.832 19.692,0 35.654004,-5.745 35.654004,-12.832 0,-0.122 -0.033,-0.24 -0.042,-0.36 -0.462,-5.966 -12.211004,-10.918 -27.857004,-12.168 l 0,0 0,0 z m -43.155,-22.363 0,5.293 0,22.995 c 3.864,-4.555 14.293,-8.079 27.343,-9.121 2.593,-0.205 5.289,2.25 8.057,2.25 2.772,0 5.472,-2.455 8.071,-2.247 13.518,1.08 24.250004,4.822 27.749004,9.618 l 0,-22.839 0,-5.95 c 0,0 -11.364004,-11.5 -34.852004,-11.5 -23.485,10e-4 -36.368,11.501 -36.368,11.501 l 0,0 0,0 z m 0,0"
         id="path27" />
      <path
         d="m 121.60343,687.07486 c -4.313,4.333 -9.944,6.479 -15.469,6.418 -0.787,0.035 -3.493,0.203 -6.668002,0.915 -3.778,0.849 -5.984,3.7 -5.984,3.7 l -34.986,34.679 c 0,0 -2.839,2.216 -3.683,6.011 -0.739,3.309 -0.889,6.118 -0.916,6.785 0.162,5.667 -1.976,11.481 -6.387,15.912 -5.043,5.064 -11.888,7.143 -18.254,6.195 l 8.52,-13.17 -0.459,-5.549 -5.982,-4.624 -6.447,0 -9.752,13.774 c -4.547,-7.879 -3.261,-18.378 3.729,-25.399 4.312,-4.332 9.944,-6.478 15.467,-6.417 0.79,-0.037 3.496,-0.203 6.668,-0.917 3.778,-0.848 5.987,-3.699 5.987,-3.699 l 34.985,-34.679 c 0,0 2.839,-2.217 3.684,-6.011 0.735,-3.309 0.889,-6.118 0.915,-6.785 -0.164,-5.668 1.977,-11.482 6.387,-15.912 5.043,-5.064 11.888002,-7.143 18.255002,-6.195 l -8.523,13.17 0.46,5.549 5.985,4.624 6.446,0 9.752,-13.774 c 4.548,7.879 3.261,18.38 -3.73,25.399 l 0,0 0,0 z m -49.519002,5.034 -11.227,11.273 c -0.813,-1.341 -0.929,-1.966 -1.441,-2.962 -3.369,-6.543 -11.51,-16.185 -11.51,-16.185 0,0 -3.859,-3.916 -7.826,-4.162 -3.968,-0.246 -8.277,3.599 -8.286,5.086 -0.011,1.488 0.92,2.774 0.92,2.774 l -6.906,6.473 -4.603,-0.462 -9.206,-9.245 0,-5.087 c 0,0 6.449,-3.763 8.746,-5.548 2.297,-1.785 0.402,-3.1 5.984,-9.711 6.241,-7.39 9.99,-10.893 23.019,-12.022 15.106,-1.309 22.557,5.087 22.557,5.087 l -3.221,0 2.301,2.774 c 0,0 -6.004,-2.975 -11.509,-3.238 -5.505,-0.262 -8.867,1.844 -11.05,5.549 -1.791,3.043 0.602,7.01 3.684,11.097 2.347,3.111 8.551,7.731 19.574,18.509 l 0,0 0,0 z m 41.655002,47.153 c 3.093,4.539 5.811,7.197 8.286,9.248 2.477,2.049 3.224,3.236 3.224,3.236 0,0 -1.247,5.706 -7.366,11.561 -6.12,5.854 -11.05,3.236 -11.05,3.236 l -3.224,-1.849 c 0,0 -0.199,-9.105 -1.839,-12.948 -1.643,-3.842 -10.231002,-9.012 -19.336002,-19.42 -2.845,-3.252 -5.83,-6.946 -8.692,-10.691 l 13.643,-13.703 c 15.838002,17.157 23.445002,27.061 26.354002,31.33 l 0,0 0,0 z m 0,0"
         id="path29" />
      <path
         d="m 48.340656,1057.7309 8.348,8.35 30.204,-30.221 7.151,7.159 17.207004,-17.218 -4.211,-4.213 -12.996004,13.005 -7.151,-7.159 -30.204,30.222 -8.348,-8.35 -19.192,19.205 4.211,4.213 14.981,-14.993 0,0 z m 81.659004,-48.016 0,-11.242 -120.0000041,0 0,11.242 8.0950001,0 0,73.495 -8.0950001,0 0,11.242 120.0000041,0 0,-11.242 -7.895,0 0,-73.495 7.895,0 0,0 z m -10.921,73.495 -97.958004,0 0,-73.495 97.958004,0 0,73.495 0,0 z m 0,0"
         id="path31" />
      <path
         d="m 49.890156,1186.7659 5.734,-11.639 -11.664,0 4.488,8.986 1.442,2.653 0,0 z m 41.662,-2.652 4.486,-8.986 -11.662,0 5.732,11.639 1.444,-2.653 0,0 z m -22.861,37.188 0.422,0.773 0,0.929 c 0.297,-0.013 0.588,-0.044 0.887,-0.044 0.299,0 0.59,0.031 0.887,0.044 l 0,-0.929 0.422,-0.773 16.779,-30.824 -18.088,-36.722 -18.088,36.724 16.779,30.822 0,0 z m 65.309004,-20.955 -27.438,-3.995 -19.224004,35.316 c 2.726,3.634 4.359,8.135 4.359,13.032 0,6.996 -3.312,13.204 -8.437,17.182 l 26.292004,13.85 -7.554,-44.133 32.002,-31.252 0,0 z m -85.698004,44.354 c 0,-4.895 1.636,-9.398 4.359,-13.032 l -19.224,-35.316 -27.4380001,3.995 32.0000001,31.252 -7.554,44.133 26.292,-13.85 c -5.124,-3.978 -8.435,-10.186 -8.435,-17.182 l 0,0 0,0 z m 17.358,-21.305 0,-0.438 -26.037,-47.831 -4.342,0 0,17.394 19.816,36.403 c 2.89,-2.739 6.515,-4.706 10.563,-5.528 l 0,0 0,0 z m 8.68,0 c 4.048,0.822 7.673,2.787 10.561,5.526 l 19.816004,-36.401 0,-17.394 -4.34,0 -26.037004,47.831 0,0.438 0,0 z m -4.34,3.91 c -9.588,0 -17.358,7.786 -17.358,17.395 0,9.605 7.771,17.392 17.358,17.392 9.587,0 17.358,-7.786 17.358,-17.392 0,-9.608 -7.77,-17.395 -17.358,-17.395 l 0,0 0,0 z m 0,0"
         id="path33" />
      <path
         d="m 99.070156,1360.8219 6.953004,0 c 0,0 -22.014004,-28.688 -22.979004,-29.829 -0.965,-1.141 -2.688,-1.293 -3.849,-0.343 -1.156,0.951 -1.313,2.646 -0.348,3.787 0.967,1.139 20.223,26.385 20.223,26.385 l 0,0 0,0 z m -37.878,-26.385 c 0.966,-1.141 0.809,-2.836 -0.35,-3.787 -1.158,-0.95 -2.879,-0.798 -3.847,0.343 -0.964,1.141 -22.981,29.829 -22.981,29.829 l 6.952,0 c 0.001,0 19.26,-25.246 20.226,-26.385 l 0,0 0,0 z m 58.979004,50.275 -101.897004,0 c -2.674,0 -2.473,0 -2.967,0.517 -0.495,0.518 0.494,3.108 0.494,3.108 l 11.871,39.901 c 0,0 0.667,3.049 2.968,5.181 3.215,2.979 6.431,2.591 6.431,2.591 l 64.234004,-0.016 c 0,0 3.203,0.387 6.409,-2.578 2.293,-2.122 2.958,-5.157 2.958,-5.157 l 11.835,-39.709 c 0,0 0.985,-2.58 0.492,-3.096 -0.739,-0.773 -0.776,-0.742 -2.828,-0.742 l 0,0 0,0 z m -80.419004,41.286 c -3.713,0 -4.463,-2.998 -4.463,-2.998 l -7.437,-25.476 c 0,0 -1.545,-4.495 3.471,-4.495 4.18,0 4.958,4.495 4.958,4.495 l 6.942,25.476 c -0.001,0 0.242,2.998 -3.471,2.998 l 0,0 0,0 z m 14.876,0 c -3.714,0 -4.463,-2.998 -4.463,-2.998 l -2.976,-25.476 c 0,0 -1.048,-4.495 3.969,-4.495 4.181,0 4.464,4.495 4.464,4.495 l 2.478,25.476 c -10e-4,0 0.242,2.998 -3.472,2.998 l 0,0 0,0 z m 19.338,-3.498 c 0,0 -0.243,3.498 -3.966,3.498 -3.723,0 -3.966,-3.498 -3.966,-3.498 l -0.496,-24.976 c 0,0 0.056,-4.495 4.462,-4.495 4.406,0 4.462,4.495 4.462,4.495 l -0.496,24.976 0,0 z m 18.766,-24.976 -2.953,25.476 c 0,0 -0.743,2.998 -4.431,2.998 -3.688,0 -3.446,-2.998 -3.446,-2.998 l 2.46,-25.476 c 0,0 0.283,-4.495 4.433,-4.495 4.979,0 3.937,4.495 3.937,4.495 l 0,0 0,0 z m 19.201004,0 -7.384,25.476 c 0,0 -0.743,2.998 -4.431,2.998 -3.688004,0 -3.446004,-2.998 -3.446004,-2.998 l 6.891004,-25.476 c 0,0 0.774,-4.495 4.924,-4.495 4.981,0 3.446,4.495 3.446,4.495 l 0,0 0,0 z m 14.497,-33.118 -112.860004,0 c -1.972,0 -3.57,1.603 -3.57,3.579 l 0,9.75 c 0,1.979 1.599,3.581 3.57,3.581 l 112.859004,0 c 1.972,0 3.57,-1.603 3.57,-3.581 l 0,-9.75 c 0.001,-1.977 -1.598,-3.579 -3.569,-3.579 l 0,0 0,0 z m 0,0"
         id="path35" />
      <path
         d="m 69.999656,1530.66 c -0.481,0 -0.871,0.394 -0.871,0.878 0,0.481 0.39,0.875 0.871,0.875 7.196,0 13.051,5.895 13.051,13.144 0,0.485 0.389,0.877 0.871,0.877 0.477,0 0.868,-0.392 0.868,-0.877 0,-8.213 -6.634,-14.897 -14.79,-14.897 l 0,0 0,0 z m -0.002,-13.756 c -15.684,0 -28.44,12.853 -28.44,28.652 0,15.802 12.756,28.653 28.44,28.653 15.683,0 28.441,-12.852 28.441,-28.653 0.001,-15.799 -12.758,-28.652 -28.441,-28.652 l 0,0 0,0 z m 0.002,47.999 c -10.606,0 -19.201,-8.663 -19.201,-19.347 0,-10.682 8.595,-19.343 19.201,-19.343 10.602,0 19.204,8.661 19.204,19.343 0.001,10.684 -8.602,19.347 -19.204,19.347 l 0,0 0,0 z m 49.396004,-57.137 -31.755004,0 c -1.885,-4.544 -4.088,-12.438 -5.293,-12.438 l -24.697,0 c -1.203,0 -3.408,7.895 -5.291,12.438 l -31.756,0 c -5.687,0 -10.6040001,5.34 -10.6040001,11.07 l 0,56.994 c 0,5.733 4.9170001,10.134 10.6040001,10.134 l 42.339,0 -11.018,18.129 3.055,1.908 13.256,-20.037 0,21.325 3.527,0 0,-21.325 12.682,20.037 3.055,-1.908 -10.443,-18.129 42.339004,0 c 5.691,0 10.604,-4.4 10.604,-10.134 l 0,-56.994 c 0,-5.731 -4.913,-11.07 -10.604,-11.07 l 0,0 0,0 z m -79.387004,65.756 c -1.772,0 -3.527,-1.768 -3.527,-3.553 0,-1.789 1.755,-3.555 3.527,-3.555 1.777,0 3.53,1.766 3.53,3.555 0,1.786 -1.753,3.553 -3.53,3.553 l 0,0 0,0 z m 29.989,2.885 c -16.886,0 -30.621,-13.838 -30.621,-30.851 0,-17.009 13.735,-30.849 30.621,-30.849 16.885,0 30.623004,13.84 30.623004,30.849 0.001,17.013 -13.738004,30.851 -30.623004,30.851 l 0,0 0,0 z m 49.398004,-52.644 c 0,0.908 -0.857,1.776 -1.764,1.776 l -12.35,0 c -0.904,0 -1.764,-0.868 -1.764,-1.776 l 0,-5.333 c 0,-0.915 0.859,-1.777 1.764,-1.777 l 12.35,0 c 0.906,0 1.764,0.862 1.764,1.777 l 0,5.333 0,0 z m 0,0"
         id="path37" />
      <path
         d="m 17.286656,1771.0177 c -1.509,-1.347 -2.333,-1.457 -2.749,-1.3371 l -4.5380001,8.4761 8.9920001,-4.799 c -0.052,-0.449 -0.413,-1.189 -1.705,-2.34 l 0,0 0,0 z m 6.441,-18.503 -8.326,15.552 c 0.527,-0.246 1.873,-0.618 3.532,0.886 1.635,1.48 1.582,3.009 1.463,3.655 l 15.294,-8.162 c 0.018,-1.399 -0.135,-6.255 -2.973,-8.97 -2.837,-2.713 -7.616,-2.95 -8.99,-2.961 l 0,0 0,0 z m 66.765,-54.723 c -4.771,-4.535 -9.865,-3.453 -9.874,-3.451 l -8.889,8.874 c 0.003,0 5.742,-0.536 9.876,3.451 4.132,3.991 3.455,9.862 3.455,9.862 l -0.092,0.092 8.488,-8.475 c 0,-10e-4 1.814,-5.814 -2.964,-10.353 l 0,0 0,0 z m 39.507004,-18.735 -2.963,-2.958 -3.951,3.944 c 0,0 0.867,0.301 0,1.479 -0.762,1.0339 -20.703,22.634 -25.590004,27.923 l -1.195,-4.1391 30.241004,-30.192 c 0,0 2.157,-6.2289 -2.47,-10.8469 -4.627,-4.62 -10.863,-2.465 -10.863,-2.465 l -4.443,4.4369 c 0.009,-9e-4 5.747,-0.5359 9.875,3.4511 4.134,3.988 3.457,9.86 3.457,9.86 l -1.976,1.972 c 0,0 1.814,-5.814 -2.963,-10.353 -4.772,-4.537 -9.87,-3.452 -9.875,-3.451 l -16.953004,16.926 -5.271,-18.241 -7.896,2.343 -1.491,-5.558 c -0.502,-1.868 -2.428,-2.9781 -4.303,-2.479 -1.872,0.502 -2.984,2.4239 -2.482,4.294 l 1.541,5.741 -3.896,1.156 -1.397,-5.206 c -0.5,-1.87 -2.428,-2.98 -4.298,-2.479 -1.875,0.502 -2.986,2.423 -2.484,4.2929 l 1.447,5.3911 -3.894,1.155 -1.303,-4.854 c -0.504,-1.87 -2.428,-2.979 -4.302,-2.479 -1.875,0.5 -2.985,2.423 -2.483,4.294 l 1.353,5.038 -3.895,1.156 -1.208,-4.503 c -0.5,-1.8711 -2.428,-2.98 -4.301,-2.479 -1.872,0.5 -2.986,2.423 -2.482,4.293 l 1.258,4.688 -3.896,1.1559 -1.114,-4.1519 c -0.502,-1.87 -2.427,-2.98 -4.3,-2.479 -1.875,0.5 -2.984,2.424 -2.485,4.294 l 1.164,4.3369 -7.815,2.3191 15.263,53.842 -10.041,10.024 c 1.492,0.01 6.08,0.31 9.866,3.4589 3.785,3.1501 3.679,8.1371 3.525,9.7931 l 2.531,-2.526 5.192,18.317 64.964004,-21.0361 -12.886004,-44.5999 30.992004,-30.943 0.496,-2.956 0,0 z m -58.172004,-16.654 4.998,18.627 c -0.938,0.249 -1.899,-0.306 -2.151,-1.24 l -4.09,-15.239 c -0.251,-0.936 0.305,-1.898 1.243,-2.148 l 0,0 0,0 z m -10.536,3.507 4.999,18.626 c -0.938,0.25 -1.901,-0.305 -2.151,-1.24 l -4.09,-15.239 c -0.25,-0.935 0.305,-1.897 1.242,-2.147 l 0,0 0,0 z m -10.534,3.507 4.996,18.625 c -0.935,0.25 -1.896,-0.305 -2.148,-1.24 l -4.09,-15.238 c -0.252,-0.936 0.305,-1.898 1.242,-2.147 l 0,0 0,0 z m -10.537,3.506 5.001,18.626 c -0.938,0.25 -1.901,-0.306 -2.15,-1.24 l -4.091,-15.239 c -0.249,-0.9371 0.306,-1.897 1.24,-2.147 l 0,0 0,0 z m -10.534,3.503 4.999,18.626 c -0.938,0.252 -1.899,-0.303 -2.149,-1.237 l -4.09,-15.239 c -0.252,-0.936 0.305,-1.898 1.24,-2.15 l 0,0 0,0 z m 74.040004,66.843 c -0.591,0.419 -1.494,0.861 -2.867,1.296 -5.302004,1.679 -9.354004,-0.74 -9.348004,-0.727 0,0 0.906,4.104 -0.184,9.36 -0.752,3.624 -2.131,5.798 -3.267,7.052 l -39.309,12.772 -4.501,-15.752 38.835,-38.772 c 0.005,-0.018 1.805,-5.819 -2.963,-10.354 -4.777,-4.539 -9.876,-3.451 -9.876,-3.451 l 0.745,-0.744 -32.661,32.608 -13.728,-48.041 4.345,-1.289 1.89,7.04 c 0.504,1.87 2.427,2.979 4.302,2.478 1.875,-0.499 2.984,-2.423 2.482,-4.293 l -1.938,-7.2231 3.896,-1.1549 1.794,6.687 c 0.5,1.87 2.428,2.98 4.3,2.479 1.873,-0.5 2.987,-2.423 2.483,-4.294 l -1.844,-6.869 3.895,-1.155 1.7,6.333 c 0.502,1.871 2.428,2.98 4.301,2.48 1.874,-0.501 2.984,-2.425 2.484,-4.295 l -1.749,-6.517 3.894,-1.155 1.605,5.98 c 0.502,1.87 2.427,2.98 4.302,2.48 1.87,-0.502 2.984,-2.425 2.48,-4.295 l -1.654,-6.163 3.896,-1.1561 1.511,5.6281 c 0.502,1.8719 2.428,2.982 4.303,2.48 1.872,-0.502 2.984,-2.424 2.482,-4.294 l -1.56,-5.812 4.537,-1.346 4.729,16.228 -5.372,5.363 c 0.014,-10e-4 5.748,-0.532 9.875,3.451 4.135,3.99 3.458,9.859 3.458,9.859 l -1.95,1.948 0.689,2.366 c -0.912,0.14 -1.929,0.559 -2.69,1.604 -3.02,4.141 0.988,6.901 0.988,6.901 l 3.239,-3.234 8.021004,27.513 0,0 z m 0,0"
         id="path39" />
      <path
         d="m 84.899156,1876.9976 c 12.229,0 23.321004,3.469 31.487004,9.1 2.434,-4.301 3.784,-8.978 3.784,-13.875 0,-21.017 -24.592004,-38.053 -54.926004,-38.053 -30.333,0 -54.922,17.036 -54.922,38.053 0,9.978 5.551,19.054 14.62,25.839 -0.556,1.951 -1.457,4.471 -2.809,6.53 -2.604,3.967 -11.22,4.545 -11.22,4.545 0,0 9.19,2.955 18.307,1.702 3.796,-0.521 7.398,-1.691 10.312,-2.88 1.15,-17.238 21.019,-30.961 45.367,-30.961 l 0,0 0,0 z m 34.736004,58.26 c -1.552,-2.088 -2.392,-5.245 -2.745,-6.881 6.23,-5.08 9.997,-11.659 9.997,-18.852 0,-16.081 -18.797,-29.12 -41.988004,-29.12 -23.188,0 -41.985,13.039 -41.985,29.12 0,16.083 18.797,29.121 41.985,29.121 6.496,0 12.646,-1.024 18.137004,-2.851 1.207,1.152 4.528,3.875 10.104,5.143 7.541,1.713 16.537,-0.568 16.537,-0.568 0,0 -7.872,-2.189 -10.042,-5.112 l 0,0 0,0 z m 0,0"
         id="path41" />
      <path
         d="m 106.37266,2012.152 -6.748004,2.012 -2.035,-7.068 -18.15,5.404 -2.381,-8.266 -6.75,2.01 -2.035,-7.069 -58.2740001,17.354 0.1770001,0.628 c -0.009,-0.018 -0.018,-0.038 -0.022,-0.056 1.928,7.076 21.416,78.495 23.469,83.053 2.16,4.795 8.787,5.061 8.787,5.061 l 17.799,-5.785 c 1.361,4.631 2.348,7.797 2.732,8.643 2.158,4.797 8.783,5.061 8.783,5.061 l 58.275004,-18.936 -23.627,-82.046 0,0 z m -85.457004,8.802 c -4.892,0.674 -6.874,-1.877 -6.874,-1.877 l 52.152,-15.521 1.045,3.603 -46.323,13.795 0,0 z m 74.594,-9.478 1.047,3.601 -46.326,13.798 c -4.89,0.672 -6.872,-1.877 -6.872,-1.877 l 52.151,-15.522 0,0 z m -30.942,92.131 c -1.945,-6.279 -21.083,-73.099 -21.083,-73.099 0,0 1.812,1.319 3.623,1.649 1.494,0.271 2.472,0.165 2.472,0.165 l 20.918,76.399 c 0,0 -4.449,-0.329 -5.93,-5.114 l 0,0 0,0 z m -12.206,-71.6 52.152004,-15.693 21.664,75.387 -52.152004,17.188 -21.664,-76.882 0,0 z m 43.669,4.416 -25.154,7.881 1.377,4.41 25.154,-7.881 -1.377,-4.41 0,0 z m -22.793,15.441 1.375,4.407 25.152,-7.878 -1.375,-4.409 -25.152,7.88 0,0 z m 0,0"
         id="path43" />
      <path
         d="m 129.99966,2165.44 c -2.539,0.111 -8.558,1.641 -13.861,4.023 -6.737,3.025 -10.82,6.586 -10.82,6.586 l -12.151004,11.946 c -1.012,0.692 -2.129,1.497 -3.352,2.423 l -11.474,-0.704 c 3.285,-3.191 4.569,-5.379 4.569,-5.379 0,0 -0.144,-2.749 -2.784,-5.234 -2.639,-2.484 -4.961,-3.331 -4.961,-3.331 0,0 -2.421,0.298 -8.745,7.648 -1.006,1.17 -1.898,2.404 -2.69,3.653 l -38.272,-12.544 -6.7,3.039 18.01,11.03 c -2.221,2.051 -3.972,4.712 -3.581,5.181 0.333,0.4 4.28,-1.305 6.518,-3.382 l 9.835,6.023 c -2.63,2.083 -4.946,5.439 -4.503,5.97 0.341,0.414 4.499,-1.396 6.695,-3.546 0.136,-0.133 0.262,-0.265 0.39,-0.397 l 5.279,4.451 3.963,4.428 c -0.293,0.204 -0.586,0.414 -0.873,0.636 -2.683,2.075 -5.084,5.542 -4.636,6.08 0.344,0.411 4.5,-1.396 6.698,-3.546 0.306,-0.299 0.585,-0.597 0.851,-0.891 l 2.896,3.235 c -1.452,1.851 -2.666,3.58 -3.665,5.173 l -20.176,19.836 c 0,0 -0.886,0.875 -2.353,3.272 l -30.1070001,1.798 0,2.023 23.6640001,10.491 c -0.724,2.127 -1.258,3.933 -1.596,5.136 l 0.078,0.077 c 0,0 -0.416,0.669 0,1.014 0.417,0.345 1.031,0 1.031,0 l 0.033,0.099 c 1.223,-0.33 3.076,-0.859 5.264,-1.579 l 10.667,23.255 2.061,0 1.824,-29.588 c 2.438,-1.442 3.328,-2.314 3.328,-2.314 l 20.172,-19.835 c 1.617,-0.981 3.373,-2.173 5.252,-3.599 l 3.293,2.849 c -0.3,0.261 -0.602,0.535 -0.905,0.835 -2.189,2.16 -4.026,6.248 -3.607,6.583 0.55,0.441 4.07,-1.917 6.18,-4.557 0.226,-0.282 0.44,-0.569 0.647,-0.858 l 4.503,3.896 4.523,5.188 c -0.135,0.125 -0.269,0.249 -0.403,0.382 -2.187,2.161 -4.024,6.248 -3.604,6.582 0.54,0.435 3.95,-1.841 6.068,-4.424 l 6.124004,9.665 c -2.113,2.199 -3.847,6.079 -3.437,6.407 0.473,0.384 3.179,-1.339 5.266,-3.52 l 11.214,17.697 3.091,-6.579 -12.755,-37.619 c 1.271,-0.779 2.527,-1.657 3.718,-2.646 7.472,-6.212 7.771,-8.592 7.771,-8.592 0,0 -0.855,-2.283 -3.385,-4.878 -2.526,-2.595 -5.32,-2.737 -5.32,-2.737 0,0 -2.227,1.265 -5.47,4.494 l -0.717,-11.278 c 0.941,-1.2 1.759,-2.298 2.463,-3.291 l 12.149,-11.946 c 0,0 3.615,-4.014 6.694,-10.634 2.422,-5.212 3.977,-11.132 4.089,-13.625 l -65.408004,64.301 65.440004,-64.352 0,0 z m 0,0"
         id="path45" />
      <g
         transform="translate(19.499656,2342.0995)"
         id="Group">
        <path
           d="M 5.02,0.619 C 2.247,0.619 0,2.85 0,5.638 l 0,33.711 c 0,2.774 2.226,5.02 5.02,5.02 l 33.711,0 c 2.773,0 5.019,-2.23 5.019,-5.02 l 0,-33.711 c 0,-2.773 -2.227,-5.019 -5.019,-5.019 l -33.711,0 0,0 z m 0,0"
           id="path48" />
        <path
           d="m 61.271,0.619 c -2.774,0 -5.021,2.231 -5.021,5.019 l 0,33.711 c 0,2.774 2.227,5.02 5.021,5.02 l 33.71,0 c 2.773,0 5.02,-2.23 5.02,-5.02 l 0,-33.711 c 0,-2.773 -2.227,-5.019 -5.02,-5.019 l -33.71,0 0,0 z m 0,0"
           id="path50" />
        <path
           d="M 5.02,56.868 C 2.247,56.868 0,59.101 0,61.888 L 0,95.6 c 0,2.773 2.226,5.019 5.02,5.019 l 33.711,0 c 2.773,0 5.019,-2.23 5.019,-5.019 l 0,-33.712 c 0,-2.773 -2.227,-5.02 -5.019,-5.02 l -33.711,0 0,0 z m 0,0"
           id="path52" />
        <path
           d="m 61.271,56.868 c -2.774,0 -5.021,2.233 -5.021,5.02 l 0,33.712 c 0,2.773 2.227,5.019 5.021,5.019 l 33.71,0 c 2.773,0 5.02,-2.23 5.02,-5.019 l 0,-33.712 c 0,-2.773 -2.227,-5.02 -5.02,-5.02 l -33.71,0 0,0 z m 0,0"
           id="path54" />
      </g>
      <g
         transform="translate(6,2497)"
         id="g56">
        <path
           d="m 0,128 128,0 -23.431,-52.068 -16.669,0 C 95.901,63.403 102.826,49.836 102.826,40.411 102.826,18.094 85.44,0.001 64,0.001 c -21.443,0 -38.826,18.093 -38.826,40.41 0,9.426 6.925,22.992 14.926,35.521 l -14.258,0 L 0,128 0,128 z M 64,11.477 c 13.404,0 24.268,11.305 24.268,25.254 0,13.949 -10.864,25.253 -24.268,25.253 -6.869,0 -13.059,-2.98 -17.473,-7.754 C 42.328,49.69 39.732,43.531 39.732,36.73 39.732,22.781 50.596,11.477 64,11.477 l 0,0 z M 43.966,81.795 C 53.875,96.391 64,108.268 64,108.268 c 0,0 10.125,-11.877 20.034,-26.473 l 17.003,0 18.152,40.342 -109.988,0 20.022,-40.342 14.743,0 0,0 z m 0,0"
           id="path58" />
        <path
           d="M 59.712,32.523 46.527,54.23 68.266,40.966 81.473,19.23 59.712,32.523 z m 0,0"
           id="path60" />
      </g>
    </g>
  </defs>
  <use
     id="use3268"
     style="fill:#1f95d2"
     x="0"
     y="0"
     width="418"
     height="2624"
     xlink:href="#Iconography" />
  <use
     transform="translate(60,0)"
     id="use3272"
     style="fill:#cccccc"
     x="0"
     y="0"
     width="418"
     height="2624"
     xlink:href="#Iconography" />
  <use
     transform="translate(120,0)"
     id="use3270"
     style="fill:#ffffff"
     x="0"
     y="0"
     width="418"
     height="2624"
     xlink:href="#Iconography" />
</svg>
