<?xml version="1.0" encoding="UTF-8" standalone="no"?>
<svg width="40px" height="80px" viewBox="0 0 20 40" version="1.1" xmlns="http://www.w3.org/2000/svg" xmlns:xlink="http://www.w3.org/1999/xlink" xmlns:sketch="http://www.bohemiancoding.com/sketch/ns">
    <title>dropdown-arrow</title>
    <defs></defs>
    <g id="Page 1" stroke="none" stroke-width="1" fill="none" fill-rule="evenodd">
        <g id="Group">
            <path d="M10,20 C15.5228478,20 20,15.5228478 20,10 C20,4.47715223 15.5228478,0 10,0 C4.47715223,0 0,4.47715223 0,10 C0,15.5228478 4.47715223,20 10,20 Z M10,20" id="Oval 6" fill="#C7C7C7"></path>
            <path d="M9.97412335,11.7488509 L5.70072672,8.23595014 C5.30671028,7.91731023 4.67357089,7.92199306 4.28657031,8.24640953 C3.89956973,8.570826 3.90525721,9.09212619 4.29927365,9.4107661 L9.27657112,13.4358916 L9.9741234,14 L10.6747785,13.4385045 L15.6974803,9.41337898 C16.0932494,9.09621498 16.1018109,8.57494141 15.7166028,8.24908189 C15.3313948,7.92322236 14.6982877,7.91617325 14.3025186,8.23333725 L9.97412335,11.7488509 Z M9.97412335,11.7488509" id="Path 5" fill="#FFFFFF"></path>
        </g>
        <g id="Group" transform="translate(0.000000, 20.000000)">
            <path d="M10,20 C15.5228478,20 20,15.5228478 20,10 C20,4.47715223 15.5228478,0 10,0 C4.47715223,0 0,4.47715223 0,10 C0,15.5228478 4.47715223,20 10,20 Z M10,20" id="Oval 6" fill="#0096DC"></path>
            <path d="M9.97412335,11.7488509 L5.70072672,8.23595014 C5.30671028,7.91731023 4.67357089,7.92199306 4.28657031,8.24640953 C3.89956973,8.570826 3.90525721,9.09212619 4.29927365,9.4107661 L9.27657112,13.4358916 L9.9741234,14 L10.6747785,13.4385045 L15.6974803,9.41337898 C16.0932494,9.09621498 16.1018109,8.57494141 15.7166028,8.24908189 C15.3313948,7.92322236 14.6982877,7.91617325 14.3025186,8.23333725 L9.97412335,11.7488509 Z M9.97412335,11.7488509" id="Path 5" fill="#FFFFFF"></path>
        </g>
    </g>
</svg>
