<?xml version="1.0" encoding="UTF-8" standalone="no"?>
<svg width="130px" height="12px" viewBox="0 0 130 12" version="1.1" xmlns="http://www.w3.org/2000/svg" xmlns:xlink="http://www.w3.org/1999/xlink" xmlns:sketch="http://www.bohemiancoding.com/sketch/ns">
    <title>Review_Stars_regular</title>
    <description>Created with Sketch (http://www.bohemiancoding.com/sketch)</description>
    <defs></defs>
    <g id="Assets" stroke="none" stroke-width="1" fill="none" fill-rule="evenodd">
        <g id="Review_Stars_regular">
            <path d="M32.4999999,9.75 L28.6793962,11.7586107 L29.4090664,7.50430536 L26.3181326,4.49138968 L30.5896985,3.87069432 L32.5000001,7.21644966e-16 L34.4103028,3.87069528 L38.6818684,4.49139277 L35.5909334,7.50430617 L36.3206037,11.7586108 L32.4999999,9.75 Z M32.4999999,9.75" id="Star 1" fill="#0096DD"></path>
            <path d="M19.4999999,9.75 L15.6793962,11.7586107 L16.4090664,7.50430536 L13.3181326,4.49138968 L17.5896985,3.87069432 L19.5000001,7.21644966e-16 L21.4103028,3.87069528 L25.6818684,4.49139277 L22.5909334,7.50430617 L23.3206037,11.7586108 L19.4999999,9.75 Z M19.4999999,9.75" id="Star 1" fill="#0096DD"></path>
            <path d="M6.49999986,9.75 L2.67939617,11.7586107 L3.40906636,7.50430536 L0.318132598,4.49138968 L4.58969854,3.87069432 L6.50000008,7.21644966e-16 L8.41030277,3.87069528 L12.6818684,4.49139277 L9.59093337,7.50430617 L10.3206037,11.7586108 L6.49999986,9.75 Z M6.49999986,9.75" id="Star 1" fill="#0096DD"></path>
            <path d="M58.4999999,9.75 L54.6793962,11.7586107 L55.4090664,7.50430536 L52.3181326,4.49138968 L56.5896985,3.87069432 L58.5000001,7.21644966e-16 L60.4103028,3.87069528 L64.6818684,4.49139277 L61.5909334,7.50430617 L62.3206037,11.7586108 L58.4999999,9.75 Z M58.4999999,9.75" id="Star 1" fill="#0096DC"></path>
            <path d="M45.4999999,9.75 L41.6793962,11.7586107 L42.4090664,7.50430536 L39.3181326,4.49138968 L43.5896985,3.87069432 L45.5000001,7.21644966e-16 L47.4103028,3.87069528 L51.6818684,4.49139277 L48.5909334,7.50430617 L49.3206037,11.7586108 L45.4999999,9.75 Z M45.4999999,9.75" id="Star 1" fill="#0096DD"></path>
            <path d="M97.4999999,9.75 L93.6793962,11.7586107 L94.4090664,7.50430536 L91.3181326,4.49138968 L95.5896985,3.87069432 L97.5000001,7.21644966e-16 L99.4103028,3.87069528 L103.681868,4.49139277 L100.590933,7.50430617 L101.320604,11.7586108 L97.4999999,9.75 Z M97.4999999,9.75" id="Star 1" fill="#A7A7A7"></path>
            <path d="M84.4999999,9.75 L80.6793962,11.7586107 L81.4090664,7.50430536 L78.3181326,4.49138968 L82.5896985,3.87069432 L84.5000001,7.21644966e-16 L86.4103028,3.87069528 L90.6818684,4.49139277 L87.5909334,7.50430617 L88.3206037,11.7586108 L84.4999999,9.75 Z M84.4999999,9.75" id="Star 1" fill="#A7A7A7"></path>
            <path d="M71.4999999,9.75 L67.6793962,11.7586107 L68.4090664,7.50430536 L65.3181326,4.49138968 L69.5896985,3.87069432 L71.5000001,7.21644966e-16 L73.4103028,3.87069528 L77.6818684,4.49139277 L74.5909334,7.50430617 L75.3206037,11.7586108 L71.4999999,9.75 Z M71.4999999,9.75" id="Star 1" fill="#A7A7A7"></path>
            <path d="M110.5,9.75 L106.679396,11.7586107 L107.409066,7.50430536 L104.318133,4.49138968 L108.589699,3.87069432 L110.5,7.21644966e-16 L112.410303,3.87069528 L116.681868,4.49139277 L113.590933,7.50430617 L114.320604,11.7586108 L110.5,9.75 Z M110.5,9.75" id="Star 1" fill="#A7A7A7"></path>
            <path d="M123.5,9.75 L119.679396,11.7586107 L120.409066,7.50430536 L117.318133,4.49138968 L121.589699,3.87069432 L123.5,7.21644966e-16 L125.410303,3.87069528 L129.681868,4.49139277 L126.590933,7.50430617 L127.320604,11.7586108 L123.5,9.75 Z M123.5,9.75" id="Star 1" fill="#A7A7A7"></path>
        </g>
    </g>
</svg>