<?xml version="1.0" encoding="UTF-8" standalone="no"?>
<svg width="65px" height="40px" viewBox="0 0 65 40" version="1.1" xmlns="http://www.w3.org/2000/svg" xmlns:xlink="http://www.w3.org/1999/xlink">
    <title>Review_Stars_regular</title>
    <defs>
        <path d="M6.5, 9.75 
                 L2.68,11.76 
                 L3.41,7.5 
                 L0.32,4.49 
                 L4.59,3.87 
                 L6.5,0 
                 L8.41,3.87 
                 L12.68,4.49 
                 L9.59,7.5 
                 L10.32,11.75 
                 L6.5,9.75 
                 Z" id="star" fill="#000"></path>
        <clipPath id="stars-clip">
            <use xlink:href="#star" x="0" y="0" />
            <use xlink:href="#star" x="13" y="0" />
            <use xlink:href="#star" x="26" y="0" />
            <use xlink:href="#star" x="39" y="0" />
            <use xlink:href="#star" x="52" y="0" />
        </clipPath>
        <clipPath id="stars-small-clip">
            <!-- Note: scaling applies to x and y as well as size -->
            <use xlink:href="#star" x="0" y="0" transform="scale(0.75)" />
            <use xlink:href="#star" x="13" y="0" transform="scale(0.75)" />
            <use xlink:href="#star" x="26" y="0" transform="scale(0.75)" />
            <use xlink:href="#star" x="39" y="0" transform="scale(0.75)" />
            <use xlink:href="#star" x="52" y="0" transform="scale(0.75)" />
        </clipPath>
    </defs>
    <!-- In normal use, we only refer to the clipPaths and there would be nothing visible
         in this file. So below we use the stars to have a visible test. -->
    <rect x="0" y="0" width="65" height="12" fill="#A7A7A7" clip-path="url(#stars-small-clip)" />
    <rect x="0" y="0" width="32.5" height="12" fill="#0096DD" clip-path="url(#stars-small-clip)" />
    <use xlink:href="#star" x="20" y="20" />
    <use xlink:href="#star" x="35" y="20" transform="scale(0.75)" />
</svg>