<?xml version="1.0" encoding="UTF-8" standalone="no"?>
<svg width="422px" height="36px" viewBox="0 0 422 36" version="1.1" xmlns="http://www.w3.org/2000/svg" xmlns:xlink="http://www.w3.org/1999/xlink">
    <title>Tab</title>
    <defs>
        <linearGradient x1="50%" y1="0%" x2="50%" y2="100%" id="linearGradient-1">
            <stop stop-color="#FF9500" offset="0%"></stop>
            <stop stop-color="#E66000" offset="100%"></stop>
        </linearGradient>
        <path d="m 71.765996,6.5004833 c 0,0 0.114309,0 0.333014,0 4.562404,-1e-7 332.57077,-8e-7 337.99421,0 5.68342,9e-7 -11.90151,-1.0021537 -16.18521,13.9749387 C 389.6243,35.452515 379.74938,36 374.96481,36 L 72.432024,36 72.09901,36 71.765996,36 47.248149,36 C 42.463594,36 32.588668,35.452515 28.304956,20.475422 24.021261,5.4983296 6.4363279,6.5004842 12.11975,6.5004833 c 5.423442,-8e-7 55.416856,-1e-7 59.646246,0 z" id="path-2"></path>
        <path d="M0,0 L0,7 L422,7 L422,0 L0,0 Z M0,0" id="path-3"></path>
    </defs>
    <g id="Assets" fill="#D8D8D8" fill-rule="evenodd">
        <g id="Tab">
            <use id="Path 3" fill="url(#linearGradient-1)" xlink:href="#path-2"></use>
            <use id="Path 3-1" stroke="none" fill="none" xlink:href="#path-2"></use>
            <use id="Rectangle 26" fill="#FF9500" xlink:href="#path-3"></use>
            <use id="Rectangle 26-1" stroke="none" fill="none" xlink:href="#path-3"></use>
        </g>
    </g>
</svg>