<?xml version="1.0" encoding="utf-8"?>
<!DOCTYPE svg PUBLIC "-//W3C//DTD SVG 1.1//EN" "http://www.w3.org/Graphics/SVG/1.1/DTD/svg11.dtd">
<svg version="1.1" id="Layer_1" xmlns="http://www.w3.org/2000/svg" xmlns:xlink="http://www.w3.org/1999/xlink" x="0px" y="0px"
     width="307px" height="915" xml:space="preserve">
    <g transform="translate(0,0)" id="blue">
        <defs>
            <path id="SVGID_1_" d="M154.996,86.7c1.461-1.103,5.334-3.973,5.898-4.398c0.93-6.371,3.225-17.096,8.537-28.089
                c5.716-11.828,14.886-24.894,27.684-33.566c10.732-7.273,28.431-15.263,42.085-18.215c11.199-2.42,21.694-2.875,30.663-2.062
                c18.491,1.677,28.722,6.955,33.824,13.786c1.926,2.578,2.977,5.729,3.046,7.771c0.116,3.39-1.387,7.841-6.241,12.184
                c-4.737,4.238-14.833,9.539-28.655,14.165c-14.321,4.793-33.858,9.872-53.373,14.366c-16.347,3.765-29.591,8.045-37.271,10.936
                c-2.281,0.859-3.781,1.553-5.793,2.465c-1.229,2.94-4.057,10.816-4.773,14.962c14.308,5.734,23.588,13.292,30.766,19.178
                c9.312,7.635,20.122,16.607,33.469,32.867c12.17,14.824,31.987,43.258,39.17,70.858c7.871,30.241,2.919,58.984-14.111,66.977
                c-16.719,7.847-39.033-3.494-54.668-19.761c-14.896-15.499-25.289-33.7-35.068-61.743
                c-8.428-24.167-11.875-59.182-11.852-77.475c0.008-6.084,0.012-9.732,0.234-15.25c-6.852-4.401-14.864-4.16-23.91,1.069
                c-16.52,9.549-33.607,30.083-42.715,40.825c-3.981,4.697-9.359,11.56-15.061,18.73c-7.527,9.472-15.803,19.356-23.377,24.867
                c-11.376,8.276-29.655,11.764-42.461,2.6c-7.145-5.112-10.924-14.75-11.04-24.542c-0.082-6.966,1.608-13.226,5.06-19.331
                c4.277-7.567,11.332-15.677,22.545-24.966c11.58-9.592,30.058-20.362,48.572-27.839
                C104.423,86.664,134.838,83.037,154.996,86.7L154.996,86.7z"/>
        </defs>
        <use xlink:href="#SVGID_1_"  overflow="visible" fill="#05b5ea"/>
        <clipPath id="SVGID_2_">
            <use xlink:href="#SVGID_1_"  overflow="visible"/>
        </clipPath>
    </g>
    <g transform="translate(0,304)" id="gray">
        <defs>
            <path id="SVGID_3_" d="M154.996,86.7c1.461-1.103,5.334-3.973,5.898-4.398c0.93-6.371,3.225-17.096,8.537-28.089
                c5.716-11.828,14.886-24.894,27.684-33.566c10.732-7.273,28.431-15.263,42.085-18.215c11.199-2.42,21.694-2.875,30.663-2.062
                c18.491,1.677,28.722,6.955,33.824,13.786c1.926,2.578,2.977,5.729,3.046,7.771c0.116,3.39-1.387,7.841-6.241,12.184
                c-4.737,4.238-14.833,9.539-28.655,14.165c-14.321,4.793-33.858,9.872-53.373,14.366c-16.347,3.765-29.591,8.045-37.271,10.936
                c-2.281,0.859-3.781,1.553-5.793,2.465c-1.229,2.94-4.057,10.816-4.773,14.962c14.308,5.734,23.588,13.292,30.766,19.178
                c9.312,7.635,20.122,16.607,33.469,32.867c12.17,14.824,31.987,43.258,39.17,70.858c7.871,30.241,2.919,58.984-14.111,66.977
                c-16.719,7.847-39.033-3.494-54.668-19.761c-14.896-15.499-25.289-33.7-35.068-61.743
                c-8.428-24.167-11.875-59.182-11.852-77.475c0.008-6.084,0.012-9.732,0.234-15.25c-6.852-4.401-14.864-4.16-23.91,1.069
                c-16.52,9.549-33.607,30.083-42.715,40.825c-3.981,4.697-9.359,11.56-15.061,18.73c-7.527,9.472-15.803,19.356-23.377,24.867
                c-11.376,8.276-29.655,11.764-42.461,2.6c-7.145-5.112-10.924-14.75-11.04-24.542c-0.082-6.966,1.608-13.226,5.06-19.331
                c4.277-7.567,11.332-15.677,22.545-24.966c11.58-9.592,30.058-20.362,48.572-27.839
                C104.423,86.664,134.838,83.037,154.996,86.7L154.996,86.7z"/>
        </defs>
        <use xlink:href="#SVGID_3_"  overflow="visible" fill="#c7c7c6"/>
        <clipPath id="SVGID_2_">
            <use xlink:href="#SVGID_3_"  overflow="visible"/>
        </clipPath>
    </g>
    <g transform="translate(0,611)" id="white">
        <defs>
            <path id="SVGID_5_" d="M154.996,86.7c1.461-1.103,5.334-3.973,5.898-4.398c0.93-6.371,3.225-17.096,8.537-28.089
                c5.716-11.828,14.886-24.894,27.684-33.566c10.732-7.273,28.431-15.263,42.085-18.215c11.199-2.42,21.694-2.875,30.663-2.062
                c18.491,1.677,28.722,6.955,33.824,13.786c1.926,2.578,2.977,5.729,3.046,7.771c0.116,3.39-1.387,7.841-6.241,12.184
                c-4.737,4.238-14.833,9.539-28.655,14.165c-14.321,4.793-33.858,9.872-53.373,14.366c-16.347,3.765-29.591,8.045-37.271,10.936
                c-2.281,0.859-3.781,1.553-5.793,2.465c-1.229,2.94-4.057,10.816-4.773,14.962c14.308,5.734,23.588,13.292,30.766,19.178
                c9.312,7.635,20.122,16.607,33.469,32.867c12.17,14.824,31.987,43.258,39.17,70.858c7.871,30.241,2.919,58.984-14.111,66.977
                c-16.719,7.847-39.033-3.494-54.668-19.761c-14.896-15.499-25.289-33.7-35.068-61.743
                c-8.428-24.167-11.875-59.182-11.852-77.475c0.008-6.084,0.012-9.732,0.234-15.25c-6.852-4.401-14.864-4.16-23.91,1.069
                c-16.52,9.549-33.607,30.083-42.715,40.825c-3.981,4.697-9.359,11.56-15.061,18.73c-7.527,9.472-15.803,19.356-23.377,24.867
                c-11.376,8.276-29.655,11.764-42.461,2.6c-7.145-5.112-10.924-14.75-11.04-24.542c-0.082-6.966,1.608-13.226,5.06-19.331
                c4.277-7.567,11.332-15.677,22.545-24.966c11.58-9.592,30.058-20.362,48.572-27.839
                C104.423,86.664,134.838,83.037,154.996,86.7L154.996,86.7z"/>
        </defs>
        <use xlink:href="#SVGID_5_"  overflow="visible" fill="#fff"/>
        <clipPath id="SVGID_2_">
            <use xlink:href="#SVGID_5_"  overflow="visible"/>
        </clipPath>
    </g>
</svg>
