<?xml version='1.0' encoding='UTF-8'?>
<svg version="1.1" id="Layer_1" xmlns="http://www.w3.org/2000/svg" xmlns:xlink="http://www.w3.org/1999/xlink" x="0px" y="0px" viewBox="0 0 110 30" enable-background="new 0 0 110 30" xml:space="preserve">
<g>
	<path fill="#696A6F" d="M9.1,9.4c0.3,0.5,0.4,0.9,0.6,1.8c1.2-1.2,2.6-1.8,4.2-1.8c1.4,0,2.6,0.5,3.5,1.4c0.2,0.2,0.5,0.5,0.7,0.9   c1.6-1.6,3-2.3,4.9-2.3c1.4,0,2.6,0.4,3.4,1.1c1,0.8,1.3,1.9,1.3,4.2v12.4h-4.4V15.6c0-2.1-0.2-2.5-1.4-2.5c-0.8,0-2,0.6-3,1.5   v12.5h-4.3V15.8c0-2.2-0.3-2.7-1.6-2.7c-0.8,0-2,0.4-3,1.3v12.7H5.7V15c0-2.5-0.2-3.6-0.7-4.5L9.1,9.4z"></path>
	<path fill="#696A6F" d="M44.1,12c1.4,1.6,2,3.5,2,6.4c0,3-0.7,5-2.2,6.7c-1.3,1.5-3.1,2.4-5.7,2.4c-4.7,0-7.8-3.5-7.8-9   c0-5.5,3.1-9.1,7.8-9.1C40.7,9.4,42.6,10.2,44.1,12z M35.9,14.5c-0.3,0.9-0.5,2.1-0.5,3.9c0,2,0.2,3.5,0.6,4.4   c0.4,1,1.4,1.4,2.3,1.4c2,0,2.8-1.8,2.8-5.9c0-2.3-0.3-3.9-0.9-4.7c-0.4-0.6-1.1-0.9-2-0.9C37.2,12.8,36.3,13.4,35.9,14.5z"></path>
	<path fill="#696A6F" d="M60.8,9.7v3.1L53.1,24h8L60,27.1H47.2v-2.8l8.2-11.4h-7.5V9.7H60.8z"></path>
	<path fill="#696A6F" d="M68.5,4.9c0,1.6-1.2,2.8-2.8,2.8c-1.5,0-2.8-1.2-2.8-2.8c0-1.6,1.3-2.8,2.9-2.8C67.2,2.1,68.5,3.4,68.5,4.9   z M67.9,9.3v17.8h-4.6V10L67.9,9.3z"></path>
	<path fill="#696A6F" d="M76.2,6.5v13.6c0,3,0,3.4,0.3,3.9c0.2,0.3,0.5,0.5,0.9,0.5c0.2,0,0.3,0,0.5-0.1l0.8,2.7   c-0.8,0.3-1.7,0.5-2.7,0.5c-1.9,0-3.5-0.9-4-2.4c-0.3-0.9-0.4-1.4-0.4-3.9v-13c0-2.3-0.1-3.7-0.2-5.2L76,2   C76.1,2.9,76.2,4.1,76.2,6.5z"></path>
	<path fill="#696A6F" d="M85.7,6.5v13.6c0,3,0,3.4,0.3,3.9c0.2,0.3,0.5,0.5,0.9,0.5c0.2,0,0.3,0,0.5-0.1l0.8,2.7   c-0.8,0.3-1.7,0.5-2.7,0.5c-1.9,0-3.5-0.9-4-2.4c-0.3-0.9-0.4-1.4-0.4-3.9v-13C81,6,80.9,4.6,80.8,3L85.4,2   C85.6,2.9,85.7,4.1,85.7,6.5z"></path>
	<path fill="#696A6F" d="M92.8,10.4c1.7-0.7,3.1-1,4.8-1c2.9,0,4.9,1.1,5.6,3c0.2,0.7,0.3,1.3,0.3,3.1l-0.1,5.8c0,0.1,0,0.2,0,0.3   c0,1.9,0.3,2.6,1.6,3.6l-2.4,2.8c-1.1-0.4-2-1.2-2.5-2.1c-0.3,0.3-0.7,0.7-1.1,0.9c-0.8,0.6-2.1,1-3.5,1c-3.9,0-6-2-6-5.4   c0-4.1,2.8-6,8.4-6c0.3,0,0.6,0,1,0v-0.7c0-1.9-0.4-2.6-2.1-2.6c-1.4,0-3.2,0.7-5,2L90,11.8C90.9,11.2,91.6,10.9,92.8,10.4z    M98.7,19.5c-3.1,0-4.3,0.6-4.3,2.7c0,1.4,0.9,2.3,2,2.3c0.8,0,1.7-0.4,2.4-1.2l0.1-3.7H98.7z"></path>
</g>
</svg>