<?xml version="1.0" encoding="UTF-8" standalone="no"?>
<svg width="33px" height="50px" viewBox="0 0 33 50" version="1.1" xmlns="http://www.w3.org/2000/svg" xmlns:xlink="http://www.w3.org/1999/xlink" xmlns:sketch="http://www.bohemiancoding.com/sketch/ns">
    <title>Untitled 9</title>
    <description>Created with Sketch (http://www.bohemiancoding.com/sketch)</description>
    <defs>
        <linearGradient x1="50%" y1="0%" x2="50%" y2="100%" id="linearGradient-1">
            <stop stop-color="#A12B71" offset="0%"></stop>
            <stop stop-color="#AD2869" offset="100%"></stop>
        </linearGradient>
        <path id="path-2" d="M18.089,38.97 C18.319,39.541 18.454,40.234 18.454,40.986 C18.454,42.92 16.95,44.492 16.451,44.491 C15.95,44.491 14.446,42.92 14.446,40.986 C14.446,40.234 14.583,39.541 14.812,38.97 L12.491,38.97 C12.217,39.975 12.065,41.099 12.065,42.283 C12.065,46.552 15.377,50.01 16.482,50.012 C17.586,50.012 20.897,46.552 20.897,42.283 C20.897,41.099 20.744,39.975 20.471,38.97 L18.089,38.97"></path>
        <linearGradient x1="50%" y1="0%" x2="50%" y2="100%" id="linearGradient-4">
            <stop stop-color="#71328E" offset="0%"></stop>
            <stop stop-color="#A2296F" offset="100%"></stop>
        </linearGradient>
        <path d="M0.06,24.7189905 L6.312,18.466 C8.183,9.277 13.674,0.013 16.482,0.013 C19.288,0.013 24.779,9.277 26.65,18.466 L32.96,24.779 L32.96,41.26 L28.561,41.26 L22.428,35.128 C21.799,35.786 21.102,36.338 20.357,36.773 L12.594,36.773 C11.854,36.337 11.163,35.782 10.534,35.128 L4.4,41.26 L0.06,41.26 L0.06,24.7189905 L0.06,24.7189905 Z M16.488,9.675 C17.465,9.675 19.187,12.422 20.258,15.707 C19.098,15.493 17.86,15.372 16.571,15.372 C15.213,15.372 13.917,15.507 12.704,15.745 C13.776,12.443 15.506,9.675 16.488,9.675 L16.488,9.675 Z" id="path-5"></path>
    </defs>
    <g id="Page-1" stroke="none" stroke-width="1" fill="none" fill-rule="evenodd" sketch:type="MSPage">
        <mask id="mask-3" sketch:name="Booster" fill="white">
            <use xlink:href="#path-2"></use>
        </mask>
        <g id="Booster">
            <use fill="none" sketch:type="MSShapeGroup" xlink:href="#path-2"></use>
            <use fill="url(#linearGradient-1)" fill-rule="evenodd" xlink:href="#path-2"></use>
        </g>
        <mask id="mask-6" sketch:name="Rocket" fill="white">
            <use xlink:href="#path-5"></use>
        </mask>
        <g id="Rocket">
            <use fill="none" sketch:type="MSShapeGroup" xlink:href="#path-5"></use>
            <use fill="url(#linearGradient-4)" fill-rule="evenodd" xlink:href="#path-5"></use>
        </g>
    </g>
</svg>