<?xml version="1.0" encoding="utf-8"?>
<!DOCTYPE svg PUBLIC "-//W3C//DTD SVG 1.1//EN" "http://www.w3.org/Graphics/SVG/1.1/DTD/svg11.dtd">
<svg version="1.1" id="Layer_1" xmlns="http://www.w3.org/2000/svg" xmlns:xlink="http://www.w3.org/1999/xlink" x="0px" y="0px"
	 width="25px" height="30.042px" viewBox="1.432 16.979 25 30.042" enable-background="new 1.432 16.979 25 30.042"
	 xml:space="preserve">
	<g>
		<path fill="#EC008C" d="M1.432,36.883v-6.083h6.083v6.083H1.432z"/>
		<path fill="#EC008C" d="M19.983,36.883v-6.083h6.083v6.083H19.983z"/>
		<path fill="#EC008C" d="M25.766,16.979H1.732l-0.301,10.6l1.594,0.276c0.297-3.124,1.117-5.442,2.459-6.954
			c1.413-1.583,3.359-2.409,5.86-2.48v22.176c0,1.938-0.271,3.193-0.836,3.773c-0.48,0.496-1.293,0.799-2.438,0.912
			c-0.34,0.027-0.918,0.043-1.739,0.043v1.695h14.832v-1.695c-0.82,0-1.399-0.016-1.739-0.043c-1.145-0.113-1.958-0.416-2.438-0.912
			c-0.565-0.58-0.838-1.836-0.838-3.773V18.421c2.501,0.071,4.45,0.898,5.863,2.48c1.342,1.512,2.163,3.831,2.459,6.954l1.594-0.276
			L25.766,16.979z"/>
	</g>
</svg>
