<?xml version="1.0" encoding="utf-8"?>
<!DOCTYPE svg PUBLIC "-//W3C//DTD SVG 1.1//EN" "http://www.w3.org/Graphics/SVG/1.1/DTD/svg11.dtd">
<svg version="1.1" id="Layer_1" xmlns="http://www.w3.org/2000/svg" xmlns:xlink="http://www.w3.org/1999/xlink" x="0px" y="0px"
	 width="52.5px" height="64px" viewBox="0 0 52.48 63.99" enable-background="new 0 0 52.48 63.99" xml:space="preserve">
<g>
	<path fill="#EC008C" d="M0,42.39V29.43h12.95v12.95H0z"/>
	<path fill="#EC008C" d="M39.52,42.39V29.43H52.48v12.95H39.52z"/>
	<path fill="#EC008C" d="M51.83,0H0.64L0,22.58l3.39,0.58c0.63-6.65,2.37-11.59,5.24-14.81
		c3.01-3.37,7.15-5.13,12.48-5.28v47.24c0,4.12-0.57,6.80-1.78,8.03c-1.02,1.05-2.75,1.70-5.19,1.94
		c-0.72,0.05-1.95,0.08-3.70,0.08v3.61h31.59v-3.61c-1.74,0-2.98-0.03-3.70-0.08
		c-2.43-0.24-4.17-0.88-5.19-1.94c-1.20-1.23-1.78-3.91-1.78-8.03V3.07c5.32,0.15,9.48,1.91,12.49,5.28
		c2.85,3.22,4.60,8.16,5.23,14.81l3.39-0.58L51.83,0z"/>
</g>
</svg>
