<?xml version="1.0" encoding="utf-8"?>
<!DOCTYPE svg PUBLIC "-//W3C//DTD SVG 1.1//EN" "http://www.w3.org/Graphics/SVG/1.1/DTD/svg11.dtd">
<svg version="1.1" id="Layer_1" xmlns="http://www.w3.org/2000/svg" xmlns:xlink="http://www.w3.org/1999/xlink" x="0px" y="0px"
	 width="63.999px" height="47.268px" viewBox="0 0 63.999 47.268" enable-background="new 0 0 63.999 47.268" xml:space="preserve">
<path fill="#8CC63F" d="M63.623,16.965C62.551,5.16,57.959,0,53.002,0c-0.24,0-0.467,0.011-0.707,0.037
	c-3.608,0.347-5.807,2.234-5.807,2.234c-3.938,3.136-5.576,7.683-7.316,12.496c-0.109,0.292-0.21,0.588-0.315,0.884l-0.17,0.457
	c-1.109,3.066-2.364,6.54-5.961,6.54H32.7c-3.937-0.006-5.391-2.175-7.406-5.189l-0.203-0.296c-0.449-0.664-0.894-1.37-1.368-2.11
	c-2.746-4.322-6.186-9.707-11.372-9.707H12.34c-0.308,0-7.589,0.097-10.519,9.145c-2.718,8.432-2.351,19.039,0.812,26.673
	c1.252,3.032,2.792,5.322,4.216,5.905c0.343,0.143,0.683,0.2,1.005,0.2c0.898,0,1.654-0.476,1.972-0.969
	c1.425-2.214,0.163-5.292-0.903-8.449c-0.739-2.174-1.667-3.987-2.364-7.731c-0.577-3.096-0.285-6.169,0.693-6.375
	c0.028-0.006,0.052-0.006,0.082-0.006c0.651,0,2.379,1.402,3.542,2.749c2.35,2.688,4.274,6.45,4.552,6.957
	c2.695,4.883,5.035,9.247,10.181,11.298c1.279,0.516,2.549,0.778,3.983,0.833c0.176,0.01,0.375,0.013,0.563,0.013
	c2.948,0,6.072-0.968,8.144-2.53c1.203-0.902,2.403-2.4,3.289-4.104c0.791-1.516,1.475-3.188,2.145-5.24
	c0.306-0.931,0.579-1.861,0.853-2.755c0.738-2.414,1.439-4.777,2.556-7.009c1.869-3.766,5.844-6.811,7.791-6.811
	c0.703,0,1.146,0.4,1.129,1.31c-0.051,2.787-1.045,14.155,0.191,17.367c0.572,1.515,1.748,2.354,2.998,2.354
	c1.098,0,2.25-0.642,3.113-2.019c1.16-1.845,1.406-6.76,1.49-7.868C64.021,26.204,64.148,21.125,63.623,16.965L63.623,16.965z
	 M6.8,43.169c0.011,0.018,0.022,0.03,0.031,0.047c0.062,0.084,0.121,0.169,0.184,0.248c0.435,0.591,0.825,1.042,1.153,1.39
	c0,0.004,0,0.004,0,0.004c0.406,0.442,0.003,1.045-0.624,0.869c-0.042-0.016-0.088-0.023-0.13-0.041
	c-0.779-0.314-2.133-2.017-3.401-5.093C0.971,33.25,0.663,22.941,3.245,14.952c2.592-8.02,8.832-8.114,9.106-8.114
	c0.131,0,0.266,0.004,0.394,0.013c0.422,0.03,0.411,0.188,0,0.222c-2.665,0.232-5.081,2.189-6.394,4.033
	c-2.629,3.713-4.578,13.261-3.093,20.981C4.026,36.129,5.346,41.008,6.8,43.169L6.8,43.169z M40.153,38.695
	c-3.093,5.476-9.848,6.18-13.992,4.659c-4.615-1.693-6.765-5.802-9.305-10.41l-0.124-0.222l-0.094-0.188
	c-1.58-2.952-3.137-5.319-4.637-7.026c-0.287-0.338-2.886-3.265-4.668-3.265c-0.381,0-0.767,0.078-1.19,0.286
	c-0.552,0.267-0.71,0.18-0.445-0.354c0.568-1.111,1.641-1.273,2.334-1.273c1.987,0,3.552,1.346,4.432,2.202
	c3.934,3.935,5.808,8.839,8.179,12.462c2.161,3.309,4.361,5.471,7.148,6.327c3.313,1.019,7.981,0.377,11.497-3.139
	C40.4,37.643,41.807,35.769,40.153,38.695L40.153,38.695z M50.678,2.137c-2.528,1.271-4.484,4.309-5.925,7.208
	c-1.832,3.679-4.665,13.075-5.228,14.352c-0.554,1.274-1.866,3.258-4.915,3.297c-3.008,0.035-5.242-0.69-7.942-4.602
	c-0.678-0.976-0.83-1.503,0.349-0.326c1.178,1.18,3.084,2.07,5.677,2.075h0.032c4.642,0,6.218-4.35,7.369-7.528l0.16-0.455
	c0.066-0.184,0.138-0.37,0.199-0.556l0.114-0.33l0.022-0.054c1.66-4.585,3.231-8.921,6.826-11.78l0.028-0.02l0.012-0.011
	c0.012-0.013,1.126-0.928,3-1.494C51.045,1.733,51.379,1.782,50.678,2.137L50.678,2.137z M58.717,31.134
	c-0.004,0.055-0.004,0.114-0.008,0.168v0.012c-0.01,0.674-0.01,1.303,0.021,1.871c0.033,1.003,0.102,1.871,0.162,2.486
	c0,0,0,0,0,0.005c0.068,0.74-0.707,0.693-1.123-0.101c-0.045-0.095-0.086-0.192-0.127-0.297c-0.861-2.239-0.41-10.192-0.223-14.015
	c0.184-3.683,0.008-4.839-0.715-5.583c-0.178-0.181-0.066-0.381,0.176-0.287c1.688,0.658,2.012,2.498,2.209,3.836
	c0.365,2.414-0.24,7.52-0.363,11.496v-0.004C58.723,30.861,58.717,30.999,58.717,31.134L58.717,31.134z"/>
</svg>
