<?xml version="1.0" encoding="UTF-8" standalone="no"?>
<svg width="30px" height="26px" viewBox="0 0 30 26" version="1.1" xmlns="http://www.w3.org/2000/svg" xmlns:xlink="http://www.w3.org/1999/xlink" xmlns:sketch="http://www.bohemiancoding.com/sketch/ns">
    <!-- Generator: Sketch 3.3.3 (12081) - http://www.bohemiancoding.com/sketch -->
    <title>Imported Layers</title>
    <desc>Created with Sketch.</desc>
    <defs></defs>
    <g id="Page-1" stroke="none" stroke-width="1" fill="none" fill-rule="evenodd" sketch:type="MSPage">
        <g id="Sites-Copy-2" sketch:type="MSArtboardGroup" transform="translate(-120.000000, -590.000000)" fill="#FFFFFF">
            <g id="Group-Copy" sketch:type="MSLayerGroup" transform="translate(0.000000, 580.000000)">
                <g id="Imported-Layers" sketch:type="MSShapeGroup">
                    <path d="M147.949428,19.82019 C150.083713,18.6234043 150.560499,16.8946543 149.328356,14.82144 C148.095678,12.7482258 146.317106,12.2853686 144.182285,13.4821543 C143.094249,14.0928686 142.717642,15.0100115 142.448713,15.79269 L139.162106,10.26144 C139.013178,10.0117972 138.684249,9.92554719 138.426571,10.07019 L132.525678,13.3809043 C132.353713,13.4762615 132.250856,13.6557258 132.256749,13.8475115 C132.262106,14.0387615 132.375142,14.2123329 132.551392,14.2996543 C133.001392,14.5209043 133.322285,14.8123329 133.561213,15.2141186 C134.491749,16.7794758 134.187999,17.8809043 132.576571,18.7846543 C130.965142,19.6884043 129.831571,19.3932258 128.901035,17.8278686 C128.662106,17.4255472 128.563535,17.0103686 128.590856,16.5207258 C128.602106,16.32894 128.503535,16.1473329 128.335856,16.0466186 C128.167106,15.94644 127.956035,15.9437615 127.784606,16.0391186 L121.883178,19.3498329 C121.625499,19.49394 121.537642,19.8137615 121.686035,20.0634043 L124.973713,25.5957258 C124.141749,25.4317972 123.135678,25.2892972 122.047642,25.9000115 C119.913356,27.0967972 119.436571,28.8255472 120.668713,30.8987615 C121.901392,32.9725115 123.679963,33.4353686 125.814249,32.2385829 C126.902821,31.6278686 127.279428,30.71019 127.548356,29.9280472 L130.834428,35.4571543 C130.982821,35.7067972 131.311749,35.7930472 131.569428,35.6484043 L137.824963,32.1394758 C138.006571,32.03769 138.110499,31.84269 138.091749,31.6396543 C138.072463,31.4366186 137.933713,31.2619758 137.736035,31.1944758 C137.063178,30.96144 136.537642,30.6780472 136.165856,30.0517972 C135.235321,28.48644 135.539071,27.3850115 137.150499,26.4812615 C138.761928,25.5775115 139.895499,25.87269 140.826035,27.4380472 C141.197821,28.0642972 141.188178,28.64769 141.059071,29.3307258 C141.020499,29.5310829 141.106213,29.7346543 141.278178,29.8525115 C141.449606,29.9698329 141.675142,29.9800115 141.857285,29.8782258 L148.112821,26.3692972 C148.370499,26.2246543 148.458356,25.9053686 148.309963,25.65519 L145.023356,20.12394 C145.855321,20.28894 146.861392,20.4309043 147.949428,19.82019"></path>
                </g>
            </g>
        </g>
    </g>
</svg>