<?xml version="1.0" encoding="utf-8"?>
<!-- Generator: Adobe Illustrator 18.1.1, SVG Export Plug-In . SVG Version: 6.00 Build 0)  -->
<!DOCTYPE svg PUBLIC "-//W3C//DTD SVG 1.1//EN" "http://www.w3.org/Graphics/SVG/1.1/DTD/svg11.dtd">
<svg version="1.1" id="Layer_1" xmlns="http://www.w3.org/2000/svg" xmlns:xlink="http://www.w3.org/1999/xlink" x="0px" y="0px"
	 viewBox="0 0 65 65" enable-background="new 0 0 65 65" xml:space="preserve">
<g>
	<g>

			<path fill="none" stroke="#797979" stroke-width="1.9375" stroke-linecap="round" stroke-miterlimit="10" stroke-dasharray="5.9611,7.9481" d="
			M32.5,63.5L32.5,63.5c-17.1,0-31-13.9-31-31c0-17.1,13.9-31,31-31h0c17.1,0,31,13.9,31,31C63.5,49.6,49.6,63.5,32.5,63.5z"/>
	</g>
	<g>
		<path fill="#797979" d="M33.8,43.7c0.2,0.5,0.3,1,0.3,1.6c0,1.5-1.2,2.8-1.6,2.8c-0.4,0-1.6-1.3-1.6-2.8c0-0.6,0.1-1.2,0.3-1.6
			h-1.9c-0.2,0.8-0.3,1.7-0.3,2.6c0,3.4,2.6,6.2,3.5,6.2c0.9,0,3.5-2.8,3.5-6.2c0-0.9-0.1-1.8-0.3-2.6H33.8z"/>
		<path fill="#797979" d="M40.6,27.3c-1.5-7.4-5.9-14.8-8.1-14.8c-2.2,0-6.6,7.4-8.1,14.8l-5.1,5.1v13.2h3.5l4.9-4.9
			c0.5,0.5,1.1,1,1.6,1.3h6.2c0.6-0.3,1.2-0.8,1.7-1.3l4.9,4.9h3.5V32.3L40.6,27.3z M32.6,24.8c-1.1,0-2.1,0.1-3.1,0.3
			c0.9-2.6,2.2-4.9,3-4.9c0.8,0,2.2,2.2,3,4.8C34.6,24.9,33.6,24.8,32.6,24.8z"/>
	</g>
</g>
</svg>
