<?xml version="1.0" encoding="utf-8"?>
<!-- Generator: Adobe Illustrator 18.1.1, SVG Export Plug-In . SVG Version: 6.00 Build 0)  -->
<!DOCTYPE svg PUBLIC "-//W3C//DTD SVG 1.1//EN" "http://www.w3.org/Graphics/SVG/1.1/DTD/svg11.dtd">
<svg version="1.1" id="Layer_1" xmlns="http://www.w3.org/2000/svg" xmlns:xlink="http://www.w3.org/1999/xlink" x="0px" y="0px"
	 viewBox="0 0 18 18" enable-background="new 0 0 18 18" xml:space="preserve">
<g id="Stars">
</g>
<g>
	<g>
		<path fill-rule="evenodd" clip-rule="evenodd" fill="none" stroke="#FFFFFF" stroke-linecap="round" stroke-miterlimit="10" d="
			M1.8,11.2c0.9,3,3.8,5.3,7.2,5.3c3.4,0,6.2-2.3,7.2-5.3"/>
		<path fill-rule="evenodd" clip-rule="evenodd" fill="none" stroke="#FFFFFF" stroke-linecap="round" stroke-miterlimit="10" d="
			M16.2,7.2c-0.8-3-3.8-5.7-7.3-5.7c-3.5,0-6.5,2.7-7.3,5.7"/>
	</g>
	<path fill-rule="evenodd" clip-rule="evenodd" fill="none" stroke="#FFFFFF" stroke-linecap="round" stroke-miterlimit="10" d="
		M0.9,13.2l0.1-1.5l0-0.5c0-0.5,0.5-0.7,0.9-0.4l0.4,0.3l1.2,0.8"/>
	<path fill-rule="evenodd" clip-rule="evenodd" fill="none" stroke="#FFFFFF" stroke-linecap="round" stroke-miterlimit="10" d="
		M17.1,5.2l-0.1,1.5l0,0.5c0,0.5-0.5,0.7-0.9,0.4l-0.4-0.3l-1.2-0.8"/>
</g>
</svg>
