<svg xmlns="http://www.w3.org/2000/svg" viewBox="0 0 24 24">
    <path fill="#FFFFFF" d="M23.614,11.056 L13.094,0.389 C12.857,0.149 12.528,0 12.164,0 C11.439,0 10.85,0.595 10.85,1.333 C10.85,1.701 10.996,2.034 11.235,2.276 L19.511,10.666 L1.315,10.666 C0.59,10.666 0,11.262 0,12 C0,12.735 0.59,13.333 1.315,13.333 L19.511,13.333 L11.235,21.724 C10.996,21.964 10.85,22.298 10.85,22.666 C10.85,23.403 11.439,24 12.164,24 C12.528,24 12.857,23.85 13.094,23.609 L23.614,12.942 C23.854,12.701 24,12.367 24,12 C24,11.631 23.854,11.298 23.614,11.056" />
</svg>

