<?xml version="1.0" encoding="UTF-8" standalone="no"?>
<svg width="20px" height="20px" viewBox="0 0 20 20" version="1.1" xmlns="http://www.w3.org/2000/svg" xmlns:xlink="http://www.w3.org/1999/xlink" xmlns:sketch="http://www.bohemiancoding.com/sketch/ns">
    <g id="Page-1" stroke="none" stroke-width="1" fill="none" fill-rule="evenodd" sketch:type="MSPage">
        <g id="Search" sketch:type="MSArtboardGroup" transform="translate(-320.000000, -20.000000)">
            <g sketch:type="MSLayerGroup" transform="translate(320.000000, 20.000000)">
                <circle id="Oval-1" fill="#0092FF" sketch:type="MSShapeGroup" cx="10" cy="10" r="10"></circle>
                <path d="M8.59699293,9.99962537 L5.29071655,6.69334898 C4.90309448,6.30672594 4.90309448,5.67833862 5.29071655,5.29071655 C5.67933765,4.90309448 6.30672594,4.90309448 6.69434801,5.29071655 L9.99991885,8.59669945 L13.3059017,5.29071655 C13.6925248,4.90309448 14.3209121,4.90309448 14.7085342,5.29071655 C15.0971553,5.67833862 15.0971553,6.30672594 14.7085342,6.69334898 L11.4026699,9.99962537 L14.7085342,13.3059017 C15.0971553,13.6925248 15.0971553,14.3209121 14.7085342,14.7085342 C14.3209121,15.0961562 13.6925248,15.0961562 13.3059017,14.7085342 L9.99991885,11.4025513 L6.69434801,14.7085342 C6.30672594,15.0961562 5.67933765,15.0961562 5.29071655,14.7085342 C4.90309448,14.3209121 4.90309448,13.6925248 5.29071655,13.3059017 L8.59699293,9.99962537 Z" id="Fill-1-Copy-3" fill="#FFFFFF" sketch:type="MSShapeGroup"></path>
            </g>
        </g>
    </g>
</svg>
