<?xml version="1.0" encoding="UTF-8" standalone="no"?>
<svg width="12px" height="16px" viewBox="0 0 12 16" version="1.1" xmlns="http://www.w3.org/2000/svg" xmlns:xlink="http://www.w3.org/1999/xlink" xmlns:sketch="http://www.bohemiancoding.com/sketch/ns">
    <g id="Page-1" stroke="none" stroke-width="1" fill="none" fill-rule="evenodd" sketch:type="MSPage">
        <g sketch:type="MSLayerGroup" transform="translate(1.000000, 0.000000)">
            <path d="M0.279641424,10.3964055 C-0.72048168,9.07290729 -0.182345978,8 1.46595563,8 L8.53578678,8 C10.1910931,8 10.7188949,9.07731294 9.72210098,10.3964055 L6.81175427,14.24777 C5.81163117,15.5712682 4.18678203,15.5668626 3.18998813,14.24777 L0.279641424,10.3964055 Z" id="Triangle-1" fill="#0092FF" sketch:type="MSShapeGroup"></path>
            <path d="M0.279641424,3.3964055 C-0.72048168,2.07290729 -0.182345978,1 1.46595563,1 L8.53578678,1 C10.1910931,1 10.7188949,2.07731294 9.72210098,3.3964055 L6.81175427,7.24777004 C5.81163117,8.57126825 4.18678203,8.56686259 3.18998813,7.24777004 L0.279641424,3.3964055 Z" id="Triangle-1" fill="#FFFFFF" sketch:type="MSShapeGroup" transform="translate(5.000000, 4.500000) rotate(-180.000000) translate(-5.000000, -4.500000) "></path>
        </g>
    </g>
</svg>
