<?xml version="1.0" encoding="UTF-8" standalone="no"?>
<svg width="182px" height="35px" viewBox="0 0 182 35" version="1.1" xmlns="http://www.w3.org/2000/svg" xmlns:xlink="http://www.w3.org/1999/xlink" xmlns:sketch="http://www.bohemiancoding.com/sketch/ns">
    <title>logo-white</title>
    <description>Created with Sketch (http://www.bohemiancoding.com/sketch)</description>
    <defs>
        <linearGradient x1="50%" y1="0%" x2="50%" y2="100%" id="linearGradient-1">
            <stop stop-color="#6E328F" offset="0%"></stop>
            <stop stop-color="#AF2868" offset="100%"></stop>
        </linearGradient>
        <path d="M38.41,7.882 L32.882,7.871 C32.882,7.871 29.777,7.871 28.964,4.483 C28.336,1.86 27.8,0 24.552,0 L13.858,0 C10.611,0 10.074,1.86 9.447,4.483 C8.635,7.871 5.529,7.871 5.529,7.871 L0,7.882 L0.642,19.848 L0,35 L38.41,35 L37.768,19.741 L38.41,7.882 L38.41,7.882 Z M16.667,2.729 L21.745,2.729 C22.485,2.729 23.086,3.33 23.086,4.07 C23.086,4.811 22.485,5.411 21.745,5.411 L16.667,5.411 C15.926,5.411 15.325,4.811 15.325,4.07 C15.325,3.33 15.926,2.729 16.667,2.729 L16.667,2.729 Z M19.205,31.333 C18.716,31.333 17.248,29.8 17.248,27.907 C17.248,27.382 17.315,26.885 17.436,26.439 L18.465,26.439 C18.364,26.692 18.303,26.999 18.303,27.332 C18.303,28.19 18.969,28.886 19.192,28.886 C19.413,28.887 20.08,28.19 20.08,27.332 C20.08,26.999 20.02,26.692 19.918,26.439 L20.974,26.439 C21.095,26.885 21.163,27.382 21.163,27.907 C21.163,29.8 19.695,31.333 19.205,31.333 L19.205,31.333 Z M26.51,27.454 L24.56,27.454 L21.841,24.736 C21.562,25.027 21.254,25.272 20.923,25.465 L17.482,25.465 C17.154,25.271 16.847,25.026 16.569,24.736 L13.85,27.454 L11.9,27.454 L11.9,20.148 L14.698,17.35 C15.527,13.277 17.961,9.17 19.205,9.17 C20.449,9.17 22.884,13.277 23.712,17.35 L26.51,20.148 L26.51,27.454 L26.51,27.454 Z" id="path-2"></path>
        <linearGradient x1="50%" y1="0%" x2="50%" y2="100%" id="linearGradient-3">
            <stop stop-color="#862E80" offset="0%"></stop>
            <stop stop-color="#8C2D7D" offset="100%"></stop>
        </linearGradient>
        <path id="path-4" d="M19.208,13.453 C18.772,13.453 18.006,14.68 17.532,16.144 C18.068,16.038 18.644,15.979 19.246,15.979 C19.816,15.979 20.366,16.032 20.879,16.127 C20.404,14.671 19.642,13.453 19.208,13.453"></path>
    </defs>
    <g id="Page-1" stroke="none" stroke-width="1" fill="none" fill-rule="evenodd" sketch:type="MSPage">
        <g id="Wordmark" sketch:type="MSLayerGroup" transform="translate(46.000000, 7.000000)" fill="#1A1A1A">
            <path d="M126.93,14.593 L126.93,14.823 C126.93,16.837 127.678,18.966 130.526,18.966 C131.878,18.966 133.059,18.477 134.151,17.528 L135.389,19.455 C133.863,20.75 132.108,21.383 130.152,21.383 C126.037,21.383 123.448,18.419 123.448,13.758 C123.448,11.197 123.994,9.5 125.261,8.061 C126.44,6.709 127.879,6.105 129.721,6.105 C131.159,6.105 132.482,6.479 133.72,7.601 C134.986,8.752 135.619,10.536 135.619,13.931 L135.619,14.593 L126.93,14.593 L126.93,14.593 Z M129.721,8.493 C127.936,8.493 126.958,9.903 126.958,12.262 L132.339,12.262 C132.339,9.903 131.304,8.493 129.721,8.493 L129.721,8.493 Z" id="e" sketch:type="MSShapeGroup"></path>
            <path d="M118.471,21.383 C114.499,21.383 112.284,18.592 112.284,13.902 C112.284,8.608 115.449,6.076 118.7,6.076 C120.283,6.076 121.435,6.45 122.729,7.658 L121.146,9.759 C120.283,8.982 119.535,8.637 118.7,8.637 C117.693,8.637 116.859,9.155 116.398,10.104 C115.968,10.996 115.794,12.348 115.794,14.161 C115.794,16.146 116.111,17.412 116.773,18.132 C117.233,18.649 117.924,18.966 118.7,18.966 C119.707,18.966 120.686,18.477 121.636,17.527 L123.132,19.455 C121.809,20.779 120.428,21.383 118.471,21.383" id="c" sketch:type="MSShapeGroup"></path>
            <path d="M109.78,21.613 C108.889,21.269 108.141,20.577 107.796,19.656 C106.615,20.98 105.35,21.44 103.796,21.44 C100.459,21.44 98.963,19.598 98.963,17.067 C98.963,13.7 101.495,12.003 106.155,12.003 L107.134,12.003 L107.134,11.227 C107.134,9.557 106.846,8.665 105.12,8.665 C103.02,8.665 100.774,10.335 100.774,10.335 L99.364,8.062 C101.552,6.68 103.364,6.076 105.552,6.076 C107.824,6.076 109.35,6.91 109.981,8.493 C110.242,9.125 110.242,9.902 110.213,12.06 L110.154,16.232 C110.126,18.19 110.299,18.822 111.421,19.598 L109.78,21.613 L109.78,21.613 Z M106.501,14.132 C103.336,14.132 102.386,15.053 102.386,16.895 C102.386,18.275 103.135,19.138 104.4,19.138 C105.407,19.138 106.386,18.534 107.019,17.614 L107.076,14.161 C107.076,14.161 106.73,14.132 106.501,14.132 L106.501,14.132 Z" id="a" sketch:type="MSShapeGroup"></path>
            <path d="M96.401,21.325 C93.207,21.325 93.207,18.448 93.207,17.211 L93.207,4.81 C93.207,2.824 93.121,1.76 92.92,0.551 L96.172,-0.168 C96.401,0.724 96.431,1.932 96.431,3.831 L96.431,16.175 C96.431,18.131 96.517,18.448 96.746,18.793 C96.919,19.052 97.408,19.196 97.782,19.023 L98.301,20.98 C97.726,21.21 97.12,21.325 96.401,21.325" id="l" sketch:type="MSShapeGroup"></path>
            <path d="M85.554,21.297 C84.316,21.297 83.109,20.894 82.102,20.117 C82.102,20.117 82.159,20.75 82.159,21.555 L82.159,26.418 L79.109,27.195 L79.109,10.219 C79.109,8.407 79.022,7.658 78.821,6.594 L81.727,6.076 C81.871,6.565 81.929,6.968 81.958,7.86 C82.878,6.738 84.316,6.133 85.842,6.133 C88.776,6.133 91.338,8.349 91.338,13.413 C91.338,18.247 89.266,21.297 85.554,21.297 M82.159,10.248 L82.159,17.498 C82.907,18.247 83.914,18.793 84.863,18.793 C86.993,18.793 87.941,17.211 87.941,13.758 C87.941,10.507 87.309,8.752 85.237,8.752 C84.087,8.752 83.021,9.27 82.159,10.248" id="p" sketch:type="MSShapeGroup"></path>
            <path d="M74.131,6.45 L77.612,6.45 L76.778,8.637 L74.102,8.637 L74.102,16.808 C74.102,18.621 74.505,19.139 75.886,19.139 C76.318,19.139 76.692,19.053 77.238,18.851 L77.641,20.75 C76.692,21.182 75.771,21.383 74.793,21.383 C71.973,21.383 70.995,19.713 70.995,17.643 L70.995,8.637 L69.383,8.637 L69.383,6.45 L70.995,6.45 C70.995,5.212 70.995,3.947 71.139,2.853 L74.39,2.077 C74.246,3.256 74.131,5.012 74.131,6.45" id="t" sketch:type="MSShapeGroup"></path>
            <path d="M60.32,14.593 L60.32,14.823 C60.32,16.837 61.068,18.966 63.917,18.966 C65.269,18.966 66.449,18.477 67.542,17.528 L68.779,19.455 C67.254,20.75 65.499,21.383 63.543,21.383 C59.428,21.383 56.839,18.419 56.839,13.758 C56.839,11.197 57.385,9.5 58.651,8.061 C59.831,6.709 61.27,6.105 63.111,6.105 C64.55,6.105 65.873,6.479 67.11,7.601 C68.377,8.752 69.01,10.536 69.01,13.931 L69.01,14.593 L60.32,14.593 L60.32,14.593 Z M63.111,8.493 C61.327,8.493 60.349,9.903 60.349,12.262 L65.729,12.262 C65.729,9.903 64.694,8.493 63.111,8.493 L63.111,8.493 Z" id="e" sketch:type="MSShapeGroup"></path>
            <path d="M44.725,21.009 L44.725,4.062 C44.725,2.652 44.639,1.674 44.409,0.552 L47.573,-0.225 C47.746,0.695 47.861,2.105 47.861,3.63 L47.861,21.009 L44.725,21.009 L44.725,21.009 Z M53.587,21.009 L48.091,12.78 L52.407,6.45 L56.234,6.45 L51.256,12.607 L57.414,21.009 L53.587,21.009 L53.587,21.009 Z" id="k" sketch:type="MSShapeGroup"></path>
            <path d="M43.027,9.212 C42.711,9.097 42.48,9.011 42.135,9.011 C40.813,9.011 39.689,9.989 39.402,11.169 L39.402,21.009 L36.237,21.009 L36.237,10.737 C36.237,8.896 36.035,7.716 35.719,6.824 L38.626,6.076 C38.97,6.738 39.172,7.572 39.172,8.378 C40.323,6.795 41.475,6.047 42.883,6.047 C43.344,6.047 43.631,6.105 44.006,6.277 L43.027,9.212" id="r" sketch:type="MSShapeGroup"></path>
            <path d="M32.813,21.613 C31.921,21.269 31.173,20.577 30.828,19.656 C29.648,20.98 28.382,21.44 26.828,21.44 C23.491,21.44 21.995,19.598 21.995,17.067 C21.995,13.7 24.527,12.003 29.188,12.003 L30.166,12.003 L30.166,11.227 C30.166,9.557 29.878,8.665 28.152,8.665 C26.051,8.665 23.807,10.335 23.807,10.335 L22.397,8.062 C24.584,6.68 26.397,6.076 28.583,6.076 C30.856,6.076 32.381,6.91 33.015,8.493 C33.273,9.125 33.273,9.902 33.245,12.06 L33.187,16.232 C33.158,18.19 33.331,18.822 34.453,19.598 L32.813,21.613 L32.813,21.613 Z M29.533,14.132 C26.368,14.132 25.419,15.053 25.419,16.895 C25.419,18.275 26.166,19.138 27.432,19.138 C28.44,19.138 29.418,18.534 30.051,17.614 L30.108,14.161 C30.108,14.161 29.763,14.132 29.533,14.132 L29.533,14.132 Z" id="a" sketch:type="MSShapeGroup"></path>
            <path d="M17.132,21.009 L16.21,8.665 C16.124,7.399 16.066,5.903 16.066,5.299 C15.922,5.961 15.665,7.14 15.29,8.407 L11.665,21.009 L8.845,21.009 L5.536,8.953 C5.163,7.63 4.788,5.932 4.672,5.27 C4.672,5.932 4.558,7.745 4.472,8.982 L3.608,21.009 L0.356,21.009 L2.169,1.098 L6.572,1.098 L9.622,12.377 C10.082,14.046 10.254,15.082 10.37,15.686 C10.456,15.082 10.716,13.816 11.09,12.435 L14.226,1.098 L18.627,1.098 L20.383,21.009 L17.132,21.009" id="M" sketch:type="MSShapeGroup"></path>
        </g>
        <g id="Logo" sketch:type="MSLayerGroup">
            <g id="Fill-12">
                <use fill="none" sketch:type="MSShapeGroup" xlink:href="#path-2"></use>
                <use fill="url(#linearGradient-1)" fill-rule="evenodd" xlink:href="#path-2"></use>
            </g>
            <g id="Fill-13">
                <use fill="none" sketch:type="MSShapeGroup" xlink:href="#path-4"></use>
                <use fill="url(#linearGradient-3)" fill-rule="evenodd" xlink:href="#path-4"></use>
            </g>
        </g>
    </g>
</svg>