<?xml version="1.0" encoding="utf-8"?>
<!-- Generator: Adobe Illustrator 18.1.1, SVG Export Plug-In . SVG Version: 6.00 Build 0)  -->
<svg version="1.1" id="Layer_1" xmlns="http://www.w3.org/2000/svg" xmlns:xlink="http://www.w3.org/1999/xlink" x="0px" y="0px"
	 viewBox="0 0 34 42" enable-background="new 0 0 34 42" xml:space="preserve">
<g>
	<g>
		<g>
			<g>
				<linearGradient id="SVGID_1_" gradientUnits="userSpaceOnUse" x1="17.0001" y1="31.7818" x2="17.0001" y2="-0.2182">
					<stop  offset="0" style="stop-color:#A00D55"/>
					<stop  offset="1" style="stop-color:#5A197E"/>
				</linearGradient>
				<path fill="url(#SVGID_1_)" d="M34,9.1c0-0.8-0.5-1.4-1.3-1.4l-3.6,0c0,0-2.8-0.2-3.5-3.3c-0.6-2.4-1-4.3-3.9-4.3
					c-0.7,0-1.6,0-2.5,0c0,0-2.3,0-4.5,0c-0.9,0-1.7,0-2.5,0C9.4,0,8.9,1.9,8.3,4.3C7.6,7.4,4.9,7.6,4.9,7.6L1.3,7.6
					C0.6,7.6,0,8.3,0,9.1l0.5,9.5c0,0,0,0.1,0,0.1L0,30.9C0,31.6,0.6,32,1.3,32h31.4c0.7,0,1.3-0.4,1.3-1.1l-0.5-12.4c0,0,0,0,0-0.1
					L34,9.1z M14.7,4h4.4c0.6,0,1.2,0.8,1.3,1.4C20.5,6.1,19.9,7,19.3,7h-4.4c-0.6,0-1.2-0.8-1.3-1.4C13.5,4.9,14.1,4,14.7,4z"/>
			</g>
		</g>
		<g>
			<path fill="#FFFFFF" d="M20.9,17.7c-0.6-3.3-2.7-6.5-3.6-6.5c-1,0-3.3,3.3-4,6.5l-2.6,2.2V26h2.3l2.1-2.4
				c0.2,0.2,0.5,0.4,0.7,0.4h2.7c0.3,0,0.5-0.1,0.7-0.4l2.1,2.4h2v-6.1L20.9,17.7z M17.1,16.6c-0.5,0-0.9,0-1.3,0.1
				c0.4-1.2,1-2.1,1.3-2.1c0.3,0,0.9,1,1.3,2.1C18,16.6,17.6,16.6,17.1,16.6z"/>
			<path fill="#FFFFFF" d="M17.7,25c0.1,0,0.1,0.4,0.1,0.7c0,0.7-0.5,1.2-0.7,1.2c-0.2,0-0.7-0.5-0.7-1.2c0-0.3,0-0.7,0.1-0.7h-0.8
				c-0.1,0-0.1,0.7-0.1,1.1c0,1.5,1.1,2.7,1.5,2.7c0.4,0,1.5-1.2,1.5-2.7c0-0.4-0.1-1.1-0.1-1.1H17.7z"/>
		</g>
	</g>
	<g>
		<g>
			<path fill="#797979" d="M10.5,38.2L10.5,38.2c0.7,0.1,1.5,0.6,1.5,1.7c0,1.4-1.1,1.9-2.6,1.9H7.7V35h1.6c1.3,0,2.4,0.4,2.4,1.7
				C11.7,37.6,11.2,38.1,10.5,38.2z M8.3,38h1.4c0.9,0,1.4-0.5,1.4-1.3c0-0.8-0.6-1.2-1.6-1.2H8.3V38z M8.3,38.5v2.9h1.3
				c1,0,1.8-0.3,1.8-1.4c0-1.1-0.7-1.4-1.6-1.4H8.3z"/>
			<path fill="#797979" d="M14,39.5c0.1,1.4,0.8,2,1.7,2c0.5,0,1-0.2,1.4-0.5l0.3,0.4c-0.4,0.4-1,0.6-1.7,0.6c-1.4,0-2.2-1-2.2-2.7
				s0.8-2.7,2.1-2.7s2,1,2,2.6c0,0.1,0,0.3,0,0.4H14z M14,39h3c0-1.3-0.5-2-1.4-2C14.7,37,14.1,37.7,14,39z"/>
			<path fill="#797979" d="M18.5,36.7h1v-1.2l0.6-0.1v1.3h1.4l-0.1,0.4H20v3.5c0,0.6,0.2,0.9,0.8,0.9c0.3,0,0.5-0.1,0.8-0.2l0.2,0.4
				c-0.3,0.2-0.7,0.3-1.1,0.3c-0.8,0-1.3-0.5-1.3-1.4v-3.5h-1V36.7z"/>
			<path fill="#797979" d="M25.9,41.1c-0.4,0.6-1,0.9-1.6,0.9c-1,0-1.6-0.6-1.6-1.6c0-1.1,0.9-1.7,2.3-1.7h0.9v-0.5
				c0-0.8-0.4-1.2-1.2-1.2c-0.4,0-0.8,0.1-1.4,0.3L23,36.9c0.6-0.2,1.2-0.3,1.6-0.3c1.2,0,1.7,0.6,1.7,1.7v2.5
				c0,0.6,0.2,0.8,0.5,0.8L26.8,42C26.3,41.9,26,41.7,25.9,41.1L25.9,41.1z M25.8,39.2H25c-1.1,0-1.7,0.4-1.7,1.2
				c0,0.7,0.4,1.1,1.1,1.1c0.6,0,1.1-0.4,1.4-0.9V39.2z"/>
		</g>
	</g>
</g>
</svg>
