<?xml version="1.0" encoding="UTF-8" standalone="no"?>
<svg width="30px" height="289px" viewBox="0 0 30 289" version="1.1" xmlns="http://www.w3.org/2000/svg" xmlns:xlink="http://www.w3.org/1999/xlink" xmlns:sketch="http://www.bohemiancoding.com/sketch/ns">
    <g id="Page-1" stroke="none" stroke-width="1" fill="none" fill-rule="evenodd" sketch:type="MSPage">
        <g sketch:type="MSLayerGroup">
            <g id="Group" sketch:type="MSShapeGroup">
                <g transform="translate(0.000000, 79.000000)">
                    <g>
                        <path d="M27.9877241,7.50131405 C23.8469497,0.328071077 14.674557,-2.12999818 7.50131405,2.01227594 C0.328071077,6.15305032 -2.12999818,15.325443 2.01227594,22.4986859 C6.15305032,29.6719289 15.325443,32.1299982 22.4986859,27.9877241 C29.6719289,23.8454499 32.1299982,14.674557 27.9877241,7.50131405" id="Fill-1" fill="#0092FF"></path>
                        <path d="M23.3666281,4.07298827 C23.6481722,4.11544683 23.8486193,4.18368378 23.9572586,4.45663162 C24.0689582,4.73716134 24.2418629,4.66892438 24.3902856,4.50060655 C24.5999136,4.25950263 24.7039625,3.98200566 24.6810105,3.6711484 C24.3367311,3.37545491 23.9786804,3.09947432 23.6129792,2.8386575 C23.4492552,2.98726243 23.2763504,3.12221998 23.1065059,3.26779216 C22.9825653,3.37545491 22.8219015,3.6317226 22.8662753,3.70299232 C22.9718543,3.87131015 23.178422,4.04417711 23.3666281,4.07298827 L23.3666281,4.07298827 Z M20.2145586,5.4346947 C20.4517289,5.4938334 20.7715262,5.32096644 20.8357917,5.71522442 C20.9061777,6.15952285 21.1249864,6.52648605 21.4050004,6.88738374 C21.7967139,7.39385362 21.5473025,7.90487262 20.9122982,8.01860089 C20.8128397,8.03831379 20.7118511,8.05499393 20.6093323,8.06105944 C20.0799071,8.10048524 20.0569551,8.13081278 19.9896293,8.66002831 C19.9437254,9.01940962 20.1457027,9.21198949 20.4027647,9.40608573 C20.6399349,9.58350182 20.8312013,9.44551152 20.991865,9.33026688 C21.1586493,9.21198949 21.2948309,9.03457339 21.3988798,8.85564092 C21.692665,8.35372018 22.0308239,7.86544683 22.6000326,7.69409624 C23.0896744,7.54549131 23.6374613,7.34381318 24.1102717,7.71684189 C24.3198996,7.60008087 24.5723712,7.44995956 24.7498664,7.51061464 C25.14311,7.64557218 25.4690279,7.89577436 25.6786558,8.30519612 C25.8102471,8.56146381 26.0841405,8.74494541 26.2555151,8.92084513 C26.4972758,8.69642135 26.6441684,8.45531743 26.838495,8.40830975 C27.1858347,8.32339264 27.563777,8.32794177 27.9248879,8.35372018 C28.054949,8.36281844 28.2355045,8.51748888 28.276818,8.64334816 C28.3166014,8.76465831 28.2171429,8.93904165 28.1574678,9.0800647 C28.1329857,9.14071977 28.0534189,9.18166195 27.9432495,9.27871007 C28.2599865,9.32723413 28.4956267,9.36969268 28.732797,9.39547109 C28.7771708,9.4015366 28.8138939,9.4076021 28.8521472,9.41366761 C28.5950852,8.79195309 28.2967097,8.17782046 27.9478399,7.58036797 C27.341908,6.54013344 26.6273369,5.59997978 25.8301388,4.76142337 C25.6602942,4.9828144 25.4062925,5.15416498 25.0926157,5.21936919 C24.7085529,5.29973716 24.3918158,5.22240194 24.0597774,5.09654266 C23.821077,5.00707643 23.6619434,5.06924788 23.4492552,5.22998383 C23.1034456,5.48928427 22.68725,5.66215123 22.2863557,5.84260008 C22.1945479,5.88354226 22.0109322,5.83956733 21.9313654,5.76829761 C21.6620623,5.52719369 21.4141812,5.26182774 21.1708903,4.99494541 C21.0836729,4.89941367 21.0301183,4.77203801 20.9459611,4.63859685 C20.6858389,4.9236757 20.4593795,5.16932875 20.2145586,5.4346947 L20.2145586,5.4346947 Z M8.23210394,9.96562879 C8.46315369,9.8079256 8.68349254,9.57440356 8.79825235,9.322685 C9.20985755,8.4310554 10.1065142,8.08532147 10.7920128,7.50454913 C10.8700495,7.43782855 11.004701,7.43024666 11.1164006,7.41053376 C11.3566311,7.36352608 11.6932599,7.40750101 11.8156704,7.26496159 C11.9411411,7.12090578 11.8539236,6.79791751 11.8615743,6.55378083 C11.8753455,6.0442782 12.0819131,5.83653457 12.5807358,5.82743631 C12.7980144,5.82288718 13.015293,5.82288718 13.2325715,5.83046907 C13.6992614,5.84714921 13.7956597,5.97755762 13.717623,6.43247068 C13.7038518,6.52193692 13.7558763,6.65992721 13.8262623,6.70996765 C13.8844073,6.75090983 14.0114081,6.69935301 14.1078064,6.68873837 C14.0894448,6.58714112 14.0710832,6.4840275 14.0527217,6.38243025 C14.0114081,6.15649009 13.9318413,5.93206632 13.9379619,5.71067529 C13.9471426,5.45289123 13.9058291,5.25727861 13.7099724,5.06621512 C13.5462484,4.90547918 13.4115968,4.69167004 13.33203,4.47482814 C13.2555235,4.26556814 13.1468842,4.18216741 12.9418467,4.21097857 C12.5837961,4.26253538 12.3527463,4.1108977 12.2288057,3.78336029 C12.1339376,3.53164173 11.9411411,3.46643753 11.6886695,3.45127376 C11.249522,3.42549535 11.0659063,3.76364739 11.004701,4.04872624 C10.8516879,4.7659725 10.2579972,5.1465831 9.86781381,5.67579863 C9.61993261,6.01091791 9.15018244,5.91083704 9.07979642,5.50899717 C9.02012132,5.16326324 8.84262614,5.01010918 8.54578076,4.90093004 C8.3545144,4.83420946 8.17701923,4.72957946 7.99952405,4.63101496 C7.51294244,4.36109988 7.41501407,3.82581884 7.83120966,3.46947028 C8.44173186,2.94480388 9.11804969,2.5763243 9.99022428,2.74615851 C10.1554784,2.77648605 10.4737456,2.65972503 10.5288303,2.530833 C10.7430487,2.01526486 11.2311604,1.80752123 11.6075726,1.48301658 C11.8875865,1.24039628 12.3711079,1.30256773 12.6327602,1.53760615 C12.9510275,1.82116862 12.8791113,2.09714921 12.6603026,2.40497372 C12.5899166,2.50505459 12.5531934,2.74615851 12.6098083,2.79619895 C12.7429297,2.90689446 13.0061122,3.041852 13.1009803,2.9827133 C13.4391392,2.77496967 13.7329243,2.49443995 14.0282396,2.229074 C14.0557819,2.20481197 13.9991671,2.07288718 13.9670343,1.99858471 C13.752816,1.51637687 13.3473313,1.30105135 12.8546292,1.16609381 C12.3053122,1.01445613 12.196673,0.576223211 12.6664231,0.262333199 C12.7597611,0.200161747 12.8592196,0.147088556 12.9602082,0.0970481197 C12.4323131,0.154670441 11.9059481,0.239587545 11.3811132,0.354832188 C10.9174836,0.454913061 10.7690609,0.791548726 10.9633875,1.21006874 C11.0766172,1.4557218 11.1164006,1.71502224 10.8654591,1.89395471 C10.6129875,2.07591994 10.3589858,1.95460979 10.1830208,1.76202992 C10.0682609,1.63617064 10.0376583,1.43145977 9.96421205,1.26465831 C9.9121876,1.14183178 9.84945224,1.02507076 9.7928374,0.905276992 C9.6444147,0.982612212 9.38888285,1.03871816 9.36593089,1.14334816 C9.24811082,1.69834209 8.76305934,1.78477558 8.36675545,1.98797008 C8.29942969,2.02133037 8.15559739,2.0258795 8.12652491,1.98797008 C8.07909085,1.92124949 8.06684981,1.79993934 8.08827164,1.71653862 C8.10969347,1.63010514 8.13264543,1.54518803 8.15865766,1.45723817 C7.78224547,1.63313789 7.4119538,1.82116862 7.04625253,2.03042863 C3.47798741,4.0714719 1.05732041,7.32258391 0,10.960372 C0.377942318,11.56389 0.892066282,12.0840073 1.30826187,12.6678124 C1.48422692,12.9134654 1.55614307,13.2303882 1.6770234,13.5124343 C1.74434916,13.6701375 1.77954217,13.8672665 1.89583211,13.9734129 C2.31967836,14.3540235 2.82309141,14.5784472 3.403011,14.6421351 C3.62181971,14.6663971 3.85439959,14.7316013 4.04260569,14.8407804 C4.63782659,15.1925799 5.21621604,15.5731905 5.79613563,15.9371209 C6.01647448,15.4594622 5.97057055,15.3411848 5.46562737,15.1137283 C5.13052872,14.9620906 5.00811825,14.6921755 5.07544401,14.3343106 C5.0999261,14.2054185 5.12593832,14.0750101 5.17184225,13.8354226 C4.97904576,13.9946421 4.876527,14.0795592 4.7724781,14.16296 C4.11605197,14.6770117 3.41678217,14.4632026 3.14135862,13.6837849 C2.87817612,12.9422766 3.1551298,12.3114638 3.57132539,11.7443389 C4.22469126,10.8572584 5.27895141,11.1377881 6.17254782,10.9649211 C6.29342816,10.9421755 6.44338098,11.0270926 6.56732158,11.0862313 C6.71268401,11.1529519 6.84427526,11.2484836 7.03248136,11.3622119 C7.10286737,10.5827942 7.71032932,10.3219774 8.23210394,9.96562879 L8.23210394,9.96562879 Z M6.7815399,6.80549939 C6.79225081,6.70086939 7.02789096,6.54164982 7.15948222,6.54164982 C7.40124289,6.54316619 7.70726906,6.60685402 7.70114853,6.92832592 C7.6996184,7.03750505 7.46550838,7.14213506 7.33697739,7.24828144 C7.04013201,7.14213506 6.74940715,7.13152042 6.7815399,6.80549939 L6.7815399,6.80549939 Z M29.961492,14.070461 C29.9477209,14.0507481 29.9354798,14.0295188 29.9232388,14.0082895 C29.6875986,13.6109988 29.5238746,13.1697331 29.3341384,12.7436312 C29.2790537,12.6177719 29.2101978,12.4843308 29.2071375,12.352406 C29.2040773,12.2159321 29.2545716,11.970279 29.3142467,11.9611808 C29.4213559,11.9414679 29.5498868,11.958148 29.6615864,11.9990902 C29.5758991,11.5987667 29.4718502,11.2045087 29.3525,10.8087343 C29.2392703,10.9634048 29.0694258,11.0725839 28.8399061,11.1226243 C28.1911307,11.2651638 27.5484757,11.2196725 26.9272426,10.9800849 C26.6349876,10.8663567 26.370275,10.8360291 26.1040322,11.0468055 C25.8133073,11.2772948 25.4889196,11.2545491 25.1691222,11.1013951 C25.0191694,11.0316417 24.886048,10.9088152 24.7315048,10.8739385 C24.2066699,10.7495956 23.8761617,10.4705823 23.7797634,9.92013748 C23.762932,9.82460574 23.5456534,9.68358269 23.4339539,9.69419733 C22.6642981,9.7684998 21.8992326,9.94591589 21.1311069,9.95956328 C20.3354389,9.97321068 20.0125813,10.5100081 19.7478687,11.0574201 C19.5627228,11.4395471 19.3362635,11.7322078 19.0256469,12.0021229 C18.4396068,12.5116256 18.1335806,13.1424383 18.1993762,13.9400526 C18.2238583,14.2357461 18.1458217,14.5375051 18.1366409,14.8362313 C18.1289902,15.0955317 18.055544,15.41852 18.1779544,15.603518 C18.5773186,16.2100687 19.0485989,16.7726446 19.506108,17.3382531 C19.5780241,17.4277194 19.7295071,17.5111201 19.8350861,17.5035382 C20.3997044,17.4580469 20.9780939,17.4428831 21.5212903,17.2988273 C22.0797881,17.1532552 22.581671,17.019814 23.0437705,17.4898908 C23.1095661,17.5581278 23.2182054,17.5914881 23.3130735,17.623332 C24.0108132,17.8674687 24.0704883,17.9296401 24.0460062,18.6559846 C24.0307049,19.1108977 24.1301634,19.4884755 24.3688638,19.8994137 C24.8783974,20.7743631 25.2027851,21.7039021 24.7146734,22.7395875 C24.5892027,23.0079863 24.5846123,23.4371209 24.7131432,23.7009705 C25.0314105,24.3514962 25.1354594,25.0368985 25.2823519,25.7283664 C25.3037738,25.83148 25.3343764,25.9345936 25.3634489,26.0361909 C28.6318083,22.894258 30.2782291,18.4816013 29.961492,14.070461 L29.961492,14.070461 Z M19.3607456,2.05620704 C19.7968328,1.89243833 20.2375105,1.73928427 20.6705376,1.56945006 C20.8159,1.51334412 20.9735035,1.46482006 21.1173358,1.40113223 C19.2169133,0.532248281 17.1481764,0.0500404367 15.050367,0 C15.2202115,0.0409421755 15.3961765,0.0530731905 15.5828525,0.0530731905 C16.4198341,0.0515568136 16.6753659,0.413970886 16.5345939,1.2328144 C16.4458463,1.74838253 16.4366655,2.28517994 16.4366655,2.81287909 C16.4351354,3.12828548 16.6325223,3.35574201 16.9477292,3.45127376 C17.2384541,3.53922362 17.3838165,3.34057825 17.5444802,3.15103114 C17.9254828,2.70066721 18.3432085,2.30034371 18.9766827,2.21845936 C19.108274,2.20026284 19.2306844,2.10624747 19.3607456,2.05620704 L19.3607456,2.05620704 Z M15.8980595,19.9752325 C15.3058988,19.8630206 14.8086063,19.5718763 14.2654099,19.3701981 C13.7803584,19.192782 13.4299584,18.9092196 13.3075479,18.3830368 C13.2126798,17.9751314 12.9204248,17.7749697 12.5271812,17.635463 C12.1538293,17.5020218 11.788128,17.309442 11.4683307,17.0759199 C11.0353036,16.7589972 10.6558312,16.392034 10.0437789,16.5027295 C9.88923564,16.5300243 9.66736667,16.4602709 9.54954659,16.3571573 C9.16089336,16.0129397 8.73704711,15.9795795 8.37746637,16.2934695 C8.03930745,16.589163 7.35839923,16.7317024 7.68278696,17.4656288 C7.75317298,17.623332 7.65371448,17.8856652 7.57414767,18.0752123 C7.47774943,18.3057016 7.32779661,18.516478 7.18702457,18.7272543 C6.74328663,19.3868783 6.82285343,20.0753134 7.12581934,20.7394865 C7.3767608,21.2899313 7.69349788,21.8145977 8.01329523,22.3286494 C8.14641661,22.5424586 8.33615283,22.7577841 8.55343141,22.8790942 C9.31543657,23.3082289 9.72398151,23.9056814 9.63829418,24.7988273 C9.61381209,25.0490295 9.61687235,25.3052972 9.63829418,25.5554994 C9.69031863,26.169632 9.77753609,26.7792155 9.81884962,27.3918318 C9.83874132,27.690558 9.79130727,27.992317 9.7683553,28.2910433 C9.76070465,28.3911241 9.71021033,28.491205 9.72398151,28.5867368 C9.76988543,28.9082087 9.81731949,29.2296805 9.87852472,29.5511524 C10.4247814,29.7300849 10.9832792,29.8817226 11.5478975,30 C11.6932599,29.4738172 11.9946957,28.9673474 12.3940598,28.664072 C12.5118799,28.5761221 12.6098083,28.4123534 12.6388808,28.2682976 C12.7031463,27.9407602 12.8684004,27.7239183 13.1667759,27.5768298 C13.296837,27.5116256 13.4421995,27.4069956 13.5034047,27.284169 C13.7313942,26.8125758 14.0190588,26.342499 14.1139269,25.8405782 C14.2332771,25.2052163 14.6127496,24.8958755 15.1467652,24.6972301 C15.7787093,24.4606753 16.0265905,24.2135059 15.9913974,23.5629802 C15.9454935,22.7441367 16.1857241,22.0557016 16.7105589,21.4339871 C16.9002952,21.2095633 17.0395371,20.886575 16.8023668,20.6363728 C16.5453048,20.3664577 16.2331581,20.0389203 15.8980595,19.9752325 L15.8980595,19.9752325 Z" id="Fill-2" fill="#FFFFFF"></path>
                    </g>
                </g>
                <path d="M27.9494277,120.82019 C30.0837135,119.623404 30.5604992,117.894654 29.3283563,115.82144 C28.0956777,113.748226 26.3171063,113.285369 24.1822849,114.482154 C23.0942492,115.092869 22.717642,116.010011 22.4487135,116.79269 L19.1621063,111.26144 C19.0131777,111.011797 18.6842492,110.925547 18.4265706,111.07019 L12.5256777,114.380904 C12.3537135,114.476261 12.2508563,114.655726 12.2567492,114.847511 C12.2621063,115.038761 12.375142,115.212333 12.551392,115.299654 C13.001392,115.520904 13.3222849,115.812333 13.5612135,116.214119 C14.4917492,117.779476 14.1879992,118.880904 12.5765706,119.784654 C10.965142,120.688404 9.8315706,120.393226 8.90103489,118.827869 C8.66210632,118.425547 8.56353489,118.010369 8.59085632,117.520726 C8.60210632,117.32894 8.50353489,117.147333 8.33585632,117.046619 C8.16710632,116.94644 7.95603489,116.943761 7.78460632,117.039119 L1.88317775,120.349833 C1.62549918,120.49394 1.53764203,120.813761 1.68603489,121.063404 L4.97371346,126.595726 C4.14174918,126.431797 3.13567775,126.289297 2.04764203,126.900011 C-0.0866436807,128.096797 -0.563429395,129.825547 0.668713462,131.898761 C1.90139203,133.972511 3.67996346,134.435369 5.81424918,133.238583 C6.9028206,132.627869 7.27942775,131.71019 7.54835632,130.928047 L10.8344277,136.457154 C10.9828206,136.706797 11.3117492,136.793047 11.5694277,136.648404 L17.8249635,133.139476 C18.0065706,133.03769 18.1104992,132.84269 18.0917492,132.639654 C18.0724635,132.436619 17.9337135,132.261976 17.7360349,132.194476 C17.0631777,131.96144 16.537642,131.678047 16.1658563,131.051797 C15.2353206,129.48644 15.5390706,128.385011 17.1504992,127.481261 C18.7619277,126.577511 19.8954992,126.87269 20.8260349,128.438047 C21.1978206,129.064297 21.1881777,129.64769 21.0590706,130.330726 C21.0204992,130.531083 21.1062135,130.734654 21.2781777,130.852511 C21.4496063,130.969833 21.675142,130.980011 21.8572849,130.878226 L28.1128206,127.369297 C28.3704992,127.224654 28.4583563,126.905369 28.3099635,126.65519 L25.0233563,121.12394 C25.8553206,121.28894 26.861392,121.430904 27.9494277,120.82019" id="Imported-Layers" fill="#CACACA"></path>
                <path d="M27.9494277,150.82019 C30.0837135,149.623404 30.5604992,147.894654 29.3283563,145.82144 C28.0956777,143.748226 26.3171063,143.285369 24.1822849,144.482154 C23.0942492,145.092869 22.717642,146.010011 22.4487135,146.79269 L19.1621063,141.26144 C19.0131777,141.011797 18.6842492,140.925547 18.4265706,141.07019 L12.5256777,144.380904 C12.3537135,144.476261 12.2508563,144.655726 12.2567492,144.847511 C12.2621063,145.038761 12.375142,145.212333 12.551392,145.299654 C13.001392,145.520904 13.3222849,145.812333 13.5612135,146.214119 C14.4917492,147.779476 14.1879992,148.880904 12.5765706,149.784654 C10.965142,150.688404 9.8315706,150.393226 8.90103489,148.827869 C8.66210632,148.425547 8.56353489,148.010369 8.59085632,147.520726 C8.60210632,147.32894 8.50353489,147.147333 8.33585632,147.046619 C8.16710632,146.94644 7.95603489,146.943761 7.78460632,147.039119 L1.88317775,150.349833 C1.62549918,150.49394 1.53764203,150.813761 1.68603489,151.063404 L4.97371346,156.595726 C4.14174918,156.431797 3.13567775,156.289297 2.04764203,156.900011 C-0.0866436807,158.096797 -0.563429395,159.825547 0.668713462,161.898761 C1.90139203,163.972511 3.67996346,164.435369 5.81424918,163.238583 C6.9028206,162.627869 7.27942775,161.71019 7.54835632,160.928047 L10.8344277,166.457154 C10.9828206,166.706797 11.3117492,166.793047 11.5694277,166.648404 L17.8249635,163.139476 C18.0065706,163.03769 18.1104992,162.84269 18.0917492,162.639654 C18.0724635,162.436619 17.9337135,162.261976 17.7360349,162.194476 C17.0631777,161.96144 16.537642,161.678047 16.1658563,161.051797 C15.2353206,159.48644 15.5390706,158.385011 17.1504992,157.481261 C18.7619277,156.577511 19.8954992,156.87269 20.8260349,158.438047 C21.1978206,159.064297 21.1881777,159.64769 21.0590706,160.330726 C21.0204992,160.531083 21.1062135,160.734654 21.2781777,160.852511 C21.4496063,160.969833 21.675142,160.980011 21.8572849,160.878226 L28.1128206,157.369297 C28.3704992,157.224654 28.4583563,156.905369 28.3099635,156.65519 L25.0233563,151.12394 C25.8553206,151.28894 26.861392,151.430904 27.9494277,150.82019" id="Imported-Layers-Copy" fill="#0092FF"></path>
                <g id="Fill-1-+-Fill-2-Copy" transform="translate(0.000000, 49.000000)">
                    <g>
                        <path d="M27.9877241,7.50131405 C23.8469497,0.328071077 14.674557,-2.12999818 7.50131405,2.01227594 C0.328071077,6.15305032 -2.12999818,15.325443 2.01227594,22.4986859 C6.15305032,29.6719289 15.325443,32.1299982 22.4986859,27.9877241 C29.6719289,23.8454499 32.1299982,14.674557 27.9877241,7.50131405" id="Fill-1" fill="#CACACA"></path>
                        <path d="M23.3666281,4.07298827 C23.6481722,4.11544683 23.8486193,4.18368378 23.9572586,4.45663162 C24.0689582,4.73716134 24.2418629,4.66892438 24.3902856,4.50060655 C24.5999136,4.25950263 24.7039625,3.98200566 24.6810105,3.6711484 C24.3367311,3.37545491 23.9786804,3.09947432 23.6129792,2.8386575 C23.4492552,2.98726243 23.2763504,3.12221998 23.1065059,3.26779216 C22.9825653,3.37545491 22.8219015,3.6317226 22.8662753,3.70299232 C22.9718543,3.87131015 23.178422,4.04417711 23.3666281,4.07298827 L23.3666281,4.07298827 Z M20.2145586,5.4346947 C20.4517289,5.4938334 20.7715262,5.32096644 20.8357917,5.71522442 C20.9061777,6.15952285 21.1249864,6.52648605 21.4050004,6.88738374 C21.7967139,7.39385362 21.5473025,7.90487262 20.9122982,8.01860089 C20.8128397,8.03831379 20.7118511,8.05499393 20.6093323,8.06105944 C20.0799071,8.10048524 20.0569551,8.13081278 19.9896293,8.66002831 C19.9437254,9.01940962 20.1457027,9.21198949 20.4027647,9.40608573 C20.6399349,9.58350182 20.8312013,9.44551152 20.991865,9.33026688 C21.1586493,9.21198949 21.2948309,9.03457339 21.3988798,8.85564092 C21.692665,8.35372018 22.0308239,7.86544683 22.6000326,7.69409624 C23.0896744,7.54549131 23.6374613,7.34381318 24.1102717,7.71684189 C24.3198996,7.60008087 24.5723712,7.44995956 24.7498664,7.51061464 C25.14311,7.64557218 25.4690279,7.89577436 25.6786558,8.30519612 C25.8102471,8.56146381 26.0841405,8.74494541 26.2555151,8.92084513 C26.4972758,8.69642135 26.6441684,8.45531743 26.838495,8.40830975 C27.1858347,8.32339264 27.563777,8.32794177 27.9248879,8.35372018 C28.054949,8.36281844 28.2355045,8.51748888 28.276818,8.64334816 C28.3166014,8.76465831 28.2171429,8.93904165 28.1574678,9.0800647 C28.1329857,9.14071977 28.0534189,9.18166195 27.9432495,9.27871007 C28.2599865,9.32723413 28.4956267,9.36969268 28.732797,9.39547109 C28.7771708,9.4015366 28.8138939,9.4076021 28.8521472,9.41366761 C28.5950852,8.79195309 28.2967097,8.17782046 27.9478399,7.58036797 C27.341908,6.54013344 26.6273369,5.59997978 25.8301388,4.76142337 C25.6602942,4.9828144 25.4062925,5.15416498 25.0926157,5.21936919 C24.7085529,5.29973716 24.3918158,5.22240194 24.0597774,5.09654266 C23.821077,5.00707643 23.6619434,5.06924788 23.4492552,5.22998383 C23.1034456,5.48928427 22.68725,5.66215123 22.2863557,5.84260008 C22.1945479,5.88354226 22.0109322,5.83956733 21.9313654,5.76829761 C21.6620623,5.52719369 21.4141812,5.26182774 21.1708903,4.99494541 C21.0836729,4.89941367 21.0301183,4.77203801 20.9459611,4.63859685 C20.6858389,4.9236757 20.4593795,5.16932875 20.2145586,5.4346947 L20.2145586,5.4346947 Z M8.23210394,9.96562879 C8.46315369,9.8079256 8.68349254,9.57440356 8.79825235,9.322685 C9.20985755,8.4310554 10.1065142,8.08532147 10.7920128,7.50454913 C10.8700495,7.43782855 11.004701,7.43024666 11.1164006,7.41053376 C11.3566311,7.36352608 11.6932599,7.40750101 11.8156704,7.26496159 C11.9411411,7.12090578 11.8539236,6.79791751 11.8615743,6.55378083 C11.8753455,6.0442782 12.0819131,5.83653457 12.5807358,5.82743631 C12.7980144,5.82288718 13.015293,5.82288718 13.2325715,5.83046907 C13.6992614,5.84714921 13.7956597,5.97755762 13.717623,6.43247068 C13.7038518,6.52193692 13.7558763,6.65992721 13.8262623,6.70996765 C13.8844073,6.75090983 14.0114081,6.69935301 14.1078064,6.68873837 C14.0894448,6.58714112 14.0710832,6.4840275 14.0527217,6.38243025 C14.0114081,6.15649009 13.9318413,5.93206632 13.9379619,5.71067529 C13.9471426,5.45289123 13.9058291,5.25727861 13.7099724,5.06621512 C13.5462484,4.90547918 13.4115968,4.69167004 13.33203,4.47482814 C13.2555235,4.26556814 13.1468842,4.18216741 12.9418467,4.21097857 C12.5837961,4.26253538 12.3527463,4.1108977 12.2288057,3.78336029 C12.1339376,3.53164173 11.9411411,3.46643753 11.6886695,3.45127376 C11.249522,3.42549535 11.0659063,3.76364739 11.004701,4.04872624 C10.8516879,4.7659725 10.2579972,5.1465831 9.86781381,5.67579863 C9.61993261,6.01091791 9.15018244,5.91083704 9.07979642,5.50899717 C9.02012132,5.16326324 8.84262614,5.01010918 8.54578076,4.90093004 C8.3545144,4.83420946 8.17701923,4.72957946 7.99952405,4.63101496 C7.51294244,4.36109988 7.41501407,3.82581884 7.83120966,3.46947028 C8.44173186,2.94480388 9.11804969,2.5763243 9.99022428,2.74615851 C10.1554784,2.77648605 10.4737456,2.65972503 10.5288303,2.530833 C10.7430487,2.01526486 11.2311604,1.80752123 11.6075726,1.48301658 C11.8875865,1.24039628 12.3711079,1.30256773 12.6327602,1.53760615 C12.9510275,1.82116862 12.8791113,2.09714921 12.6603026,2.40497372 C12.5899166,2.50505459 12.5531934,2.74615851 12.6098083,2.79619895 C12.7429297,2.90689446 13.0061122,3.041852 13.1009803,2.9827133 C13.4391392,2.77496967 13.7329243,2.49443995 14.0282396,2.229074 C14.0557819,2.20481197 13.9991671,2.07288718 13.9670343,1.99858471 C13.752816,1.51637687 13.3473313,1.30105135 12.8546292,1.16609381 C12.3053122,1.01445613 12.196673,0.576223211 12.6664231,0.262333199 C12.7597611,0.200161747 12.8592196,0.147088556 12.9602082,0.0970481197 C12.4323131,0.154670441 11.9059481,0.239587545 11.3811132,0.354832188 C10.9174836,0.454913061 10.7690609,0.791548726 10.9633875,1.21006874 C11.0766172,1.4557218 11.1164006,1.71502224 10.8654591,1.89395471 C10.6129875,2.07591994 10.3589858,1.95460979 10.1830208,1.76202992 C10.0682609,1.63617064 10.0376583,1.43145977 9.96421205,1.26465831 C9.9121876,1.14183178 9.84945224,1.02507076 9.7928374,0.905276992 C9.6444147,0.982612212 9.38888285,1.03871816 9.36593089,1.14334816 C9.24811082,1.69834209 8.76305934,1.78477558 8.36675545,1.98797008 C8.29942969,2.02133037 8.15559739,2.0258795 8.12652491,1.98797008 C8.07909085,1.92124949 8.06684981,1.79993934 8.08827164,1.71653862 C8.10969347,1.63010514 8.13264543,1.54518803 8.15865766,1.45723817 C7.78224547,1.63313789 7.4119538,1.82116862 7.04625253,2.03042863 C3.47798741,4.0714719 1.05732041,7.32258391 0,10.960372 C0.377942318,11.56389 0.892066282,12.0840073 1.30826187,12.6678124 C1.48422692,12.9134654 1.55614307,13.2303882 1.6770234,13.5124343 C1.74434916,13.6701375 1.77954217,13.8672665 1.89583211,13.9734129 C2.31967836,14.3540235 2.82309141,14.5784472 3.403011,14.6421351 C3.62181971,14.6663971 3.85439959,14.7316013 4.04260569,14.8407804 C4.63782659,15.1925799 5.21621604,15.5731905 5.79613563,15.9371209 C6.01647448,15.4594622 5.97057055,15.3411848 5.46562737,15.1137283 C5.13052872,14.9620906 5.00811825,14.6921755 5.07544401,14.3343106 C5.0999261,14.2054185 5.12593832,14.0750101 5.17184225,13.8354226 C4.97904576,13.9946421 4.876527,14.0795592 4.7724781,14.16296 C4.11605197,14.6770117 3.41678217,14.4632026 3.14135862,13.6837849 C2.87817612,12.9422766 3.1551298,12.3114638 3.57132539,11.7443389 C4.22469126,10.8572584 5.27895141,11.1377881 6.17254782,10.9649211 C6.29342816,10.9421755 6.44338098,11.0270926 6.56732158,11.0862313 C6.71268401,11.1529519 6.84427526,11.2484836 7.03248136,11.3622119 C7.10286737,10.5827942 7.71032932,10.3219774 8.23210394,9.96562879 L8.23210394,9.96562879 Z M6.7815399,6.80549939 C6.79225081,6.70086939 7.02789096,6.54164982 7.15948222,6.54164982 C7.40124289,6.54316619 7.70726906,6.60685402 7.70114853,6.92832592 C7.6996184,7.03750505 7.46550838,7.14213506 7.33697739,7.24828144 C7.04013201,7.14213506 6.74940715,7.13152042 6.7815399,6.80549939 L6.7815399,6.80549939 Z M29.961492,14.070461 C29.9477209,14.0507481 29.9354798,14.0295188 29.9232388,14.0082895 C29.6875986,13.6109988 29.5238746,13.1697331 29.3341384,12.7436312 C29.2790537,12.6177719 29.2101978,12.4843308 29.2071375,12.352406 C29.2040773,12.2159321 29.2545716,11.970279 29.3142467,11.9611808 C29.4213559,11.9414679 29.5498868,11.958148 29.6615864,11.9990902 C29.5758991,11.5987667 29.4718502,11.2045087 29.3525,10.8087343 C29.2392703,10.9634048 29.0694258,11.0725839 28.8399061,11.1226243 C28.1911307,11.2651638 27.5484757,11.2196725 26.9272426,10.9800849 C26.6349876,10.8663567 26.370275,10.8360291 26.1040322,11.0468055 C25.8133073,11.2772948 25.4889196,11.2545491 25.1691222,11.1013951 C25.0191694,11.0316417 24.886048,10.9088152 24.7315048,10.8739385 C24.2066699,10.7495956 23.8761617,10.4705823 23.7797634,9.92013748 C23.762932,9.82460574 23.5456534,9.68358269 23.4339539,9.69419733 C22.6642981,9.7684998 21.8992326,9.94591589 21.1311069,9.95956328 C20.3354389,9.97321068 20.0125813,10.5100081 19.7478687,11.0574201 C19.5627228,11.4395471 19.3362635,11.7322078 19.0256469,12.0021229 C18.4396068,12.5116256 18.1335806,13.1424383 18.1993762,13.9400526 C18.2238583,14.2357461 18.1458217,14.5375051 18.1366409,14.8362313 C18.1289902,15.0955317 18.055544,15.41852 18.1779544,15.603518 C18.5773186,16.2100687 19.0485989,16.7726446 19.506108,17.3382531 C19.5780241,17.4277194 19.7295071,17.5111201 19.8350861,17.5035382 C20.3997044,17.4580469 20.9780939,17.4428831 21.5212903,17.2988273 C22.0797881,17.1532552 22.581671,17.019814 23.0437705,17.4898908 C23.1095661,17.5581278 23.2182054,17.5914881 23.3130735,17.623332 C24.0108132,17.8674687 24.0704883,17.9296401 24.0460062,18.6559846 C24.0307049,19.1108977 24.1301634,19.4884755 24.3688638,19.8994137 C24.8783974,20.7743631 25.2027851,21.7039021 24.7146734,22.7395875 C24.5892027,23.0079863 24.5846123,23.4371209 24.7131432,23.7009705 C25.0314105,24.3514962 25.1354594,25.0368985 25.2823519,25.7283664 C25.3037738,25.83148 25.3343764,25.9345936 25.3634489,26.0361909 C28.6318083,22.894258 30.2782291,18.4816013 29.961492,14.070461 L29.961492,14.070461 Z M19.3607456,2.05620704 C19.7968328,1.89243833 20.2375105,1.73928427 20.6705376,1.56945006 C20.8159,1.51334412 20.9735035,1.46482006 21.1173358,1.40113223 C19.2169133,0.532248281 17.1481764,0.0500404367 15.050367,0 C15.2202115,0.0409421755 15.3961765,0.0530731905 15.5828525,0.0530731905 C16.4198341,0.0515568136 16.6753659,0.413970886 16.5345939,1.2328144 C16.4458463,1.74838253 16.4366655,2.28517994 16.4366655,2.81287909 C16.4351354,3.12828548 16.6325223,3.35574201 16.9477292,3.45127376 C17.2384541,3.53922362 17.3838165,3.34057825 17.5444802,3.15103114 C17.9254828,2.70066721 18.3432085,2.30034371 18.9766827,2.21845936 C19.108274,2.20026284 19.2306844,2.10624747 19.3607456,2.05620704 L19.3607456,2.05620704 Z M15.8980595,19.9752325 C15.3058988,19.8630206 14.8086063,19.5718763 14.2654099,19.3701981 C13.7803584,19.192782 13.4299584,18.9092196 13.3075479,18.3830368 C13.2126798,17.9751314 12.9204248,17.7749697 12.5271812,17.635463 C12.1538293,17.5020218 11.788128,17.309442 11.4683307,17.0759199 C11.0353036,16.7589972 10.6558312,16.392034 10.0437789,16.5027295 C9.88923564,16.5300243 9.66736667,16.4602709 9.54954659,16.3571573 C9.16089336,16.0129397 8.73704711,15.9795795 8.37746637,16.2934695 C8.03930745,16.589163 7.35839923,16.7317024 7.68278696,17.4656288 C7.75317298,17.623332 7.65371448,17.8856652 7.57414767,18.0752123 C7.47774943,18.3057016 7.32779661,18.516478 7.18702457,18.7272543 C6.74328663,19.3868783 6.82285343,20.0753134 7.12581934,20.7394865 C7.3767608,21.2899313 7.69349788,21.8145977 8.01329523,22.3286494 C8.14641661,22.5424586 8.33615283,22.7577841 8.55343141,22.8790942 C9.31543657,23.3082289 9.72398151,23.9056814 9.63829418,24.7988273 C9.61381209,25.0490295 9.61687235,25.3052972 9.63829418,25.5554994 C9.69031863,26.169632 9.77753609,26.7792155 9.81884962,27.3918318 C9.83874132,27.690558 9.79130727,27.992317 9.7683553,28.2910433 C9.76070465,28.3911241 9.71021033,28.491205 9.72398151,28.5867368 C9.76988543,28.9082087 9.81731949,29.2296805 9.87852472,29.5511524 C10.4247814,29.7300849 10.9832792,29.8817226 11.5478975,30 C11.6932599,29.4738172 11.9946957,28.9673474 12.3940598,28.664072 C12.5118799,28.5761221 12.6098083,28.4123534 12.6388808,28.2682976 C12.7031463,27.9407602 12.8684004,27.7239183 13.1667759,27.5768298 C13.296837,27.5116256 13.4421995,27.4069956 13.5034047,27.284169 C13.7313942,26.8125758 14.0190588,26.342499 14.1139269,25.8405782 C14.2332771,25.2052163 14.6127496,24.8958755 15.1467652,24.6972301 C15.7787093,24.4606753 16.0265905,24.2135059 15.9913974,23.5629802 C15.9454935,22.7441367 16.1857241,22.0557016 16.7105589,21.4339871 C16.9002952,21.2095633 17.0395371,20.886575 16.8023668,20.6363728 C16.5453048,20.3664577 16.2331581,20.0389203 15.8980595,19.9752325 L15.8980595,19.9752325 Z" id="Fill-2" fill="#FFFFFF"></path>
                    </g>
                </g>
                <g transform="translate(1.000000, 169.000000)" fill="#D3D3D3">
                    <path d="M12.8418549,11.5426873 C12.8418549,12.7262782 11.8851367,13.6829964 10.7015458,13.6829964 L2.14030916,13.6829964 C0.956718193,13.6829964 0,12.7262782 0,11.5426873 L0,2.98145065 C0,1.79785969 0.956718193,0.841141498 2.14030916,0.841141498 L10.7015458,0.841141498 C11.8851367,0.841141498 12.8418549,1.79785969 12.8418549,2.98145065 L12.8418549,11.5426873" id="Fill-1"></path>
                    <path d="M28.9298454,11.5426873 C28.9298454,12.7262782 27.9731272,13.6829964 26.7895363,13.6829964 L18.2282996,13.6829964 C17.0447087,13.6829964 16.0879905,12.7262782 16.0879905,11.5426873 L16.0879905,2.98145065 C16.0879905,1.79785969 17.0447087,0.841141498 18.2282996,0.841141498 L26.7895363,0.841141498 C27.9731272,0.841141498 28.9298454,1.79785969 28.9298454,2.98145065 L28.9298454,11.5426873" id="Fill-2"></path>
                    <path d="M12.8418549,27.6306778 C12.8418549,28.8142687 11.8851367,29.7709869 10.7015458,29.7709869 L2.14030916,29.7709869 C0.956718193,29.7709869 0,28.8142687 0,27.6306778 L0,19.0694411 C0,17.8858502 0.956718193,16.929132 2.14030916,16.929132 L10.7015458,16.929132 C11.8851367,16.929132 12.8418549,17.8858502 12.8418549,19.0694411 L12.8418549,27.6306778" id="Fill-3"></path>
                    <path d="M28.9298454,27.6306778 C28.9298454,28.8142687 27.9731272,29.7709869 26.7895363,29.7709869 L18.2282996,29.7709869 C17.0447087,29.7709869 16.0879905,28.8142687 16.0879905,27.6306778 L16.0879905,19.0694411 C16.0879905,17.8858502 17.0447087,16.929132 18.2282996,16.929132 L26.7895363,16.929132 C27.9731272,16.929132 28.9298454,17.8858502 28.9298454,19.0694411 L28.9298454,27.6306778" id="Fill-4"></path>
                </g>
                <g transform="translate(1.000000, 199.000000)" fill="#0092FF">
                    <path d="M12.8418549,11.5426873 C12.8418549,12.7262782 11.8851367,13.6829964 10.7015458,13.6829964 L2.14030916,13.6829964 C0.956718193,13.6829964 0,12.7262782 0,11.5426873 L0,2.98145065 C0,1.79785969 0.956718193,0.841141498 2.14030916,0.841141498 L10.7015458,0.841141498 C11.8851367,0.841141498 12.8418549,1.79785969 12.8418549,2.98145065 L12.8418549,11.5426873" id="Fill-1"></path>
                    <path d="M28.9298454,11.5426873 C28.9298454,12.7262782 27.9731272,13.6829964 26.7895363,13.6829964 L18.2282996,13.6829964 C17.0447087,13.6829964 16.0879905,12.7262782 16.0879905,11.5426873 L16.0879905,2.98145065 C16.0879905,1.79785969 17.0447087,0.841141498 18.2282996,0.841141498 L26.7895363,0.841141498 C27.9731272,0.841141498 28.9298454,1.79785969 28.9298454,2.98145065 L28.9298454,11.5426873" id="Fill-2"></path>
                    <path d="M12.8418549,27.6306778 C12.8418549,28.8142687 11.8851367,29.7709869 10.7015458,29.7709869 L2.14030916,29.7709869 C0.956718193,29.7709869 0,28.8142687 0,27.6306778 L0,19.0694411 C0,17.8858502 0.956718193,16.929132 2.14030916,16.929132 L10.7015458,16.929132 C11.8851367,16.929132 12.8418549,17.8858502 12.8418549,19.0694411 L12.8418549,27.6306778" id="Fill-3"></path>
                    <path d="M28.9298454,27.6306778 C28.9298454,28.8142687 27.9731272,29.7709869 26.7895363,29.7709869 L18.2282996,29.7709869 C17.0447087,29.7709869 16.0879905,28.8142687 16.0879905,27.6306778 L16.0879905,19.0694411 C16.0879905,17.8858502 17.0447087,16.929132 18.2282996,16.929132 L26.7895363,16.929132 C27.9731272,16.929132 28.9298454,17.8858502 28.9298454,19.0694411 L28.9298454,27.6306778" id="Fill-4"></path>
                </g>
                <g id="Fill-1-+-Fill-2-+-Fill-3-Copy" fill="#CACACA">
                    <path d="M15,0 C12.9290625,0 11.25,1.6790625 11.25,3.75 C11.25,5.8209375 12.9290625,7.5 15,7.5 C17.0709375,7.5 18.75,5.8209375 18.75,3.75 C18.75,1.6790625 17.0709375,0 15,0" id="Fill-1"></path>
                    <path d="M26.25,0 C24.1790625,0 22.5,1.6790625 22.5,3.75 C22.5,5.8209375 24.1790625,7.5 26.25,7.5 C28.3209375,7.5 30,5.8209375 30,3.75 C30,1.6790625 28.3209375,0 26.25,0" id="Fill-2"></path>
                    <path d="M3.75,0 C1.6790625,0 0,1.6790625 0,3.75 C0,5.8209375 1.6790625,7.5 3.75,7.5 C5.8209375,7.5 7.5,5.8209375 7.5,3.75 C7.5,1.6790625 5.8209375,0 3.75,0" id="Fill-3"></path>
                </g>
                <g id="Fill-1-+-Fill-2-+-Fill-3-Copy" transform="translate(0.000000, 30.000000)" fill="#0092FF">
                    <path d="M15,0 C12.9290625,0 11.25,1.6790625 11.25,3.75 C11.25,5.8209375 12.9290625,7.5 15,7.5 C17.0709375,7.5 18.75,5.8209375 18.75,3.75 C18.75,1.6790625 17.0709375,0 15,0" id="Fill-1"></path>
                    <path d="M26.25,0 C24.1790625,0 22.5,1.6790625 22.5,3.75 C22.5,5.8209375 24.1790625,7.5 26.25,7.5 C28.3209375,7.5 30,5.8209375 30,3.75 C30,1.6790625 28.3209375,0 26.25,0" id="Fill-2"></path>
                    <path d="M3.75,0 C1.6790625,0 0,1.6790625 0,3.75 C0,5.8209375 1.6790625,7.5 3.75,7.5 C5.8209375,7.5 7.5,5.8209375 7.5,3.75 C7.5,1.6790625 5.8209375,0 3.75,0" id="Fill-3"></path>
                </g>
            </g>
            <path d="M4,230.991617 C4,229.891677 4.90162726,229 6.00086422,229 L24.9991358,229 C26.1041826,229 27,229.89784 27,230.991617 L27,257.008383 C27,258.108323 26.0983727,259 24.9991358,259 L6.00086422,259 C4.89581743,259 4,258.10216 4,257.008383 L4,230.991617 Z M11,235.166667 C11,235.6275 10.6275,236 10.1666667,236 L6.83333333,236 C6.3725,236 6,235.6275 6,235.166667 L6,231.833333 C6,231.3725 6.3725,231 6.83333333,231 L10.1666667,231 C10.6275,231 11,231.3725 11,231.833333 L11,235.166667 Z M11,249.166667 C11,249.6275 10.6275,250 10.1666667,250 L6.83333333,250 C6.3725,250 6,249.6275 6,249.166667 L6,245.833333 C6,245.3725 6.3725,245 6.83333333,245 L10.1666667,245 C10.6275,245 11,245.3725 11,245.833333 L11,249.166667 Z M11,242.166667 C11,242.6275 10.6275,243 10.1666667,243 L6.83333333,243 C6.3725,243 6,242.6275 6,242.166667 L6,238.833333 C6,238.3725 6.3725,238 6.83333333,238 L10.1666667,238 C10.6275,238 11,238.3725 11,238.833333 L11,242.166667 Z M11,256.166667 C11,256.6275 10.6275,257 10.1666667,257 L6.83333333,257 C6.3725,257 6,256.6275 6,256.166667 L6,252.833333 C6,252.3725 6.3725,252 6.83333333,252 L10.1666667,252 C10.6275,252 11,252.3725 11,252.833333 L11,256.166667 Z M18,235.166667 C18,235.6275 17.6275,236 17.1666667,236 L13.8333333,236 C13.3725,236 13,235.6275 13,235.166667 L13,231.833333 C13,231.3725 13.3725,231 13.8333333,231 L17.1666667,231 C17.6275,231 18,231.3725 18,231.833333 L18,235.166667 Z M18,249.166667 C18,249.6275 17.6275,250 17.1666667,250 L13.8333333,250 C13.3725,250 13,249.6275 13,249.166667 L13,245.833333 C13,245.3725 13.3725,245 13.8333333,245 L17.1666667,245 C17.6275,245 18,245.3725 18,245.833333 L18,249.166667 Z M18,242.166667 C18,242.6275 17.6275,243 17.1666667,243 L13.8333333,243 C13.3725,243 13,242.6275 13,242.166667 L13,238.833333 C13,238.3725 13.3725,238 13.8333333,238 L17.1666667,238 C17.6275,238 18,238.3725 18,238.833333 L18,242.166667 Z M18,256.166667 C18,256.6275 17.6275,257 17.1666667,257 L13.8333333,257 C13.3725,257 13,256.6275 13,256.166667 L13,252.833333 C13,252.3725 13.3725,252 13.8333333,252 L17.1666667,252 C17.6275,252 18,252.3725 18,252.833333 L18,256.166667 Z M25,235.166667 C25,235.6275 24.6275,236 24.1666667,236 L20.8333333,236 C20.3725,236 20,235.6275 20,235.166667 L20,231.833333 C20,231.3725 20.3725,231 20.8333333,231 L24.1666667,231 C24.6275,231 25,231.3725 25,231.833333 L25,235.166667 Z M25,249.166667 C25,249.6275 24.6275,250 24.1666667,250 L20.8333333,250 C20.3725,250 20,249.6275 20,249.166667 L20,245.833333 C20,245.3725 20.3725,245 20.8333333,245 L24.1666667,245 C24.6275,245 25,245.3725 25,245.833333 L25,249.166667 Z M25,242.166667 C25,242.6275 24.6275,243 24.1666667,243 L20.8333333,243 C20.3725,243 20,242.6275 20,242.166667 L20,238.833333 C20,238.3725 20.3725,238 20.8333333,238 L24.1666667,238 C24.6275,238 25,238.3725 25,238.833333 L25,242.166667 Z" id="Rectangle-175" fill="#CAC9CA" sketch:type="MSShapeGroup"></path>
            <path d="M4,260.991617 C4,259.891677 4.90162726,259 6.00086422,259 L24.9991358,259 C26.1041826,259 27,259.89784 27,260.991617 L27,287.008383 C27,288.108323 26.0983727,289 24.9991358,289 L6.00086422,289 C4.89581743,289 4,288.10216 4,287.008383 L4,260.991617 Z M11,265.166667 C11,265.6275 10.6275,266 10.1666667,266 L6.83333333,266 C6.3725,266 6,265.6275 6,265.166667 L6,261.833333 C6,261.3725 6.3725,261 6.83333333,261 L10.1666667,261 C10.6275,261 11,261.3725 11,261.833333 L11,265.166667 Z M11,279.166667 C11,279.6275 10.6275,280 10.1666667,280 L6.83333333,280 C6.3725,280 6,279.6275 6,279.166667 L6,275.833333 C6,275.3725 6.3725,275 6.83333333,275 L10.1666667,275 C10.6275,275 11,275.3725 11,275.833333 L11,279.166667 Z M11,272.166667 C11,272.6275 10.6275,273 10.1666667,273 L6.83333333,273 C6.3725,273 6,272.6275 6,272.166667 L6,268.833333 C6,268.3725 6.3725,268 6.83333333,268 L10.1666667,268 C10.6275,268 11,268.3725 11,268.833333 L11,272.166667 Z M11,286.166667 C11,286.6275 10.6275,287 10.1666667,287 L6.83333333,287 C6.3725,287 6,286.6275 6,286.166667 L6,282.833333 C6,282.3725 6.3725,282 6.83333333,282 L10.1666667,282 C10.6275,282 11,282.3725 11,282.833333 L11,286.166667 Z M18,265.166667 C18,265.6275 17.6275,266 17.1666667,266 L13.8333333,266 C13.3725,266 13,265.6275 13,265.166667 L13,261.833333 C13,261.3725 13.3725,261 13.8333333,261 L17.1666667,261 C17.6275,261 18,261.3725 18,261.833333 L18,265.166667 Z M18,279.166667 C18,279.6275 17.6275,280 17.1666667,280 L13.8333333,280 C13.3725,280 13,279.6275 13,279.166667 L13,275.833333 C13,275.3725 13.3725,275 13.8333333,275 L17.1666667,275 C17.6275,275 18,275.3725 18,275.833333 L18,279.166667 Z M18,272.166667 C18,272.6275 17.6275,273 17.1666667,273 L13.8333333,273 C13.3725,273 13,272.6275 13,272.166667 L13,268.833333 C13,268.3725 13.3725,268 13.8333333,268 L17.1666667,268 C17.6275,268 18,268.3725 18,268.833333 L18,272.166667 Z M18,286.166667 C18,286.6275 17.6275,287 17.1666667,287 L13.8333333,287 C13.3725,287 13,286.6275 13,286.166667 L13,282.833333 C13,282.3725 13.3725,282 13.8333333,282 L17.1666667,282 C17.6275,282 18,282.3725 18,282.833333 L18,286.166667 Z M25,265.166667 C25,265.6275 24.6275,266 24.1666667,266 L20.8333333,266 C20.3725,266 20,265.6275 20,265.166667 L20,261.833333 C20,261.3725 20.3725,261 20.8333333,261 L24.1666667,261 C24.6275,261 25,261.3725 25,261.833333 L25,265.166667 Z M25,279.166667 C25,279.6275 24.6275,280 24.1666667,280 L20.8333333,280 C20.3725,280 20,279.6275 20,279.166667 L20,275.833333 C20,275.3725 20.3725,275 20.8333333,275 L24.1666667,275 C24.6275,275 25,275.3725 25,275.833333 L25,279.166667 Z M25,272.166667 C25,272.6275 24.6275,273 24.1666667,273 L20.8333333,273 C20.3725,273 20,272.6275 20,272.166667 L20,268.833333 C20,268.3725 20.3725,268 20.8333333,268 L24.1666667,268 C24.6275,268 25,268.3725 25,268.833333 L25,272.166667 Z" id="Rectangle-175" fill="#0092FF" sketch:type="MSShapeGroup"></path>
        </g>
    </g>
</svg>
