<svg xmlns="http://www.w3.org/2000/svg" viewBox="0 0 80 280" fill="none">
    <path id="inactive" d="M50,36 C50,43.7326667 43.7311111,50 36,50 C28.2673333,50 22,43.7326667 22,36 C22,28.2673333 28.2673333,22 36,22 C43.7311111,22 50,28.2673333 50,36 L50,36 Z M46,46 L59,59 L46,46 Z" stroke="#222222" stroke-width="5" stroke-linecap="round"></path>
    <g id="hover" transform="translate(0, 100)">
        <rect fill="#BBBBBB" x="0" y="0" width="80" height="80" rx="10"></rect>
        <path d="M50,35 C50,42.7326667 43.7311111,49 36,49 C28.2673333,49 22,42.7326667 22,35 C22,27.2673333 28.2673333,21 36,21 C43.7311111,21 50,27.2673333 50,35 L50,35 Z M46,45 L59,58 L46,45 Z" stroke="#FFFFFF" stroke-width="5" stroke-linecap="round"></path>
    </g>
    <g id="active" transform="translate(0, 200)">
        <rect fill="#1A95FC" x="0" y="0" width="80" height="80" rx="10"></rect>
        <path d="M50,36 C50,43.7326667 43.7311111,50 36,50 C28.2673333,50 22,43.7326667 22,36 C22,28.2673333 28.2673333,22 36,22 C43.7311111,22 50,28.2673333 50,36 L50,36 Z M46,46 L59,59 L46,46 Z" stroke="#FFFFFF" stroke-width="5" stroke-linecap="round"></path>
    </g>
</svg>
