<?xml version="1.0" encoding="UTF-8" standalone="no"?>
<svg width="32px" height="64px" viewBox="0 0 32 64" version="1.1" xmlns="http://www.w3.org/2000/svg" xmlns:xlink="http://www.w3.org/1999/xlink" xmlns:sketch="http://www.bohemiancoding.com/sketch/ns">
    <g id="Page-1" stroke="none" stroke-width="1" fill="none" fill-rule="evenodd" sketch:type="MSPage">
        <g id="search" sketch:type="MSLayerGroup">
            <path d="M25.552846,21.8970789 L31.2421504,27.5843543 C32.2526165,28.5971066 32.2526165,30.2339704 31.2421504,31.2444365 C30.2339704,32.2526165 28.5971066,32.2526165 27.5843543,31.2444365 L21.8969264,25.5529505 C19.6487859,27.0927659 16.9285221,27.9935703 13.9979282,27.9935703 C6.26626183,27.9935703 0,21.7273084 0,13.9979282 C0,6.26626183 6.26626183,0 13.9979282,0 C21.7273084,0 27.9935703,6.26626183 27.9935703,13.9979282 C27.9935703,16.9285884 27.0927252,19.648909 25.552846,21.8970789 L25.552846,21.8970789 Z M13.7121629,4.56310055 C8.65754599,4.56310055 4.56081443,8.65754599 4.56081443,13.7121629 C4.56081443,18.7644937 8.65754599,22.8612252 13.7121629,22.8612252 C18.7644937,22.8612252 22.8612252,18.7644937 22.8612252,13.7121629 C22.8612252,8.65754599 18.7644937,4.56310055 13.7121629,4.56310055 Z" id="Fill-1-Copy" fill="#000000" sketch:type="MSShapeGroup"></path>
            <path d="M25.552846,53.8970789 L31.2421504,59.5843543 C32.2526165,60.5971066 32.2526165,62.2339704 31.2421504,63.2444365 C30.2339704,64.2526165 28.5971066,64.2526165 27.5843543,63.2444365 L21.8969264,57.5529505 C19.6487859,59.0927659 16.9285221,59.9935703 13.9979282,59.9935703 C6.26626183,59.9935703 0,53.7273084 0,45.9979282 C0,38.2662618 6.26626183,32 13.9979282,32 C21.7273084,32 27.9935703,38.2662618 27.9935703,45.9979282 C27.9935703,48.9285884 27.0927252,51.648909 25.552846,53.8970789 L25.552846,53.8970789 Z M13.7121629,36.5631006 C8.65754599,36.5631006 4.56081443,40.657546 4.56081443,45.7121629 C4.56081443,50.7644937 8.65754599,54.8612252 13.7121629,54.8612252 C18.7644937,54.8612252 22.8612252,50.7644937 22.8612252,45.7121629 C22.8612252,40.657546 18.7644937,36.5631006 13.7121629,36.5631006 Z" id="Fill-1-Copy" fill="#0092FF" sketch:type="MSShapeGroup"></path>
        </g>
    </g>
</svg>
