<svg xmlns="http://www.w3.org/2000/svg" viewBox="0 0 80 280" fill="none">
    <path id="inactive" d="M48.5961823,41.9544216 C51.1693102,39.7591004 52.8127819,36.5262432 52.8328242,32.9711794 C52.8713672,26.3990906 47.3813083,20.9616622 40.5699969,21.0002036 C33.7586854,21.0387451 28.2054161,26.3990906 28.1653315,32.9711794 C28.1437474,36.5740346 29.7918443,39.7868502 32.3988899,41.9544216 C26.2813517,44.9066971 22.0400847,50.9839136 22,58 L58.9996974,58 C59.0413238,50.909914 54.7846396,44.8003226 48.5961823,41.9544216 L48.5961823,41.9544216 Z" stroke="#222222" stroke-width="5" stroke-linecap="round" stroke-linejoin="round"></path>
    <g id="hover" transform="translate(0, 100)">
        <rect fill="#BBBBBB" x="0" y="0" width="80" height="80" rx="10"></rect>
        <path d="M48.5961823,40.9544216 C51.1693102,38.7591004 52.8127819,35.5262432 52.8328242,31.9711794 C52.8713672,25.3990906 47.3813083,19.9616622 40.5699969,20.0002036 C33.7586854,20.0387451 28.2054161,25.3990906 28.1653315,31.9711794 C28.1437474,35.5740346 29.7918443,38.7868502 32.3988899,40.9544216 C26.2813517,43.9066971 22.0400847,49.9839136 22,57 L58.9996974,57 C59.0413238,49.909914 54.7846396,43.8003226 48.5961823,40.9544216 L48.5961823,40.9544216 Z" stroke="#FFFFFF" stroke-width="5" stroke-linecap="round" stroke-linejoin="round"></path>
    </g>
    <g id="active" transform="translate(0, 200)">
        <rect fill="#1A95FC" x="0" y="0" width="80" height="80" rx="10"></rect>
        <path d="M48.5961823,41.9544216 C51.1693102,39.7591004 52.8127819,36.5262432 52.8328242,32.9711794 C52.8713672,26.3990906 47.3813083,20.9616622 40.5699969,21.0002036 C33.7586854,21.0387451 28.2054161,26.3990906 28.1653315,32.9711794 C28.1437474,36.5740346 29.7918443,39.7868502 32.3988899,41.9544216 C26.2813517,44.9066971 22.0400847,50.9839136 22,58 L58.9996974,58 C59.0413238,50.909914 54.7846396,44.8003226 48.5961823,41.9544216 L48.5961823,41.9544216 Z" stroke="#FFFFFF" stroke-width="5" stroke-linecap="round" stroke-linejoin="round"></path>
    </g>
</svg>
