<?xml version="1.0" encoding="UTF-8" standalone="no"?>
<svg width="66px" height="59px" viewBox="0 0 66 59" version="1.1" xmlns="http://www.w3.org/2000/svg" xmlns:xlink="http://www.w3.org/1999/xlink" xmlns:sketch="http://www.bohemiancoding.com/sketch/ns">
    <!-- Generator: Sketch 3.3.2 (12043) - http://www.bohemiancoding.com/sketch -->
    <title>alert_triangle</title>
    <desc>Created with Sketch.</desc>
    <defs></defs>
    <g id="Page-1" stroke="none" stroke-width="1" fill="none" fill-rule="evenodd" sketch:type="MSPage">
        <g id="Triangle-1-+-Rectangle-1-+-Oval-1" sketch:type="MSLayerGroup">
            <path d="M4.88354527,46.8062912 C1.08299827,53.5386888 4.26680686,59 11.9973049,59 L54.0026951,59 C61.7263632,59 64.9181318,53.5406906 61.1164547,46.8062912 L39.8835453,9.19370877 C36.0829983,2.46131121 29.9181318,2.45930937 26.1164547,9.19370877 L4.88354527,46.8062912 Z" id="Triangle-1" fill="#FF4E65" sketch:type="MSShapeGroup"></path>
            <path d="M37,14 L29,14 L30.9928385,41 L35.0071615,41" id="Rectangle-1" fill="#FFFFFF" sketch:type="MSShapeGroup"></path>
            <path d="M29,49 C29,46.790861 30.790861,45 33,45 C35.209139,45 37,46.790861 37,49 C37,51.209139 35.209139,53 33,53 C30.790861,53 29,51.209139 29,49 Z" id="Oval-1" fill="#FFFFFF" sketch:type="MSShapeGroup"></path>
        </g>
    </g>
</svg>