<?xml version="1.0" encoding="utf-8"?>
<!-- Generator: Adobe Illustrator 18.1.1, SVG Export Plug-In . SVG Version: 6.00 Build 0)  -->
<svg version="1.1" id="Layer_1" xmlns="http://www.w3.org/2000/svg" xmlns:xlink="http://www.w3.org/1999/xlink" x="0px" y="0px"
	 viewBox="0 0 320 440" enable-background="new 0 0 320 440" xml:space="preserve">
<g>
	<path fill="#FFFFFF" d="M47.1,37.4c-2.6-1.2-6.1-0.2-7.5,2.3c-0.4,0.7-0.1,1.5,0.5,1.9c0.7,0.4,1.5,0.1,1.9-0.5
		c0.7-1.2,2.5-1.7,3.8-1.1c1.3,0.6,2.2,2.3,1.9,3.9c-0.3,1.5-1.6,2.9-3.2,3.4c-1.6,0.4-3.5,0-4.9-1.1c-0.8-0.6-1.4-1.4-1.7-2.3
		c-0.5-1.4-0.4-3,0.4-4.2c0.7-1.2,2.1-2.2,3.5-2.4c0.8-0.1,1.3-0.8,1.2-1.6c-0.1-0.8-0.8-1.3-1.6-1.2c-2.3,0.3-4.4,1.7-5.5,3.7
		c-1.2,2-1.4,4.5-0.6,6.6c0.5,1.4,1.4,2.6,2.6,3.5c1.5,1.2,3.5,1.9,5.3,1.9c0.7,0,1.4-0.1,2-0.3c2.7-0.7,4.8-3,5.2-5.6
		C51,41.6,49.5,38.6,47.1,37.4z"/>
	<path fill="#FFFFFF" d="M57,5.9h-7V4c0-0.8-0.6-1.4-1.4-1.4S47.2,3.2,47.2,4v1.9H16.4V4c0-0.8-0.6-1.4-1.4-1.4S13.6,3.2,13.6,4v1.9
		H7c-2.4,0-4.4,2-4.4,4.4v46.3C2.6,59,4.6,61,7,61h50c2.4,0,4.4-2,4.4-4.4V10.3C61.4,7.9,59.4,5.9,57,5.9z M7,8.7h6.6v3.7
		c0,0.8,0.6,1.4,1.4,1.4s1.4-0.6,1.4-1.4V8.7h30.8v3.7c0,0.8,0.6,1.4,1.4,1.4s1.4-0.6,1.4-1.4V8.7h7c0.9,0,1.6,0.7,1.6,1.6v6.4H5.4
		v-6.4C5.4,9.4,6.1,8.7,7,8.7z M57,58.2H7c-0.9,0-1.6-0.7-1.6-1.6V19.5h53.2v37.2C58.6,57.5,57.9,58.2,57,58.2z"/>
</g>
<g>
	<path fill="#FFFFFF" d="M94.2,2.2c-4.3,0.9-8.2,1.6-13,1.6c-4.3,0-8.5-0.5-12.9-1.5c-0.4-0.1-0.9,0-1.2,0.3
		c-0.3,0.3-0.5,0.7-0.5,1.1v20c0,7.9,6.7,14.6,14.7,14.6s14.7-6.7,14.7-14.6v-20c0-0.4-0.2-0.8-0.5-1.1C95.1,2.2,94.6,2.1,94.2,2.2z
		 M93.1,23.6c0,6.4-5.4,11.7-11.8,11.7s-11.8-5.4-11.8-11.7V5.4c4,0.8,7.9,1.2,11.8,1.2c4.4,0,8-0.5,11.8-1.3V23.6z"/>
	<path fill="#FFFFFF" d="M74.3,17.1c1-0.8,2.7-0.8,3.7,0c0.3,0.2,0.6,0.3,0.9,0.3c0.4,0,0.8-0.2,1.1-0.5c0.5-0.6,0.4-1.5-0.2-2
		c-0.2-0.2-0.4-0.3-0.7-0.5c-0.3-1.4-1.5-2.4-3-2.4s-2.7,1-3,2.4c-0.2,0.1-0.5,0.3-0.7,0.5c-0.6,0.5-0.7,1.4-0.2,2
		C72.8,17.5,73.7,17.6,74.3,17.1z"/>
	<path fill="#FFFFFF" d="M84.5,17.1c1-0.8,2.7-0.8,3.7,0c0.3,0.2,0.6,0.3,0.9,0.3c0.4,0,0.8-0.2,1.1-0.5c0.5-0.6,0.4-1.5-0.2-2
		c-0.2-0.2-0.4-0.3-0.7-0.5C89,13,87.8,12,86.3,12c-1.5,0-2.7,1-3,2.4c-0.2,0.1-0.5,0.3-0.7,0.5c-0.6,0.5-0.7,1.4-0.2,2
		C83,17.5,83.9,17.6,84.5,17.1z"/>
	<path fill="#FFFFFF" d="M88,23.5c-1.8,1.5-4.1,2.3-6.7,2.3s-4.9-0.8-6.7-2.3c-0.6-0.5-1.5-0.4-2,0.2c-0.5,0.6-0.4,1.5,0.2,2
		c2.3,1.9,5.3,2.9,8.5,2.9s6.2-1,8.5-2.9c0.6-0.5,0.7-1.4,0.2-2C89.5,23.1,88.6,23,88,23.5z"/>
	<path fill="#FFFFFF" d="M124.9,26.2c-0.3-0.3-0.8-0.4-1.2-0.3c-4.3,0.9-8.2,1.6-13,1.6c-4.3,0-8.5-0.5-12.9-1.5
		c-0.4-0.1-0.9,0-1.2,0.3c-0.3,0.3-0.5,0.7-0.5,1.1v20c0,7.9,6.7,14.6,14.7,14.6s14.7-6.7,14.7-14.6v-20
		C125.4,26.8,125.2,26.4,124.9,26.2z M122.6,47.3c0,6.4-5.4,11.7-11.8,11.7s-11.8-5.4-11.8-11.7V29c4,0.8,7.9,1.2,11.8,1.2
		c4.4,0,8-0.5,11.8-1.3V47.3z"/>
	<path fill="#FFFFFF" d="M112.9,38.8c0.3,1.4,1.5,2.4,3,2.4s2.7-1,3-2.4c0.2-0.1,0.5-0.3,0.7-0.5c0.6-0.5,0.7-1.4,0.2-2
		c-0.5-0.6-1.4-0.7-2-0.2c-1,0.8-2.7,0.8-3.7,0c-0.6-0.5-1.5-0.4-2,0.2s-0.4,1.5,0.2,2C112.4,38.5,112.6,38.6,112.9,38.8z"/>
	<path fill="#FFFFFF" d="M102.7,38.8c0.3,1.4,1.5,2.4,3,2.4s2.7-1,3-2.4c0.2-0.1,0.5-0.3,0.7-0.5c0.6-0.5,0.7-1.4,0.2-2
		c-0.5-0.6-1.4-0.7-2-0.2c-1,0.8-2.7,0.8-3.7,0c-0.6-0.5-1.5-0.4-2,0.2s-0.4,1.5,0.2,2C102.2,38.5,102.5,38.6,102.7,38.8z"/>
	<path fill="#FFFFFF" d="M110.7,46.9c-3.3,0-6.2,1-8.5,2.9c-0.6,0.5-0.7,1.4-0.2,2c0.5,0.6,1.4,0.7,2,0.2c1.8-1.5,4.1-2.3,6.7-2.3
		s4.9,0.8,6.7,2.3c0.3,0.2,0.6,0.3,0.9,0.3c0.4,0,0.8-0.2,1.1-0.5c0.5-0.6,0.4-1.5-0.2-2C116.9,47.9,114,46.9,110.7,46.9z"/>
</g>
<path fill="#FFFFFF" d="M309.4,5.6c-2.1-1.1-6.6-3-12.4-3c-3.4,0-6.8,0.6-10.1,1.9c-4.7,1.7-9,2.6-12.8,2.6c-1.3,0-2.5-0.1-3.6-0.3
	c-0.3,0-0.5-0.1-0.8-0.1c-1,0-1.8,0.3-2.6,0.9V4c0-0.8-0.6-1.4-1.4-1.4s-1.4,0.6-1.4,1.4v56c0,0.8,0.6,1.4,1.4,1.4s1.4-0.6,1.4-1.4
	V37.9c0.4,0.3,0.9,0.5,1.4,0.7c1.7,0.5,3.5,0.7,5.6,0.7c0,0,0,0,0,0c4.1,0,8.7-0.9,13.8-2.8c6-2.2,12.3-2.2,17.9-0.1
	c0.5,0.2,1,0.3,1.6,0.3c2.4,0,4.3-1.9,4.3-4.3v-23C311.7,7.8,310.8,6.3,309.4,5.6z M308.9,32.4c0,1.2-1.2,1.8-2.1,1.4
	c-6.3-2.4-13.2-2.4-19.9,0c-4.7,1.7-9,2.6-12.8,2.6c-1.8,0-3.4-0.2-4.8-0.6c-0.7-0.2-1.1-0.8-1.1-1.5V11c0-0.8,0.7-1.5,1.5-1.5
	c0.1,0,0.2,0,0.3,0c1.3,0.2,2.7,0.4,4.1,0.4c4.1,0,8.7-0.9,13.8-2.8c3-1.1,6.1-1.7,9.1-1.7c5.2,0,9.2,1.7,11.1,2.7
	c0.5,0.3,0.8,0.8,0.8,1.4V32.4z"/>
<g>
	<path fill="#FFFFFF" d="M60.6,169.7l-4.4-9.5c0.7-2.3,0.6-4.7-0.3-6.9c-1.6-4.2-5.5-6.9-10.1-6.9c-2.6,0-4.9,0.8-6.7,2.3h-5.7
		c0.5-4.3,4.5-7.6,9.5-7.6c0.8,0,1.4-0.6,1.4-1.4s-0.6-1.4-1.4-1.4c-6.5,0-11.8,4.5-12.3,10.4h-5.8c-1.8-1.5-4.1-2.3-6.7-2.3
		c-4.4,0-8.4,2.7-10,6.7c-0.9,2.3-1,4.8-0.3,7.1l-4.4,9.5c-2,4.2-0.1,9.3,4.1,11.2c1.1,0.5,2.3,0.8,3.6,0.8c3.3,0,6.3-1.9,7.6-4.9
		l4.6-10.1c0.1-0.2,0.2-0.4,0.4-0.6c0.2-0.2,0.4-0.3,0.6-0.5c0.1-0.1,0.2-0.2,0.4-0.3h14.8c0.1,0.1,0.2,0.2,0.4,0.3
		c0.2,0.2,0.4,0.4,0.6,0.5c0.2,0.1,0.3,0.3,0.4,0.6l4.6,10c1.4,3,4.4,4.9,7.7,4.9c1.2,0,2.4-0.3,3.5-0.8
		C60.7,178.9,62.6,173.9,60.6,169.7z M55.4,178.4c-0.7,0.3-1.5,0.5-2.3,0.5c-2.2,0-4.2-1.3-5.1-3.3l-4.6-10
		c-0.3-0.6-0.7-1.1-1.2-1.5c-0.1-0.1-0.3-0.2-0.4-0.4c-0.5-0.5-1.2-1.1-2.1-1.1H24.3c-0.9,0-1.6,0.6-2.1,1.1
		c-0.1,0.1-0.3,0.3-0.4,0.4c-0.5,0.4-0.9,0.9-1.2,1.5l-4.6,10.1c-0.9,2-2.9,3.3-5.1,3.3c-0.8,0-1.6-0.2-2.4-0.5
		c-2.8-1.3-4-4.7-2.7-7.5l4.6-10c0.2-0.3,0.2-0.7,0-1.1c-0.7-1.9-0.6-3.8,0.1-5.7c1.2-3,4.2-5,7.5-5c0,0,0,0,0,0c2,0,3.8,0.7,5.2,2
		c0.3,0.2,0.6,0.4,1,0.4h15.3c0.4,0,0.7-0.1,1-0.4c1.4-1.3,3.2-2,5.2-2c3.4,0,6.3,2,7.5,5.1c0.7,1.9,0.7,3.7,0.1,5.6
		c-0.1,0.3-0.1,0.7,0,1.1l4.6,10C59.4,173.7,58.2,177,55.4,178.4z"/>
	<circle fill="#FFFFFF" cx="43.7" cy="159.2" r="2.1"/>
	<circle fill="#FFFFFF" cx="48.3" cy="154.6" r="2.1"/>
	<path fill="#FFFFFF" d="M21.6,155.2h-2.3v-2.3c0-0.7-0.6-1.2-1.2-1.2c-0.7,0-1.2,0.6-1.2,1.2v2.3h-2.3c-0.7,0-1.2,0.6-1.2,1.2
		c0,0.7,0.6,1.2,1.2,1.2h2.3v2.3c0,0.7,0.6,1.2,1.2,1.2c0.7,0,1.2-0.6,1.2-1.2v-2.3h2.3c0.7,0,1.2-0.6,1.2-1.2
		C22.8,155.8,22.3,155.2,21.6,155.2z"/>
</g>
<g>
	<path fill="#FFFFFF" d="M84.1,155c-0.9,0.1-1.6,0.8-1.9,1.6s-0.1,1.8,0.6,2.4l4.9,4.8l-1.2,6.7c-0.1,0.7,0.1,1.4,0.5,1.9
		c0.7,0.8,2,1.1,2.9,0.6l6-3.2l6,3.2c0.3,0.2,0.7,0.3,1.1,0.3c0.7,0,1.4-0.3,1.8-0.9c0.5-0.5,0.6-1.2,0.5-1.9l-1.2-6.7l4.9-4.8
		c0.7-0.6,0.9-1.6,0.6-2.4c-0.3-0.9-1-1.5-1.9-1.6l-6.7-1l-3-6.1c-0.4-0.8-1.2-1.3-2.1-1.3s-1.7,0.5-2.1,1.3l-3,6.1L84.1,155z
		 M93.1,155.3l2.9-5.9l2.9,5.9c0.3,0.7,1,1.2,1.8,1.3l6.5,0.9l-4.7,4.6c-0.6,0.5-0.8,1.3-0.7,2.1l1.1,6.5l-5.8-3.1
		c-0.7-0.4-1.5-0.4-2.2,0l-5.8,3.1l1.1-6.5c0.1-0.8-0.1-1.6-0.7-2.1l-4.7-4.6l6.5-0.9C92.1,156.5,92.7,156,93.1,155.3z"/>
	<path fill="#FFFFFF" d="M91,151.2l1.7-3.5l-5.4-12.9c-0.2-0.5-0.8-0.8-1.3-0.8c-0.2,0-0.4,0-0.5,0.1c-0.7,0.3-1.1,1.1-0.8,1.7
		L91,151.2z"/>
	<path fill="#FFFFFF" d="M87.6,153.5l2.4-0.4l0.3-0.7l-12.3-12.3c-0.3-0.3-0.6-0.4-0.9-0.4c-0.3,0-0.7,0.1-0.9,0.4
		c-0.5,0.5-0.5,1.4,0,1.9L87.6,153.5z"/>
	<path fill="#FFFFFF" d="M80.7,159c-0.2-0.2-0.3-0.6-0.4-0.6h-11c-0.7,0-1.3,0.7-1.3,1.4c0,0.7,0.6,1.4,1.3,1.4h13.6L80.7,159z"/>
	<path fill="#FFFFFF" d="M70.9,150.8l9.9,4.1c0.4-0.3,0.9-0.6,1.4-0.7l2.6-0.4l-12.9-5.4c-0.2-0.1-0.3-0.1-0.5-0.1
		c-0.5,0-1,0.3-1.2,0.8C69.9,149.9,70.2,150.5,70.9,150.8z"/>
	<path fill="#FFFFFF" d="M109.8,154.3c0.6,0.1,1.1,0.4,1.5,0.8l9.9-4c0.7-0.3,1-1,0.7-1.7c-0.2-0.5-0.7-0.8-1.2-0.8
		c-0.2,0-0.4,0-0.5,0.1l-12.9,5.3L109.8,154.3z"/>
	<path fill="#FFFFFF" d="M107.5,135.9c0.3-0.7,0-1.5-0.7-1.7c-0.2-0.1-0.3-0.1-0.5-0.1c-0.5,0-0.9,0.3-1.1,0.8l-5.6,13.6l1.4,2.8
		L107.5,135.9z"/>
	<path fill="#FFFFFF" d="M96,144.5c0.6,0,0.8,0.2,1.7,0.6v-11.8c0-0.7-0.7-1.3-1.4-1.3c-0.7,0-1.4,0.6-1.4,1.3v11.4
		C95,144.6,95.7,144.5,96,144.5z"/>
	<path fill="#FFFFFF" d="M102,153.1l2.4,0.4l11.4-11.4c0.5-0.5,0.5-1.4,0-1.9c-0.3-0.3-0.6-0.4-0.9-0.4c-0.3,0-0.7,0.1-0.9,0.4
		l-12.3,12.3L102,153.1z"/>
	<path fill="#FFFFFF" d="M103.8,175.4c-0.3-0.1-0.5-0.1-0.8-0.3l-2.5-1.3l4.5,11.3c0.2,0.5,0.6,0.8,1.1,0.8c0.2,0,0.3,0,0.5-0.1
		c0.7-0.3,1-1.1,0.7-1.7L103.8,175.4z"/>
	<path fill="#FFFFFF" d="M106.3,168.4l0.7,3.8c0,0.2,0,0.4,0,0.6l6.9,6.9c0.3,0.3,0.6,0.4,0.9,0.4c0.3,0,0.7-0.1,0.9-0.4
		c0.5-0.5,0.5-1.4,0-1.9L106.3,168.4z"/>
	<path fill="#FFFFFF" d="M121.1,169l-14-5.9l-1.5,1.4l0.2,1.1l14.2,6c0.2,0.1,0.3,0.1,0.5,0.1c0.5,0,1-0.3,1.2-0.8
		C122.1,170.1,121.8,169.3,121.1,169z"/>
	<path fill="#FFFFFF" d="M86.3,164.5l-1.5-1.5l-14,5.8c-0.7,0.3-1,1.1-0.7,1.8c0.2,0.5,0.7,0.9,1.2,0.9c0.2,0,0.3,0,0.5-0.1
		l14.4-5.9L86.3,164.5z"/>
	<path fill="#FFFFFF" d="M122.7,158.4h-11c-0.1,0-0.2,0.4-0.4,0.6l-2.2,2.2h13.6c0.7,0,1.3-0.7,1.3-1.4
		C124,159.1,123.4,158.4,122.7,158.4z"/>
	<path fill="#FFFFFF" d="M95,172v14.7c0,0.7,0.7,1.3,1.4,1.3c0.7,0,1.4-0.6,1.4-1.3v-14.3l-1.7-0.9L95,172z"/>
	<path fill="#FFFFFF" d="M85,172.3l0.7-3.8l-9.5,9.5c-0.5,0.5-0.5,1.4,0,1.9c0.3,0.3,0.6,0.4,0.9,0.4s0.7-0.1,0.9-0.4l6.9-6.9
		C85,172.7,85,172.5,85,172.3z"/>
	<path fill="#FFFFFF" d="M88.1,175.4l-3.6,8.6c-0.3,0.7,0,1.5,0.7,1.7c0.2,0.1,0.3,0.1,0.5,0.1c0.5,0,1.2-0.3,1.4-0.8l4.9-11.5
		l-3,1.6C88.7,175.3,88.4,175.4,88.1,175.4z"/>
</g>
<path fill="#FFFFFF" d="M178.1,157.6c-0.8,0-1.7,0.1-2.4,0.3l-3.4-7.3c-0.2-0.4-0.5-0.7-0.8-0.9l1.8-4l1.3,0.3
	c1.3,0,2.4-1.1,2.4-2.4c0-1.3-1.1-2.4-2.4-2.4h-11.3c-0.7,0-1.2,0.5-1.2,1.2c0,0.7,0.5,1.2,1.2,1.2l7.2,1.5l-1.3,2.9
	c-0.1,0-0.1,0-0.2,0h-20.6c-0.2,0-0.5,0-0.7,0.1l1-4.9c0.2-0.8-0.3-1.5-1.1-1.7c-0.1,0-0.3,0-0.4,0c0,0-0.1,0-0.1,0h-5.9
	c-2.4,0-4.4,2-4.4,4.4c0,2.4,2,4.4,4.4,4.4c0.8,0,1.4-0.6,1.4-1.4s-0.6-1.4-1.4-1.4c-0.9,0-1.6-0.7-1.6-1.6c0-0.9,0.7-1.6,1.6-1.6
	h4.4l-2.8,13.4c-0.3,0-0.6,0-0.9,0c-6.2,0-11.3,5.1-11.3,11.3s5.1,11.3,11.3,11.3c6.2,0,11.3-5.1,11.3-11.3c0-5-3.2-9.2-7.7-10.7
	l1.3-6.5l13,16.9c0.4,0.5,1,0.8,1.6,0.8c0.4,0.5,1,0.7,1.7,0.7h3.7c0.6,5.6,5.4,10.1,11.2,10.1c6.2,0,11.3-5.1,11.3-11.3
	S184.3,157.6,178.1,157.6z M150.4,168.9c0,4.7-3.8,8.5-8.5,8.5s-8.5-3.8-8.5-8.5s3.8-8.5,8.5-8.5c0.1,0,0.2,0,0.3,0l-1.7,8
	c-0.2,0.8,0.3,1.5,1.1,1.7c0.1,0,0.2,0,0.3,0c0.6,0,1.2-0.5,1.4-1.1l1.7-8C148.1,162.3,150.4,165.3,150.4,168.9z M173,158.9
	c-3.2,1.6-5.6,4.8-6.1,8.5h-3.1l6.3-14.6L173,158.9z M174.2,161.4l2.8,6h-7.3C170.2,164.8,171.9,162.6,174.2,161.4z M149.6,150.8
	h18.3l-6.7,15.1L149.6,150.8z M178.1,177.4c-4.3,0-7.8-3.2-8.4-7.3h8c0.8,0,1.5-0.4,2-1.1c0.4-0.7,0.5-1.5,0.1-2.2l-3-6.3
	c0.4-0.1,0.8-0.1,1.2-0.1c4.7,0,8.5,3.8,8.5,8.5S182.8,177.4,178.1,177.4z"/>
<path fill="#FFFFFF" d="M252.8,150.8l-7.4-12.5c-0.8-1.3-2.2-2-3.8-2h-34.3c-1.7,0-3.1,0.7-3.8,2l-8.6,14.4
	c-0.3,0.5-0.2,1.2,0.2,1.7l26.1,27.8c0.8,0.9,2,1.4,3.2,1.4s2.4-0.5,3.2-1.4l24.6-26.1C253.5,154.7,253.8,152.5,252.8,150.8z
	 M250.4,152.3c0,0.1,0.1,0.1,0.1,0.2h-12.9l5.9-11.9L250.4,152.3z M224.4,177.6l-9.2-22.4h18.4L224.4,177.6z M235.5,150.2l-8.3-11.1
	H241L235.5,150.2z M233.8,152.5h-18.6l9.3-12.4L233.8,152.5z M213.3,150.2l-5.5-11.1h13.9L213.3,150.2z M205.3,140.5l5.9,12h-13.1
	L205.3,140.5z M199.6,155.3h12.6l9.8,23.8L199.6,155.3z M226.9,178.9l9.7-23.6h12.5L226.9,178.9z"/>
<g>
	<path fill="#FFFFFF" d="M233.9,229.7c-0.8-0.4-1.8-1-2.1-1.8c-0.3-1,0.5-2.4,1-3.1c0.6-0.7,3.6-4.3,3.6-11.7
		c0-3.6,0-14.5-12.5-14.5c-3.1,0-12.5,0-12.5,14.5c0,7.2,2.9,10.8,3.6,11.6c0.4,0.5,1.4,2.1,1.1,3.2c-0.2,0.8-1.2,1.5-2.1,1.8
		c-7.4,2.3-19.6,6.9-19.6,12.3v4c0,2.2,1.8,3.5,3.5,3.5h52c1.7,0,3.5-1.3,3.5-3.5v-4C253.5,236.5,241.2,231.9,233.9,229.7z
		 M250.5,246c0,0.5-0.4,0.5-0.5,0.5h-52c-0.1,0-0.5,0-0.5-0.5v-4c0-1.6,4.7-5.5,17.6-9.5l0.2-0.1c2.2-0.9,3.4-2.3,3.8-3.9
		c0.7-2.9-1.6-5.7-1.7-5.8l-0.1-0.1c0,0-2.8-3-2.8-9.6c0-8.1,2.8-11.5,9.5-11.5s9.5,3.4,9.5,11.5c0,6.7-2.8,9.6-2.9,9.7l-0.8,0.8
		l0.1,0.2c-0.7,1.1-1.5,3-1.1,4.9c0.4,1.7,1.7,3,3.8,3.9l0.2,0.1c12.9,4,17.6,7.9,17.6,9.5V246z"/>
	<path fill="#FFFFFF" d="M230.7,215.8c-0.5-0.6-1.4-0.7-2-0.2c-1.3,1-2.9,1.6-4.8,1.6s-3.5-0.6-4.8-1.6c-0.6-0.5-1.5-0.4-2,0.2
		c-0.5,0.6-0.4,1.5,0.2,2c1.8,1.5,4,2.2,6.5,2.2s4.7-0.8,6.5-2.2C231.1,217.3,231.2,216.4,230.7,215.8z"/>
</g>
<g>
	<g>
		<path fill="#FFFFFF" d="M288,226.9c-6.2,0-11.2-5-11.2-11.2s5-11.2,11.2-11.2s11.2,5,11.2,11.2S294.2,226.9,288,226.9z M288,207.2
			c-4.7,0-8.4,3.8-8.4,8.4s3.8,8.4,8.4,8.4s8.4-3.8,8.4-8.4S292.7,207.2,288,207.2z"/>
	</g>
	<g>
		<path fill="#FFFFFF" d="M288,253.4c-1.8,0-3.4-0.9-4.2-2.5l-13.3-23.6c-2.3-3.5-3.5-7.5-3.5-11.7c0-11.6,9.5-21.1,21.1-21.1
			s21.1,9.5,21.1,21.1c0,4.2-1.2,8.2-3.5,11.7c0,0,0,0.1-0.1,0.1l-13.3,23.4C291.4,252.5,289.8,253.4,288,253.4z M288,197.4
			c-10.1,0-18.3,8.2-18.3,18.3c0,3.7,1.1,7.2,3.1,10.2l0.1,0.3l13.2,23.4c0.4,0.7,1,1,1.8,1s1.4-0.4,1.8-1l13.4-23.7
			c2-3,3.1-6.5,3.1-10.2C306.3,205.6,298.1,197.4,288,197.4z"/>
	</g>
</g>
<g>
	<path fill="#FFFFFF" d="M60.8,290l-0.9-1.4c-0.3-0.5-0.3-1,0-1.5l0.9-1.4c1.1-1.8,0.7-4.2-1-5.5l-1.3-1.1c-0.4-0.3-0.6-0.9-0.5-1.4
		l0.4-2.1c0.3-1.8-0.7-3.6-2.5-4.2l-2.4-0.8c-0.3-0.1-0.6-0.4-0.6-0.7l-0.4-2.4c-0.3-1.8-1.8-3.1-3.8-3.1c0,0,0,0,0,0l-2.3,0.1
		c-0.5,0-1-0.3-1.2-0.7l-0.9-1.5c-0.7-1.3-2.2-2.1-3.7-2.1c-0.5,0-1,0.1-1.5,0.3l-1.7,0.7c-0.5,0.2-1,0.1-1.4-0.2l-1.4-1.2
		c-1.5-1.3-4-1.3-5.5,0l-1.4,1.2c-0.4,0.3-0.9,0.4-1.4,0.3l-2.1-0.8c-0.4-0.2-0.9-0.2-1.3-0.2c-1.4,0-2.6,0.7-3.3,1.9l-1.1,1.9
		c-0.2,0.5-0.7,0.7-1.3,0.7h0l-2.3,0c-1.9,0-3.4,1.3-3.7,3.1l-0.4,2.5c0,0.3-0.3,0.6-0.6,0.7L8,271.7c-1.8,0.6-2.8,2.4-2.4,4.2
		l0.4,2.1c0.1,0.5-0.1,1.1-0.5,1.4l-1.3,1.1c-1.7,1.3-2.1,3.7-0.9,5.5l0.9,1.4c0.3,0.5,0.3,1,0,1.5l-0.9,1.4c-1.1,1.8-0.7,4.2,1,5.5
		l1.3,1.1c0.4,0.3,0.6,0.9,0.5,1.4l-0.4,2.1c-0.3,1.8,0.7,3.6,2.5,4.2l2.4,0.8c0.3,0.1,0.6,0.4,0.6,0.7l0.4,2.4
		c0.3,1.8,1.8,3.1,3.8,3.1c0,0,0,0,0,0l2.3-0.1c0.5,0,1,0.3,1.2,0.7l0.9,1.5c0.7,1.3,2.2,2.1,3.7,2.1c0.5,0,1-0.1,1.5-0.3l1.7-0.7
		c0.5-0.2,1-0.1,1.4,0.2l1.4,1.2c0.8,0.6,1.7,1,2.7,1c1,0,2-0.4,2.8-1l1.4-1.2c0.4-0.3,0.9-0.4,1.4-0.3l2.1,0.8
		c0.4,0.2,0.9,0.2,1.3,0.2c1.4,0,2.6-0.7,3.3-1.9l1.1-1.9c0.2-0.5,0.7-0.7,1.3-0.7h0l2.3,0c1.9,0,3.4-1.3,3.7-3.1l0.4-2.5
		c0-0.3,0.3-0.6,0.6-0.7l2.4-0.8c1.8-0.6,2.8-2.4,2.4-4.2l-0.4-2.1c-0.1-0.5,0.1-1.1,0.5-1.4l1.3-1.1
		C61.5,294.1,61.9,291.8,60.8,290z M58.1,293.3l-1.3,1.1c-1.2,1-1.8,2.6-1.5,4.1l0.4,2.1c0.1,0.4-0.2,0.9-0.6,1l-2.4,0.8
		c-1.3,0.5-2.3,1.6-2.5,2.9l-0.4,2.5c-0.1,0.4-0.5,0.8-0.9,0.8l-2.3,0c-1.5,0-3,0.8-3.7,2.2l-1.1,1.9c-0.2,0.4-0.7,0.6-1.1,0.4
		l-2.1-0.8c-1.4-0.5-3.1-0.2-4.2,0.8l-1.4,1.2c-0.5,0.4-1.3,0.5-1.8,0l-1.4-1.2c-0.8-0.6-1.7-1-2.7-1c-0.5,0-1,0.1-1.5,0.3l-1.7,0.7
		c-0.6,0.3-1.4,0-1.7-0.6l-0.9-1.5c-0.7-1.3-2.2-2.1-3.7-2.1l-2.4,0.1c-0.5,0-0.8-0.3-0.9-0.8l-0.4-2.4c-0.2-1.4-1.2-2.5-2.5-2.9
		l-2.4-0.8c-0.4-0.1-0.7-0.6-0.6-1l0.4-2.1c0.3-1.6-0.3-3.1-1.5-4.1L6,293.6c-0.6-0.4-0.7-1.2-0.3-1.8l0.9-1.4c0.8-1.4,0.8-3,0-4.4
		l-0.9-1.4c-0.4-0.6-0.2-1.4,0.3-1.8l1.3-1.1c1.2-1,1.8-2.6,1.5-4.1l-0.4-2.1c-0.1-0.4,0.2-0.9,0.6-1l2.4-0.8
		c1.3-0.5,2.3-1.6,2.5-2.9l0.4-2.5c0.1-0.4,0.5-0.8,0.9-0.8l2.3,0c1.5,0,3-0.8,3.7-2.2l1.1-1.9c0.2-0.4,0.7-0.6,1.1-0.4l2.1,0.8
		c1.4,0.5,3.1,0.2,4.2-0.8l1.4-1.2c0.5-0.4,1.3-0.5,1.8,0l1.4,1.2c1.2,1,2.8,1.3,4.3,0.7l1.7-0.7c0.6-0.3,1.4,0,1.7,0.6l0.9,1.5
		c0.7,1.3,2.2,2.1,3.7,2.1l2.4-0.1c0.5,0,0.8,0.3,0.9,0.8l0.4,2.4c0.2,1.4,1.2,2.5,2.5,2.9l2.4,0.8c0.4,0.1,0.7,0.6,0.6,1l-0.4,2.1
		c-0.3,1.6,0.3,3.1,1.5,4.1l1.3,1.1c0.6,0.4,0.7,1.2,0.3,1.8l-0.9,1.4c-0.8,1.4-0.8,3,0,4.4l0.9,1.4
		C58.8,292.1,58.6,292.9,58.1,293.3z"/>
	<path fill="#FFFFFF" d="M30.5,298.6c-0.8,0-1.5,0.3-2.1,0.9c-0.6,0.6-0.9,1.3-0.9,2.1s0.3,1.5,0.9,2.1c0.6,0.6,1.3,0.9,2.1,0.9
		c0.8,0,1.5-0.3,2-0.9c0.6-0.6,0.8-1.3,0.8-2.1s-0.3-1.5-0.8-2.1C32,298.8,31.3,298.6,30.5,298.6z"/>
	<path fill="#FFFFFF" d="M40.5,274c-2.1-1.6-4.9-2.4-8.3-2.4c-3.5,0-6.3,0.8-8.5,2.5c-2.2,1.7-3.3,3.8-3.3,6.4
		c0,1.4,0.4,2.6,1.3,3.5c0.9,0.9,2,1.4,3.4,1.4c1.1,0,1.9-0.3,2.7-0.9c0.7-0.6,1.1-1.4,1.1-2.3c0-1.4-0.7-2-2-2
		c-0.5,0-0.9,0.1-1.2,0.4c-0.3,0.3-0.5,0.7-0.5,1.1c0,0.2,0,0.3,0,0.5c-0.8-0.5-1.2-1.2-1.2-2c0-1.6,0.8-2.9,2.4-4
		c1.6-1.1,3.5-1.7,5.9-1.7c2.3,0,4.1,0.5,5.5,1.6c1.4,1,2.1,2.4,2.1,4.1c0,1.3-0.3,2.3-1,3c-0.7,0.7-2.1,1.7-4.3,2.9
		c-2.5,1.4-4.2,2.7-5.1,4c-0.7,1.1-1.1,2.3-1.1,3.8c0,1.6,0.7,2.4,2,2.4c0.7,0,1.2-0.2,1.5-0.7c0.2-0.3,0.2-0.9,0.2-1.8
		c0-1.2,0.3-2.1,1-2.8c0.7-0.7,1.9-1.5,3.7-2.2c0.9-0.4,1.6-0.7,2.1-1c3.3-1.7,4.9-4.2,4.9-7.5C43.7,277.7,42.6,275.6,40.5,274z"/>
</g>
<path fill="#FFFFFF" d="M123.8,258.9c-1.1-0.9-2.5-1.2-3.9-0.9l-30.1,6.7c-2.1,0.5-3.6,2.3-3.6,4.5v29.7c-2.1-2.2-5-3.6-8.3-3.6
	c-6.3,0-11.4,5.1-11.4,11.4s5.1,11.4,11.4,11.4c6.3,0,11.4-5.1,11.4-11.4v-27l33.2-7.7v18.9c-2.1-2.2-5-3.6-8.3-3.6
	c-6.3,0-11.4,5.1-11.4,11.4s5.1,11.4,11.4,11.4c6.3,0,11.4-5.1,11.4-11.4v-36.1C125.6,261.2,124.9,259.8,123.8,258.9z M77.8,315
	c-4.6,0-8.3-3.7-8.3-8.3s3.7-8.3,8.3-8.3s8.3,3.7,8.3,8.3S82.4,315,77.8,315z M114.2,307c-4.6,0-8.3-3.7-8.3-8.3s3.7-8.3,8.3-8.3
	s8.3,3.7,8.3,8.3S118.7,307,114.2,307z M89.2,276.5v-7.3c0-0.7,0.5-1.3,1.2-1.5l30.1-6.7c0.5-0.1,0.9,0,1.3,0.3s0.6,0.7,0.6,1.2v6.2
	L89.2,276.5z"/>
<g>
	<path fill="#FFFFFF" d="M313,264.3h-31.1v-0.3c0-0.9-0.8-1.7-1.7-1.7h-10.6c-0.9,0-1.7,0.8-1.7,1.7v0.3H263c-2.4,0-4.4,2-4.4,4.4
		v40.7c0,2.4,2,4.4,4.4,4.4h50c2.4,0,4.4-2,4.4-4.4v-40.7C317.4,266.2,315.4,264.3,313,264.3z M263,267.1h6.6h10.6H313
		c0.9,0,1.6,0.7,1.6,1.6v12.2h-15.1c-3-2.9-7-4.6-11.5-4.6c-4.4,0-8.5,1.8-11.5,4.6h-15.1v-12.1C261.4,267.8,262.1,267.1,263,267.1z
		 M288,279c7.6,0,13.9,6.2,13.9,13.9s-6.2,13.9-13.9,13.9s-13.9-6.2-13.9-13.9S280.4,279,288,279z M313,310.9h-50
		c-0.9,0-1.6-0.7-1.6-1.6v-25.7h12.8c-1.8,2.7-2.8,5.8-2.8,9.3c0,9.2,7.5,16.7,16.7,16.7s16.7-7.5,16.7-16.7c0-3.4-1-6.6-2.8-9.3
		h12.8v25.8C314.6,310.2,313.9,310.9,313,310.9z"/>
	<path fill="#FFFFFF" d="M300.6,279.6h10.1c1.1,0,2-0.9,2-2v-7.3c0-1.1-0.9-2-2-2h-10.1c-1.1,0-2,0.9-2,2v7.3
		C298.7,278.7,299.5,279.6,300.6,279.6z M301.5,271.2h8.4v5.6h-8.4V271.2z"/>
	<path fill="#FFFFFF" d="M288,301.9c5,0,9-4.1,9-9s-4.1-9-9-9s-9,4.1-9,9S283,301.9,288,301.9z M288,286.6c3.4,0,6.2,2.8,6.2,6.2
		s-2.8,6.2-6.2,6.2s-6.2-2.8-6.2-6.2S284.6,286.6,288,286.6z"/>
</g>
<g>
	<g>
		<g>
			<path fill="#FFFFFF" d="M249.9,377.1h-51.8c-1,0-1.9-0.4-2.5-1.1c-0.7-0.7-1-1.6-1-2.6l0.8-19.9l-0.8-15.3c-0.1-1,0.3-1.9,1-2.6
				c0.7-0.7,1.6-1.1,2.6-1.1l5.9,0c0.3,0,3.5-0.2,4.4-3.9c0.9-3.6,1.8-7.6,7.8-7.6h15.6c6,0,7,4.1,7.8,7.6c0.9,3.8,4.2,3.9,4.4,3.9
				l5.9,0c1,0,1.9,0.4,2.6,1.1c0.7,0.7,1,1.7,1,2.6l-0.8,15.1l0.8,20.1c0,1-0.3,1.9-1,2.6C251.7,376.7,250.8,377.1,249.9,377.1z
				 M216.2,325.7c-3.6,0-4.2,1.7-5.1,5.5c-1.1,4.8-5.1,6-7.1,6l-5.8,0c-0.3,0-0.4,0.1-0.5,0.2s-0.2,0.3-0.2,0.5l0.8,15.2
				c0,0.1,0,0.2,0,0.3l-0.8,19.9c0,0.3,0.1,0.4,0.2,0.5c0.1,0.1,0.3,0.2,0.5,0.2h51.8c0.3,0,0.4-0.1,0.5-0.2s0.2-0.3,0.2-0.5
				l-0.8-20.1c0-0.1,0-0.2,0-0.3l0.8-15c0-0.3-0.1-0.5-0.2-0.5c-0.1-0.1-0.3-0.2-0.5-0.2l-5.8,0c-2,0-5.9-1.3-7.1-6
				c-0.9-3.8-1.5-5.5-5.1-5.5H216.2z M227.7,335.5h-7.3c-1.8,0-3.3-1.4-3.5-3.1c-0.1-0.9,0.2-1.9,0.9-2.6s1.5-1.1,2.5-1.1h7.3
				c1.8,0,3.3,1.4,3.5,3.1c0.1,0.9-0.2,1.9-0.9,2.6C229.6,335.1,228.7,335.5,227.7,335.5z M220.3,331.6c-0.2,0-0.4,0.1-0.4,0.2
				c-0.1,0.1-0.2,0.2-0.1,0.4c0,0.2,0.4,0.5,0.7,0.5h7.3c0.2,0,0.4-0.1,0.4-0.2c0.1-0.1,0.2-0.2,0.1-0.4c0-0.2-0.4-0.5-0.7-0.5
				H220.3z"/>
		</g>
	</g>
</g>
<path fill="#FFFFFF" d="M308.8,327.4c-0.2-0.9-0.9-1.7-1.7-2.2l-3.3-1.8c-0.5-0.3-1.2-0.4-1.8-0.4c-0.1,0-0.3,0-0.4,0v0h-27.5v0
	c-0.6,0-1.2,0.1-1.8,0.4l-3.3,1.8c-0.9,0.5-1.5,1.2-1.7,2.2c-0.2,0.9-0.1,1.8,0.4,2.6l13.9,22.1c-0.6,0.1-1.1,0.7-1.1,1.3
	c0,0.8,0.6,1.4,1.4,1.4h2.3h2.6v0.1c-5.8,0.6-10.4,5.3-10.4,11c0,6.1,5.3,11.1,11.8,11.1s11.8-5,11.8-11.1c0-5.7-4.6-10.4-10.4-11
	v-0.1h3h1.9c0.8,0,1.4-0.6,1.4-1.4c0-0.6-0.4-1.1-1-1.3l13.7-22.1C308.9,329.2,309,328.3,308.8,327.4z M288,342.2l-5.1-8.3h10.3
	L288,342.2z M294.8,331.1h-13.7l-3.3-5.4h20.3L294.8,331.1z M270,328.6c-0.1-0.2-0.1-0.4-0.1-0.5c0.1-0.2,0.2-0.4,0.4-0.5l3.3-1.8
	c0.4-0.2,1-0.1,1.3,0.3l12.1,19.6l0,0l3.9,6.3h-6.1L270,328.6z M297,365.9c0,4.6-4,8.3-9,8.3c-5,0-9-3.7-9-8.3c0-4.6,4-8.3,9-8.3
	C293,357.6,297,361.3,297,365.9z M306,328.6L292.8,350l-3.2-5.2l11.5-18.7c0.2-0.4,0.8-0.5,1.3-0.3l3.3,1.8c0.2,0.1,0.3,0.3,0.4,0.5
	C306.1,328.2,306.1,328.4,306,328.6z"/>
<g>
	<g>
		<path fill="#FFFFFF" d="M11.5,436.9c-4.1,0-8.6-1.1-8.8-3.6c-0.1-1,0.4-2.3,3.5-2.9c2.5-0.5,4.6-1.7,6.1-3.6
			c0.4-0.5,0.4-1.3,0-1.9c-3.5-5.2-5-11.3-4.4-17.7c1.3-12.7,11.8-23,24.6-24.1c8.2-0.6,16.3,2.5,21.9,8.5
			c5.1,5.5,7.6,12.8,7.1,20.4c-1,12.8-11.3,23.3-24,24.6c-4.8,0.5-9.5-0.3-13.9-2.3c-0.4-0.2-0.9-0.2-1.3,0
			C18,436.5,14,436.9,11.5,436.9z M6.1,433.2c1,0.4,2.7,0.9,5.4,0.9c2.3,0,5.8-0.4,9.4-2.2c1.1-0.6,2.5-0.6,3.7-0.1
			c3.9,1.8,8.1,2.5,12.4,2c11.4-1.1,20.6-10.6,21.5-22c0.5-6.8-1.7-13.3-6.3-18.2c-5-5.4-12.2-8.2-19.6-7.6
			c-11.4,0.9-20.9,10.2-22,21.5c-0.6,5.7,0.8,11.1,4,15.8c1.1,1.6,1,3.7-0.2,5.2c-2,2.4-4.6,4-7.8,4.6
			C6.4,433.1,6.2,433.2,6.1,433.2z"/>
	</g>
	<g>
		<g>
			<g>
				<path fill="#FFFFFF" d="M29.3,400.8c-0.9,0-1.4,0.6-1.4,1.4c0,0.8,0.6,1.4,1.4,1.4c0.9,0,1.4-0.6,1.4-1.4
					C30.7,401.4,30.1,400.8,29.3,400.8L29.3,400.8z M29.3,412.3c-0.9,0-1.4,0.6-1.4,1.4c0,0.6,0.3,1,0.7,1.2l-1.3,4.3h1.2l1.8-3.9
					c0.4-0.8,0.5-1.1,0.5-1.6C30.7,412.9,30.2,412.3,29.3,412.3L29.3,412.3z"/>
			</g>
		</g>
		<g>
			<g>
				<path fill="#FFFFFF" d="M38.2,423.8c-0.3,0-0.6-0.1-0.9-0.3c-0.6-0.5-0.7-1.4-0.2-2c2.6-3.1,3.9-7.1,3.9-11.5s-1.4-8.4-3.9-11.5
					c-0.5-0.6-0.4-1.5,0.2-2c0.6-0.5,1.5-0.4,2,0.2c3,3.6,4.5,8.2,4.5,13.3s-1.6,9.7-4.5,13.3C39,423.6,38.6,423.8,38.2,423.8z"/>
			</g>
		</g>
	</g>
</g>
<path fill="#FFFFFF" d="M101.3,410.4l7.7-7.7c0.2,0.1,0.4,0.2,0.7,0.3c0.8,0.2,1.6,0.3,2.4,0.3c2.4,0,4.8-0.9,6.5-2.7
	c2.6-2.6,2.4-7.4,2.4-7.6c0-1-0.8-2-1.7-2.3c-0.8-0.3-1.6-0.2-2.2,0.4l-2.8,2.8c-0.2,0.2-0.3,0.2-0.4,0l-1.7-1.7
	c0,0-0.1-0.1-0.1-0.1s0-0.1,0.1-0.1l2.9-2.9c0.6-0.6,0.7-1.4,0.4-2.2c-0.4-1-1.3-1.7-2.3-1.8c-0.2,0-5-0.2-7.6,2.4
	c-2.3,2.3-3.2,5.7-2.4,8.9c0.1,0.2,0.2,0.5,0.3,0.7l-7.7,7.7l-7.4-7.4l0.4-0.4c0.4-0.3,0.6-0.8,0.7-1.2c0.4,0.2,0.8,0.2,1.2,0.2
	c0.7,0,1.4-0.3,1.9-0.7l1.9-1.9c0.5-0.5,0.8-1.2,0.8-1.9c0-0.8-0.4-1.6-1-2.2l-3.7-3.7c-1.1-1.1-3.1-1.1-4.1-0.1l-1.9,1.9
	c-0.5,0.5-0.7,1.1-0.7,1.8c0,0.4,0.1,0.8,0.3,1.1c-0.4,0.1-0.9,0.4-1.2,0.7l-0.2,0.2c-1-0.4-2.2-0.2-3,0.6l-2.2,2.1
	c-0.5,0.5-0.8,1.2-0.8,2c0,0.4,0.1,0.7,0.2,1l-1.6,1.6c-0.1,0.1-3.5,3.1-3.8,7.7c-0.1,0.8,0.2,1.6,0.8,2.2c0.6,0.6,1.4,1,2.3,1
	c1,0,1.9-0.5,2.5-1.3c1-1.5,2.2-2.6,3.6-3.3c0.2-0.1,0.5-0.2,0.8-0.5l1.4-1.4l7.4,7.4l-17.9,17.9c0,0-1.4,1.5-1.3,2.8
	c0.2,1.8,1.2,3.2,2.7,3.7c0.4,0.2,0.9,0.2,1.3,0.2c1,0,2-0.4,2.8-1.2l17.9-17.9l18.2,18.2c0.8,0.8,1.8,1.2,2.8,1.2
	c1,0,2-0.4,2.8-1.2c1.5-1.5,1.5-4,0-5.6L101.3,410.4z M88.2,387.3c0,0,0.1,0,0.1,0c0.1,0,0.3,0.1,0.4,0.1l3.7,3.7
	c0.2,0.2,0.2,0.4,0.2,0.5l-1.9,1.9c0,0-0.3,0-0.5-0.2l-3.7-3.7c-0.2-0.2-0.3-0.4-0.3-0.4L88.2,387.3z M79.6,402.3
	c-0.1,0-0.2,0.1-0.3,0.1c-1.7,0.9-3.3,2.3-4.5,4.1c-0.1,0.1-0.2,0.2-0.4,0.2c-0.1,0-0.3-0.1-0.4-0.2c-0.1-0.1-0.1-0.2-0.1-0.3
	c0.2-3.5,2.9-5.9,3-6l7.7-7.5c0.1-0.1,0.3-0.1,0.4-0.1c0.1,0,0.2,0,0.3,0.1l1.6,1.6c0.1,0.1,0.1,0.3,0.1,0.3c0,0.1,0,0.2-0.1,0.3
	L79.6,402.3z M84.5,401.1l1.9-1.9l7.4,7.4l-1.9,1.9L84.5,401.1z M76,432c-0.4,0.4-0.9,0.5-1.4,0.3c-0.6-0.2-0.9-0.7-1-1.5
	c0.1-0.2,0.3-0.6,0.5-0.8l32-32c0.1-0.1,0.2-0.3,0.3-0.4c0,0,0-0.1,0-0.1c0-0.1,0.1-0.2,0.1-0.4c0-0.1,0-0.2-0.1-0.3
	c0-0.1,0-0.1,0-0.2c0-0.1-0.1-0.2-0.2-0.3c0-0.1-0.1-0.1-0.1-0.2l0,0l0,0l-0.4-0.4c0,0-0.1-0.1-0.1-0.1c-0.6-2.3,0-4.7,1.7-6.4
	c1.4-1.4,4.3-1.7,5.4-1.6l-2.5,2.5c-0.5,0.5-0.8,1.2-0.8,2c0,0.7,0.3,1.4,0.8,2l1.7,1.7c1.1,1.1,3,1.1,4.1,0l2.4-2.4
	c0,1.2-0.3,4-1.6,5.4c-1.7,1.7-4.1,2.3-6.4,1.7c0,0-0.1,0-0.1-0.1l-0.4-0.4c-0.1-0.1-0.1-0.1-0.2-0.1c-0.1,0-0.1-0.1-0.2-0.1
	c-0.1,0-0.1,0-0.2,0c-0.1,0-0.2-0.1-0.3-0.1c-0.1,0-0.2,0-0.3,0.1c-0.1,0-0.1,0-0.2,0c-0.1,0-0.1,0.1-0.2,0.1
	c-0.1,0-0.1,0.1-0.2,0.1l-9.5,9.5c0,0,0,0,0,0c0,0,0,0,0,0L76,432z M117.7,432.3c-0.5,0.5-1.4,0.5-1.9,0l-18.2-18.2l1.9-1.9
	l18.2,18.2C118.2,430.9,118.2,431.8,117.7,432.3z"/>
<path fill="#FFFFFF" d="M181.1,390.3h-5c-0.7-0.8-1.7-1.3-2.9-1.3h-0.8c-1.1,0-2.1,0.5-2.9,1.3h-2.7v-0.8c0-1.4-0.9-2.8-2.2-3.3
	c-3.8-1.7-7.4-0.7-9.2,0c-1.4,0.6-2.3,1.9-2.3,3.4v0.7h-2.7c-0.7-0.8-1.7-1.3-2.9-1.3h-0.8c-1.1,0-2.1,0.5-2.9,1.3h-5
	c-2.2,0-3.9,1.8-3.9,3.9v34.3c0,2.2,1.8,3.9,3.9,3.9h0.9c0.8,1.6,2.4,2.7,4.4,2.7s3.6-1.1,4.4-2.7h2.9h17h2.9
	c0.8,1.6,2.4,2.7,4.4,2.7s3.6-1.1,4.4-2.7h0.9c2.2,0,3.9-1.8,3.9-3.9v-34.3C185,392.1,183.2,390.3,181.1,390.3z M174.5,392.9v36.9
	h-3.5v-36.9c0,0,0,0,0-0.1L174.5,392.9C174.5,392.9,174.5,392.9,174.5,392.9z M155.7,389.6c0-0.5,0.3-0.9,0.7-1
	c1.7-0.7,4.4-1.3,7.2-0.1c0.4,0.2,0.7,0.6,0.7,1v0.8h-8.5V389.6z M148.9,392.9v36.9h-3.5v-36.9c0,0,0,0,0-0.1L148.9,392.9
	C148.9,392.9,148.9,392.9,148.9,392.9z M137.5,428.5v-34.3c0-0.8,0.6-1.4,1.4-1.4h4c0,0,0,0,0,0.1v36.9h-4
	C138.2,429.9,137.5,429.3,137.5,428.5z M151.5,429.9v-36.9c0,0,0,0,0-0.1h17c0,0,0,0,0,0.1v36.9H151.5z M182.5,428.5
	c0,0.8-0.6,1.4-1.4,1.4h-4v-36.9c0,0,0,0,0-0.1h4c0.8,0,1.4,0.6,1.4,1.4V428.5z"/>
<g>
	<path fill="#FFFFFF" d="M313.6,418.9h-0.3v-29.8c0-2.2-1.7-3.9-3.8-3.9h-20.2v-0.9c0-0.8-0.6-1.4-1.4-1.4s-1.4,0.6-1.4,1.4v0.9
		h-20.2c-2.1,0-3.8,1.8-3.8,3.9v29.8h-0.3c-0.8,0-1.4,0.6-1.4,1.4s0.6,1.4,1.4,1.4h22.3l-12.6,13c-0.5,0.5-0.5,1.4,0,1.9
		c0.3,0.3,0.6,0.4,1,0.4c0.4,0,0.7-0.1,1-0.4l13.9-14.3l14.1,14.3c0.5,0.5,1.4,0.5,1.9,0c0.5-0.5,0.5-1.4,0-1.9l-12.8-13h22.5
		c0.8,0,1.4-0.6,1.4-1.4S314.4,418.9,313.6,418.9z M265.5,418.9v-29.8c0-0.6,0.5-1.2,1-1.2h43.1c0.6,0,1,0.5,1,1.2v29.8h-19.4h-6.5
		H265.5z"/>
	<path fill="#FFFFFF" d="M297.7,406.9l4.1-7.4c0-0.1,0.1-0.1,0.1-0.1l3.7-2.4c0.6-0.4,0.8-1.3,0.4-1.9c-0.4-0.6-1.3-0.8-1.9-0.4
		l-3.7,2.4c-0.4,0.3-0.8,0.7-1,1.1l-4.1,7.4c-0.1,0.2-0.3,0.3-0.5,0.2l-4.4-2.4c-1.2-0.6-2.6-0.5-3.6,0.4l-7.2,6.4
		c-0.1,0.1-0.3,0.1-0.4,0.1l-7.5-3.3c-0.7-0.3-1.5,0-1.8,0.7c-0.3,0.7,0,1.5,0.7,1.8l7.5,3.3c0.4,0.2,0.8,0.3,1.3,0.3
		c0.8,0,1.5-0.3,2.1-0.8l7.2-6.4c0.1-0.1,0.3-0.1,0.4,0l4.4,2.4C295,409,296.9,408.4,297.7,406.9z"/>
</g>
<g>
	<path fill="#FFFFFF" d="M295,146.5h14c2.7,0,4.9-2.2,4.9-4.9s-2.2-4.9-4.9-4.9h-14c-2.7,0-4.9,2.2-4.9,4.9S292.3,146.5,295,146.5z
		 M295,139.5h14c1.2,0,2.1,0.9,2.1,2.1s-0.9,2.1-2.1,2.1h-14c-1.2,0-2.1-0.9-2.1-2.1S293.8,139.5,295,139.5z"/>
	<path fill="#FFFFFF" d="M267,146.5h14c2.7,0,4.9-2.2,4.9-4.9s-2.2-4.9-4.9-4.9h-14c-2.7,0-4.9,2.2-4.9,4.9S264.3,146.5,267,146.5z
		 M267,139.5h14c1.2,0,2.1,0.9,2.1,2.1s-0.9,2.1-2.1,2.1h-14c-1.2,0-2.1-0.9-2.1-2.1S265.8,139.5,267,139.5z"/>
	<path fill="#FFFFFF" d="M314.2,146.9h-52.5c-1,0-1.8,0.8-1.8,1.8c0,1,0.8,1.7,1.8,1.7h1.8v7c0,3.9,3.1,7,7,7h6.6
		c-1.2,3.7-0.9,5.2-0.8,5.7c0.1,0.2,0.1,0.4,0.2,0.6c-2.3,1.1-3.9,3.4-3.9,6c0,2.8,1.8,5.4,4.5,6.3l1.1,0.4l1.3-2.3l0.7,1.2l0.3,1.1
		h1.1l1.1,0.1l0.2-1.1l0.7-1.3l0.7,1.2l0.3,1.1h1.1l1.1,0.1l0.2-1.1l0.7-1.3l0.7,1.2l0.3,1.1h1.1l1.1,0.1l0.2-1.1l0.7-1.3l0.7,1.2
		l0.2,1.1h1.1l1.2,0.1l0.2-1.1l0.7-1.3l1.3,2.4l1.2-0.4c2.7-0.9,4.5-3.4,4.5-6.3c0-2.7-1.6-5-3.9-6c0.1-0.2,0.2-0.4,0.2-0.6
		c0.1-0.4,0.4-2-0.8-5.7h6.6c3.9,0,7-3.1,7-7v-7h1.8c1,0,1.8-0.8,1.8-1.7C316,147.7,315.2,146.9,314.2,146.9z M297.1,169.3
		c-0.1,0.4-0.4,0.7-0.8,1.1c0,0,0,0,0,0c-2,1.7-6.4,2.8-8.2,3.1c-1.8-0.3-6.2-1.4-8.2-3.1c0,0,0,0,0,0c-0.4-0.4-0.7-0.8-0.8-1.1
		c-0.6-2,3-10,6.8-16.5c0.1-0.2,0.6-1.1,2.1-1l0.1,0l0.1,0c1.5-0.1,2,0.8,2.1,1l0.1,0.1C294,159.2,297.6,167.3,297.1,169.3z
		 M277.5,160.9h-7c-1.9,0-3.5-1.6-3.5-3.5v-7h14v5.2c-1,2-1.9,3.7-2.5,5.2C278.2,160.9,277.8,160.9,277.5,160.9z M299,179.8
		l-0.3-0.5c-0.5-0.8-1.3-1.3-2.2-1.3c-0.9,0-1.6,0.4-2.1,1.1c-0.5-0.7-1.3-1.1-2.1-1.1c-0.9,0-1.6,0.4-2.1,1.1
		c-0.5-0.7-1.3-1.1-2.1-1.1s-1.6,0.4-2.1,1.1c-0.5-0.7-1.3-1.1-2.1-1.1c-0.9,0-1.6,0.4-2.1,1.1c-0.5-0.7-1.3-1.1-2.1-1.1
		c-0.9,0-1.8,0.5-2.2,1.3l-0.3,0.5c-1-0.7-1.6-1.9-1.6-3.1c0-1.8,1.3-3.4,3.1-3.8c3.3,2.4,9.1,3.4,9.3,3.4l0.2,0l0.2,0
		c0.3,0,6.1-1,9.3-3.4c1.7,0.4,3.1,1.9,3.1,3.8C300.6,177.9,300,179.1,299,179.8z M309,157.4c0,1.9-1.6,3.5-3.5,3.5h-7
		c-0.3,0-0.7-0.1-1-0.2c-0.6-1.5-1.5-3.2-2.5-5.2v-5.2h14V157.4z"/>
</g>
<g>
	<path fill="#FFFFFF" d="M222.1,395.3c0.8,0,1.4-0.6,1.4-1.4V385c0-0.8-0.6-1.4-1.4-1.4s-1.4,0.6-1.4,1.4v8.9
		C220.7,394.7,221.4,395.3,222.1,395.3z"/>
	<path fill="#FFFFFF" d="M211,422.3c-0.5-0.5-1.4-0.5-2,0l-6.3,6.3c-0.5,0.5-0.5,1.4,0,2c0.3,0.3,0.6,0.4,1,0.4s0.7-0.1,1-0.4
		l6.3-6.3C211.5,423.7,211.5,422.9,211,422.3z"/>
	<path fill="#FFFFFF" d="M233.3,399.9c0.3,0.3,0.6,0.4,1,0.4s0.7-0.1,1-0.4l6.3-6.3c0.5-0.5,0.5-1.4,0-2s-1.4-0.5-2,0l-6.3,6.3
		C232.8,398.5,232.8,399.4,233.3,399.9z"/>
	<path fill="#FFFFFF" d="M206.3,411.1c0-0.8-0.6-1.4-1.4-1.4H196c-0.8,0-1.4,0.6-1.4,1.4s0.6,1.4,1.4,1.4h8.9
		C205.7,412.5,206.3,411.9,206.3,411.1z"/>
	<path fill="#FFFFFF" d="M209,399.9c0.3,0.3,0.6,0.4,1,0.4s0.7-0.1,1-0.4c0.5-0.5,0.5-1.4,0-2l-6.3-6.3c-0.5-0.5-1.4-0.5-2,0
		s-0.5,1.4,0,2L209,399.9z"/>
	<path fill="#FFFFFF" d="M228.6,396.7c0.2,0.1,0.4,0.1,0.6,0.1c0.5,0,1-0.3,1.3-0.8l3.6-8.2c0.3-0.7,0-1.5-0.7-1.8
		c-0.7-0.3-1.5,0-1.8,0.7l-3.6,8.2C227.5,395.5,227.8,396.4,228.6,396.7z"/>
	<path fill="#FFFFFF" d="M207.4,416.8c-0.3-0.7-1.1-1.1-1.8-0.8l-8.3,3.2c-0.7,0.3-1.1,1.1-0.8,1.8c0.2,0.6,0.7,0.9,1.3,0.9
		c0.2,0,0.3,0,0.5-0.1l8.3-3.2C207.3,418.3,207.7,417.5,207.4,416.8z"/>
	<path fill="#FFFFFF" d="M236.9,405.4c0.2,0.6,0.7,0.9,1.3,0.9c0.2,0,0.3,0,0.5-0.1l8.3-3.2c0.7-0.3,1.1-1.1,0.8-1.8
		s-1.1-1.1-1.8-0.8l-8.3,3.2C237,403.9,236.6,404.7,236.9,405.4z"/>
	<path fill="#FFFFFF" d="M197.7,401.8l8.2,3.6c0.2,0.1,0.4,0.1,0.6,0.1c0.5,0,1-0.3,1.3-0.8c0.3-0.7,0-1.5-0.7-1.8l-8.2-3.6
		c-0.7-0.3-1.5,0-1.8,0.7C196.7,400.7,197,401.5,197.7,401.8z"/>
	<path fill="#FFFFFF" d="M214.6,395.6c0.2,0.6,0.7,0.9,1.3,0.9c0.2,0,0.3,0,0.5-0.1c0.7-0.3,1.1-1.1,0.8-1.8l-3.2-8.3
		c-0.3-0.7-1.1-1.1-1.8-0.8c-0.7,0.3-1.1,1.1-0.8,1.8L214.6,395.6z"/>
	<path fill="#FFFFFF" d="M251.7,421.1c0.4-1.1,0.6-2.3,0.6-3.5c0-6.1-5.1-11.1-11.3-11.1c-1.7,0-3.4,0.4-4.9,1.1
		c-1.6-6.3-7.3-10.9-14-10.9c-8,0-14.5,6.5-14.5,14.5c0,5.4,3.1,10.4,7.9,12.9c0.1,0.6,0.2,1.2,0.5,1.7c-0.1-0.1-0.2-0.1-0.3-0.2
		c-0.7-0.3-1.5,0-1.8,0.7l-3.6,8.2c-0.3,0.7,0,1.5,0.7,1.8c0.2,0.1,0.4,0.1,0.6,0.1c0.5,0,1-0.3,1.3-0.8l3.6-8.2
		c0.1-0.2,0.1-0.3,0.1-0.5c1.4,2.4,4,3.9,6.9,3.9h24.1c3.2,0,5.8-2.6,5.8-5.7C253.4,423.6,252.8,422.2,251.7,421.1z M210.5,411.1
		c0-6.4,5.2-11.7,11.7-11.7c5.8,0,10.6,4.1,11.5,9.7c-0.1,0.1-0.3,0.3-0.4,0.4c-0.1,0.1-0.2,0.2-0.3,0.3c-0.3,0.4-0.7,0.7-1,1.1
		c-0.6-0.2-1.3-0.2-1.9-0.2c-3,0-5.8,1.7-7.1,4.3c-0.4,0-0.8,0.1-1.1,0.2c-0.1,0-0.1,0-0.2,0c-0.4,0.1-0.7,0.2-1,0.3
		c-0.1,0-0.1,0.1-0.2,0.1c-0.3,0.1-0.7,0.3-1,0.5c0,0,0,0,0,0c-0.3,0.2-0.6,0.4-0.9,0.6c-0.1,0-0.1,0.1-0.2,0.1
		c-0.3,0.2-0.5,0.5-0.8,0.7c0,0-0.1,0.1-0.1,0.1c-0.2,0.3-0.4,0.5-0.6,0.8c0,0,0,0,0,0.1c-0.2,0.3-0.4,0.6-0.5,0.9
		c0,0.1-0.1,0.1-0.1,0.2c-0.1,0.3-0.3,0.7-0.4,1c0,0,0,0,0,0.1C212.5,418.8,210.5,415.1,210.5,411.1z M247.6,428.1h-24.1
		c-2.8,0-5.1-2.2-5.2-5l0,0l0-0.1c0-2.8,2.3-5.1,5.2-5.1c0,0,0,0,0,0c0.1,0,0.2,0,0.3,0l1.1,0.1l0.4-1c0.7-2.1,2.7-3.4,4.9-3.4
		c0.7,0,1.3,0.1,2,0.4l1.1,0.4l0.6-1c0.6-1,1.3-1.8,2.2-2.5c1.5-1.1,3.2-1.7,5-1.7c4.7,0,8.5,3.7,8.5,8.3c0,1.2-0.3,2.3-0.7,3.4
		l-0.5,1.1l1,0.7c0.8,0.5,1.3,1.5,1.3,2.4C250.6,426.7,249.3,428.1,247.6,428.1z"/>
</g>
<path fill="#FFFFFF" d="M253.5,17.2l0-0.2c0-2.8-2.2-5-5-5H236v-1.9c0-2.8-2.2-5-5-5h-14c-2.8,0-5,2.2-5,5v1.9h-12.5
	c-2.8,0-5,2.2-5,5l0.1,0.8c-0.1,0.3-0.1,0.6-0.1,0.9v35c0,2.8,2.2,5,5,5h49c2.8,0,5-2.2,5-5v-35c0-0.3,0-0.6-0.1-0.9L253.5,17.2z
	 M227.8,38.3h-7.5v-3.8c0-0.1,0.1-0.2,0.2-0.2h7c0.1,0,0.2,0.1,0.2,0.2V38.3z M220.2,41.3h7.5v0.2c0,0.1-0.1,0.2-0.2,0.2h-7
	c-0.1,0-0.2-0.1-0.2-0.2V41.3z M227.5,31.3h-7c-1.8,0-3.2,1.5-3.2,3.2V38l-15.7-3.1l-0.3,0c-1.1,0-2-0.9-2-2l-1.6-14.7
	c0.3-0.8,1-1.3,1.9-1.3h49c0.9,0,1.6,0.6,1.9,1.3l-1.6,14.5l0,0.2c0,1.1-0.9,2-2,2l-16,3.2v-3.4C230.8,32.8,229.3,31.3,227.5,31.3z
	 M215,10.2c0-1.1,0.9-2,2-2h14c1.1,0,2,0.9,2,2v0.2h-0.9c-0.5-1-1.6-1.8-2.9-1.8h-10.5c-1.3,0-2.3,0.7-2.9,1.8H215V10.2z
	 M218.5,11.9c0-0.1,0.1-0.2,0.2-0.2h10.5c0.1,0,0.2,0.1,0.2,0.2v0.1h-11V11.9z M248.5,55.8h-49c-1.1,0-2-0.9-2-2V36.1
	c0.9,1,2.2,1.7,3.6,1.7l16.2,3.2v0.3v0.2c0,1.8,1.5,3.2,3.2,3.2h7c1.8,0,3.2-1.5,3.2-3.2v-0.2V41l16.2-3.2c1.4,0,2.7-0.7,3.6-1.7
	v17.7C250.5,54.9,249.6,55.8,248.5,55.8z"/>
<path fill="#FFFFFF" d="M248.5,265.5h-2.1v-2c0-2.7-2.2-4.9-4.9-4.9h-42c-2.7,0-4.9,2.2-4.9,4.9v3v1.9v5.1c0,2.7,2.2,4.9,4.9,4.9h42
	c2.7,0,4.9-2.2,4.9-4.9V272h0.3c0.1,0,0.2,0.1,0.2,0.2v5.3c0,1.1-0.9,2-2,2h-17.5c-4.7,0-8.5,3.8-8.5,8.5v2.3
	c-2,0.6-3.5,2.5-3.5,4.7v17.5c0,2.8,2.2,5,5,5h3.5c2.8,0,5-2.2,5-5V295c0-2.2-1.5-4.1-3.5-4.7V288c0-1.1,0.9-2,2-2H245
	c4.7,0,8.5-3.8,8.5-8.5v-7C253.5,267.7,251.3,265.5,248.5,265.5z M197.4,263.5c0-1.2,0.9-2.1,2.1-2.1h42c1.2,0,2.1,0.9,2.1,2.1v2
	h-0.1v0.1h-8.7v3.2c0,0.2-0.2,0.3-0.3,0.3s-0.3-0.2-0.3-0.3v-3.2h-22.1v1.4c0,0.2-0.2,0.3-0.3,0.3s-0.3-0.2-0.3-0.3v-1.4h-6.3v6.7
	c0,0.2-0.2,0.3-0.3,0.3s-0.3-0.2-0.3-0.3v-6.7h-7V263.5z M243.6,273.5c0,1.2-0.9,2.1-2.1,2.1h-42c-1.2,0-2.1-0.9-2.1-2.1v-5.1h4.2
	v3.8c0,1.7,1.4,3.2,3.2,3.2s3.2-1.4,3.2-3.2v-3.8h1c0.5,1,1.6,1.8,2.8,1.8s2.3-0.7,2.8-1.8h16.8v0.3c0,1.7,1.4,3.2,3.2,3.2
	s3.2-1.4,3.2-3.2v-0.3h5.8v3.6h0.1V273.5z M226,312.5c0,1.1-0.9,2-2,2h-3.5c-1.1,0-2-0.9-2-2V295c0-1.1,0.9-2,2-2h3.5
	c1.1,0,2,0.9,2,2V312.5z M250.5,277.5c0,3-2.5,5.5-5.5,5.5h-17.5c-2.8,0-5,2.2-5,5v2H222v-2c0-3,2.5-5.5,5.5-5.5H245
	c2.8,0,5-2.2,5-5v-5.3c0-1.8-1.5-3.2-3.2-3.2h-0.2v-0.5h2c1.1,0,2,0.9,2,2V277.5z"/>
<g>
	<path fill="#FFFFFF" d="M55.3,324.4h-9.1v0c0-0.8-0.6-1.4-1.4-1.4h-8.9c-0.8,0-1.4,0.6-1.4,1.4v0H8.7c-2.6,0-4.8,2.1-4.8,4.8V369
		c0,2.6,2.1,4.8,4.8,4.8h25.8v1.8c0,0.5,0.2,0.9,0.6,1.2c0.4,0.3,0.9,0.3,1.3,0.1l3.9-1.6l3.9,1.6c0.2,0.1,0.4,0.1,0.6,0.1
		c0.3,0,0.6-0.1,0.8-0.2c0.4-0.3,0.6-0.7,0.6-1.2v-1.8h9.1c2.6,0,4.8-2.1,4.8-4.8v-39.8C60.1,326.6,58,324.4,55.3,324.4z M6.7,369
		v-39.8c0-1.1,0.9-1.9,1.9-1.9h21.9v43.6H8.7C7.6,370.9,6.7,370.1,6.7,369z M33.4,370.9v-43.6h1.1v43.6H33.4z M40.9,372.4
		c-0.2-0.1-0.4-0.1-0.6-0.1s-0.4,0-0.6,0.1l-2.5,1v-46.1h6v46.1L40.9,372.4z M57.3,369c0,1.1-0.9,1.9-1.9,1.9h-9.1v-3H51
		c0.8,0,1.4-0.6,1.4-1.4c0-0.8-0.6-1.4-1.4-1.4h-4.8v-2.9h6.6c0.8,0,1.4-0.6,1.4-1.4s-0.6-1.4-1.4-1.4h-6.6v-2.9h7.4
		c0.8,0,1.4-0.6,1.4-1.4s-0.6-1.4-1.4-1.4h-7.4v-2.9h5.5c0.8,0,1.4-0.6,1.4-1.4c0-0.8-0.6-1.4-1.4-1.4h-5.5v-2.9h7.3
		c0.8,0,1.4-0.6,1.4-1.4s-0.6-1.4-1.4-1.4h-7.3v-2.9h6.4c0.8,0,1.4-0.6,1.4-1.4c0-0.8-0.6-1.4-1.4-1.4h-6.4v-2.9h8.2
		c0.8,0,1.4-0.6,1.4-1.4s-0.6-1.4-1.4-1.4h-8.2v-3h9.1c1.1,0,1.9,0.9,1.9,1.9V369z"/>
	<path fill="#FFFFFF" d="M10,333.1h14.5c0.8,0,1.4-0.6,1.4-1.4s-0.6-1.4-1.4-1.4H10c-0.8,0-1.4,0.6-1.4,1.4S9.2,333.1,10,333.1z"/>
	<path fill="#FFFFFF" d="M10,338.9h16.2c0.8,0,1.4-0.6,1.4-1.4c0-0.8-0.6-1.4-1.4-1.4H10c-0.8,0-1.4,0.6-1.4,1.4
		C8.5,338.3,9.2,338.9,10,338.9z"/>
	<path fill="#FFFFFF" d="M10,344.7h17.1c0.8,0,1.4-0.6,1.4-1.4s-0.6-1.4-1.4-1.4H10c-0.8,0-1.4,0.6-1.4,1.4S9.2,344.7,10,344.7z"/>
	<path fill="#FFFFFF" d="M9.8,356.3h17.1c0.8,0,1.4-0.6,1.4-1.4s-0.6-1.4-1.4-1.4H9.8c-0.8,0-1.4,0.6-1.4,1.4S9,356.3,9.8,356.3z"/>
	<path fill="#FFFFFF" d="M9.8,362.2H26c0.8,0,1.4-0.6,1.4-1.4s-0.6-1.4-1.4-1.4H9.8c-0.8,0-1.4,0.6-1.4,1.4S9,362.2,9.8,362.2z"/>
	<path fill="#FFFFFF" d="M27.8,365.1h-18c-0.8,0-1.4,0.6-1.4,1.4c0,0.8,0.6,1.4,1.4,1.4h18c0.8,0,1.4-0.6,1.4-1.4
		C29.2,365.7,28.6,365.1,27.8,365.1z"/>
	<path fill="#FFFFFF" d="M9.8,350.5h15.3c0.8,0,1.4-0.6,1.4-1.4c0-0.8-0.6-1.4-1.4-1.4H9.8c-0.8,0-1.4,0.6-1.4,1.4
		C8.4,349.9,9,350.5,9.8,350.5z"/>
</g>
<path fill="#FFFFFF" d="M176.6,370.6h-1.8v-8.1c0-0.2,0-4-2.9-8.8l-0.1,0.1c-0.1-0.4-0.2-0.8-0.3-1.1c7.1-8.6,6.5-21.2-1.4-29.2
	l-1-1l-9.8,9.8l-8.7-3.6c-0.8-1.5-2.3-2.5-4-2.5c-2.5,0-4.5,2-4.5,4.5c0,1.7,1,3.2,2.4,4l3.4,8.9l-9.6,9.6l1,1
	c4.2,4.2,9.8,6.4,15.5,6.4c3.2,0,6.4-0.7,9.3-2.1l-0.1,0c1.2,1.9,1.9,3.8,1.9,5.5v6.6H164c-2.5,0-4.5,2-4.5,4.5v1.4h21.7v-1.4
	C181.2,372.6,179.1,370.6,176.6,370.6z M156,335.5l-5.7-2.4c0.1-0.2,0.2-0.4,0.3-0.6c0,0,0,0,0-0.1c0.1-0.2,0.2-0.5,0.2-0.7l6.2,2.6
	L156,335.5z M146.5,328.9c0.7,0,1.4,0.4,1.6,1.1l0.1,0.2c0,0.1,0.1,0.2,0.1,0.3c0,0.1,0,0.2,0,0.3c0,0.1,0,0.2,0,0.4
	c0,0,0,0.1,0,0.1c0,0.1,0,0.2-0.1,0.2c0,0,0,0.1-0.1,0.1c0,0.1-0.1,0.1-0.1,0.2c0,0-0.1,0.1-0.1,0.1c0,0.1-0.1,0.1-0.1,0.2
	c0,0,0,0,0,0l0,0l0,0c0,0-0.1,0-0.1,0.1c-0.1,0.1-0.1,0.1-0.2,0.1c-0.1,0.1-0.2,0.1-0.2,0.1c0,0,0,0,0,0c-0.2,0.1-0.4,0.1-0.7,0.1
	c0,0-0.1,0-0.1,0c-0.2,0-0.3,0-0.5-0.1l-0.2-0.1c-0.6-0.3-1.1-0.9-1.1-1.6C144.7,329.8,145.5,328.9,146.5,328.9z M148.2,334.9
	c0.1,0,0.1-0.1,0.2-0.1c0.1-0.1,0.2-0.1,0.3-0.2l2.2,5.8l-1.1,1.1l-2.5-6.4C147.8,335.1,148,335,148.2,334.9z M152.6,337l1.4,0.6
	l-0.8,0.8L152.6,337z M156.7,338.7L156.7,338.7l3.4-3.4l9-8.9c0.5,0.6,0.9,1.1,1.3,1.7l-26.5,26.5c-0.6-0.4-1.2-0.8-1.7-1.3
	L156.7,338.7z M146.3,355.9l25.5-25.4c3.1,6.4,2.5,14.2-2.1,20c-0.7-0.5-1.6-0.7-2.5-0.7c-2.6,0-4.8,2.1-4.8,4.8
	c0,0.6,0.1,1.1,0.3,1.6C157.4,358.5,151.4,358.4,146.3,355.9z M165.5,354.5c0-0.9,0.7-1.6,1.6-1.6c0.9,0,1.6,0.7,1.6,1.6
	c0,0.9-0.7,1.6-1.6,1.6C166.2,356.1,165.5,355.4,165.5,354.5z M162.8,373.8c0.3-0.3,0.7-0.5,1.2-0.5h4.6V364c0-1.6-0.4-3.2-1.1-4.8
	c1.4-0.1,2.6-0.8,3.4-1.8c1.2,2.9,1.3,5,1.3,5v10.9h4.5c0.5,0,0.9,0.2,1.2,0.5H162.8z"/>
<path fill="#FFFFFF" d="M188,34.5V31h-5.2c1.9,0,3.5-1.6,3.5-3.5v-5.2c0-1.9-1.6-3.5-3.5-3.5v-2.6h-2.3c1.2-3.5,0.7-6.7,0-8.8h2.3V4
	h-42c-1.9,0-3.5,1.6-3.5,3.5v8.8c0,1,0.4,1.9,1.1,2.6h-1.1v3.5h1.2v5.2h-1.2V31h-1.8c-1.9,0-3.5,1.6-3.5,3.5v7
	c0,1.9,1.6,3.5,3.5,3.5c-1.9,0-3.5,1.6-3.5,3.5v7c0,1.9,1.6,3.5,3.5,3.5H188v-3.5h-1.7c0.7-2.7,0.5-5.1,0-7h1.7V45v-3.5h-1.5v-7H188
	z M140.8,9.2c0-1,0.8-1.8,1.8-1.8h35c0.7,1.7,1.6,5,0,8.8h-34.9c-1,0-1.8-0.8-1.8-1.8V9.2z M183.4,55.5h-46.1c-1,0-1.8-0.8-1.8-1.7
	v-3.5c0-1,0.8-1.8,1.8-1.8h46.1C183.9,50.2,184.3,52.7,183.4,55.5z M141.3,22.3H181c1,0,1.8,0.8,1.8,1.8v1.8c0,1-0.8,1.8-1.8,1.8h-2
	V25c0-0.8-0.6-1.4-1.4-1.4h-9.8c-0.8,0-1.4,0.6-1.4,1.4v2.6h-25.2V22.3z M176.2,26.4v10.7l-2.7-1.8c-0.5-0.3-1.1-0.3-1.6,0l-2.7,1.8
	V26.4H176.2z M183.7,41.5h-46.5c-1,0-1.8-0.8-1.8-1.8v-3.5c0-1,0.8-1.7,1.8-1.7h29.2v5.2c0,0.5,0.3,1,0.7,1.2
	c0.2,0.1,0.4,0.2,0.7,0.2c0.3,0,0.5-0.1,0.8-0.2l4.1-2.8l4.1,2.8c0.4,0.3,1,0.3,1.4,0.1c0.5-0.2,0.7-0.7,0.7-1.2v-5.2h4.7V41.5z"/>
<g>
	<path fill="#FFFFFF" d="M182.6,290.4h-18c-0.8,0-1.4,0.6-1.4,1.4s0.6,1.4,1.4,1.4h18c0.8,0,1.4-0.6,1.4-1.4
		S183.4,290.4,182.6,290.4z"/>
	<path fill="#FFFFFF" d="M181.7,303.8h-17c-0.8,0-1.4,0.6-1.4,1.4s0.6,1.4,1.4,1.4h17c0.8,0,1.4-0.6,1.4-1.4
		S182.5,303.8,181.7,303.8z"/>
	<path fill="#FFFFFF" d="M136.7,273.1h15.2c0.8,0,1.4-0.6,1.4-1.4s-0.6-1.4-1.4-1.4h-15.2c-0.8,0-1.4,0.6-1.4,1.4
		S135.9,273.1,136.7,273.1z"/>
	<path fill="#FFFFFF" d="M136.7,279.8h17c0.8,0,1.4-0.6,1.4-1.4s-0.6-1.4-1.4-1.4h-17c-0.8,0-1.4,0.6-1.4,1.4
		S135.9,279.8,136.7,279.8z"/>
	<path fill="#FFFFFF" d="M136.7,286.5h18c0.8,0,1.4-0.6,1.4-1.4s-0.6-1.4-1.4-1.4h-18c-0.8,0-1.4,0.6-1.4,1.4
		S135.9,286.5,136.7,286.5z"/>
	<path fill="#FFFFFF" d="M154.7,297.1h-18c-0.8,0-1.4,0.6-1.4,1.4s0.6,1.4,1.4,1.4h18c0.8,0,1.4-0.6,1.4-1.4
		S155.4,297.1,154.7,297.1z"/>
	<path fill="#FFFFFF" d="M153.7,303.8h-17c-0.8,0-1.4,0.6-1.4,1.4s0.6,1.4,1.4,1.4h17c0.8,0,1.4-0.6,1.4-1.4
		S154.5,303.8,153.7,303.8z"/>
	<path fill="#FFFFFF" d="M136.7,293.2h16.1c0.8,0,1.4-0.6,1.4-1.4s-0.6-1.4-1.4-1.4h-16.1c-0.8,0-1.4,0.6-1.4,1.4
		S135.9,293.2,136.7,293.2z"/>
	<path fill="#FFFFFF" d="M164.7,299.9h16.1c0.8,0,1.4-0.6,1.4-1.4s-0.6-1.4-1.4-1.4h-16.1c-0.8,0-1.4,0.6-1.4,1.4
		S163.9,299.9,164.7,299.9z"/>
	<path fill="#FFFFFF" d="M184.5,263.3h-49c-2.7,0-4.9,2-4.9,4.5v40.4c0,2.5,2.2,4.5,4.9,4.5l35.6,0h1.7c0.2,0,0.5,0,0.7,0l10.9,0
		c2.7,0,4.9-2,4.9-4.5v-40.4C189.4,265.3,187.2,263.3,184.5,263.3z M161.4,277.4c4.7-1.8,8.2-2,10.4-0.5c0.9,0.6,1.5,1.3,2,2.1
		c0.6,0.8,1.3,1.7,2.5,2.5v0.1c0.1,0,0.1,0,0.2,0c0.2,0.1,0.4,0.2,0.7,0.3c1,0.5,2.1,0.7,3.3,0.7c1.8,0,3.9-0.6,6.2-1.7v2.9h-25.2
		V277.4z M177.3,278.7c-0.4-0.4-0.8-0.8-1.1-1.3c-0.7-0.9-1.4-1.9-2.8-2.8c-0.3-0.2-0.6-0.3-0.9-0.5c0.3-1.8,2-3.2,3.9-3.2
		c2.2,0,4,1.8,4,4C180.3,276.7,179,278.2,177.3,278.7z M186.6,267.8v10c-2.2,1.2-4.1,1.9-5.7,2c1.3-1.2,2.2-3,2.2-5
		c0-3.7-3-6.8-6.8-6.8c-3.2,0-5.9,2.2-6.6,5.3c-2.3-0.3-5.1,0.1-8.3,1.2v-8.4h23.1C185.7,266.1,186.6,266.8,186.6,267.8z
		 M133.4,308.2v-40.4c0-0.9,0.9-1.7,2.1-1.7h23.1v43.9l-23.1,0C134.3,309.9,133.4,309.2,133.4,308.2z M184.5,309.9h-12.1v0
		c-0.4,0-0.8,0-1.2,0l-9.7,0v-23.3h25.2v21.6C186.6,309.2,185.7,309.9,184.5,309.9z"/>
</g>
<g>
	<rect x="72.9" y="338.7" fill="#FFFFFF" width="7.4" height="3.2"/>
	<rect x="72.9" y="345" fill="#FFFFFF" width="7.4" height="19"/>
	<rect x="72.9" y="367.1" fill="#FFFFFF" width="7.4" height="3.2"/>
	<rect x="88.4" y="366.1" fill="#FFFFFF" width="7.4" height="4.2"/>
	<rect x="88.4" y="328.7" fill="#FFFFFF" width="7.4" height="4.2"/>
	<rect x="88.4" y="337" fill="#FFFFFF" width="7.4" height="25"/>
	
		<rect x="107.9" y="341.4" transform="matrix(-0.9756 0.2197 -0.2197 -0.9756 297.9468 671.808)" fill="#FFFFFF" width="7.4" height="22.1"/>
	
		<rect x="111.5" y="366.8" transform="matrix(-0.9756 0.2197 -0.2197 -0.9756 308.674 702.8973)" fill="#FFFFFF" width="7.4" height="3.7"/>
	
		<rect x="106.1" y="332.6" transform="matrix(-0.2197 -0.9756 0.9756 -0.2197 -196.4058 515.5642)" fill="#FFFFFF" width="3.7" height="7.4"/>
	<path fill="#FFFFFF" d="M123.8,371.4l-9.2-40.9c-0.3-1.3-1.5-2.2-2.8-2.2c-0.2,0-0.5,0-0.7,0.1l-9.3,2.1c-0.8,0.2-1.4,0.6-1.8,1.2
		c0,0.1-0.1,0.1-0.1,0.2V326c0-1.7-1.3-3-3-3h-9.5c-1.7,0-3,1.3-3,3v7.5c-0.5-0.6-1.3-1-2.2-1H71.1c-1.7,0-3,1.3-3,3v38
		c0,1.7,1.3,3,3,3h11.1c1.1,0,2.1-0.6,2.6-1.5c0.5,0.9,1.5,1.5,2.6,1.5h9.5c1.7,0,3-1.3,3-3v-37.9l8.8,39.3c0.3,1.3,1.5,2.2,2.8,2.2
		c0.2,0,0.5,0,0.7-0.1l9.3-2.1c0.8-0.2,1.4-0.6,1.8-1.2C123.8,373,124,372.2,123.8,371.4z M82.3,373.5c0,0.1-0.1,0.2-0.2,0.2H71.1
		c-0.1,0-0.2-0.1-0.2-0.2v-38c0-0.1,0.1-0.2,0.2-0.2h11.1c0.1,0,0.2,0.1,0.2,0.2V373.5z M97,373.5c0,0.1-0.1,0.2-0.2,0.2h-9.5
		c-0.1,0-0.2-0.1-0.2-0.2V326c0-0.1,0.1-0.2,0.2-0.2h9.5c0.1,0,0.2,0.1,0.2,0.2V373.5z M120.9,372.1l-9.3,2.1c0,0-0.1,0-0.1,0
		c0,0-0.1,0-0.1,0l-9.2-40.8c0,0,0.1-0.1,0.2-0.1l9.3-2.1c0,0,0.1,0,0.1,0l9.2,40.8C121.1,372,121,372,120.9,372.1z"/>
</g>
<path fill="#FFFFFF" d="M60,117.4l-2.9-2.9c0,0,0,0,0-0.1c0,0,0,0,0,0l-4.4-4.4c0,0,0,0,0,0c0,0,0,0-0.1-0.1L38.8,96.1l12.7-12.7
	c0.2-0.2,0.3-0.4,0.3-0.6c1.3-0.7,4.1-2.4,5.9-5.6c1.1-2,1.6-3.6,1.9-4.9C60,71,60.3,70,61.1,69c0.5-0.6,0.4-1.4-0.1-1.9
	c-0.5-0.5-1.3-0.5-1.9-0.1c-1,0.8-2,1.1-3.3,1.5c-1.3,0.4-2.9,0.8-4.9,1.9c-3.2,1.8-4.9,4.6-5.6,5.9c-0.2,0.1-0.4,0.2-0.6,0.3
	L39.4,82c0,0,0,0,0,0s0,0,0,0L32,89.4L19.7,77.1c-0.1-0.2-0.3-0.4-0.5-0.6L4.8,66.7c-0.6-0.4-1.3-0.3-1.8,0.2
	c-0.5,0.5-0.5,1.2-0.2,1.8l9.4,13.8c0,0.4,0.1,0.7,0.4,1l12.6,12.6L4,117.4c-0.9,0.9-1.4,2.1-1.4,3.4s0.5,2.5,1.4,3.4
	c0.9,0.9,2.2,1.4,3.4,1.4c1.2,0,2.4-0.5,3.4-1.4L32,102.9l21.2,21.2c0.9,0.9,2.1,1.4,3.4,1.4h0c1.3,0,2.5-0.5,3.4-1.4
	C61.9,122.3,61.9,119.2,60,117.4z M48.8,115.7l2.8-2.8l2.5,2.5l-2.8,2.8L48.8,115.7z M52.2,72.9c1.7-0.9,3-1.3,4.3-1.7
	c0.2-0.1,0.4-0.1,0.6-0.2c-0.1,0.2-0.1,0.4-0.2,0.6c-0.4,1.3-0.7,2.6-1.7,4.3c-1.3,2.3-3.3,3.7-4.4,4.3l-2.9-2.9
	C48.5,76.2,49.9,74.2,52.2,72.9z M46,79.4l2.8,2.8l-3.7,3.7L42.3,83L46,79.4z M16.3,77.9L14,80.2l-4.8-7L16.3,77.9z M15.6,82.5
	l2.8-2.8L30,91.3l-2.8,2.8L15.6,82.5z M8.8,122.1c-0.8,0.8-2,0.8-2.8,0c-0.4-0.4-0.6-0.9-0.6-1.4s0.2-1,0.6-1.4L40.3,85l2.8,2.8
	L8.8,122.1z M36.8,98.1l12.8,12.8l-2.8,2.8L34,100.9L36.8,98.1z M58,122.1c-0.4,0.4-0.9,0.6-1.4,0.6s-1-0.2-1.4-0.6l-1.9-1.9
	l2.8-2.8l1.9,1.9C58.8,120.1,58.8,121.4,58,122.1z"/>
<g>
	<path fill="#FFFFFF" d="M170.5,89.2c-0.3-0.8-1-1.4-1.8-1.5l-4.8-0.7l-2.1-4.3c-0.4-0.8-1.1-1.2-2-1.2s-1.6,0.5-2,1.2l-2.1,4.3
		l-4.8,0.7c-0.8,0.1-1.5,0.7-1.8,1.5c-0.3,0.8,0,1.7,0.6,2.3l3.5,3.4l-0.8,4.8c-0.1,0.7,0.1,1.3,0.5,1.8c0.7,0.8,1.8,1,2.7,0.5
		l4.3-2.3l4.3,2.3c0.3,0.2,0.7,0.3,1,0.3c0.7,0,1.3-0.3,1.7-0.8c0.4-0.5,0.6-1.2,0.5-1.8l-0.8-4.8l3.5-3.4
		C170.6,90.9,170.8,90.1,170.5,89.2z M164.3,93.1c-0.5,0.5-0.8,1.2-0.6,2l0.7,3.9l-3.5-1.9c-0.6-0.3-1.4-0.3-2.1,0l-3.5,1.9l0.7-3.9
		c0.1-0.7-0.1-1.5-0.6-2l-2.9-2.8l4-0.6c0.7-0.1,1.4-0.6,1.7-1.2l1.8-3.6l1.8,3.6c0.3,0.7,1,1.1,1.7,1.2l4,0.6L164.3,93.1z"/>
	<path fill="#FFFFFF" d="M184,91.5l-1.2-1.2c-0.4-0.4-0.4-0.9-0.1-1.4l0.9-1.4c0.6-1,0.8-2.2,0.4-3.3c-0.4-1.1-1.2-2-2.3-2.4
		l-1.6-0.6c-0.5-0.2-0.8-0.7-0.7-1.2l0.3-1.7c0.2-1.2-0.2-2.3-0.9-3.2c-0.8-0.9-1.9-1.4-3-1.3l-1.7,0.1c-0.5,0-1-0.3-1.1-0.8
		l-0.5-1.6c-0.3-1.1-1.1-2-2.2-2.5c-1.1-0.5-2.3-0.5-3.3,0l-1.5,0.7c-0.5,0.2-1,0.1-1.3-0.3l-1.1-1.3c-0.7-0.9-1.8-1.4-3-1.4
		c-1.2,0-2.3,0.5-3,1.4l-1.1,1.3c-0.3,0.4-0.9,0.5-1.3,0.3l-1.5-0.8c-1-0.5-2.2-0.6-3.3-0.1c-1.1,0.5-1.9,1.4-2.2,2.5l-0.5,1.6
		c-0.1,0.5-0.6,0.8-1.1,0.8l-1.7-0.1c-1.2,0-2.3,0.4-3.1,1.3c-0.8,0.9-1.1,2-1,3.2l0.2,1.7c0.1,0.5-0.2,1-0.7,1.2l-1.6,0.6
		c-1.1,0.4-1.9,1.3-2.3,2.4c-0.4,1.1-0.2,2.3,0.4,3.3l0.9,1.4c0.3,0.4,0.2,1-0.2,1.4l-1.2,1.2c-0.8,0.8-1.2,2-1.1,3.1
		c0.1,1.2,0.7,2.2,1.7,2.8l1.4,1c0.4,0.3,0.6,0.8,0.4,1.3l-0.6,1.6c-0.4,1.1-0.3,2.3,0.3,3.3c0.6,1,1.6,1.7,2.7,1.9l1.7,0.3
		c0.5,0.1,0.9,0.5,0.9,1l0.1,1.7c0.1,1.2,0.6,2.2,1.6,2.9c0.9,0.7,2.1,0.9,3.3,0.6l0.1,0l0,10.4c0,0.9,0.5,1.7,1.4,2.1
		c0.8,0.3,1.6,0.2,2.3-0.3l7.7-4.5l7.7,4.5c0.4,0.3,0.9,0.5,1.4,0.5c0.3,0,0.6-0.1,0.9-0.2c0.8-0.3,1.4-1.2,1.4-2.1l0-10.3l0.3,0.1
		c0.3,0.1,0.7,0.1,1,0.1c0.8,0,1.6-0.3,2.3-0.7c0.9-0.7,1.5-1.7,1.6-2.9l0.1-1.7c0-0.5,0.4-0.9,0.9-1l1.7-0.3
		c1.1-0.2,2.1-0.9,2.7-1.9s0.7-2.2,0.3-3.3l-0.6-1.6c-0.2-0.5,0-1,0.4-1.3l1.4-0.9c1-0.6,1.6-1.7,1.7-2.8
		C185.2,93.5,184.8,92.3,184,91.5z M159.8,107.1c-8.4,0-15.3-6.8-15.3-15.3c0-8.4,6.8-15.3,15.3-15.3S175,83.5,175,91.9
		C175,100.3,168.2,107.1,159.8,107.1z M161.2,118c-0.8-0.7-2-0.7-2.8,0l-7.2,4.2l0-14.4c2.6,1.4,5.5,2.2,8.6,2.2s6-0.8,8.6-2.2
		l0,14.4L161.2,118z M182.3,94.3c0,0.2-0.1,0.6-0.5,0.8l-1.4,0.9c-1.5,1-2.1,2.9-1.5,4.6l0.6,1.6c0.2,0.4,0,0.8-0.1,0.9
		c-0.1,0.2-0.3,0.5-0.8,0.5l-1.7,0.3c-1.8,0.3-3.1,1.8-3.3,3.6l-0.1,1.7c0,0.4-0.3,0.7-0.5,0.8c-0.2,0.1-0.5,0.3-0.9,0.2l-1-0.3l0-4
		c0-0.1,0-0.1,0-0.2c4.1-3.3,6.7-8.4,6.7-14c0-10-8.1-18.1-18.1-18.1s-18.1,8.1-18.1,18.1c0,5.6,2.6,10.7,6.7,14c0,0.1,0,0.1,0,0.2
		l0,3.9l-0.8,0.2c-0.4,0.1-0.8-0.1-0.9-0.2s-0.4-0.4-0.4-0.8l-0.1-1.7c-0.1-1.8-1.4-3.3-3.2-3.6l-1.7-0.3c-0.4-0.1-0.7-0.4-0.8-0.5
		c-0.1-0.2-0.2-0.5-0.1-0.9l0.6-1.6c0.6-1.7,0-3.6-1.5-4.6l-1.4-1c-0.4-0.3-0.5-0.6-0.5-0.8s0-0.6,0.3-0.9l1.2-1.2
		c1.3-1.3,1.5-3.3,0.5-4.8l-0.9-1.4c-0.2-0.4-0.2-0.7-0.1-0.9c0.1-0.2,0.2-0.5,0.6-0.7l1.6-0.6c1.7-0.7,2.7-2.4,2.4-4.2l-0.2-1.7
		c-0.1-0.4,0.1-0.8,0.3-0.9c0.1-0.1,0.4-0.4,0.9-0.4l1.7,0.1c1.8,0.1,3.4-1.1,3.9-2.8l0.5-1.6c0.1-0.4,0.4-0.6,0.6-0.7
		c0.2-0.1,0.5-0.2,0.9,0l1.5,0.8c1.6,0.8,3.6,0.4,4.7-1l1.1-1.3c0.3-0.3,0.7-0.4,0.8-0.4c0.2,0,0.6,0.1,0.8,0.4l1.1,1.3
		c1.2,1.4,3.1,1.8,4.7,1l1.5-0.7c0.4-0.2,0.8-0.1,0.9,0c0.2,0.1,0.5,0.3,0.6,0.7l0.5,1.6c0.5,1.8,2.1,3,3.9,2.9l1.7-0.1
		c0.4,0,0.7,0.2,0.9,0.4c0.1,0.1,0.3,0.5,0.3,0.9l-0.3,1.7c-0.3,1.8,0.7,3.5,2.4,4.2l1.6,0.6c0.4,0.2,0.6,0.5,0.6,0.7
		c0.1,0.2,0.1,0.5-0.1,0.9l-0.9,1.4c-1,1.5-0.8,3.5,0.5,4.8l1.2,1.2C182.3,93.8,182.3,94.1,182.3,94.3z"/>
</g>
<path fill="#FFFFFF" d="M250.7,82.6l-24.2-7.1c-1.6-0.5-3.3-0.5-4.9,0l-24.2,7.1c-1.6,0.5-2.7,2-2.7,3.7c0,1.7,1.1,3.2,2.7,3.7
	l5.1,1.5v8.6c0,1.2,0.6,2.3,1.5,3c1.1,0.8,2.3,1.6,3.6,2.3v2.4c-0.7,0.3-1.4,0.9-1.8,1.6l-2,3.6c-0.4,0.7-0.1,1.5,0.6,1.9
	c0.7,0.4,1.5,0.1,1.9-0.6l1.3-2.3v3.6c0,0.8,0.6,1.4,1.4,1.4s1.4-0.6,1.4-1.4v-3.6l1.3,2.3c0.3,0.5,0.7,0.7,1.2,0.7
	c0.2,0,0.5-0.1,0.7-0.2c0.7-0.4,0.9-1.2,0.6-1.9l-2-3.6c-0.4-0.7-1-1.3-1.8-1.6v-1c4.2,1.8,8.8,2.7,13.7,2.7
	c7.6,0,14.5-2.2,20.1-6.4c0.9-0.7,1.5-1.8,1.5-3v-8.6l5.1-1.5c1.6-0.5,2.7-2,2.7-3.7C253.4,84.5,252.3,83,250.7,82.6z M205.6,100.8
	c-0.2-0.2-0.4-0.5-0.4-0.8v-7.8l2.3,0.7c0,0.2-0.1,0.4-0.1,0.7v8.5C206.9,101.6,206.2,101.2,205.6,100.8z M242.7,100
	c0,0.3-0.1,0.6-0.4,0.8c-5.1,3.8-11.4,5.8-18.4,5.8c-5,0-9.6-1-13.7-3v-9.9l11.3,3.3c0.8,0.2,1.6,0.3,2.4,0.3s1.6-0.1,2.4-0.3
	l16.3-4.8V100z M249.9,87.2l-24.2,7.1c-1.1,0.3-2.2,0.3-3.3,0l-9-2.6l10.8-4.3c0.7-0.3,1.1-1.1,0.8-1.8c-0.3-0.7-1.1-1.1-1.8-0.8
	L209.9,90c-0.3,0.1-0.5,0.3-0.8,0.4l-11-3.2c-0.7-0.2-0.7-0.8-0.7-1c0-0.2,0.1-0.8,0.7-1l24.2-7.1c0.5-0.2,1.1-0.2,1.6-0.2
	s1.1,0.1,1.6,0.2l24.2,7.1c0.7,0.2,0.7,0.8,0.7,1C250.6,86.4,250.5,87,249.9,87.2z"/>
<path fill="#FFFFFF" d="M125.1,81.8c-1-5.1-4.5-6.9-7.5-6.9c-3.4,0-7.1,2.4-7.8,6.5c-1.8-1.6-4.1-6.2-5.5-8.9
	c-0.4-0.8-0.7-1.5-1.1-2.1c-0.2-0.3-0.5-0.6-0.8-0.7c-0.4-0.1-0.8-0.1-1.1,0.1c-1.9,1.1-3.8,2.2-5.6,3.2c-1.8,1.1-3.7,2.2-5.6,3.3
	c-0.2,0.1-0.3,0.2-0.5,0.4c-0.8,0.6-1,1.5-0.4,2.8c0.6,1.5,2.3,1.9,3.7,2.3c0.7,0.2,1.4,0.4,2,0.7c1.3,1.9,0.7,3.8,0.2,4.8
	c-1.1,2.2-3.3,3.8-5.4,3.8l-0.2,0c-3.1,0-3.3-1.1-3.4-4.4c0-2-0.1-4.2-1.6-5.8c-0.4-0.5-1.2-0.6-1.7-0.2c-1.9,1.1-3.8,2.2-5.6,3.3
	c-2,1.2-4,2.4-6,3.5c-0.6,0.4-0.9,1.2-0.5,1.9c1.1,2.1,2.3,4.3,3.5,6.5c0.9,1.7,1.9,3.4,2.8,5.1c-0.2,0-0.4,0-0.5,0
	c-3.1,0.2-7.1,0.6-8.9,3.3c-1.1,1.7-1.2,3.9-0.3,6.7c1.9,5.6,5.1,6.4,6.9,6.4c3.6,0,7.1-3.4,8.5-6.8c1,1.6,2,3.3,3,4.9
	c1.3,2,2.5,4.1,3.8,6.1c0.3,0.4,0.7,0.7,1.2,0.7c0.3,0,0.5-0.1,0.7-0.2c1.8-1.1,3.6-2.2,5.4-3.2c1.8-1.1,3.7-2.2,5.6-3.3
	c0.3-0.2,0.5-0.4,0.6-0.7c0.6-1.6-1-2.7-2.8-3.9c-1.8-1.1-4.2-2.7-4.3-4.4c-0.1-0.8,0.3-1.7,1.3-2.7c3.1-3.3,6-4.2,7.7-2.2
	c1.2,1.4,1.7,3.9,1.2,6.7c-0.1,0.3,0,0.7,0.2,1l0,0.1c0.1,0.4,0.5,1.5,1.8,1.7c0.2,0,0.3,0,0.5,0c2.7-0.5,5.9-2.6,8.7-4.5
	c1.2-0.8,2.4-1.6,3.3-2.1c0.7-0.4,0.9-1.2,0.6-1.9c-1.1-2.1-2.2-4.3-3.3-6.5c-0.9-1.7-1.7-3.4-2.5-5.1c0.9-0.3,2-0.4,3-0.6
	c2.2-0.3,4.8-0.6,6.2-2.6C125.4,86.5,125.7,84.5,125.1,81.8z M122.1,86.3c-0.7,1-2.4,1.2-4.2,1.4c-1.9,0.2-3.8,0.5-5.4,1.6
	c-0.6,0.4-0.7,1.2-0.4,1.8c1,2,2.1,4.2,3.2,6.3c0.9,1.8,1.8,3.6,2.7,5.4c-0.7,0.5-1.6,1-2.4,1.6c-2.1,1.4-4.7,3.2-6.8,3.8
	c0.4-3.3-0.3-6.4-2-8.3c-1.1-1.3-2.6-2-4.3-2c-2.4,0-4.9,1.4-7.5,4.1c-1.5,1.6-2.2,3.3-2,5c0.4,3,3.4,5,5.6,6.4
	c0.3,0.2,0.7,0.4,1,0.7c-1.4,0.8-2.8,1.7-4.2,2.5c-1.4,0.8-2.9,1.7-4.3,2.5c-1-1.6-2-3.3-3-4.9c-1.3-2-2.5-4.1-3.8-6.1
	c-0.3-0.4-0.7-0.7-1.2-0.7c-0.2,0-0.4,0-0.6,0.1l-1.5,0.7c-0.4,0.2-0.7,0.5-0.8,0.9c-0.8,2.7-3.5,5.6-6.1,5.6
	c-2.2,0-3.5-2.5-4.2-4.5c-0.6-1.9-0.7-3.4-0.1-4.3c1.1-1.6,4.2-1.8,6.8-2c0.5,0,1-0.1,1.5-0.1c0.3,0,0.6-0.1,0.8-0.3l0.3-0.3
	c0.2-0.2,0.4-0.3,0.5-0.5c0.5-0.4,0.6-1.1,0.3-1.7c-1.1-2.1-2.3-4.2-3.4-6.4c-1-1.8-1.9-3.5-2.8-5.3c1.6-0.9,3.2-1.9,4.9-2.9
	c1.5-0.9,3-1.8,4.4-2.6c0.3,0.8,0.3,1.9,0.3,3c0.1,2.8,0.2,7.1,6.2,7.1l0.3,0c3.2-0.1,6.4-2.3,7.9-5.4c1.3-2.8,1.1-5.7-0.7-8
	c-0.1-0.1-0.3-0.3-0.4-0.4c-0.9-0.5-2-0.8-2.9-1.1c-0.6-0.1-1.5-0.4-1.8-0.6c1.8-1,3.5-2,5.2-3c1.4-0.8,2.8-1.7,4.3-2.5
	c0.1,0.2,0.3,0.5,0.4,0.8c2.8,5.5,5.1,9.8,7.8,10.8c0.5,0.2,1,0.1,1.3-0.2c0.3-0.3,0.7-0.5,1-0.8c0.3-0.2,0.5-0.6,0.5-1
	c0.2-3,2.7-4.8,5.1-4.8c2.4,0,4.1,1.7,4.7,4.7C122.7,84.2,122.7,85.5,122.1,86.3z"/>
<path fill="#FFFFFF" d="M302.9,78.2c-1.8-6.8-7.9-11.6-14.9-11.6s-13.1,4.7-14.9,11.6c-0.3,1.3-0.5,2.6-0.5,3.9v7v1.4v7.7v2.8v5.6
	c0,2.7,2.2,4.9,4.9,4.9h3.9v7.4c0,3.7,3,6.7,6.7,6.7s6.7-3,6.7-6.7v-7.4h3.9c2.7,0,4.9-2.2,4.9-4.9v-5.6v-2.8v-7.7V89v-7
	C303.4,80.7,303.2,79.4,302.9,78.2z M300.6,82v5.6h-2.4v-7.7h2.2C300.5,80.6,300.6,81.3,300.6,82z M288,69.4c5.1,0,9.7,3.1,11.6,7.7
	h-2.8c-0.8,0-1.4,0.6-1.4,1.4v12.2c0,0.2-0.2,0.4-0.4,0.4s-0.3-0.2-0.3-0.4V78.5c0-0.8-0.6-1.4-1.4-1.4h-3.5c-0.8,0-1.4,0.6-1.4,1.4
	v1.8c0,0.2-0.2,0.4-0.3,0.4s-0.3-0.2-0.3-0.4v-1.8c0-0.8-0.6-1.4-1.4-1.4h-9.8C278.3,72.5,282.9,69.4,288,69.4z M275.4,82
	c0-0.7,0.1-1.4,0.2-2.1h9.2v0.4c0,1.7,1.4,3.1,3.2,3.1s3.2-1.4,3.2-3.1v-0.4h0.7v7.7h-16.5V82z M291.8,118.7c0,2.1-1.7,3.9-3.8,3.9
	s-3.8-1.7-3.8-3.9v-7.4h7.7V118.7z M300.6,106.5c0,1.2-0.9,2.1-2.1,2.1h-3.9h-13.3h-3.9c-1.2,0-2.1-0.9-2.1-2.1v-5.6h25.2V106.5z
	 M300.6,98.1h-25.2v-7.7h16.5v0.4c0,1.7,1.4,3.1,3.2,3.1s3.2-1.4,3.2-3.1v-0.4h2.4V98.1z"/>
<path fill="#FFFFFF" d="M180,225.8h5.2c2.3,0,4.2-1.9,4.2-4.2v-7c0-2.3-1.9-4.2-4.2-4.2H180v-2.8h0c-0.3-4.6-12.7-5.9-20-5.9
	c-7.3,0-19.7,1.2-20,5.9h0v19c0,0.3,0,0.6,0,0.9c-6,2-9.4,4.8-9.4,8c0,7,15.1,10.7,29.3,10.7s29.3-3.8,29.3-10.7c0-3.2-3.3-6-9.4-8
	c0-0.3,0-0.6,0-0.9V225.8z M169.6,234.2h-19.3c-4.2,0-7.6-3.4-7.6-7.6v-15.5c4.1,2.1,12,2.7,17.2,2.7c5.3,0,13.1-0.6,17.2-2.7v15.5
	C177.2,230.8,173.8,234.2,169.6,234.2z M185.2,213.2c0.8,0,1.4,0.6,1.4,1.4v7c0,0.8-0.6,1.4-1.4,1.4H180v-9.8H185.2z M159.9,204.5
	c10.5,0,16.8,2.1,17.2,3.2v0c-0.5,1.2-6.7,3.3-17.2,3.3c-10.5,0-16.8-2.1-17.2-3.2v0C143.2,206.7,149.5,204.5,159.9,204.5z
	 M186.5,235.5c0,3.7-11.4,7.9-26.5,7.9s-26.5-4.2-26.5-7.9c0-1.8,2.7-3.8,7.2-5.3c1.5,3.9,5.3,6.8,9.7,6.8h19.3
	c1.1,0,2.2-0.2,3.2-0.5c-0.2,0.7-3.4,2.3-12.8,2.3c-3.1,0-6.1-0.3-8.4-1c-0.8-0.2-1.5,0.3-1.7,1c-0.2,0.7,0.3,1.5,1,1.7
	c2.6,0.7,5.8,1.1,9.2,1.1c7.1,0,15.6-0.9,15.6-5.2c0-0.4-0.2-0.8-0.5-1c1.9-1.2,3.4-3,4.2-5.2C183.8,231.8,186.5,233.7,186.5,235.5z
	"/>
<g>
	<path fill="#FFFFFF" d="M73.6,228.2c-1.8,0-3.3,1.5-3.3,3.3s1.5,3.3,3.3,3.3s3.3-1.5,3.3-3.3S75.4,228.2,73.6,228.2z M73.6,231.9
		c-0.3,0-0.5-0.2-0.5-0.5s0.2-0.5,0.5-0.5s0.5,0.2,0.5,0.5S73.9,231.9,73.6,231.9z"/>
	<path fill="#FFFFFF" d="M73.6,194.6c-3.9,0-7,3.1-7,7v44.8c0,3.9,3.1,7,7,7s7-3.1,7-7v-44.8C80.6,197.7,77.5,194.6,73.6,194.6z
		 M77.8,246.4c0,2.3-1.9,4.2-4.2,4.2s-4.2-1.9-4.2-4.2v-44.8c0-2.3,1.9-4.2,4.2-4.2s4.2,1.9,4.2,4.2V246.4z"/>
	<path fill="#FFFFFF" d="M73.6,213.2c-1.8,0-3.3,1.5-3.3,3.3s1.5,3.3,3.3,3.3s3.3-1.5,3.3-3.3S75.4,213.2,73.6,213.2z M73.6,217
		c-0.3,0-0.5-0.2-0.5-0.5s0.2-0.5,0.5-0.5s0.5,0.2,0.5,0.5S73.9,217,73.6,217z"/>
	<path fill="#FFFFFF" d="M88.5,219.8c1.8,0,3.3-1.5,3.3-3.3s-1.5-3.3-3.3-3.3s-3.3,1.5-3.3,3.3S86.7,219.8,88.5,219.8z M88.5,216
		c0.3,0,0.5,0.2,0.5,0.5s-0.2,0.5-0.5,0.5s-0.5-0.2-0.5-0.5S88.3,216,88.5,216z"/>
	<path fill="#FFFFFF" d="M103.5,202c-3.9,0-7,3.1-7,7v29.9c0,0.8,0.2,1.6,0.4,2.4l-1.4-2.4v-33.6c0-3.9-3.1-7-7-7s-7,3.1-7,7v21.6
		c-0.6,1.6-0.6,3.5,0,5.2v10.6c0,3.9,3.1,7,7,7c2.9,0,5.4-1.8,6.5-4.4l3.3,5.8c0.3,0.6,0.9,0.9,1.5,0.9c0.3,0,0.6-0.1,0.9-0.2
		c0.9-0.5,1.1-1.6,0.7-2.5l-3.3-6c1.3,1.6,3.3,2.6,5.5,2.6c3.9,0,7-3.1,7-7V209C110.5,205.2,107.3,202,103.5,202z M88.5,201.1
		c2.3,0,4.2,1.9,4.2,4.2v18.5c-1.3-1.1-2.9-1.7-4.5-1.7c-1.2,0-2.4,0.3-3.6,1c-0.1,0.1-0.2,0.1-0.3,0.2v-18
		C84.3,203,86.2,201.1,88.5,201.1z M92.7,242.6c0,2.3-1.9,4.2-4.2,4.2c-2.3,0-4.2-1.9-4.2-4.2v-7c1.2,0.8,2.5,1.2,3.9,1.2
		c0.6,0,1.3-0.1,1.9-0.3l2.6,4.7V242.6z M107.7,238.9c0,2.3-1.9,4.2-4.2,4.2s-4.2-1.9-4.2-4.2V209c0-2.3,1.9-4.2,4.2-4.2
		s4.2,1.9,4.2,4.2V238.9z"/>
	<path fill="#FFFFFF" d="M103.5,228.2c-1.8,0-3.3,1.5-3.3,3.3s1.5,3.3,3.3,3.3s3.3-1.5,3.3-3.3S105.3,228.2,103.5,228.2z
		 M103.5,231.9c-0.3,0-0.5-0.2-0.5-0.5s0.2-0.5,0.5-0.5s0.5,0.2,0.5,0.5S103.7,231.9,103.5,231.9z"/>
	<path fill="#FFFFFF" d="M103.5,213.2c-1.8,0-3.3,1.5-3.3,3.3s1.5,3.3,3.3,3.3s3.3-1.5,3.3-3.3S105.3,213.2,103.5,213.2z M103.5,217
		c-0.3,0-0.5-0.2-0.5-0.5s0.2-0.5,0.5-0.5s0.5,0.2,0.5,0.5S103.7,217,103.5,217z"/>
	<path fill="#FFFFFF" d="M118.4,205.8c-3.9,0-7,3.1-7,7v22.4c0,3.9,3.1,7,7,7s7-3.1,7-7v-22.4C125.4,208.9,122.3,205.8,118.4,205.8z
		 M122.6,235.2c0,2.3-1.9,4.2-4.2,4.2s-4.2-1.9-4.2-4.2v-22.4c0-2.3,1.9-4.2,4.2-4.2s4.2,1.9,4.2,4.2V235.2z"/>
	<path fill="#FFFFFF" d="M118.4,213.2c-1.8,0-3.3,1.5-3.3,3.3s1.5,3.3,3.3,3.3s3.3-1.5,3.3-3.3S120.2,213.2,118.4,213.2z M118.4,217
		c-0.3,0-0.5-0.2-0.5-0.5s0.2-0.5,0.5-0.5s0.5,0.2,0.5,0.5S118.7,217,118.4,217z"/>
	<path fill="#FFFFFF" d="M118.4,228.2c-1.8,0-3.3,1.5-3.3,3.3s1.5,3.3,3.3,3.3s3.3-1.5,3.3-3.3S120.2,228.2,118.4,228.2z
		 M118.4,231.9c-0.3,0-0.5-0.2-0.5-0.5s0.2-0.5,0.5-0.5s0.5,0.2,0.5,0.5S118.7,231.9,118.4,231.9z"/>
</g>
<g>
	<path fill="#FFFFFF" d="M32,218.6c-3,0-5.4,2.4-5.4,5.4s2.4,5.4,5.4,5.4s5.4-2.4,5.4-5.4S35,218.6,32,218.6z M32,226.6
		c-1.4,0-2.6-1.2-2.6-2.6s1.2-2.6,2.6-2.6s2.6,1.2,2.6,2.6S33.4,226.6,32,226.6z"/>
	<path fill="#FFFFFF" d="M32,194.6c-16.2,0-29.4,13.2-29.4,29.4s13.2,29.4,29.4,29.4c3,0,5.4-2.4,5.4-5.4s-2.4-5.4-5.4-5.4
		c-10.3,0-18.6-8.3-18.6-18.6s8.3-18.6,18.6-18.6s18.6,8.3,18.6,18.6v4c0,1.4-1.2,2.6-2.6,2.6s-2.6-1.2-2.6-2.6v-12
		c0-3-2.4-5.4-5.4-5.4c-1.1,0-2.2,0.3-3.1,1c-1.6-0.6-3.2-1-4.9-1c-7.4,0-13.4,6-13.4,13.4s6,13.4,13.4,13.4c1.9,0,3.7-0.4,5.4-1.2
		c2.5,3.3,6.4,5.2,10.6,5.2c7,0,12.9-5.5,13.4-12.4c0-0.3,0-0.6,0-0.9l0-0.1C61.4,208.6,49,194.6,32,194.6z M58.6,228.7
		c-0.4,5.5-5,9.9-10.6,9.9c-3.6,0-7-1.8-8.9-4.9l-0.7-1.1l-1.2,0.7c-1.6,0.9-3.4,1.4-5.2,1.4c-5.8,0-10.6-4.8-10.6-10.6
		s4.8-10.6,10.6-10.6c1.6,0,3.1,0.4,4.6,1l0.9,0.4l0.7-0.7c0.5-0.5,1.1-0.8,1.8-0.8c1.4,0,2.6,1.2,2.6,2.6v12c0,3,2.4,5.4,5.4,5.4
		s5.4-2.4,5.4-5.4v-4c0-11.8-9.6-21.4-21.4-21.4s-21.4,9.6-21.4,21.4s9.6,21.4,21.4,21.4c1.4,0,2.6,1.2,2.6,2.6s-1.2,2.6-2.6,2.6
		c-14.7,0-26.6-11.9-26.6-26.6s11.9-26.6,26.6-26.6c15.6,0,26.6,12.6,26.6,30.6l0,0.1C58.6,228.3,58.6,228.5,58.6,228.7z"/>
</g>
</svg>
