<?xml version="1.0" encoding="UTF-8" standalone="no"?>
<!-- Generator: Adobe Illustrator 18.1.1, SVG Export Plug-In . SVG Version: 6.00 Build 0)  -->

<svg
   xmlns:dc="http://purl.org/dc/elements/1.1/"
   xmlns:cc="http://creativecommons.org/ns#"
   xmlns:rdf="http://www.w3.org/1999/02/22-rdf-syntax-ns#"
   xmlns:svg="http://www.w3.org/2000/svg"
   xmlns="http://www.w3.org/2000/svg"
   xmlns:sodipodi="http://sodipodi.sourceforge.net/DTD/sodipodi-0.dtd"
   xmlns:inkscape="http://www.inkscape.org/namespaces/inkscape"
   version="1.1"
   id="Layer_1"
   x="0px"
   y="0px"
   viewBox="0 0 320 440"
   enable-background="new 0 0 320 440"
   xml:space="preserve"
   inkscape:version="0.91 r13725"
   sodipodi:docname="categories-sprite-black.svg"><metadata
     id="metadata6829"><rdf:RDF><cc:Work
         rdf:about=""><dc:format>image/svg+xml</dc:format><dc:type
           rdf:resource="http://purl.org/dc/dcmitype/StillImage" /></cc:Work></rdf:RDF></metadata><defs
     id="defs6827" /><sodipodi:namedview
     pagecolor="#ffffff"
     bordercolor="#666666"
     borderopacity="1"
     objecttolerance="10"
     gridtolerance="10"
     guidetolerance="10"
     inkscape:pageopacity="0"
     inkscape:pageshadow="2"
     inkscape:window-width="1218"
     inkscape:window-height="758"
     id="namedview6825"
     showgrid="false"
     inkscape:zoom="1.0727273"
     inkscape:cx="160"
     inkscape:cy="220"
     inkscape:window-x="0"
     inkscape:window-y="0"
     inkscape:window-maximized="0"
     inkscape:current-layer="Layer_1" /><g
     id="g6529"
     transform="translate(0,-4)"><path
       d="m 47.1,37.4 c -2.6,-1.2 -6.1,-0.2 -7.5,2.3 -0.4,0.7 -0.1,1.5 0.5,1.9 0.7,0.4 1.5,0.1 1.9,-0.5 0.7,-1.2 2.5,-1.7 3.8,-1.1 1.3,0.6 2.2,2.3 1.9,3.9 -0.3,1.5 -1.6,2.9 -3.2,3.4 -1.6,0.4 -3.5,0 -4.9,-1.1 -0.8,-0.6 -1.4,-1.4 -1.7,-2.3 -0.5,-1.4 -0.4,-3 0.4,-4.2 0.7,-1.2 2.1,-2.2 3.5,-2.4 0.8,-0.1 1.3,-0.8 1.2,-1.6 -0.1,-0.8 -0.8,-1.3 -1.6,-1.2 -2.3,0.3 -4.4,1.7 -5.5,3.7 -1.2,2 -1.4,4.5 -0.6,6.6 0.5,1.4 1.4,2.6 2.6,3.5 1.5,1.2 3.5,1.9 5.3,1.9 0.7,0 1.4,-0.1 2,-0.3 2.7,-0.7 4.8,-3 5.2,-5.6 0.6,-2.7 -0.9,-5.7 -3.3,-6.9 z"
       id="path6531"
       inkscape:connector-curvature="0" /><path
       d="M 57,5.9 50,5.9 50,4 C 50,3.2 49.4,2.6 48.6,2.6 47.8,2.6 47.2,3.2 47.2,4 l 0,1.9 -30.8,0 0,-1.9 C 16.4,3.2 15.8,2.6 15,2.6 14.2,2.6 13.6,3.2 13.6,4 l 0,1.9 -6.6,0 c -2.4,0 -4.4,2 -4.4,4.4 l 0,46.3 C 2.6,59 4.6,61 7,61 l 50,0 c 2.4,0 4.4,-2 4.4,-4.4 l 0,-46.3 c 0,-2.4 -2,-4.4 -4.4,-4.4 z m -50,2.8 6.6,0 0,3.7 c 0,0.8 0.6,1.4 1.4,1.4 0.8,0 1.4,-0.6 1.4,-1.4 l 0,-3.7 30.8,0 0,3.7 c 0,0.8 0.6,1.4 1.4,1.4 0.8,0 1.4,-0.6 1.4,-1.4 l 0,-3.7 7,0 c 0.9,0 1.6,0.7 1.6,1.6 l 0,6.4 -53.2,0 0,-6.4 C 5.4,9.4 6.1,8.7 7,8.7 Z m 50,49.5 -50,0 c -0.9,0 -1.6,-0.7 -1.6,-1.6 l 0,-37.1 53.2,0 0,37.2 c 0,0.8 -0.7,1.5 -1.6,1.5 z"
       id="path6533"
       inkscape:connector-curvature="0" /></g><g
     id="g6535"
     transform="translate(0,-4)"><path
       d="M 94.2,2.2 C 89.9,3.1 86,3.8 81.2,3.8 76.9,3.8 72.7,3.3 68.3,2.3 67.9,2.2 67.4,2.3 67.1,2.6 66.8,2.9 66.6,3.3 66.6,3.7 l 0,20 c 0,7.9 6.7,14.6 14.7,14.6 8,0 14.7,-6.7 14.7,-14.6 l 0,-20 C 96,3.3 95.8,2.9 95.5,2.6 95.1,2.2 94.6,2.1 94.2,2.2 Z m -1.1,21.4 c 0,6.4 -5.4,11.7 -11.8,11.7 -6.4,0 -11.8,-5.4 -11.8,-11.7 l 0,-18.2 c 4,0.8 7.9,1.2 11.8,1.2 4.4,0 8,-0.5 11.8,-1.3 l 0,18.3 z"
       id="path6537"
       inkscape:connector-curvature="0" /><path
       d="m 74.3,17.1 c 1,-0.8 2.7,-0.8 3.7,0 0.3,0.2 0.6,0.3 0.9,0.3 0.4,0 0.8,-0.2 1.1,-0.5 0.5,-0.6 0.4,-1.5 -0.2,-2 -0.2,-0.2 -0.4,-0.3 -0.7,-0.5 -0.3,-1.4 -1.5,-2.4 -3,-2.4 -1.5,0 -2.7,1 -3,2.4 -0.2,0.1 -0.5,0.3 -0.7,0.5 -0.6,0.5 -0.7,1.4 -0.2,2 0.6,0.6 1.5,0.7 2.1,0.2 z"
       id="path6539"
       inkscape:connector-curvature="0" /><path
       d="m 84.5,17.1 c 1,-0.8 2.7,-0.8 3.7,0 0.3,0.2 0.6,0.3 0.9,0.3 0.4,0 0.8,-0.2 1.1,-0.5 0.5,-0.6 0.4,-1.5 -0.2,-2 C 89.8,14.7 89.6,14.6 89.3,14.4 89,13 87.8,12 86.3,12 c -1.5,0 -2.7,1 -3,2.4 -0.2,0.1 -0.5,0.3 -0.7,0.5 -0.6,0.5 -0.7,1.4 -0.2,2 0.6,0.6 1.5,0.7 2.1,0.2 z"
       id="path6541"
       inkscape:connector-curvature="0" /><path
       d="m 88,23.5 c -1.8,1.5 -4.1,2.3 -6.7,2.3 -2.6,0 -4.9,-0.8 -6.7,-2.3 -0.6,-0.5 -1.5,-0.4 -2,0.2 -0.5,0.6 -0.4,1.5 0.2,2 2.3,1.9 5.3,2.9 8.5,2.9 3.2,0 6.2,-1 8.5,-2.9 0.6,-0.5 0.7,-1.4 0.2,-2 -0.5,-0.6 -1.4,-0.7 -2,-0.2 z"
       id="path6543"
       inkscape:connector-curvature="0" /><path
       d="m 124.9,26.2 c -0.3,-0.3 -0.8,-0.4 -1.2,-0.3 -4.3,0.9 -8.2,1.6 -13,1.6 -4.3,0 -8.5,-0.5 -12.9,-1.5 -0.4,-0.1 -0.9,0 -1.2,0.3 -0.3,0.3 -0.5,0.7 -0.5,1.1 l 0,20 c 0,7.9 6.7,14.6 14.7,14.6 8,0 14.7,-6.7 14.7,-14.6 l 0,-20 c -0.1,-0.6 -0.3,-1 -0.6,-1.2 z m -2.3,21.1 C 122.6,53.7 117.2,59 110.8,59 104.4,59 99,53.6 99,47.3 L 99,29 c 4,0.8 7.9,1.2 11.8,1.2 4.4,0 8,-0.5 11.8,-1.3 l 0,18.4 z"
       id="path6545"
       inkscape:connector-curvature="0" /><path
       d="m 112.9,38.8 c 0.3,1.4 1.5,2.4 3,2.4 1.5,0 2.7,-1 3,-2.4 0.2,-0.1 0.5,-0.3 0.7,-0.5 0.6,-0.5 0.7,-1.4 0.2,-2 -0.5,-0.6 -1.4,-0.7 -2,-0.2 -1,0.8 -2.7,0.8 -3.7,0 -0.6,-0.5 -1.5,-0.4 -2,0.2 -0.5,0.6 -0.4,1.5 0.2,2 0.1,0.2 0.3,0.3 0.6,0.5 z"
       id="path6547"
       inkscape:connector-curvature="0" /><path
       d="m 102.7,38.8 c 0.3,1.4 1.5,2.4 3,2.4 1.5,0 2.7,-1 3,-2.4 0.2,-0.1 0.5,-0.3 0.7,-0.5 0.6,-0.5 0.7,-1.4 0.2,-2 -0.5,-0.6 -1.4,-0.7 -2,-0.2 -1,0.8 -2.7,0.8 -3.7,0 -0.6,-0.5 -1.5,-0.4 -2,0.2 -0.5,0.6 -0.4,1.5 0.2,2 0.1,0.2 0.4,0.3 0.6,0.5 z"
       id="path6549"
       inkscape:connector-curvature="0" /><path
       d="m 110.7,46.9 c -3.3,0 -6.2,1 -8.5,2.9 -0.6,0.5 -0.7,1.4 -0.2,2 0.5,0.6 1.4,0.7 2,0.2 1.8,-1.5 4.1,-2.3 6.7,-2.3 2.6,0 4.9,0.8 6.7,2.3 0.3,0.2 0.6,0.3 0.9,0.3 0.4,0 0.8,-0.2 1.1,-0.5 0.5,-0.6 0.4,-1.5 -0.2,-2 -2.3,-1.9 -5.2,-2.9 -8.5,-2.9 z"
       id="path6551"
       inkscape:connector-curvature="0" /></g><path
     d="m 309.4,1.6 c -2.1,-1.1 -6.6,-3 -12.4,-3 -3.4,0 -6.8,0.6 -10.1,1.9 -4.7,1.7 -9,2.6 -12.8,2.6 -1.3,0 -2.5,-0.1 -3.6,-0.3 -0.3,0 -0.5,-0.1 -0.8,-0.1 -1,0 -1.8,0.3 -2.6,0.9 l 0,-3.6 c 0,-0.8 -0.6,-1.4 -1.4,-1.4 -0.8,0 -1.4,0.6 -1.4,1.4 l 0,56 c 0,0.8 0.6,1.4 1.4,1.4 0.8,0 1.4,-0.6 1.4,-1.4 l 0,-22.1 c 0.4,0.3 0.9,0.5 1.4,0.7 1.7,0.5 3.5,0.7 5.6,0.7 0,0 0,0 0,0 4.1,0 8.7,-0.9 13.8,-2.8 6,-2.2 12.3,-2.2 17.9,-0.1 0.5,0.2 1,0.3 1.6,0.3 2.4,0 4.3,-1.9 4.3,-4.3 l 0,-23 c 0,-1.6 -0.9,-3.1 -2.3,-3.8 z m -0.5,26.8 c 0,1.2 -1.2,1.8 -2.1,1.4 -6.3,-2.4 -13.2,-2.4 -19.9,0 -4.7,1.7 -9,2.6 -12.8,2.6 -1.8,0 -3.4,-0.2 -4.8,-0.6 -0.7,-0.2 -1.1,-0.8 -1.1,-1.5 l 0,-23.3 c 0,-0.8 0.7,-1.5 1.5,-1.5 0.1,0 0.2,0 0.3,0 1.3,0.2 2.7,0.4 4.1,0.4 4.1,0 8.7,-0.9 13.8,-2.8 3,-1.1 6.1,-1.7 9.1,-1.7 5.2,0 9.2,1.7 11.1,2.7 0.5,0.3 0.8,0.8 0.8,1.4 l 0,22.9 z"
     id="path6553"
     inkscape:connector-curvature="0" /><g
     id="g6555"
     transform="translate(0,-4)"><path
       d="m 60.6,169.7 -4.4,-9.5 c 0.7,-2.3 0.6,-4.7 -0.3,-6.9 -1.6,-4.2 -5.5,-6.9 -10.1,-6.9 -2.6,0 -4.9,0.8 -6.7,2.3 l -5.7,0 c 0.5,-4.3 4.5,-7.6 9.5,-7.6 0.8,0 1.4,-0.6 1.4,-1.4 0,-0.8 -0.6,-1.4 -1.4,-1.4 -6.5,0 -11.8,4.5 -12.3,10.4 l -5.8,0 c -1.8,-1.5 -4.1,-2.3 -6.7,-2.3 -4.4,0 -8.4,2.7 -10,6.7 -0.9,2.3 -1,4.8 -0.3,7.1 l -4.4,9.5 c -2,4.2 -0.1,9.3 4.1,11.2 1.1,0.5 2.3,0.8 3.6,0.8 3.3,0 6.3,-1.9 7.6,-4.9 l 4.6,-10.1 c 0.1,-0.2 0.2,-0.4 0.4,-0.6 0.2,-0.2 0.4,-0.3 0.6,-0.5 0.1,-0.1 0.2,-0.2 0.4,-0.3 l 14.8,0 c 0.1,0.1 0.2,0.2 0.4,0.3 0.2,0.2 0.4,0.4 0.6,0.5 0.2,0.1 0.3,0.3 0.4,0.6 l 4.6,10 c 1.4,3 4.4,4.9 7.7,4.9 1.2,0 2.4,-0.3 3.5,-0.8 4,-1.9 5.9,-6.9 3.9,-11.1 z m -5.2,8.7 c -0.7,0.3 -1.5,0.5 -2.3,0.5 -2.2,0 -4.2,-1.3 -5.1,-3.3 l -4.6,-10 c -0.3,-0.6 -0.7,-1.1 -1.2,-1.5 -0.1,-0.1 -0.3,-0.2 -0.4,-0.4 -0.5,-0.5 -1.2,-1.1 -2.1,-1.1 l -15.4,0 c -0.9,0 -1.6,0.6 -2.1,1.1 -0.1,0.1 -0.3,0.3 -0.4,0.4 -0.5,0.4 -0.9,0.9 -1.2,1.5 L 16,175.7 c -0.9,2 -2.9,3.3 -5.1,3.3 -0.8,0 -1.6,-0.2 -2.4,-0.5 -2.8,-1.3 -4,-4.7 -2.7,-7.5 l 4.6,-10 c 0.2,-0.3 0.2,-0.7 0,-1.1 -0.7,-1.9 -0.6,-3.8 0.1,-5.7 1.2,-3 4.2,-5 7.5,-5 0,0 0,0 0,0 2,0 3.8,0.7 5.2,2 0.3,0.2 0.6,0.4 1,0.4 l 15.3,0 c 0.4,0 0.7,-0.1 1,-0.4 1.4,-1.3 3.2,-2 5.2,-2 3.4,0 6.3,2 7.5,5.1 0.7,1.9 0.7,3.7 0.1,5.6 -0.1,0.3 -0.1,0.7 0,1.1 l 4.6,10 c 1.5,2.7 0.3,6 -2.5,7.4 z"
       id="path6557"
       inkscape:connector-curvature="0" /><circle
       cx="43.700001"
       cy="159.2"
       r="2.0999999"
       id="circle6559" /><circle
       cx="48.299999"
       cy="154.60001"
       r="2.0999999"
       id="circle6561" /><path
       d="m 21.6,155.2 -2.3,0 0,-2.3 c 0,-0.7 -0.6,-1.2 -1.2,-1.2 -0.7,0 -1.2,0.6 -1.2,1.2 l 0,2.3 -2.3,0 c -0.7,0 -1.2,0.6 -1.2,1.2 0,0.7 0.6,1.2 1.2,1.2 l 2.3,0 0,2.3 c 0,0.7 0.6,1.2 1.2,1.2 0.7,0 1.2,-0.6 1.2,-1.2 l 0,-2.3 2.3,0 c 0.7,0 1.2,-0.6 1.2,-1.2 0,-0.6 -0.5,-1.2 -1.2,-1.2 z"
       id="path6563"
       inkscape:connector-curvature="0" /></g><g
     id="g6565"
     transform="translate(0,-4)"><path
       d="m 84.1,155 c -0.9,0.1 -1.6,0.8 -1.9,1.6 -0.3,0.8 -0.1,1.8 0.6,2.4 l 4.9,4.8 -1.2,6.7 c -0.1,0.7 0.1,1.4 0.5,1.9 0.7,0.8 2,1.1 2.9,0.6 l 6,-3.2 6,3.2 c 0.3,0.2 0.7,0.3 1.1,0.3 0.7,0 1.4,-0.3 1.8,-0.9 0.5,-0.5 0.6,-1.2 0.5,-1.9 l -1.2,-6.7 4.9,-4.8 c 0.7,-0.6 0.9,-1.6 0.6,-2.4 -0.3,-0.9 -1,-1.5 -1.9,-1.6 l -6.7,-1 -3,-6.1 c -0.4,-0.8 -1.2,-1.3 -2.1,-1.3 -0.9,0 -1.7,0.5 -2.1,1.3 l -3,6.1 -6.7,1 z m 9,0.3 2.9,-5.9 2.9,5.9 c 0.3,0.7 1,1.2 1.8,1.3 l 6.5,0.9 -4.7,4.6 c -0.6,0.5 -0.8,1.3 -0.7,2.1 l 1.1,6.5 -5.8,-3.1 c -0.7,-0.4 -1.5,-0.4 -2.2,0 l -5.8,3.1 1.1,-6.5 c 0.1,-0.8 -0.1,-1.6 -0.7,-2.1 l -4.7,-4.6 6.5,-0.9 c 0.8,-0.1 1.4,-0.6 1.8,-1.3 z"
       id="path6567"
       inkscape:connector-curvature="0" /><path
       d="m 91,151.2 1.7,-3.5 -5.4,-12.9 C 87.1,134.3 86.5,134 86,134 c -0.2,0 -0.4,0 -0.5,0.1 -0.7,0.3 -1.1,1.1 -0.8,1.7 l 6.3,15.4 z"
       id="path6569"
       inkscape:connector-curvature="0" /><path
       d="M 87.6,153.5 90,153.1 90.3,152.4 78,140.1 c -0.3,-0.3 -0.6,-0.4 -0.9,-0.4 -0.3,0 -0.7,0.1 -0.9,0.4 -0.5,0.5 -0.5,1.4 0,1.9 l 11.4,11.5 z"
       id="path6571"
       inkscape:connector-curvature="0" /><path
       d="m 80.7,159 c -0.2,-0.2 -0.3,-0.6 -0.4,-0.6 l -11,0 c -0.7,0 -1.3,0.7 -1.3,1.4 0,0.7 0.6,1.4 1.3,1.4 l 13.6,0 -2.2,-2.2 z"
       id="path6573"
       inkscape:connector-curvature="0" /><path
       d="m 70.9,150.8 9.9,4.1 c 0.4,-0.3 0.9,-0.6 1.4,-0.7 l 2.6,-0.4 -12.9,-5.4 c -0.2,-0.1 -0.3,-0.1 -0.5,-0.1 -0.5,0 -1,0.3 -1.2,0.8 -0.3,0.8 0,1.4 0.7,1.7 z"
       id="path6575"
       inkscape:connector-curvature="0" /><path
       d="m 109.8,154.3 c 0.6,0.1 1.1,0.4 1.5,0.8 l 9.9,-4 c 0.7,-0.3 1,-1 0.7,-1.7 -0.2,-0.5 -0.7,-0.8 -1.2,-0.8 -0.2,0 -0.4,0 -0.5,0.1 l -12.9,5.3 2.5,0.3 z"
       id="path6577"
       inkscape:connector-curvature="0" /><path
       d="m 107.5,135.9 c 0.3,-0.7 0,-1.5 -0.7,-1.7 -0.2,-0.1 -0.3,-0.1 -0.5,-0.1 -0.5,0 -0.9,0.3 -1.1,0.8 l -5.6,13.6 1.4,2.8 6.5,-15.4 z"
       id="path6579"
       inkscape:connector-curvature="0" /><path
       d="m 96,144.5 c 0.6,0 0.8,0.2 1.7,0.6 l 0,-11.8 c 0,-0.7 -0.7,-1.3 -1.4,-1.3 -0.7,0 -1.4,0.6 -1.4,1.3 l 0,11.4 c 0.1,-0.1 0.8,-0.2 1.1,-0.2 z"
       id="path6581"
       inkscape:connector-curvature="0" /><path
       d="m 102,153.1 2.4,0.4 11.4,-11.4 c 0.5,-0.5 0.5,-1.4 0,-1.9 -0.3,-0.3 -0.6,-0.4 -0.9,-0.4 -0.3,0 -0.7,0.1 -0.9,0.4 l -12.3,12.3 0.3,0.6 z"
       id="path6583"
       inkscape:connector-curvature="0" /><path
       d="m 103.8,175.4 c -0.3,-0.1 -0.5,-0.1 -0.8,-0.3 l -2.5,-1.3 4.5,11.3 c 0.2,0.5 0.6,0.8 1.1,0.8 0.2,0 0.3,0 0.5,-0.1 0.7,-0.3 1,-1.1 0.7,-1.7 l -3.5,-8.7 z"
       id="path6585"
       inkscape:connector-curvature="0" /><path
       d="m 106.3,168.4 0.7,3.8 c 0,0.2 0,0.4 0,0.6 l 6.9,6.9 c 0.3,0.3 0.6,0.4 0.9,0.4 0.3,0 0.7,-0.1 0.9,-0.4 0.5,-0.5 0.5,-1.4 0,-1.9 l -9.4,-9.4 z"
       id="path6587"
       inkscape:connector-curvature="0" /><path
       d="m 121.1,169 -14,-5.9 -1.5,1.4 0.2,1.1 14.2,6 c 0.2,0.1 0.3,0.1 0.5,0.1 0.5,0 1,-0.3 1.2,-0.8 0.4,-0.8 0.1,-1.6 -0.6,-1.9 z"
       id="path6589"
       inkscape:connector-curvature="0" /><path
       d="m 86.3,164.5 -1.5,-1.5 -14,5.8 c -0.7,0.3 -1,1.1 -0.7,1.8 0.2,0.5 0.7,0.9 1.2,0.9 0.2,0 0.3,0 0.5,-0.1 l 14.4,-5.9 0.1,-1 z"
       id="path6591"
       inkscape:connector-curvature="0" /><path
       d="m 122.7,158.4 -11,0 c -0.1,0 -0.2,0.4 -0.4,0.6 l -2.2,2.2 13.6,0 c 0.7,0 1.3,-0.7 1.3,-1.4 0,-0.7 -0.6,-1.4 -1.3,-1.4 z"
       id="path6593"
       inkscape:connector-curvature="0" /><path
       d="m 95,172 0,14.7 c 0,0.7 0.7,1.3 1.4,1.3 0.7,0 1.4,-0.6 1.4,-1.3 l 0,-14.3 -1.7,-0.9 -1.1,0.5 z"
       id="path6595"
       inkscape:connector-curvature="0" /><path
       d="m 85,172.3 0.7,-3.8 -9.5,9.5 c -0.5,0.5 -0.5,1.4 0,1.9 0.3,0.3 0.6,0.4 0.9,0.4 0.3,0 0.7,-0.1 0.9,-0.4 l 6.9,-6.9 c 0.1,-0.3 0.1,-0.5 0.1,-0.7 z"
       id="path6597"
       inkscape:connector-curvature="0" /><path
       d="m 88.1,175.4 -3.6,8.6 c -0.3,0.7 0,1.5 0.7,1.7 0.2,0.1 0.3,0.1 0.5,0.1 0.5,0 1.2,-0.3 1.4,-0.8 l 4.9,-11.5 -3,1.6 c -0.3,0.2 -0.6,0.3 -0.9,0.3 z"
       id="path6599"
       inkscape:connector-curvature="0" /></g><path
     d="m 178.1,153.6 c -0.8,0 -1.7,0.1 -2.4,0.3 l -3.4,-7.3 c -0.2,-0.4 -0.5,-0.7 -0.8,-0.9 l 1.8,-4 1.3,0.3 c 1.3,0 2.4,-1.1 2.4,-2.4 0,-1.3 -1.1,-2.4 -2.4,-2.4 l -11.3,0 c -0.7,0 -1.2,0.5 -1.2,1.2 0,0.7 0.5,1.2 1.2,1.2 l 7.2,1.5 -1.3,2.9 c -0.1,0 -0.1,0 -0.2,0 l -20.6,0 c -0.2,0 -0.5,0 -0.7,0.1 l 1,-4.9 c 0.2,-0.8 -0.3,-1.5 -1.1,-1.7 -0.1,0 -0.3,0 -0.4,0 0,0 -0.1,0 -0.1,0 l -5.9,0 c -2.4,0 -4.4,2 -4.4,4.4 0,2.4 2,4.4 4.4,4.4 0.8,0 1.4,-0.6 1.4,-1.4 0,-0.8 -0.6,-1.4 -1.4,-1.4 -0.9,0 -1.6,-0.7 -1.6,-1.6 0,-0.9 0.7,-1.6 1.6,-1.6 l 4.4,0 -2.8,13.4 c -0.3,0 -0.6,0 -0.9,0 -6.2,0 -11.3,5.1 -11.3,11.3 0,6.2 5.1,11.3 11.3,11.3 6.2,0 11.3,-5.1 11.3,-11.3 0,-5 -3.2,-9.2 -7.7,-10.7 l 1.3,-6.5 13,16.9 c 0.4,0.5 1,0.8 1.6,0.8 0.4,0.5 1,0.7 1.7,0.7 l 3.7,0 c 0.6,5.6 5.4,10.1 11.2,10.1 6.2,0 11.3,-5.1 11.3,-11.3 0,-6.2 -5,-11.4 -11.2,-11.4 z m -27.7,11.3 c 0,4.7 -3.8,8.5 -8.5,8.5 -4.7,0 -8.5,-3.8 -8.5,-8.5 0,-4.7 3.8,-8.5 8.5,-8.5 0.1,0 0.2,0 0.3,0 l -1.7,8 c -0.2,0.8 0.3,1.5 1.1,1.7 0.1,0 0.2,0 0.3,0 0.6,0 1.2,-0.5 1.4,-1.1 l 1.7,-8 c 3.1,1.3 5.4,4.3 5.4,7.9 z m 22.6,-10 c -3.2,1.6 -5.6,4.8 -6.1,8.5 l -3.1,0 6.3,-14.6 2.9,6.1 z m 1.2,2.5 2.8,6 -7.3,0 c 0.5,-2.6 2.2,-4.8 4.5,-6 z m -24.6,-10.6 18.3,0 -6.7,15.1 -11.6,-15.1 z m 28.5,26.6 c -4.3,0 -7.8,-3.2 -8.4,-7.3 l 8,0 c 0.8,0 1.5,-0.4 2,-1.1 0.4,-0.7 0.5,-1.5 0.1,-2.2 l -3,-6.3 c 0.4,-0.1 0.8,-0.1 1.2,-0.1 4.7,0 8.5,3.8 8.5,8.5 0,4.7 -3.7,8.5 -8.4,8.5 z"
     id="path6601"
     inkscape:connector-curvature="0" /><path
     d="m 252.8,146.8 -7.4,-12.5 c -0.8,-1.3 -2.2,-2 -3.8,-2 l -34.3,0 c -1.7,0 -3.1,0.7 -3.8,2 l -8.6,14.4 c -0.3,0.5 -0.2,1.2 0.2,1.7 l 26.1,27.8 c 0.8,0.9 2,1.4 3.2,1.4 1.2,0 2.4,-0.5 3.2,-1.4 l 24.6,-26.1 c 1.3,-1.4 1.6,-3.6 0.6,-5.3 z m -2.4,1.5 c 0,0.1 0.1,0.1 0.1,0.2 l -12.9,0 5.9,-11.9 6.9,11.7 z m -26,25.3 -9.2,-22.4 18.4,0 -9.2,22.4 z m 11.1,-27.4 -8.3,-11.1 13.8,0 -5.5,11.1 z m -1.7,2.3 -18.6,0 9.3,-12.4 9.3,12.4 z m -20.5,-2.3 -5.5,-11.1 13.9,0 -8.4,11.1 z m -8,-9.7 5.9,12 -13.1,0 7.2,-12 z m -5.7,14.8 12.6,0 9.8,23.8 -22.4,-23.8 z m 27.3,23.6 9.7,-23.6 12.5,0 -22.2,23.6 z"
     id="path6603"
     inkscape:connector-curvature="0" /><g
     id="g6605"
     transform="translate(0,-4)"><path
       d="m 233.9,229.7 c -0.8,-0.4 -1.8,-1 -2.1,-1.8 -0.3,-1 0.5,-2.4 1,-3.1 0.6,-0.7 3.6,-4.3 3.6,-11.7 0,-3.6 0,-14.5 -12.5,-14.5 -3.1,0 -12.5,0 -12.5,14.5 0,7.2 2.9,10.8 3.6,11.6 0.4,0.5 1.4,2.1 1.1,3.2 -0.2,0.8 -1.2,1.5 -2.1,1.8 -7.4,2.3 -19.6,6.9 -19.6,12.3 l 0,4 c 0,2.2 1.8,3.5 3.5,3.5 l 52,0 c 1.7,0 3.5,-1.3 3.5,-3.5 l 0,-4 c 0.1,-5.5 -12.2,-10.1 -19.5,-12.3 z m 16.6,16.3 c 0,0.5 -0.4,0.5 -0.5,0.5 l -52,0 c -0.1,0 -0.5,0 -0.5,-0.5 l 0,-4 c 0,-1.6 4.7,-5.5 17.6,-9.5 l 0.2,-0.1 c 2.2,-0.9 3.4,-2.3 3.8,-3.9 0.7,-2.9 -1.6,-5.7 -1.7,-5.8 l -0.1,-0.1 c 0,0 -2.8,-3 -2.8,-9.6 0,-8.1 2.8,-11.5 9.5,-11.5 6.7,0 9.5,3.4 9.5,11.5 0,6.7 -2.8,9.6 -2.9,9.7 l -0.8,0.8 0.1,0.2 c -0.7,1.1 -1.5,3 -1.1,4.9 0.4,1.7 1.7,3 3.8,3.9 l 0.2,0.1 c 12.9,4 17.6,7.9 17.6,9.5 l 0,3.9 z"
       id="path6607"
       inkscape:connector-curvature="0" /><path
       d="m 230.7,215.8 c -0.5,-0.6 -1.4,-0.7 -2,-0.2 -1.3,1 -2.9,1.6 -4.8,1.6 -1.9,0 -3.5,-0.6 -4.8,-1.6 -0.6,-0.5 -1.5,-0.4 -2,0.2 -0.5,0.6 -0.4,1.5 0.2,2 1.8,1.5 4,2.2 6.5,2.2 2.5,0 4.7,-0.8 6.5,-2.2 0.8,-0.5 0.9,-1.4 0.4,-2 z"
       id="path6609"
       inkscape:connector-curvature="0" /></g><g
     id="g6611"
     transform="translate(0,-4)"><g
       id="g6613"><path
         d="m 288,226.9 c -6.2,0 -11.2,-5 -11.2,-11.2 0,-6.2 5,-11.2 11.2,-11.2 6.2,0 11.2,5 11.2,11.2 0,6.2 -5,11.2 -11.2,11.2 z m 0,-19.7 c -4.7,0 -8.4,3.8 -8.4,8.4 0,4.6 3.8,8.4 8.4,8.4 4.6,0 8.4,-3.8 8.4,-8.4 0,-4.6 -3.7,-8.4 -8.4,-8.4 z"
         id="path6615"
         inkscape:connector-curvature="0" /></g><g
       id="g6617"><path
         d="m 288,253.4 c -1.8,0 -3.4,-0.9 -4.2,-2.5 l -13.3,-23.6 c -2.3,-3.5 -3.5,-7.5 -3.5,-11.7 0,-11.6 9.5,-21.1 21.1,-21.1 11.6,0 21.1,9.5 21.1,21.1 0,4.2 -1.2,8.2 -3.5,11.7 0,0 0,0.1 -0.1,0.1 l -13.3,23.4 c -0.9,1.7 -2.5,2.6 -4.3,2.6 z m 0,-56 c -10.1,0 -18.3,8.2 -18.3,18.3 0,3.7 1.1,7.2 3.1,10.2 l 0.1,0.3 13.2,23.4 c 0.4,0.7 1,1 1.8,1 0.8,0 1.4,-0.4 1.8,-1 l 13.4,-23.7 c 2,-3 3.1,-6.5 3.1,-10.2 0.1,-10.1 -8.1,-18.3 -18.2,-18.3 z"
         id="path6619"
         inkscape:connector-curvature="0" /></g></g><g
     id="g6621"
     transform="translate(0,-4)"><path
       d="m 60.8,290 -0.9,-1.4 c -0.3,-0.5 -0.3,-1 0,-1.5 l 0.9,-1.4 c 1.1,-1.8 0.7,-4.2 -1,-5.5 l -1.3,-1.1 c -0.4,-0.3 -0.6,-0.9 -0.5,-1.4 l 0.4,-2.1 c 0.3,-1.8 -0.7,-3.6 -2.5,-4.2 l -2.4,-0.8 c -0.3,-0.1 -0.6,-0.4 -0.6,-0.7 l -0.4,-2.4 c -0.3,-1.8 -1.8,-3.1 -3.8,-3.1 0,0 0,0 0,0 l -2.3,0.1 c -0.5,0 -1,-0.3 -1.2,-0.7 l -0.9,-1.5 c -0.7,-1.3 -2.2,-2.1 -3.7,-2.1 -0.5,0 -1,0.1 -1.5,0.3 l -1.7,0.7 c -0.5,0.2 -1,0.1 -1.4,-0.2 l -1.4,-1.2 c -1.5,-1.3 -4,-1.3 -5.5,0 l -1.4,1.2 c -0.4,0.3 -0.9,0.4 -1.4,0.3 l -2.1,-0.8 c -0.4,-0.2 -0.9,-0.2 -1.3,-0.2 -1.4,0 -2.6,0.7 -3.3,1.9 l -1.1,1.9 c -0.2,0.5 -0.7,0.7 -1.3,0.7 l 0,0 -2.3,0 c -1.9,0 -3.4,1.3 -3.7,3.1 l -0.4,2.5 c 0,0.3 -0.3,0.6 -0.6,0.7 L 8,271.7 c -1.8,0.6 -2.8,2.4 -2.4,4.2 L 6,278 c 0.1,0.5 -0.1,1.1 -0.5,1.4 l -1.3,1.1 c -1.7,1.3 -2.1,3.7 -0.9,5.5 l 0.9,1.4 c 0.3,0.5 0.3,1 0,1.5 l -0.9,1.4 c -1.1,1.8 -0.7,4.2 1,5.5 l 1.3,1.1 c 0.4,0.3 0.6,0.9 0.5,1.4 l -0.4,2.1 c -0.3,1.8 0.7,3.6 2.5,4.2 l 2.4,0.8 c 0.3,0.1 0.6,0.4 0.6,0.7 l 0.4,2.4 c 0.3,1.8 1.8,3.1 3.8,3.1 0,0 0,0 0,0 l 2.3,-0.1 c 0.5,0 1,0.3 1.2,0.7 l 0.9,1.5 c 0.7,1.3 2.2,2.1 3.7,2.1 0.5,0 1,-0.1 1.5,-0.3 l 1.7,-0.7 c 0.5,-0.2 1,-0.1 1.4,0.2 l 1.4,1.2 c 0.8,0.6 1.7,1 2.7,1 1,0 2,-0.4 2.8,-1 l 1.4,-1.2 c 0.4,-0.3 0.9,-0.4 1.4,-0.3 l 2.1,0.8 c 0.4,0.2 0.9,0.2 1.3,0.2 1.4,0 2.6,-0.7 3.3,-1.9 l 1.1,-1.9 c 0.2,-0.5 0.7,-0.7 1.3,-0.7 l 0,0 2.3,0 c 1.9,0 3.4,-1.3 3.7,-3.1 l 0.4,-2.5 c 0,-0.3 0.3,-0.6 0.6,-0.7 l 2.4,-0.8 c 1.8,-0.6 2.8,-2.4 2.4,-4.2 l -0.4,-2.1 c -0.1,-0.5 0.1,-1.1 0.5,-1.4 l 1.3,-1.1 c 1.4,-1.2 1.8,-3.5 0.7,-5.3 z m -2.7,3.3 -1.3,1.1 c -1.2,1 -1.8,2.6 -1.5,4.1 l 0.4,2.1 c 0.1,0.4 -0.2,0.9 -0.6,1 l -2.4,0.8 c -1.3,0.5 -2.3,1.6 -2.5,2.9 l -0.4,2.5 c -0.1,0.4 -0.5,0.8 -0.9,0.8 l -2.3,0 c -1.5,0 -3,0.8 -3.7,2.2 l -1.1,1.9 c -0.2,0.4 -0.7,0.6 -1.1,0.4 l -2.1,-0.8 c -1.4,-0.5 -3.1,-0.2 -4.2,0.8 l -1.4,1.2 c -0.5,0.4 -1.3,0.5 -1.8,0 l -1.4,-1.2 c -0.8,-0.6 -1.7,-1 -2.7,-1 -0.5,0 -1,0.1 -1.5,0.3 l -1.7,0.7 c -0.6,0.3 -1.4,0 -1.7,-0.6 L 21.3,311 c -0.7,-1.3 -2.2,-2.1 -3.7,-2.1 l -2.4,0.1 c -0.5,0 -0.8,-0.3 -0.9,-0.8 l -0.4,-2.4 c -0.2,-1.4 -1.2,-2.5 -2.5,-2.9 L 9,302.1 C 8.6,302 8.3,301.5 8.4,301.1 L 8.8,299 c 0.3,-1.6 -0.3,-3.1 -1.5,-4.1 L 6,293.6 c -0.6,-0.4 -0.7,-1.2 -0.3,-1.8 l 0.9,-1.4 c 0.8,-1.4 0.8,-3 0,-4.4 L 5.7,284.6 C 5.3,284 5.5,283.2 6,282.8 l 1.3,-1.1 c 1.2,-1 1.8,-2.6 1.5,-4.1 l -0.4,-2.1 c -0.1,-0.4 0.2,-0.9 0.6,-1 l 2.4,-0.8 c 1.3,-0.5 2.3,-1.6 2.5,-2.9 l 0.4,-2.5 c 0.1,-0.4 0.5,-0.8 0.9,-0.8 l 2.3,0 c 1.5,0 3,-0.8 3.7,-2.2 l 1.1,-1.9 c 0.2,-0.4 0.7,-0.6 1.1,-0.4 l 2.1,0.8 c 1.4,0.5 3.1,0.2 4.2,-0.8 l 1.4,-1.2 c 0.5,-0.4 1.3,-0.5 1.8,0 l 1.4,1.2 c 1.2,1 2.8,1.3 4.3,0.7 l 1.7,-0.7 c 0.6,-0.3 1.4,0 1.7,0.6 l 0.9,1.5 c 0.7,1.3 2.2,2.1 3.7,2.1 l 2.4,-0.1 c 0.5,0 0.8,0.3 0.9,0.8 l 0.4,2.4 c 0.2,1.4 1.2,2.5 2.5,2.9 l 2.4,0.8 c 0.4,0.1 0.7,0.6 0.6,1 l -0.4,2.1 c -0.3,1.6 0.3,3.1 1.5,4.1 l 1.3,1.1 c 0.6,0.4 0.7,1.2 0.3,1.8 l -0.9,1.4 c -0.8,1.4 -0.8,3 0,4.4 l 0.9,1.4 c 0.3,0.8 0.1,1.6 -0.4,2 z"
       id="path6623"
       inkscape:connector-curvature="0" /><path
       d="m 30.5,298.6 c -0.8,0 -1.5,0.3 -2.1,0.9 -0.6,0.6 -0.9,1.3 -0.9,2.1 0,0.8 0.3,1.5 0.9,2.1 0.6,0.6 1.3,0.9 2.1,0.9 0.8,0 1.5,-0.3 2,-0.9 0.6,-0.6 0.8,-1.3 0.8,-2.1 0,-0.8 -0.3,-1.5 -0.8,-2.1 -0.5,-0.7 -1.2,-0.9 -2,-0.9 z"
       id="path6625"
       inkscape:connector-curvature="0" /><path
       d="m 40.5,274 c -2.1,-1.6 -4.9,-2.4 -8.3,-2.4 -3.5,0 -6.3,0.8 -8.5,2.5 -2.2,1.7 -3.3,3.8 -3.3,6.4 0,1.4 0.4,2.6 1.3,3.5 0.9,0.9 2,1.4 3.4,1.4 1.1,0 1.9,-0.3 2.7,-0.9 0.7,-0.6 1.1,-1.4 1.1,-2.3 0,-1.4 -0.7,-2 -2,-2 -0.5,0 -0.9,0.1 -1.2,0.4 -0.3,0.3 -0.5,0.7 -0.5,1.1 0,0.2 0,0.3 0,0.5 -0.8,-0.5 -1.2,-1.2 -1.2,-2 0,-1.6 0.8,-2.9 2.4,-4 1.6,-1.1 3.5,-1.7 5.9,-1.7 2.3,0 4.1,0.5 5.5,1.6 1.4,1 2.1,2.4 2.1,4.1 0,1.3 -0.3,2.3 -1,3 -0.7,0.7 -2.1,1.7 -4.3,2.9 -2.5,1.4 -4.2,2.7 -5.1,4 -0.7,1.1 -1.1,2.3 -1.1,3.8 0,1.6 0.7,2.4 2,2.4 0.7,0 1.2,-0.2 1.5,-0.7 0.2,-0.3 0.2,-0.9 0.2,-1.8 0,-1.2 0.3,-2.1 1,-2.8 0.7,-0.7 1.9,-1.5 3.7,-2.2 0.9,-0.4 1.6,-0.7 2.1,-1 3.3,-1.7 4.9,-4.2 4.9,-7.5 -0.1,-2.6 -1.2,-4.7 -3.3,-6.3 z"
       id="path6627"
       inkscape:connector-curvature="0" /></g><path
     d="m 123.8,254.9 c -1.1,-0.9 -2.5,-1.2 -3.9,-0.9 l -30.1,6.7 c -2.1,0.5 -3.6,2.3 -3.6,4.5 l 0,29.7 c -2.1,-2.2 -5,-3.6 -8.3,-3.6 -6.3,0 -11.4,5.1 -11.4,11.4 0,6.3 5.1,11.4 11.4,11.4 6.3,0 11.4,-5.1 11.4,-11.4 l 0,-27 33.2,-7.7 0,18.9 c -2.1,-2.2 -5,-3.6 -8.3,-3.6 -6.3,0 -11.4,5.1 -11.4,11.4 0,6.3 5.1,11.4 11.4,11.4 6.3,0 11.4,-5.1 11.4,-11.4 l 0,-36.1 c 0,-1.4 -0.7,-2.8 -1.8,-3.7 z m -46,56.1 c -4.6,0 -8.3,-3.7 -8.3,-8.3 0,-4.6 3.7,-8.3 8.3,-8.3 4.6,0 8.3,3.7 8.3,8.3 0,4.6 -3.7,8.3 -8.3,8.3 z m 36.4,-8 c -4.6,0 -8.3,-3.7 -8.3,-8.3 0,-4.6 3.7,-8.3 8.3,-8.3 4.6,0 8.3,3.7 8.3,8.3 0,4.6 -3.8,8.3 -8.3,8.3 z m -25,-30.5 0,-7.3 c 0,-0.7 0.5,-1.3 1.2,-1.5 l 30.1,-6.7 c 0.5,-0.1 0.9,0 1.3,0.3 0.4,0.3 0.6,0.7 0.6,1.2 l 0,6.2 -33.2,7.8 z"
     id="path6629"
     inkscape:connector-curvature="0" /><g
     id="g6631"
     transform="translate(0,-4)"><path
       d="m 313,264.3 -31.1,0 0,-0.3 c 0,-0.9 -0.8,-1.7 -1.7,-1.7 l -10.6,0 c -0.9,0 -1.7,0.8 -1.7,1.7 l 0,0.3 -4.9,0 c -2.4,0 -4.4,2 -4.4,4.4 l 0,40.7 c 0,2.4 2,4.4 4.4,4.4 l 50,0 c 2.4,0 4.4,-2 4.4,-4.4 l 0,-40.7 c 0,-2.5 -2,-4.4 -4.4,-4.4 z m -50,2.8 6.6,0 10.6,0 32.8,0 c 0.9,0 1.6,0.7 1.6,1.6 l 0,12.2 -15.1,0 c -3,-2.9 -7,-4.6 -11.5,-4.6 -4.4,0 -8.5,1.8 -11.5,4.6 l -15.1,0 0,-12.1 c 0,-1 0.7,-1.7 1.6,-1.7 z m 25,11.9 c 7.6,0 13.9,6.2 13.9,13.9 0,7.7 -6.2,13.9 -13.9,13.9 -7.7,0 -13.9,-6.2 -13.9,-13.9 0,-7.7 6.3,-13.9 13.9,-13.9 z m 25,31.9 -50,0 c -0.9,0 -1.6,-0.7 -1.6,-1.6 l 0,-25.7 12.8,0 c -1.8,2.7 -2.8,5.8 -2.8,9.3 0,9.2 7.5,16.7 16.7,16.7 9.2,0 16.7,-7.5 16.7,-16.7 0,-3.4 -1,-6.6 -2.8,-9.3 l 12.8,0 0,25.8 c -0.2,0.8 -0.9,1.5 -1.8,1.5 z"
       id="path6633"
       inkscape:connector-curvature="0" /><path
       d="m 300.6,279.6 10.1,0 c 1.1,0 2,-0.9 2,-2 l 0,-7.3 c 0,-1.1 -0.9,-2 -2,-2 l -10.1,0 c -1.1,0 -2,0.9 -2,2 l 0,7.3 c 0.1,1.1 0.9,2 2,2 z m 0.9,-8.4 8.4,0 0,5.6 -8.4,0 0,-5.6 z"
       id="path6635"
       inkscape:connector-curvature="0" /><path
       d="m 288,301.9 c 5,0 9,-4.1 9,-9 0,-4.9 -4.1,-9 -9,-9 -4.9,0 -9,4.1 -9,9 0,4.9 4,9 9,9 z m 0,-15.3 c 3.4,0 6.2,2.8 6.2,6.2 0,3.4 -2.8,6.2 -6.2,6.2 -3.4,0 -6.2,-2.8 -6.2,-6.2 0,-3.4 2.8,-6.2 6.2,-6.2 z"
       id="path6637"
       inkscape:connector-curvature="0" /></g><g
     id="g6639"
     transform="translate(0,-4)"><g
       id="g6641"><g
         id="g6643"><path
           d="m 249.9,377.1 -51.8,0 c -1,0 -1.9,-0.4 -2.5,-1.1 -0.7,-0.7 -1,-1.6 -1,-2.6 l 0.8,-19.9 -0.8,-15.3 c -0.1,-1 0.3,-1.9 1,-2.6 0.7,-0.7 1.6,-1.1 2.6,-1.1 l 5.9,0 c 0.3,0 3.5,-0.2 4.4,-3.9 0.9,-3.6 1.8,-7.6 7.8,-7.6 l 15.6,0 c 6,0 7,4.1 7.8,7.6 0.9,3.8 4.2,3.9 4.4,3.9 l 5.9,0 c 1,0 1.9,0.4 2.6,1.1 0.7,0.7 1,1.7 1,2.6 l -0.8,15.1 0.8,20.1 c 0,1 -0.3,1.9 -1,2.6 -0.9,0.7 -1.8,1.1 -2.7,1.1 z m -33.7,-51.4 c -3.6,0 -4.2,1.7 -5.1,5.5 -1.1,4.8 -5.1,6 -7.1,6 l -5.8,0 c -0.3,0 -0.4,0.1 -0.5,0.2 -0.1,0.1 -0.2,0.3 -0.2,0.5 l 0.8,15.2 c 0,0.1 0,0.2 0,0.3 l -0.8,19.9 c 0,0.3 0.1,0.4 0.2,0.5 0.1,0.1 0.3,0.2 0.5,0.2 l 51.8,0 c 0.3,0 0.4,-0.1 0.5,-0.2 0.1,-0.1 0.2,-0.3 0.2,-0.5 l -0.8,-20.1 c 0,-0.1 0,-0.2 0,-0.3 l 0.8,-15 c 0,-0.3 -0.1,-0.5 -0.2,-0.5 -0.1,-0.1 -0.3,-0.2 -0.5,-0.2 l -5.8,0 c -2,0 -5.9,-1.3 -7.1,-6 -0.9,-3.8 -1.5,-5.5 -5.1,-5.5 l -15.8,0 z m 11.5,9.8 -7.3,0 c -1.8,0 -3.3,-1.4 -3.5,-3.1 -0.1,-0.9 0.2,-1.9 0.9,-2.6 0.7,-0.7 1.5,-1.1 2.5,-1.1 l 7.3,0 c 1.8,0 3.3,1.4 3.5,3.1 0.1,0.9 -0.2,1.9 -0.9,2.6 -0.6,0.7 -1.5,1.1 -2.5,1.1 z m -7.4,-3.9 c -0.2,0 -0.4,0.1 -0.4,0.2 -0.1,0.1 -0.2,0.2 -0.1,0.4 0,0.2 0.4,0.5 0.7,0.5 l 7.3,0 c 0.2,0 0.4,-0.1 0.4,-0.2 0.1,-0.1 0.2,-0.2 0.1,-0.4 0,-0.2 -0.4,-0.5 -0.7,-0.5 l -7.3,0 z"
           id="path6645"
           inkscape:connector-curvature="0" /></g></g></g><path
     d="m 308.8,323.4 c -0.2,-0.9 -0.9,-1.7 -1.7,-2.2 l -3.3,-1.8 c -0.5,-0.3 -1.2,-0.4 -1.8,-0.4 -0.1,0 -0.3,0 -0.4,0 l 0,0 -27.5,0 0,0 c -0.6,0 -1.2,0.1 -1.8,0.4 l -3.3,1.8 c -0.9,0.5 -1.5,1.2 -1.7,2.2 -0.2,0.9 -0.1,1.8 0.4,2.6 l 13.9,22.1 c -0.6,0.1 -1.1,0.7 -1.1,1.3 0,0.8 0.6,1.4 1.4,1.4 l 2.3,0 2.6,0 0,0.1 c -5.8,0.6 -10.4,5.3 -10.4,11 0,6.1 5.3,11.1 11.8,11.1 6.5,0 11.8,-5 11.8,-11.1 0,-5.7 -4.6,-10.4 -10.4,-11 l 0,-0.1 3,0 1.9,0 c 0.8,0 1.4,-0.6 1.4,-1.4 0,-0.6 -0.4,-1.1 -1,-1.3 L 308.6,326 c 0.3,-0.8 0.4,-1.7 0.2,-2.6 z m -20.8,14.8 -5.1,-8.3 10.3,0 -5.2,8.3 z m 6.8,-11.1 -13.7,0 -3.3,-5.4 20.3,0 -3.3,5.4 z M 270,324.6 c -0.1,-0.2 -0.1,-0.4 -0.1,-0.5 0.1,-0.2 0.2,-0.4 0.4,-0.5 l 3.3,-1.8 c 0.4,-0.2 1,-0.1 1.3,0.3 l 12.1,19.6 0,0 3.9,6.3 -6.1,0 -14.8,-23.4 z m 27,37.3 c 0,4.6 -4,8.3 -9,8.3 -5,0 -9,-3.7 -9,-8.3 0,-4.6 4,-8.3 9,-8.3 5,0 9,3.7 9,8.3 z m 9,-37.3 -13.2,21.4 -3.2,-5.2 11.5,-18.7 c 0.2,-0.4 0.8,-0.5 1.3,-0.3 l 3.3,1.8 c 0.2,0.1 0.3,0.3 0.4,0.5 0,0.1 0,0.3 -0.1,0.5 z"
     id="path6647"
     inkscape:connector-curvature="0" /><g
     id="g6649"
     transform="translate(0,-4)"><g
       id="g6651"><path
         d="m 11.5,436.9 c -4.1,0 -8.6,-1.1 -8.8,-3.6 -0.1,-1 0.4,-2.3 3.5,-2.9 2.5,-0.5 4.6,-1.7 6.1,-3.6 0.4,-0.5 0.4,-1.3 0,-1.9 -3.5,-5.2 -5,-11.3 -4.4,-17.7 1.3,-12.7 11.8,-23 24.6,-24.1 8.2,-0.6 16.3,2.5 21.9,8.5 5.1,5.5 7.6,12.8 7.1,20.4 -1,12.8 -11.3,23.3 -24,24.6 -4.8,0.5 -9.5,-0.3 -13.9,-2.3 -0.4,-0.2 -0.9,-0.2 -1.3,0 -4.3,2.2 -8.3,2.6 -10.8,2.6 z m -5.4,-3.7 c 1,0.4 2.7,0.9 5.4,0.9 2.3,0 5.8,-0.4 9.4,-2.2 1.1,-0.6 2.5,-0.6 3.7,-0.1 3.9,1.8 8.1,2.5 12.4,2 11.4,-1.1 20.6,-10.6 21.5,-22 0.5,-6.8 -1.7,-13.3 -6.3,-18.2 -5,-5.4 -12.2,-8.2 -19.6,-7.6 -11.4,0.9 -20.9,10.2 -22,21.5 -0.6,5.7 0.8,11.1 4,15.8 1.1,1.6 1,3.7 -0.2,5.2 -2,2.4 -4.6,4 -7.8,4.6 -0.2,0 -0.4,0.1 -0.5,0.1 z"
         id="path6653"
         inkscape:connector-curvature="0" /></g><g
       id="g6655"><g
         id="g6657"><g
           id="g6659"><path
             d="m 29.3,400.8 c -0.9,0 -1.4,0.6 -1.4,1.4 0,0.8 0.6,1.4 1.4,1.4 0.9,0 1.4,-0.6 1.4,-1.4 0,-0.8 -0.6,-1.4 -1.4,-1.4 l 0,0 z m 0,11.5 c -0.9,0 -1.4,0.6 -1.4,1.4 0,0.6 0.3,1 0.7,1.2 l -1.3,4.3 1.2,0 1.8,-3.9 c 0.4,-0.8 0.5,-1.1 0.5,-1.6 -0.1,-0.8 -0.6,-1.4 -1.5,-1.4 l 0,0 z"
             id="path6661"
             inkscape:connector-curvature="0" /></g></g><g
         id="g6663"><g
           id="g6665"><path
             d="m 38.2,423.8 c -0.3,0 -0.6,-0.1 -0.9,-0.3 -0.6,-0.5 -0.7,-1.4 -0.2,-2 2.6,-3.1 3.9,-7.1 3.9,-11.5 0,-4.4 -1.4,-8.4 -3.9,-11.5 -0.5,-0.6 -0.4,-1.5 0.2,-2 0.6,-0.5 1.5,-0.4 2,0.2 3,3.6 4.5,8.2 4.5,13.3 0,5.1 -1.6,9.7 -4.5,13.3 -0.3,0.3 -0.7,0.5 -1.1,0.5 z"
             id="path6667"
             inkscape:connector-curvature="0" /></g></g></g></g><path
     d="m 101.3,406.4 7.7,-7.7 c 0.2,0.1 0.4,0.2 0.7,0.3 0.8,0.2 1.6,0.3 2.4,0.3 2.4,0 4.8,-0.9 6.5,-2.7 2.6,-2.6 2.4,-7.4 2.4,-7.6 0,-1 -0.8,-2 -1.7,-2.3 -0.8,-0.3 -1.6,-0.2 -2.2,0.4 l -2.8,2.8 c -0.2,0.2 -0.3,0.2 -0.4,0 l -1.7,-1.7 c 0,0 -0.1,-0.1 -0.1,-0.1 0,0 0,-0.1 0.1,-0.1 l 2.9,-2.9 c 0.6,-0.6 0.7,-1.4 0.4,-2.2 -0.4,-1 -1.3,-1.7 -2.3,-1.8 -0.2,0 -5,-0.2 -7.6,2.4 -2.3,2.3 -3.2,5.7 -2.4,8.9 0.1,0.2 0.2,0.5 0.3,0.7 l -7.7,7.7 -7.4,-7.4 0.4,-0.4 c 0.4,-0.3 0.6,-0.8 0.7,-1.2 0.4,0.2 0.8,0.2 1.2,0.2 0.7,0 1.4,-0.3 1.9,-0.7 l 1.9,-1.9 c 0.5,-0.5 0.8,-1.2 0.8,-1.9 0,-0.8 -0.4,-1.6 -1,-2.2 l -3.7,-3.7 c -1.1,-1.1 -3.1,-1.1 -4.1,-0.1 l -1.9,1.9 c -0.5,0.5 -0.7,1.1 -0.7,1.8 0,0.4 0.1,0.8 0.3,1.1 -0.4,0.1 -0.9,0.4 -1.2,0.7 l -0.2,0.2 c -1,-0.4 -2.2,-0.2 -3,0.6 l -2.2,2.1 c -0.5,0.5 -0.8,1.2 -0.8,2 0,0.4 0.1,0.7 0.2,1 l -1.6,1.6 c -0.1,0.1 -3.5,3.1 -3.8,7.7 -0.1,0.8 0.2,1.6 0.8,2.2 0.6,0.6 1.4,1 2.3,1 1,0 1.9,-0.5 2.5,-1.3 1,-1.5 2.2,-2.6 3.6,-3.3 0.2,-0.1 0.5,-0.2 0.8,-0.5 l 1.4,-1.4 7.4,7.4 -17.9,17.9 c 0,0 -1.4,1.5 -1.3,2.8 0.2,1.8 1.2,3.2 2.7,3.7 0.4,0.2 0.9,0.2 1.3,0.2 1,0 2,-0.4 2.8,-1.2 l 17.9,-17.9 18.2,18.2 c 0.8,0.8 1.8,1.2 2.8,1.2 1,0 2,-0.4 2.8,-1.2 1.5,-1.5 1.5,-4 0,-5.6 l -18.4,-18 z M 88.2,383.3 c 0,0 0.1,0 0.1,0 0.1,0 0.3,0.1 0.4,0.1 l 3.7,3.7 c 0.2,0.2 0.2,0.4 0.2,0.5 l -1.9,1.9 c 0,0 -0.3,0 -0.5,-0.2 l -3.7,-3.7 c -0.2,-0.2 -0.3,-0.4 -0.3,-0.4 l 2,-1.9 z m -8.6,15 c -0.1,0 -0.2,0.1 -0.3,0.1 -1.7,0.9 -3.3,2.3 -4.5,4.1 -0.1,0.1 -0.2,0.2 -0.4,0.2 -0.1,0 -0.3,-0.1 -0.4,-0.2 -0.1,-0.1 -0.1,-0.2 -0.1,-0.3 0.2,-3.5 2.9,-5.9 3,-6 l 7.7,-7.5 c 0.1,-0.1 0.3,-0.1 0.4,-0.1 0.1,0 0.2,0 0.3,0.1 l 1.6,1.6 c 0.1,0.1 0.1,0.3 0.1,0.3 0,0.1 0,0.2 -0.1,0.3 l -7.3,7.4 z m 4.9,-1.2 1.9,-1.9 7.4,7.4 -1.9,1.9 -7.4,-7.4 z M 76,428 c -0.4,0.4 -0.9,0.5 -1.4,0.3 -0.6,-0.2 -0.9,-0.7 -1,-1.5 0.1,-0.2 0.3,-0.6 0.5,-0.8 l 32,-32 c 0.1,-0.1 0.2,-0.3 0.3,-0.4 0,0 0,-0.1 0,-0.1 0,-0.1 0.1,-0.2 0.1,-0.4 0,-0.1 0,-0.2 -0.1,-0.3 0,-0.1 0,-0.1 0,-0.2 0,-0.1 -0.1,-0.2 -0.2,-0.3 0,-0.1 -0.1,-0.1 -0.1,-0.2 l 0,0 0,0 -0.4,-0.4 c 0,0 -0.1,-0.1 -0.1,-0.1 -0.6,-2.3 0,-4.7 1.7,-6.4 1.4,-1.4 4.3,-1.7 5.4,-1.6 l -2.5,2.5 c -0.5,0.5 -0.8,1.2 -0.8,2 0,0.7 0.3,1.4 0.8,2 l 1.7,1.7 c 1.1,1.1 3,1.1 4.1,0 l 2.4,-2.4 c 0,1.2 -0.3,4 -1.6,5.4 -1.7,1.7 -4.1,2.3 -6.4,1.7 0,0 -0.1,0 -0.1,-0.1 l -0.4,-0.4 c -0.1,-0.1 -0.1,-0.1 -0.2,-0.1 -0.1,0 -0.1,-0.1 -0.2,-0.1 -0.1,0 -0.1,0 -0.2,0 -0.1,0 -0.2,-0.1 -0.3,-0.1 -0.1,0 -0.2,0 -0.3,0.1 -0.1,0 -0.1,0 -0.2,0 -0.1,0 -0.1,0.1 -0.2,0.1 -0.1,0 -0.1,0.1 -0.2,0.1 l -9.5,9.5 c 0,0 0,0 0,0 0,0 0,0 0,0 L 76,428 Z m 41.7,0.3 c -0.5,0.5 -1.4,0.5 -1.9,0 l -18.2,-18.2 1.9,-1.9 18.2,18.2 c 0.5,0.5 0.5,1.4 0,1.9 z"
     id="path6669"
     inkscape:connector-curvature="0" /><path
     d="m 181.1,386.3 -5,0 c -0.7,-0.8 -1.7,-1.3 -2.9,-1.3 l -0.8,0 c -1.1,0 -2.1,0.5 -2.9,1.3 l -2.7,0 0,-0.8 c 0,-1.4 -0.9,-2.8 -2.2,-3.3 -3.8,-1.7 -7.4,-0.7 -9.2,0 -1.4,0.6 -2.3,1.9 -2.3,3.4 l 0,0.7 -2.7,0 c -0.7,-0.8 -1.7,-1.3 -2.9,-1.3 l -0.8,0 c -1.1,0 -2.1,0.5 -2.9,1.3 l -5,0 c -2.2,0 -3.9,1.8 -3.9,3.9 l 0,34.3 c 0,2.2 1.8,3.9 3.9,3.9 l 0.9,0 c 0.8,1.6 2.4,2.7 4.4,2.7 2,0 3.6,-1.1 4.4,-2.7 l 2.9,0 17,0 2.9,0 c 0.8,1.6 2.4,2.7 4.4,2.7 2,0 3.6,-1.1 4.4,-2.7 l 0.9,0 c 2.2,0 3.9,-1.8 3.9,-3.9 l 0,-34.3 c 0.1,-2.1 -1.7,-3.9 -3.8,-3.9 z m -6.6,2.6 0,36.9 -3.5,0 0,-36.9 c 0,0 0,0 0,-0.1 l 3.5,0.1 c 0,0 0,0 0,0 z m -18.8,-3.3 c 0,-0.5 0.3,-0.9 0.7,-1 1.7,-0.7 4.4,-1.3 7.2,-0.1 0.4,0.2 0.7,0.6 0.7,1 l 0,0.8 -8.5,0 0,-0.7 z m -6.8,3.3 0,36.9 -3.5,0 0,-36.9 c 0,0 0,0 0,-0.1 l 3.5,0.1 c 0,0 0,0 0,0 z m -11.4,35.6 0,-34.3 c 0,-0.8 0.6,-1.4 1.4,-1.4 l 4,0 c 0,0 0,0 0,0.1 l 0,36.9 -4,0 c -0.7,0.1 -1.4,-0.5 -1.4,-1.3 z m 14,1.4 0,-36.9 c 0,0 0,0 0,-0.1 l 17,0 c 0,0 0,0 0,0.1 l 0,36.9 -17,0 z m 31,-1.4 c 0,0.8 -0.6,1.4 -1.4,1.4 l -4,0 0,-36.9 c 0,0 0,0 0,-0.1 l 4,0 c 0.8,0 1.4,0.6 1.4,1.4 l 0,34.2 z"
     id="path6671"
     inkscape:connector-curvature="0" /><g
     id="g6673"
     transform="translate(0,-4)"><path
       d="m 313.6,418.9 -0.3,0 0,-29.8 c 0,-2.2 -1.7,-3.9 -3.8,-3.9 l -20.2,0 0,-0.9 c 0,-0.8 -0.6,-1.4 -1.4,-1.4 -0.8,0 -1.4,0.6 -1.4,1.4 l 0,0.9 -20.2,0 c -2.1,0 -3.8,1.8 -3.8,3.9 l 0,29.8 -0.3,0 c -0.8,0 -1.4,0.6 -1.4,1.4 0,0.8 0.6,1.4 1.4,1.4 l 22.3,0 -12.6,13 c -0.5,0.5 -0.5,1.4 0,1.9 0.3,0.3 0.6,0.4 1,0.4 0.4,0 0.7,-0.1 1,-0.4 l 13.9,-14.3 14.1,14.3 c 0.5,0.5 1.4,0.5 1.9,0 0.5,-0.5 0.5,-1.4 0,-1.9 l -12.8,-13 22.5,0 c 0.8,0 1.4,-0.6 1.4,-1.4 0,-0.8 -0.5,-1.4 -1.3,-1.4 z m -48.1,0 0,-29.8 c 0,-0.6 0.5,-1.2 1,-1.2 l 43.1,0 c 0.6,0 1,0.5 1,1.2 l 0,29.8 -19.4,0 -6.5,0 -19.2,0 z"
       id="path6675"
       inkscape:connector-curvature="0" /><path
       d="m 297.7,406.9 4.1,-7.4 c 0,-0.1 0.1,-0.1 0.1,-0.1 l 3.7,-2.4 c 0.6,-0.4 0.8,-1.3 0.4,-1.9 -0.4,-0.6 -1.3,-0.8 -1.9,-0.4 l -3.7,2.4 c -0.4,0.3 -0.8,0.7 -1,1.1 l -4.1,7.4 c -0.1,0.2 -0.3,0.3 -0.5,0.2 l -4.4,-2.4 c -1.2,-0.6 -2.6,-0.5 -3.6,0.4 l -7.2,6.4 c -0.1,0.1 -0.3,0.1 -0.4,0.1 l -7.5,-3.3 c -0.7,-0.3 -1.5,0 -1.8,0.7 -0.3,0.7 0,1.5 0.7,1.8 l 7.5,3.3 c 0.4,0.2 0.8,0.3 1.3,0.3 0.8,0 1.5,-0.3 2.1,-0.8 l 7.2,-6.4 c 0.1,-0.1 0.3,-0.1 0.4,0 l 4.4,2.4 c 1.5,0.7 3.4,0.1 4.2,-1.4 z"
       id="path6677"
       inkscape:connector-curvature="0" /></g><g
     id="g6679"
     transform="translate(0,-4)"><path
       d="m 295,146.5 14,0 c 2.7,0 4.9,-2.2 4.9,-4.9 0,-2.7 -2.2,-4.9 -4.9,-4.9 l -14,0 c -2.7,0 -4.9,2.2 -4.9,4.9 0,2.7 2.2,4.9 4.9,4.9 z m 0,-7 14,0 c 1.2,0 2.1,0.9 2.1,2.1 0,1.2 -0.9,2.1 -2.1,2.1 l -14,0 c -1.2,0 -2.1,-0.9 -2.1,-2.1 0,-1.2 0.9,-2.1 2.1,-2.1 z"
       id="path6681"
       inkscape:connector-curvature="0" /><path
       d="m 267,146.5 14,0 c 2.7,0 4.9,-2.2 4.9,-4.9 0,-2.7 -2.2,-4.9 -4.9,-4.9 l -14,0 c -2.7,0 -4.9,2.2 -4.9,4.9 0,2.7 2.2,4.9 4.9,4.9 z m 0,-7 14,0 c 1.2,0 2.1,0.9 2.1,2.1 0,1.2 -0.9,2.1 -2.1,2.1 l -14,0 c -1.2,0 -2.1,-0.9 -2.1,-2.1 0,-1.2 0.9,-2.1 2.1,-2.1 z"
       id="path6683"
       inkscape:connector-curvature="0" /><path
       d="m 314.2,146.9 -52.5,0 c -1,0 -1.8,0.8 -1.8,1.8 0,1 0.8,1.7 1.8,1.7 l 1.8,0 0,7 c 0,3.9 3.1,7 7,7 l 6.6,0 c -1.2,3.7 -0.9,5.2 -0.8,5.7 0.1,0.2 0.1,0.4 0.2,0.6 -2.3,1.1 -3.9,3.4 -3.9,6 0,2.8 1.8,5.4 4.5,6.3 l 1.1,0.4 1.3,-2.3 0.7,1.2 0.3,1.1 1.1,0 1.1,0.1 0.2,-1.1 0.7,-1.3 0.7,1.2 0.3,1.1 1.1,0 1.1,0.1 0.2,-1.1 0.7,-1.3 0.7,1.2 0.3,1.1 1.1,0 1.1,0.1 0.2,-1.1 0.7,-1.3 0.7,1.2 0.2,1.1 1.1,0 1.2,0.1 0.2,-1.1 0.7,-1.3 1.3,2.4 1.2,-0.4 c 2.7,-0.9 4.5,-3.4 4.5,-6.3 0,-2.7 -1.6,-5 -3.9,-6 0.1,-0.2 0.2,-0.4 0.2,-0.6 0.1,-0.4 0.4,-2 -0.8,-5.7 l 6.6,0 c 3.9,0 7,-3.1 7,-7 l 0,-7 1.8,0 c 1,0 1.8,-0.8 1.8,-1.7 0.4,-1.1 -0.4,-1.9 -1.4,-1.9 z m -17.1,22.4 c -0.1,0.4 -0.4,0.7 -0.8,1.1 0,0 0,0 0,0 -2,1.7 -6.4,2.8 -8.2,3.1 -1.8,-0.3 -6.2,-1.4 -8.2,-3.1 0,0 0,0 0,0 -0.4,-0.4 -0.7,-0.8 -0.8,-1.1 -0.6,-2 3,-10 6.8,-16.5 0.1,-0.2 0.6,-1.1 2.1,-1 l 0.1,0 0.1,0 c 1.5,-0.1 2,0.8 2.1,1 l 0.1,0.1 c 3.6,6.3 7.2,14.4 6.7,16.4 z m -19.6,-8.4 -7,0 c -1.9,0 -3.5,-1.6 -3.5,-3.5 l 0,-7 14,0 0,5.2 c -1,2 -1.9,3.7 -2.5,5.2 -0.3,0.1 -0.7,0.1 -1,0.1 z m 21.5,18.9 -0.3,-0.5 c -0.5,-0.8 -1.3,-1.3 -2.2,-1.3 -0.9,0 -1.6,0.4 -2.1,1.1 -0.5,-0.7 -1.3,-1.1 -2.1,-1.1 -0.9,0 -1.6,0.4 -2.1,1.1 -0.5,-0.7 -1.3,-1.1 -2.1,-1.1 -0.8,0 -1.6,0.4 -2.1,1.1 -0.5,-0.7 -1.3,-1.1 -2.1,-1.1 -0.9,0 -1.6,0.4 -2.1,1.1 -0.5,-0.7 -1.3,-1.1 -2.1,-1.1 -0.9,0 -1.8,0.5 -2.2,1.3 l -0.3,0.5 c -1,-0.7 -1.6,-1.9 -1.6,-3.1 0,-1.8 1.3,-3.4 3.1,-3.8 3.3,2.4 9.1,3.4 9.3,3.4 l 0.2,0 0.2,0 c 0.3,0 6.1,-1 9.3,-3.4 1.7,0.4 3.1,1.9 3.1,3.8 -0.2,1.2 -0.8,2.4 -1.8,3.1 z m 10,-22.4 c 0,1.9 -1.6,3.5 -3.5,3.5 l -7,0 c -0.3,0 -0.7,-0.1 -1,-0.2 -0.6,-1.5 -1.5,-3.2 -2.5,-5.2 l 0,-5.2 14,0 0,7.1 z"
       id="path6685"
       inkscape:connector-curvature="0" /></g><g
     id="g6687"
     transform="translate(0,-4)"><path
       d="m 222.1,395.3 c 0.8,0 1.4,-0.6 1.4,-1.4 l 0,-8.9 c 0,-0.8 -0.6,-1.4 -1.4,-1.4 -0.8,0 -1.4,0.6 -1.4,1.4 l 0,8.9 c 0,0.8 0.7,1.4 1.4,1.4 z"
       id="path6689"
       inkscape:connector-curvature="0" /><path
       d="m 211,422.3 c -0.5,-0.5 -1.4,-0.5 -2,0 l -6.3,6.3 c -0.5,0.5 -0.5,1.4 0,2 0.3,0.3 0.6,0.4 1,0.4 0.4,0 0.7,-0.1 1,-0.4 l 6.3,-6.3 c 0.5,-0.6 0.5,-1.4 0,-2 z"
       id="path6691"
       inkscape:connector-curvature="0" /><path
       d="m 233.3,399.9 c 0.3,0.3 0.6,0.4 1,0.4 0.4,0 0.7,-0.1 1,-0.4 l 6.3,-6.3 c 0.5,-0.5 0.5,-1.4 0,-2 -0.5,-0.6 -1.4,-0.5 -2,0 l -6.3,6.3 c -0.5,0.6 -0.5,1.5 0,2 z"
       id="path6693"
       inkscape:connector-curvature="0" /><path
       d="m 206.3,411.1 c 0,-0.8 -0.6,-1.4 -1.4,-1.4 l -8.9,0 c -0.8,0 -1.4,0.6 -1.4,1.4 0,0.8 0.6,1.4 1.4,1.4 l 8.9,0 c 0.8,0 1.4,-0.6 1.4,-1.4 z"
       id="path6695"
       inkscape:connector-curvature="0" /><path
       d="m 209,399.9 c 0.3,0.3 0.6,0.4 1,0.4 0.4,0 0.7,-0.1 1,-0.4 0.5,-0.5 0.5,-1.4 0,-2 l -6.3,-6.3 c -0.5,-0.5 -1.4,-0.5 -2,0 -0.6,0.5 -0.5,1.4 0,2 l 6.3,6.3 z"
       id="path6697"
       inkscape:connector-curvature="0" /><path
       d="m 228.6,396.7 c 0.2,0.1 0.4,0.1 0.6,0.1 0.5,0 1,-0.3 1.3,-0.8 l 3.6,-8.2 c 0.3,-0.7 0,-1.5 -0.7,-1.8 -0.7,-0.3 -1.5,0 -1.8,0.7 l -3.6,8.2 c -0.5,0.6 -0.2,1.5 0.6,1.8 z"
       id="path6699"
       inkscape:connector-curvature="0" /><path
       d="m 207.4,416.8 c -0.3,-0.7 -1.1,-1.1 -1.8,-0.8 l -8.3,3.2 c -0.7,0.3 -1.1,1.1 -0.8,1.8 0.2,0.6 0.7,0.9 1.3,0.9 0.2,0 0.3,0 0.5,-0.1 l 8.3,-3.2 c 0.7,-0.3 1.1,-1.1 0.8,-1.8 z"
       id="path6701"
       inkscape:connector-curvature="0" /><path
       d="m 236.9,405.4 c 0.2,0.6 0.7,0.9 1.3,0.9 0.2,0 0.3,0 0.5,-0.1 L 247,403 c 0.7,-0.3 1.1,-1.1 0.8,-1.8 -0.3,-0.7 -1.1,-1.1 -1.8,-0.8 l -8.3,3.2 c -0.7,0.3 -1.1,1.1 -0.8,1.8 z"
       id="path6703"
       inkscape:connector-curvature="0" /><path
       d="m 197.7,401.8 8.2,3.6 c 0.2,0.1 0.4,0.1 0.6,0.1 0.5,0 1,-0.3 1.3,-0.8 0.3,-0.7 0,-1.5 -0.7,-1.8 l -8.2,-3.6 c -0.7,-0.3 -1.5,0 -1.8,0.7 -0.4,0.7 -0.1,1.5 0.6,1.8 z"
       id="path6705"
       inkscape:connector-curvature="0" /><path
       d="m 214.6,395.6 c 0.2,0.6 0.7,0.9 1.3,0.9 0.2,0 0.3,0 0.5,-0.1 0.7,-0.3 1.1,-1.1 0.8,-1.8 l -3.2,-8.3 c -0.3,-0.7 -1.1,-1.1 -1.8,-0.8 -0.7,0.3 -1.1,1.1 -0.8,1.8 l 3.2,8.3 z"
       id="path6707"
       inkscape:connector-curvature="0" /><path
       d="m 251.7,421.1 c 0.4,-1.1 0.6,-2.3 0.6,-3.5 0,-6.1 -5.1,-11.1 -11.3,-11.1 -1.7,0 -3.4,0.4 -4.9,1.1 -1.6,-6.3 -7.3,-10.9 -14,-10.9 -8,0 -14.5,6.5 -14.5,14.5 0,5.4 3.1,10.4 7.9,12.9 0.1,0.6 0.2,1.2 0.5,1.7 -0.1,-0.1 -0.2,-0.1 -0.3,-0.2 -0.7,-0.3 -1.5,0 -1.8,0.7 l -3.6,8.2 c -0.3,0.7 0,1.5 0.7,1.8 0.2,0.1 0.4,0.1 0.6,0.1 0.5,0 1,-0.3 1.3,-0.8 l 3.6,-8.2 c 0.1,-0.2 0.1,-0.3 0.1,-0.5 1.4,2.4 4,3.9 6.9,3.9 l 24.1,0 c 3.2,0 5.8,-2.6 5.8,-5.7 0,-1.5 -0.6,-2.9 -1.7,-4 z m -41.2,-10 c 0,-6.4 5.2,-11.7 11.7,-11.7 5.8,0 10.6,4.1 11.5,9.7 -0.1,0.1 -0.3,0.3 -0.4,0.4 -0.1,0.1 -0.2,0.2 -0.3,0.3 -0.3,0.4 -0.7,0.7 -1,1.1 -0.6,-0.2 -1.3,-0.2 -1.9,-0.2 -3,0 -5.8,1.7 -7.1,4.3 -0.4,0 -0.8,0.1 -1.1,0.2 -0.1,0 -0.1,0 -0.2,0 -0.4,0.1 -0.7,0.2 -1,0.3 -0.1,0 -0.1,0.1 -0.2,0.1 -0.3,0.1 -0.7,0.3 -1,0.5 0,0 0,0 0,0 -0.3,0.2 -0.6,0.4 -0.9,0.6 -0.1,0 -0.1,0.1 -0.2,0.1 -0.3,0.2 -0.5,0.5 -0.8,0.7 0,0 -0.1,0.1 -0.1,0.1 -0.2,0.3 -0.4,0.5 -0.6,0.8 0,0 0,0 0,0.1 -0.2,0.3 -0.4,0.6 -0.5,0.9 0,0.1 -0.1,0.1 -0.1,0.2 -0.1,0.3 -0.3,0.7 -0.4,1 0,0 0,0 0,0.1 -3.4,-1.9 -5.4,-5.6 -5.4,-9.6 z m 37.1,17 -24.1,0 c -2.8,0 -5.1,-2.2 -5.2,-5 l 0,0 0,-0.1 c 0,-2.8 2.3,-5.1 5.2,-5.1 0,0 0,0 0,0 0.1,0 0.2,0 0.3,0 l 1.1,0.1 0.4,-1 c 0.7,-2.1 2.7,-3.4 4.9,-3.4 0.7,0 1.3,0.1 2,0.4 l 1.1,0.4 0.6,-1 c 0.6,-1 1.3,-1.8 2.2,-2.5 1.5,-1.1 3.2,-1.7 5,-1.7 4.7,0 8.5,3.7 8.5,8.3 0,1.2 -0.3,2.3 -0.7,3.4 l -0.5,1.1 1,0.7 c 0.8,0.5 1.3,1.5 1.3,2.4 -0.1,1.6 -1.4,3 -3.1,3 z"
       id="path6709"
       inkscape:connector-curvature="0" /></g><path
     d="m 253.5,13.2 0,-0.2 c 0,-2.8 -2.2,-5 -5,-5 L 236,8 236,6.1 c 0,-2.8 -2.2,-5 -5,-5 l -14,0 c -2.8,0 -5,2.2 -5,5 l 0,1.9 -12.5,0 c -2.8,0 -5,2.2 -5,5 l 0.1,0.8 c -0.1,0.3 -0.1,0.6 -0.1,0.9 l 0,35 c 0,2.8 2.2,5 5,5 l 49,0 c 2.8,0 5,-2.2 5,-5 l 0,-35 c 0,-0.3 0,-0.6 -0.1,-0.9 l 0.1,-0.6 z m -25.7,21.1 -7.5,0 0,-3.8 c 0,-0.1 0.1,-0.2 0.2,-0.2 l 7,0 c 0.1,0 0.2,0.1 0.2,0.2 l 0,3.8 z m -7.6,3 7.5,0 0,0.2 c 0,0.1 -0.1,0.2 -0.2,0.2 l -7,0 c -0.1,0 -0.2,-0.1 -0.2,-0.2 l 0,-0.2 z m 7.3,-10 -7,0 c -1.8,0 -3.2,1.5 -3.2,3.2 l 0,3.5 -15.7,-3.1 -0.3,0 c -1.1,0 -2,-0.9 -2,-2 l -1.6,-14.7 c 0.3,-0.8 1,-1.3 1.9,-1.3 l 49,0 c 0.9,0 1.6,0.6 1.9,1.3 l -1.6,14.5 0,0.2 c 0,1.1 -0.9,2 -2,2 l -16,3.2 0,-3.4 c -0.1,-1.9 -1.6,-3.4 -3.4,-3.4 z M 215,6.2 c 0,-1.1 0.9,-2 2,-2 l 14,0 c 1.1,0 2,0.9 2,2 l 0,0.2 -0.9,0 c -0.5,-1 -1.6,-1.8 -2.9,-1.8 l -10.5,0 c -1.3,0 -2.3,0.7 -2.9,1.8 l -0.8,0 0,-0.2 z m 3.5,1.7 c 0,-0.1 0.1,-0.2 0.2,-0.2 l 10.5,0 c 0.1,0 0.2,0.1 0.2,0.2 l 0,0.1 -11,0 0,-0.1 z m 30,43.9 -49,0 c -1.1,0 -2,-0.9 -2,-2 l 0,-17.7 c 0.9,1 2.2,1.7 3.6,1.7 l 16.2,3.2 0,0.3 0,0.2 c 0,1.8 1.5,3.2 3.2,3.2 l 7,0 c 1.8,0 3.2,-1.5 3.2,-3.2 l 0,-0.2 0,-0.3 16.2,-3.2 c 1.4,0 2.7,-0.7 3.6,-1.7 l 0,17.7 c 0,1.1 -0.9,2 -2,2 z"
     id="path6711"
     inkscape:connector-curvature="0" /><path
     d="m 248.5,261.5 -2.1,0 0,-2 c 0,-2.7 -2.2,-4.9 -4.9,-4.9 l -42,0 c -2.7,0 -4.9,2.2 -4.9,4.9 l 0,3 0,1.9 0,5.1 c 0,2.7 2.2,4.9 4.9,4.9 l 42,0 c 2.7,0 4.9,-2.2 4.9,-4.9 l 0,-1.5 0.3,0 c 0.1,0 0.2,0.1 0.2,0.2 l 0,5.3 c 0,1.1 -0.9,2 -2,2 l -17.5,0 c -4.7,0 -8.5,3.8 -8.5,8.5 l 0,2.3 c -2,0.6 -3.5,2.5 -3.5,4.7 l 0,17.5 c 0,2.8 2.2,5 5,5 l 3.5,0 c 2.8,0 5,-2.2 5,-5 l 0,-17.5 c 0,-2.2 -1.5,-4.1 -3.5,-4.7 l 0,-2.3 c 0,-1.1 0.9,-2 2,-2 l 17.6,0 c 4.7,0 8.5,-3.8 8.5,-8.5 l 0,-7 c 0,-2.8 -2.2,-5 -5,-5 z m -51.1,-2 c 0,-1.2 0.9,-2.1 2.1,-2.1 l 42,0 c 1.2,0 2.1,0.9 2.1,2.1 l 0,2 -0.1,0 0,0.1 -8.7,0 0,3.2 c 0,0.2 -0.2,0.3 -0.3,0.3 -0.1,0 -0.3,-0.2 -0.3,-0.3 l 0,-3.2 -22.1,0 0,1.4 c 0,0.2 -0.2,0.3 -0.3,0.3 -0.1,0 -0.3,-0.2 -0.3,-0.3 l 0,-1.4 -6.3,0 0,6.7 c 0,0.2 -0.2,0.3 -0.3,0.3 -0.1,0 -0.3,-0.2 -0.3,-0.3 l 0,-6.7 -7,0 0,-2.1 z m 46.2,10 c 0,1.2 -0.9,2.1 -2.1,2.1 l -42,0 c -1.2,0 -2.1,-0.9 -2.1,-2.1 l 0,-5.1 4.2,0 0,3.8 c 0,1.7 1.4,3.2 3.2,3.2 1.8,0 3.2,-1.4 3.2,-3.2 l 0,-3.8 1,0 c 0.5,1 1.6,1.8 2.8,1.8 1.2,0 2.3,-0.7 2.8,-1.8 l 16.8,0 0,0.3 c 0,1.7 1.4,3.2 3.2,3.2 1.8,0 3.2,-1.4 3.2,-3.2 l 0,-0.3 5.8,0 0,3.6 0.1,0 0,1.5 z m -17.6,39 c 0,1.1 -0.9,2 -2,2 l -3.5,0 c -1.1,0 -2,-0.9 -2,-2 l 0,-17.5 c 0,-1.1 0.9,-2 2,-2 l 3.5,0 c 1.1,0 2,0.9 2,2 l 0,17.5 z m 24.5,-35 c 0,3 -2.5,5.5 -5.5,5.5 l -17.5,0 c -2.8,0 -5,2.2 -5,5 l 0,2 -0.5,0 0,-2 c 0,-3 2.5,-5.5 5.5,-5.5 l 17.5,0 c 2.8,0 5,-2.2 5,-5 l 0,-5.3 c 0,-1.8 -1.5,-3.2 -3.2,-3.2 l -0.2,0 0,-0.5 2,0 c 1.1,0 2,0.9 2,2 l 0,7 z"
     id="path6713"
     inkscape:connector-curvature="0" /><g
     id="g6715"
     transform="translate(0,-4)"><path
       d="m 55.3,324.4 -9.1,0 0,0 c 0,-0.8 -0.6,-1.4 -1.4,-1.4 l -8.9,0 c -0.8,0 -1.4,0.6 -1.4,1.4 l 0,0 -25.8,0 c -2.6,0 -4.8,2.1 -4.8,4.8 l 0,39.8 c 0,2.6 2.1,4.8 4.8,4.8 l 25.8,0 0,1.8 c 0,0.5 0.2,0.9 0.6,1.2 0.4,0.3 0.9,0.3 1.3,0.1 l 3.9,-1.6 3.9,1.6 c 0.2,0.1 0.4,0.1 0.6,0.1 0.3,0 0.6,-0.1 0.8,-0.2 0.4,-0.3 0.6,-0.7 0.6,-1.2 l 0,-1.8 9.1,0 c 2.6,0 4.8,-2.1 4.8,-4.8 l 0,-39.8 c 0,-2.6 -2.1,-4.8 -4.8,-4.8 z M 6.7,369 l 0,-39.8 c 0,-1.1 0.9,-1.9 1.9,-1.9 l 21.9,0 0,43.6 -21.8,0 c -1.1,0 -2,-0.8 -2,-1.9 z m 26.7,1.9 0,-43.6 1.1,0 0,43.6 -1.1,0 z m 7.5,1.5 c -0.2,-0.1 -0.4,-0.1 -0.6,-0.1 -0.2,0 -0.4,0 -0.6,0.1 l -2.5,1 0,-46.1 6,0 0,46.1 -2.3,-1 z M 57.3,369 c 0,1.1 -0.9,1.9 -1.9,1.9 l -9.1,0 0,-3 4.7,0 c 0.8,0 1.4,-0.6 1.4,-1.4 0,-0.8 -0.6,-1.4 -1.4,-1.4 l -4.8,0 0,-2.9 6.6,0 c 0.8,0 1.4,-0.6 1.4,-1.4 0,-0.8 -0.6,-1.4 -1.4,-1.4 l -6.6,0 0,-2.9 7.4,0 c 0.8,0 1.4,-0.6 1.4,-1.4 0,-0.8 -0.6,-1.4 -1.4,-1.4 l -7.4,0 0,-2.9 5.5,0 c 0.8,0 1.4,-0.6 1.4,-1.4 0,-0.8 -0.6,-1.4 -1.4,-1.4 l -5.5,0 0,-2.9 7.3,0 c 0.8,0 1.4,-0.6 1.4,-1.4 0,-0.8 -0.6,-1.4 -1.4,-1.4 l -7.3,0 0,-2.9 6.4,0 c 0.8,0 1.4,-0.6 1.4,-1.4 0,-0.8 -0.6,-1.4 -1.4,-1.4 l -6.4,0 0,-2.9 8.2,0 c 0.8,0 1.4,-0.6 1.4,-1.4 0,-0.8 -0.6,-1.4 -1.4,-1.4 l -8.2,0 0,-3 9.1,0 c 1.1,0 1.9,0.9 1.9,1.9 l 0,39.2 z"
       id="path6717"
       inkscape:connector-curvature="0" /><path
       d="m 10,333.1 14.5,0 c 0.8,0 1.4,-0.6 1.4,-1.4 0,-0.8 -0.6,-1.4 -1.4,-1.4 l -14.5,0 c -0.8,0 -1.4,0.6 -1.4,1.4 0,0.8 0.6,1.4 1.4,1.4 z"
       id="path6719"
       inkscape:connector-curvature="0" /><path
       d="m 10,338.9 16.2,0 c 0.8,0 1.4,-0.6 1.4,-1.4 0,-0.8 -0.6,-1.4 -1.4,-1.4 l -16.2,0 c -0.8,0 -1.4,0.6 -1.4,1.4 -0.1,0.8 0.6,1.4 1.4,1.4 z"
       id="path6721"
       inkscape:connector-curvature="0" /><path
       d="m 10,344.7 17.1,0 c 0.8,0 1.4,-0.6 1.4,-1.4 0,-0.8 -0.6,-1.4 -1.4,-1.4 l -17.1,0 c -0.8,0 -1.4,0.6 -1.4,1.4 0,0.8 0.6,1.4 1.4,1.4 z"
       id="path6723"
       inkscape:connector-curvature="0" /><path
       d="m 9.8,356.3 17.1,0 c 0.8,0 1.4,-0.6 1.4,-1.4 0,-0.8 -0.6,-1.4 -1.4,-1.4 l -17.1,0 c -0.8,0 -1.4,0.6 -1.4,1.4 0,0.8 0.6,1.4 1.4,1.4 z"
       id="path6725"
       inkscape:connector-curvature="0" /><path
       d="m 9.8,362.2 16.2,0 c 0.8,0 1.4,-0.6 1.4,-1.4 0,-0.8 -0.6,-1.4 -1.4,-1.4 l -16.2,0 c -0.8,0 -1.4,0.6 -1.4,1.4 0,0.8 0.6,1.4 1.4,1.4 z"
       id="path6727"
       inkscape:connector-curvature="0" /><path
       d="m 27.8,365.1 -18,0 c -0.8,0 -1.4,0.6 -1.4,1.4 0,0.8 0.6,1.4 1.4,1.4 l 18,0 c 0.8,0 1.4,-0.6 1.4,-1.4 0,-0.8 -0.6,-1.4 -1.4,-1.4 z"
       id="path6729"
       inkscape:connector-curvature="0" /><path
       d="m 9.8,350.5 15.3,0 c 0.8,0 1.4,-0.6 1.4,-1.4 0,-0.8 -0.6,-1.4 -1.4,-1.4 l -15.3,0 c -0.8,0 -1.4,0.6 -1.4,1.4 0,0.8 0.6,1.4 1.4,1.4 z"
       id="path6731"
       inkscape:connector-curvature="0" /></g><path
     d="m 176.6,366.6 -1.8,0 0,-8.1 c 0,-0.2 0,-4 -2.9,-8.8 l -0.1,0.1 c -0.1,-0.4 -0.2,-0.8 -0.3,-1.1 7.1,-8.6 6.5,-21.2 -1.4,-29.2 l -1,-1 -9.8,9.8 -8.7,-3.6 c -0.8,-1.5 -2.3,-2.5 -4,-2.5 -2.5,0 -4.5,2 -4.5,4.5 0,1.7 1,3.2 2.4,4 l 3.4,8.9 -9.6,9.6 1,1 c 4.2,4.2 9.8,6.4 15.5,6.4 3.2,0 6.4,-0.7 9.3,-2.1 l -0.1,0 c 1.2,1.9 1.9,3.8 1.9,5.5 l 0,6.6 -1.9,0 c -2.5,0 -4.5,2 -4.5,4.5 l 0,1.4 21.7,0 0,-1.4 c 0,-2.5 -2.1,-4.5 -4.6,-4.5 z m -20.6,-35.1 -5.7,-2.4 c 0.1,-0.2 0.2,-0.4 0.3,-0.6 0,0 0,0 0,-0.1 0.1,-0.2 0.2,-0.5 0.2,-0.7 l 6.2,2.6 -1,1.2 z m -9.5,-6.6 c 0.7,0 1.4,0.4 1.6,1.1 l 0.1,0.2 c 0,0.1 0.1,0.2 0.1,0.3 0,0.1 0,0.2 0,0.3 0,0.1 0,0.2 0,0.4 0,0 0,0.1 0,0.1 0,0.1 0,0.2 -0.1,0.2 0,0 0,0.1 -0.1,0.1 0,0.1 -0.1,0.1 -0.1,0.2 0,0 -0.1,0.1 -0.1,0.1 0,0.1 -0.1,0.1 -0.1,0.2 0,0 0,0 0,0 l 0,0 0,0 c 0,0 -0.1,0 -0.1,0.1 -0.1,0.1 -0.1,0.1 -0.2,0.1 -0.1,0.1 -0.2,0.1 -0.2,0.1 0,0 0,0 0,0 -0.2,0.1 -0.4,0.1 -0.7,0.1 0,0 -0.1,0 -0.1,0 -0.2,0 -0.3,0 -0.5,-0.1 l -0.2,-0.1 c -0.6,-0.3 -1.1,-0.9 -1.1,-1.6 0,-0.9 0.8,-1.8 1.8,-1.8 z m 1.7,6 c 0.1,0 0.1,-0.1 0.2,-0.1 0.1,-0.1 0.2,-0.1 0.3,-0.2 l 2.2,5.8 -1.1,1.1 -2.5,-6.4 c 0.5,0 0.7,-0.1 0.9,-0.2 z m 4.4,2.1 1.4,0.6 -0.8,0.8 -0.6,-1.4 z m 4.1,1.7 0,0 3.4,-3.4 9,-8.9 c 0.5,0.6 0.9,1.1 1.3,1.7 l -26.5,26.5 c -0.6,-0.4 -1.2,-0.8 -1.7,-1.3 l 14.5,-14.6 z m -10.4,17.2 25.5,-25.4 c 3.1,6.4 2.5,14.2 -2.1,20 -0.7,-0.5 -1.6,-0.7 -2.5,-0.7 -2.6,0 -4.8,2.1 -4.8,4.8 0,0.6 0.1,1.1 0.3,1.6 -5.3,2.3 -11.3,2.2 -16.4,-0.3 z m 19.2,-1.4 c 0,-0.9 0.7,-1.6 1.6,-1.6 0.9,0 1.6,0.7 1.6,1.6 0,0.9 -0.7,1.6 -1.6,1.6 -0.9,0 -1.6,-0.7 -1.6,-1.6 z m -2.7,19.3 c 0.3,-0.3 0.7,-0.5 1.2,-0.5 l 4.6,0 0,-9.3 c 0,-1.6 -0.4,-3.2 -1.1,-4.8 1.4,-0.1 2.6,-0.8 3.4,-1.8 1.2,2.9 1.3,5 1.3,5 l 0,10.9 4.5,0 c 0.5,0 0.9,0.2 1.2,0.5 l -15.1,0 z"
     id="path6733"
     inkscape:connector-curvature="0" /><path
     d="m 188,30.5 0,-3.5 -5.2,0 c 1.9,0 3.5,-1.6 3.5,-3.5 l 0,-5.2 c 0,-1.9 -1.6,-3.5 -3.5,-3.5 l 0,-2.6 -2.3,0 c 1.2,-3.5 0.7,-6.7 0,-8.8 l 2.3,0 0,-3.4 -42,0 c -1.9,0 -3.5,1.6 -3.5,3.5 l 0,8.8 c 0,1 0.4,1.9 1.1,2.6 l -1.1,0 0,3.5 1.2,0 0,5.2 -1.2,0 0,3.4 -1.8,0 c -1.9,0 -3.5,1.6 -3.5,3.5 l 0,7 c 0,1.9 1.6,3.5 3.5,3.5 -1.9,0 -3.5,1.6 -3.5,3.5 l 0,7 c 0,1.9 1.6,3.5 3.5,3.5 l 52.5,0 0,-3.5 -1.7,0 c 0.7,-2.7 0.5,-5.1 0,-7 l 1.7,0 0,-3.5 0,-3.5 -1.5,0 0,-7 1.5,0 z M 140.8,5.2 c 0,-1 0.8,-1.8 1.8,-1.8 l 35,0 c 0.7,1.7 1.6,5 0,8.8 l -34.9,0 c -1,0 -1.8,-0.8 -1.8,-1.8 l 0,-5.2 z m 42.6,46.3 -46.1,0 c -1,0 -1.8,-0.8 -1.8,-1.7 l 0,-3.5 c 0,-1 0.8,-1.8 1.8,-1.8 l 46.1,0 c 0.5,1.7 0.9,4.2 0,7 z m -42.1,-33.2 39.7,0 c 1,0 1.8,0.8 1.8,1.8 l 0,1.8 c 0,1 -0.8,1.8 -1.8,1.8 l -2,0 0,-2.7 c 0,-0.8 -0.6,-1.4 -1.4,-1.4 l -9.8,0 c -0.8,0 -1.4,0.6 -1.4,1.4 l 0,2.6 -25.2,0 0,-5.3 z m 34.9,4.1 0,10.7 -2.7,-1.8 c -0.5,-0.3 -1.1,-0.3 -1.6,0 l -2.7,1.8 0,-10.7 7,0 z m 7.5,15.1 -46.5,0 c -1,0 -1.8,-0.8 -1.8,-1.8 l 0,-3.5 c 0,-1 0.8,-1.7 1.8,-1.7 l 29.2,0 0,5.2 c 0,0.5 0.3,1 0.7,1.2 0.2,0.1 0.4,0.2 0.7,0.2 0.3,0 0.5,-0.1 0.8,-0.2 l 4.1,-2.8 4.1,2.8 c 0.4,0.3 1,0.3 1.4,0.1 0.5,-0.2 0.7,-0.7 0.7,-1.2 l 0,-5.2 4.7,0 0,6.9 z"
     id="path6735"
     inkscape:connector-curvature="0" /><g
     id="g6737"
     transform="translate(0,-4)"><path
       d="m 182.6,290.4 -18,0 c -0.8,0 -1.4,0.6 -1.4,1.4 0,0.8 0.6,1.4 1.4,1.4 l 18,0 c 0.8,0 1.4,-0.6 1.4,-1.4 0,-0.8 -0.6,-1.4 -1.4,-1.4 z"
       id="path6739"
       inkscape:connector-curvature="0" /><path
       d="m 181.7,303.8 -17,0 c -0.8,0 -1.4,0.6 -1.4,1.4 0,0.8 0.6,1.4 1.4,1.4 l 17,0 c 0.8,0 1.4,-0.6 1.4,-1.4 0,-0.8 -0.6,-1.4 -1.4,-1.4 z"
       id="path6741"
       inkscape:connector-curvature="0" /><path
       d="m 136.7,273.1 15.2,0 c 0.8,0 1.4,-0.6 1.4,-1.4 0,-0.8 -0.6,-1.4 -1.4,-1.4 l -15.2,0 c -0.8,0 -1.4,0.6 -1.4,1.4 0,0.8 0.6,1.4 1.4,1.4 z"
       id="path6743"
       inkscape:connector-curvature="0" /><path
       d="m 136.7,279.8 17,0 c 0.8,0 1.4,-0.6 1.4,-1.4 0,-0.8 -0.6,-1.4 -1.4,-1.4 l -17,0 c -0.8,0 -1.4,0.6 -1.4,1.4 0,0.8 0.6,1.4 1.4,1.4 z"
       id="path6745"
       inkscape:connector-curvature="0" /><path
       d="m 136.7,286.5 18,0 c 0.8,0 1.4,-0.6 1.4,-1.4 0,-0.8 -0.6,-1.4 -1.4,-1.4 l -18,0 c -0.8,0 -1.4,0.6 -1.4,1.4 0,0.8 0.6,1.4 1.4,1.4 z"
       id="path6747"
       inkscape:connector-curvature="0" /><path
       d="m 154.7,297.1 -18,0 c -0.8,0 -1.4,0.6 -1.4,1.4 0,0.8 0.6,1.4 1.4,1.4 l 18,0 c 0.8,0 1.4,-0.6 1.4,-1.4 0,-0.8 -0.7,-1.4 -1.4,-1.4 z"
       id="path6749"
       inkscape:connector-curvature="0" /><path
       d="m 153.7,303.8 -17,0 c -0.8,0 -1.4,0.6 -1.4,1.4 0,0.8 0.6,1.4 1.4,1.4 l 17,0 c 0.8,0 1.4,-0.6 1.4,-1.4 0,-0.8 -0.6,-1.4 -1.4,-1.4 z"
       id="path6751"
       inkscape:connector-curvature="0" /><path
       d="m 136.7,293.2 16.1,0 c 0.8,0 1.4,-0.6 1.4,-1.4 0,-0.8 -0.6,-1.4 -1.4,-1.4 l -16.1,0 c -0.8,0 -1.4,0.6 -1.4,1.4 0,0.8 0.6,1.4 1.4,1.4 z"
       id="path6753"
       inkscape:connector-curvature="0" /><path
       d="m 164.7,299.9 16.1,0 c 0.8,0 1.4,-0.6 1.4,-1.4 0,-0.8 -0.6,-1.4 -1.4,-1.4 l -16.1,0 c -0.8,0 -1.4,0.6 -1.4,1.4 0,0.8 0.6,1.4 1.4,1.4 z"
       id="path6755"
       inkscape:connector-curvature="0" /><path
       d="m 184.5,263.3 -49,0 c -2.7,0 -4.9,2 -4.9,4.5 l 0,40.4 c 0,2.5 2.2,4.5 4.9,4.5 l 35.6,0 1.7,0 c 0.2,0 0.5,0 0.7,0 l 10.9,0 c 2.7,0 4.9,-2 4.9,-4.5 l 0,-40.4 c 0.1,-2.5 -2.1,-4.5 -4.8,-4.5 z m -23.1,14.1 c 4.7,-1.8 8.2,-2 10.4,-0.5 0.9,0.6 1.5,1.3 2,2.1 0.6,0.8 1.3,1.7 2.5,2.5 l 0,0.1 c 0.1,0 0.1,0 0.2,0 0.2,0.1 0.4,0.2 0.7,0.3 1,0.5 2.1,0.7 3.3,0.7 1.8,0 3.9,-0.6 6.2,-1.7 l 0,2.9 -25.2,0 0,-6.4 z m 15.9,1.3 c -0.4,-0.4 -0.8,-0.8 -1.1,-1.3 -0.7,-0.9 -1.4,-1.9 -2.8,-2.8 -0.3,-0.2 -0.6,-0.3 -0.9,-0.5 0.3,-1.8 2,-3.2 3.9,-3.2 2.2,0 4,1.8 4,4 -0.1,1.8 -1.4,3.3 -3.1,3.8 z m 9.3,-10.9 0,10 c -2.2,1.2 -4.1,1.9 -5.7,2 1.3,-1.2 2.2,-3 2.2,-5 0,-3.7 -3,-6.8 -6.8,-6.8 -3.2,0 -5.9,2.2 -6.6,5.3 -2.3,-0.3 -5.1,0.1 -8.3,1.2 l 0,-8.4 23.1,0 c 1.2,0 2.1,0.7 2.1,1.7 z m -53.2,40.4 0,-40.4 c 0,-0.9 0.9,-1.7 2.1,-1.7 l 23.1,0 0,43.9 -23.1,0 c -1.2,-0.1 -2.1,-0.8 -2.1,-1.8 z m 51.1,1.7 -12.1,0 0,0 c -0.4,0 -0.8,0 -1.2,0 l -9.7,0 0,-23.3 25.2,0 0,21.6 c -0.1,1 -1,1.7 -2.2,1.7 z"
       id="path6757"
       inkscape:connector-curvature="0" /></g><g
     id="g6759"
     transform="translate(0,-4)"><rect
       x="72.900002"
       y="338.70001"
       width="7.4000001"
       height="3.2"
       id="rect6761" /><rect
       x="72.900002"
       y="345"
       width="7.4000001"
       height="19"
       id="rect6763" /><rect
       x="72.900002"
       y="367.10001"
       width="7.4000001"
       height="3.2"
       id="rect6765" /><rect
       x="88.400002"
       y="366.10001"
       width="7.4000001"
       height="4.1999998"
       id="rect6767" /><rect
       x="88.400002"
       y="328.70001"
       width="7.4000001"
       height="4.1999998"
       id="rect6769" /><rect
       x="88.400002"
       y="337"
       width="7.4000001"
       height="25"
       id="rect6771" /><rect
       x="107.9"
       y="341.39999"
       transform="matrix(-0.9756,0.2197,-0.2197,-0.9756,297.9468,671.808)"
       width="7.4000001"
       height="22.1"
       id="rect6773" /><rect
       x="111.5"
       y="366.79999"
       transform="matrix(-0.9756,0.2197,-0.2197,-0.9756,308.674,702.8973)"
       width="7.4000001"
       height="3.7"
       id="rect6775" /><rect
       x="106.1"
       y="332.60001"
       transform="matrix(-0.2197,-0.9756,0.9756,-0.2197,-196.4058,515.5642)"
       width="3.7"
       height="7.4000001"
       id="rect6777" /><path
       d="m 123.8,371.4 -9.2,-40.9 c -0.3,-1.3 -1.5,-2.2 -2.8,-2.2 -0.2,0 -0.5,0 -0.7,0.1 l -9.3,2.1 c -0.8,0.2 -1.4,0.6 -1.8,1.2 0,0.1 -0.1,0.1 -0.1,0.2 l 0,-5.9 c 0,-1.7 -1.3,-3 -3,-3 l -9.5,0 c -1.7,0 -3,1.3 -3,3 l 0,7.5 c -0.5,-0.6 -1.3,-1 -2.2,-1 l -11.1,0 c -1.7,0 -3,1.3 -3,3 l 0,38 c 0,1.7 1.3,3 3,3 l 11.1,0 c 1.1,0 2.1,-0.6 2.6,-1.5 0.5,0.9 1.5,1.5 2.6,1.5 l 9.5,0 c 1.7,0 3,-1.3 3,-3 l 0,-37.9 8.8,39.3 c 0.3,1.3 1.5,2.2 2.8,2.2 0.2,0 0.5,0 0.7,-0.1 l 9.3,-2.1 c 0.8,-0.2 1.4,-0.6 1.8,-1.2 0.5,-0.7 0.7,-1.5 0.5,-2.3 z m -41.5,2.1 c 0,0.1 -0.1,0.2 -0.2,0.2 l -11,0 c -0.1,0 -0.2,-0.1 -0.2,-0.2 l 0,-38 c 0,-0.1 0.1,-0.2 0.2,-0.2 l 11.1,0 c 0.1,0 0.2,0.1 0.2,0.2 l 0,38 z m 14.7,0 c 0,0.1 -0.1,0.2 -0.2,0.2 l -9.5,0 c -0.1,0 -0.2,-0.1 -0.2,-0.2 l 0,-47.5 c 0,-0.1 0.1,-0.2 0.2,-0.2 l 9.5,0 c 0.1,0 0.2,0.1 0.2,0.2 l 0,47.5 z m 23.9,-1.4 -9.3,2.1 c 0,0 -0.1,0 -0.1,0 0,0 -0.1,0 -0.1,0 l -9.2,-40.8 c 0,0 0.1,-0.1 0.2,-0.1 l 9.3,-2.1 c 0,0 0.1,0 0.1,0 L 121,372 c 0.1,0 0,0 -0.1,0.1 z"
       id="path6779"
       inkscape:connector-curvature="0" /></g><path
     d="m 60,113.4 -2.9,-2.9 c 0,0 0,0 0,-0.1 0,0 0,0 0,0 L 52.7,106 c 0,0 0,0 0,0 0,0 0,0 -0.1,-0.1 L 38.8,92.1 51.5,79.4 c 0.2,-0.2 0.3,-0.4 0.3,-0.6 1.3,-0.7 4.1,-2.4 5.9,-5.6 1.1,-2 1.6,-3.6 1.9,-4.9 C 60,67 60.3,66 61.1,65 61.6,64.4 61.5,63.6 61,63.1 60.5,62.6 59.7,62.6 59.1,63 c -1,0.8 -2,1.1 -3.3,1.5 -1.3,0.4 -2.9,0.8 -4.9,1.9 -3.2,1.8 -4.9,4.6 -5.6,5.9 -0.2,0.1 -0.4,0.2 -0.6,0.3 L 39.4,78 c 0,0 0,0 0,0 0,0 0,0 0,0 L 32,85.4 19.7,73.1 C 19.6,72.9 19.4,72.7 19.2,72.5 L 4.8,62.7 C 4.2,62.3 3.5,62.4 3,62.9 2.5,63.4 2.5,64.1 2.8,64.7 l 9.4,13.8 c 0,0.4 0.1,0.7 0.4,1 L 25.2,92.1 4,113.4 c -0.9,0.9 -1.4,2.1 -1.4,3.4 0,1.3 0.5,2.5 1.4,3.4 0.9,0.9 2.2,1.4 3.4,1.4 1.2,0 2.4,-0.5 3.4,-1.4 L 32,98.9 53.2,120.1 c 0.9,0.9 2.1,1.4 3.4,1.4 l 0,0 c 1.3,0 2.5,-0.5 3.4,-1.4 1.9,-1.8 1.9,-4.9 0,-6.7 z m -11.2,-1.7 2.8,-2.8 2.5,2.5 -2.8,2.8 -2.5,-2.5 z m 3.4,-42.8 c 1.7,-0.9 3,-1.3 4.3,-1.7 0.2,-0.1 0.4,-0.1 0.6,-0.2 -0.1,0.2 -0.1,0.4 -0.2,0.6 -0.4,1.3 -0.7,2.6 -1.7,4.3 -1.3,2.3 -3.3,3.7 -4.4,4.3 l -2.9,-2.9 c 0.6,-1.1 2,-3.1 4.3,-4.4 z M 46,75.4 48.8,78.2 45.1,81.9 42.3,79 46,75.4 Z m -29.7,-1.5 -2.3,2.3 -4.8,-7 7.1,4.7 z M 15.6,78.5 18.4,75.7 30,87.3 27.2,90.1 15.6,78.5 Z m -6.8,39.6 c -0.8,0.8 -2,0.8 -2.8,0 -0.4,-0.4 -0.6,-0.9 -0.6,-1.4 0,-0.5 0.2,-1 0.6,-1.4 L 40.3,81 43.1,83.8 8.8,118.1 Z m 28,-24 12.8,12.8 -2.8,2.8 L 34,96.9 36.8,94.1 Z m 21.2,24 c -0.4,0.4 -0.9,0.6 -1.4,0.6 -0.5,0 -1,-0.2 -1.4,-0.6 l -1.9,-1.9 2.8,-2.8 1.9,1.9 c 0.8,0.8 0.8,2.1 0,2.8 z"
     id="path6781"
     inkscape:connector-curvature="0" /><g
     id="g6783"
     transform="translate(0,-4)"><path
       d="m 170.5,89.2 c -0.3,-0.8 -1,-1.4 -1.8,-1.5 l -4.8,-0.7 -2.1,-4.3 c -0.4,-0.8 -1.1,-1.2 -2,-1.2 -0.9,0 -1.6,0.5 -2,1.2 l -2.1,4.3 -4.8,0.7 c -0.8,0.1 -1.5,0.7 -1.8,1.5 -0.3,0.8 0,1.7 0.6,2.3 l 3.5,3.4 -0.8,4.8 c -0.1,0.7 0.1,1.3 0.5,1.8 0.7,0.8 1.8,1 2.7,0.5 l 4.3,-2.3 4.3,2.3 c 0.3,0.2 0.7,0.3 1,0.3 0.7,0 1.3,-0.3 1.7,-0.8 0.4,-0.5 0.6,-1.2 0.5,-1.8 l -0.8,-4.8 3.5,-3.4 c 0.5,-0.6 0.7,-1.4 0.4,-2.3 z m -6.2,3.9 c -0.5,0.5 -0.8,1.2 -0.6,2 l 0.7,3.9 -3.5,-1.9 c -0.6,-0.3 -1.4,-0.3 -2.1,0 l -3.5,1.9 0.7,-3.9 c 0.1,-0.7 -0.1,-1.5 -0.6,-2 l -2.9,-2.8 4,-0.6 c 0.7,-0.1 1.4,-0.6 1.7,-1.2 l 1.8,-3.6 1.8,3.6 c 0.3,0.7 1,1.1 1.7,1.2 l 4,0.6 -3.2,2.8 z"
       id="path6785"
       inkscape:connector-curvature="0" /><path
       d="m 184,91.5 -1.2,-1.2 c -0.4,-0.4 -0.4,-0.9 -0.1,-1.4 l 0.9,-1.4 c 0.6,-1 0.8,-2.2 0.4,-3.3 -0.4,-1.1 -1.2,-2 -2.3,-2.4 l -1.6,-0.6 C 179.6,81 179.3,80.5 179.4,80 l 0.3,-1.7 c 0.2,-1.2 -0.2,-2.3 -0.9,-3.2 -0.8,-0.9 -1.9,-1.4 -3,-1.3 l -1.7,0.1 c -0.5,0 -1,-0.3 -1.1,-0.8 l -0.5,-1.6 c -0.3,-1.1 -1.1,-2 -2.2,-2.5 -1.1,-0.5 -2.3,-0.5 -3.3,0 l -1.5,0.7 c -0.5,0.2 -1,0.1 -1.3,-0.3 l -1.1,-1.3 c -0.7,-0.9 -1.8,-1.4 -3,-1.4 -1.2,0 -2.3,0.5 -3,1.4 l -1.1,1.3 c -0.3,0.4 -0.9,0.5 -1.3,0.3 l -1.5,-0.8 c -1,-0.5 -2.2,-0.6 -3.3,-0.1 -1.1,0.5 -1.9,1.4 -2.2,2.5 l -0.5,1.6 c -0.1,0.5 -0.6,0.8 -1.1,0.8 l -1.7,-0.1 c -1.2,0 -2.3,0.4 -3.1,1.3 -0.8,0.9 -1.1,2 -1,3.2 l 0.2,1.7 c 0.1,0.5 -0.2,1 -0.7,1.2 l -1.6,0.6 c -1.1,0.4 -1.9,1.3 -2.3,2.4 -0.4,1.1 -0.2,2.3 0.4,3.3 l 0.9,1.4 c 0.3,0.4 0.2,1 -0.2,1.4 l -1.2,1.2 c -0.8,0.8 -1.2,2 -1.1,3.1 0.1,1.2 0.7,2.2 1.7,2.8 l 1.4,1 c 0.4,0.3 0.6,0.8 0.4,1.3 l -0.6,1.6 c -0.4,1.1 -0.3,2.3 0.3,3.3 0.6,1 1.6,1.7 2.7,1.9 l 1.7,0.3 c 0.5,0.1 0.9,0.5 0.9,1 l 0.1,1.7 c 0.1,1.2 0.6,2.2 1.6,2.9 0.9,0.7 2.1,0.9 3.3,0.6 l 0.1,0 0,10.4 c 0,0.9 0.5,1.7 1.4,2.1 0.8,0.3 1.6,0.2 2.3,-0.3 l 7.7,-4.5 7.7,4.5 c 0.4,0.3 0.9,0.5 1.4,0.5 0.3,0 0.6,-0.1 0.9,-0.2 0.8,-0.3 1.4,-1.2 1.4,-2.1 l 0,-10.3 0.3,0.1 c 0.3,0.1 0.7,0.1 1,0.1 0.8,0 1.6,-0.3 2.3,-0.7 0.9,-0.7 1.5,-1.7 1.6,-2.9 l 0.1,-1.7 c 0,-0.5 0.4,-0.9 0.9,-1 l 1.7,-0.3 c 1.1,-0.2 2.1,-0.9 2.7,-1.9 0.6,-1 0.7,-2.2 0.3,-3.3 l -0.6,-1.6 c -0.2,-0.5 0,-1 0.4,-1.3 l 1.4,-0.9 c 1,-0.6 1.6,-1.7 1.7,-2.8 0.3,-1.2 -0.1,-2.4 -0.9,-3.2 z m -24.2,15.6 c -8.4,0 -15.3,-6.8 -15.3,-15.3 0,-8.4 6.8,-15.3 15.3,-15.3 8.5,0 15.2,7 15.2,15.4 0,8.4 -6.8,15.2 -15.2,15.2 z m 1.4,10.9 c -0.8,-0.7 -2,-0.7 -2.8,0 l -7.2,4.2 0,-14.4 c 2.6,1.4 5.5,2.2 8.6,2.2 3.1,0 6,-0.8 8.6,-2.2 l 0,14.4 -7.2,-4.2 z m 21.1,-23.7 c 0,0.2 -0.1,0.6 -0.5,0.8 l -1.4,0.9 c -1.5,1 -2.1,2.9 -1.5,4.6 l 0.6,1.6 c 0.2,0.4 0,0.8 -0.1,0.9 -0.1,0.2 -0.3,0.5 -0.8,0.5 l -1.7,0.3 c -1.8,0.3 -3.1,1.8 -3.3,3.6 l -0.1,1.7 c 0,0.4 -0.3,0.7 -0.5,0.8 -0.2,0.1 -0.5,0.3 -0.9,0.2 l -1,-0.3 0,-4 c 0,-0.1 0,-0.1 0,-0.2 4.1,-3.3 6.7,-8.4 6.7,-14 0,-10 -8.1,-18.1 -18.1,-18.1 -10,0 -18.1,8.1 -18.1,18.1 0,5.6 2.6,10.7 6.7,14 0,0.1 0,0.1 0,0.2 l 0,3.9 -0.8,0.2 c -0.4,0.1 -0.8,-0.1 -0.9,-0.2 -0.1,-0.1 -0.4,-0.4 -0.4,-0.8 l -0.1,-1.7 c -0.1,-1.8 -1.4,-3.3 -3.2,-3.6 l -1.7,-0.3 c -0.4,-0.1 -0.7,-0.4 -0.8,-0.5 -0.1,-0.2 -0.2,-0.5 -0.1,-0.9 l 0.6,-1.6 c 0.6,-1.7 0,-3.6 -1.5,-4.6 l -1.4,-1 c -0.4,-0.3 -0.5,-0.6 -0.5,-0.8 0,-0.2 0,-0.6 0.3,-0.9 l 1.2,-1.2 c 1.3,-1.3 1.5,-3.3 0.5,-4.8 l -0.9,-1.4 c -0.2,-0.4 -0.2,-0.7 -0.1,-0.9 0.1,-0.2 0.2,-0.5 0.6,-0.7 l 1.6,-0.6 c 1.7,-0.7 2.7,-2.4 2.4,-4.2 l -0.2,-1.7 c -0.1,-0.4 0.1,-0.8 0.3,-0.9 0.1,-0.1 0.4,-0.4 0.9,-0.4 l 1.7,0.1 c 1.8,0.1 3.4,-1.1 3.9,-2.8 l 0.5,-1.6 c 0.1,-0.4 0.4,-0.6 0.6,-0.7 0.2,-0.1 0.5,-0.2 0.9,0 l 1.5,0.8 c 1.6,0.8 3.6,0.4 4.7,-1 l 1.1,-1.3 c 0.3,-0.3 0.7,-0.4 0.8,-0.4 0.2,0 0.6,0.1 0.8,0.4 l 1.1,1.3 c 1.2,1.4 3.1,1.8 4.7,1 l 1.5,-0.7 c 0.4,-0.2 0.8,-0.1 0.9,0 0.2,0.1 0.5,0.3 0.6,0.7 l 0.5,1.6 c 0.5,1.8 2.1,3 3.9,2.9 l 1.7,-0.1 c 0.4,0 0.7,0.2 0.9,0.4 0.1,0.1 0.3,0.5 0.3,0.9 l -0.3,1.7 c -0.3,1.8 0.7,3.5 2.4,4.2 l 1.6,0.6 c 0.4,0.2 0.6,0.5 0.6,0.7 0.1,0.2 0.1,0.5 -0.1,0.9 l -0.9,1.4 c -1,1.5 -0.8,3.5 0.5,4.8 l 1.2,1.2 c 0.6,0.5 0.6,0.8 0.6,1 z"
       id="path6787"
       inkscape:connector-curvature="0" /></g><path
     d="m 250.7,78.6 -24.2,-7.1 c -1.6,-0.5 -3.3,-0.5 -4.9,0 l -24.2,7.1 c -1.6,0.5 -2.7,2 -2.7,3.7 0,1.7 1.1,3.2 2.7,3.7 l 5.1,1.5 0,8.6 c 0,1.2 0.6,2.3 1.5,3 1.1,0.8 2.3,1.6 3.6,2.3 l 0,2.4 c -0.7,0.3 -1.4,0.9 -1.8,1.6 l -2,3.6 c -0.4,0.7 -0.1,1.5 0.6,1.9 0.7,0.4 1.5,0.1 1.9,-0.6 l 1.3,-2.3 0,3.6 c 0,0.8 0.6,1.4 1.4,1.4 0.8,0 1.4,-0.6 1.4,-1.4 l 0,-3.6 1.3,2.3 c 0.3,0.5 0.7,0.7 1.2,0.7 0.2,0 0.5,-0.1 0.7,-0.2 0.7,-0.4 0.9,-1.2 0.6,-1.9 l -2,-3.6 c -0.4,-0.7 -1,-1.3 -1.8,-1.6 l 0,-1 c 4.2,1.8 8.8,2.7 13.7,2.7 7.6,0 14.5,-2.2 20.1,-6.4 0.9,-0.7 1.5,-1.8 1.5,-3 l 0,-8.6 5.1,-1.5 c 1.6,-0.5 2.7,-2 2.7,-3.7 -0.1,-1.7 -1.2,-3.2 -2.8,-3.6 z m -45.1,18.2 c -0.2,-0.2 -0.4,-0.5 -0.4,-0.8 l 0,-7.8 2.3,0.7 c 0,0.2 -0.1,0.4 -0.1,0.7 l 0,8.5 c -0.5,-0.5 -1.2,-0.9 -1.8,-1.3 z M 242.7,96 c 0,0.3 -0.1,0.6 -0.4,0.8 -5.1,3.8 -11.4,5.8 -18.4,5.8 -5,0 -9.6,-1 -13.7,-3 l 0,-9.9 11.3,3.3 c 0.8,0.2 1.6,0.3 2.4,0.3 0.8,0 1.6,-0.1 2.4,-0.3 l 16.3,-4.8 0,7.8 z m 7.2,-12.8 -24.2,7.1 c -1.1,0.3 -2.2,0.3 -3.3,0 l -9,-2.6 10.8,-4.3 c 0.7,-0.3 1.1,-1.1 0.8,-1.8 -0.3,-0.7 -1.1,-1.1 -1.8,-0.8 L 209.9,86 c -0.3,0.1 -0.5,0.3 -0.8,0.4 l -11,-3.2 c -0.7,-0.2 -0.7,-0.8 -0.7,-1 0,-0.2 0.1,-0.8 0.7,-1 l 24.2,-7.1 c 0.5,-0.2 1.1,-0.2 1.6,-0.2 0.5,0 1.1,0.1 1.6,0.2 l 24.2,7.1 c 0.7,0.2 0.7,0.8 0.7,1 0.2,0.2 0.1,0.8 -0.5,1 z"
     id="path6789"
     inkscape:connector-curvature="0" /><path
     d="m 125.1,77.8 c -1,-5.1 -4.5,-6.9 -7.5,-6.9 -3.4,0 -7.1,2.4 -7.8,6.5 -1.8,-1.6 -4.1,-6.2 -5.5,-8.9 -0.4,-0.8 -0.7,-1.5 -1.1,-2.1 -0.2,-0.3 -0.5,-0.6 -0.8,-0.7 -0.4,-0.1 -0.8,-0.1 -1.1,0.1 -1.9,1.1 -3.8,2.2 -5.6,3.2 -1.8,1.1 -3.7,2.2 -5.6,3.3 -0.2,0.1 -0.3,0.2 -0.5,0.4 -0.8,0.6 -1,1.5 -0.4,2.8 0.6,1.5 2.3,1.9 3.7,2.3 0.7,0.2 1.4,0.4 2,0.7 1.3,1.9 0.7,3.8 0.2,4.8 -1.1,2.2 -3.3,3.8 -5.4,3.8 l -0.2,0 c -3.1,0 -3.3,-1.1 -3.4,-4.4 0,-2 -0.1,-4.2 -1.6,-5.8 -0.4,-0.5 -1.2,-0.6 -1.7,-0.2 -1.9,1.1 -3.8,2.2 -5.6,3.3 -2,1.2 -4,2.4 -6,3.5 -0.6,0.4 -0.9,1.2 -0.5,1.9 1.1,2.1 2.3,4.3 3.5,6.5 0.9,1.7 1.9,3.4 2.8,5.1 -0.2,0 -0.4,0 -0.5,0 -3.1,0.2 -7.1,0.6 -8.9,3.3 -1.1,1.7 -1.2,3.9 -0.3,6.7 1.9,5.6 5.1,6.4 6.9,6.4 3.6,0 7.1,-3.4 8.5,-6.8 1,1.6 2,3.3 3,4.9 1.3,2 2.5,4.1 3.8,6.1 0.3,0.4 0.7,0.7 1.2,0.7 0.3,0 0.5,-0.1 0.7,-0.2 1.8,-1.1 3.6,-2.2 5.4,-3.2 1.8,-1.1 3.7,-2.2 5.6,-3.3 0.3,-0.2 0.5,-0.4 0.6,-0.7 0.6,-1.6 -1,-2.7 -2.8,-3.9 -1.8,-1.1 -4.2,-2.7 -4.3,-4.4 -0.1,-0.8 0.3,-1.7 1.3,-2.7 3.1,-3.3 6,-4.2 7.7,-2.2 1.2,1.4 1.7,3.9 1.2,6.7 -0.1,0.3 0,0.7 0.2,1 l 0,0.1 c 0.1,0.4 0.5,1.5 1.8,1.7 0.2,0 0.3,0 0.5,0 2.7,-0.5 5.9,-2.6 8.7,-4.5 1.2,-0.8 2.4,-1.6 3.3,-2.1 0.7,-0.4 0.9,-1.2 0.6,-1.9 -1.1,-2.1 -2.2,-4.3 -3.3,-6.5 -0.9,-1.7 -1.7,-3.4 -2.5,-5.1 0.9,-0.3 2,-0.4 3,-0.6 2.2,-0.3 4.8,-0.6 6.2,-2.6 0.8,-1.4 1.1,-3.4 0.5,-6.1 z m -3,4.5 c -0.7,1 -2.4,1.2 -4.2,1.4 -1.9,0.2 -3.8,0.5 -5.4,1.6 -0.6,0.4 -0.7,1.2 -0.4,1.8 1,2 2.1,4.2 3.2,6.3 0.9,1.8 1.8,3.6 2.7,5.4 -0.7,0.5 -1.6,1 -2.4,1.6 -2.1,1.4 -4.7,3.2 -6.8,3.8 0.4,-3.3 -0.3,-6.4 -2,-8.3 -1.1,-1.3 -2.6,-2 -4.3,-2 -2.4,0 -4.9,1.4 -7.5,4.1 -1.5,1.6 -2.2,3.3 -2,5 0.4,3 3.4,5 5.6,6.4 0.3,0.2 0.7,0.4 1,0.7 -1.4,0.8 -2.8,1.7 -4.2,2.5 -1.4,0.8 -2.9,1.7 -4.3,2.5 -1,-1.6 -2,-3.3 -3,-4.9 -1.3,-2 -2.5,-4.1 -3.8,-6.1 -0.3,-0.4 -0.7,-0.7 -1.2,-0.7 -0.2,0 -0.4,0 -0.6,0.1 l -1.5,0.7 c -0.4,0.2 -0.7,0.5 -0.8,0.9 -0.8,2.7 -3.5,5.6 -6.1,5.6 -2.2,0 -3.5,-2.5 -4.2,-4.5 -0.6,-1.9 -0.7,-3.4 -0.1,-4.3 1.1,-1.6 4.2,-1.8 6.8,-2 0.5,0 1,-0.1 1.5,-0.1 0.3,0 0.6,-0.1 0.8,-0.3 l 0.3,-0.3 c 0.2,-0.2 0.4,-0.3 0.5,-0.5 0.5,-0.4 0.6,-1.1 0.3,-1.7 -1.1,-2.1 -2.3,-4.2 -3.4,-6.4 -1,-1.8 -1.9,-3.5 -2.8,-5.3 1.6,-0.9 3.2,-1.9 4.9,-2.9 1.5,-0.9 3,-1.8 4.4,-2.6 0.3,0.8 0.3,1.9 0.3,3 0.1,2.8 0.2,7.1 6.2,7.1 l 0.3,0 c 3.2,-0.1 6.4,-2.3 7.9,-5.4 1.3,-2.8 1.1,-5.7 -0.7,-8 -0.1,-0.1 -0.3,-0.3 -0.4,-0.4 -0.9,-0.5 -2,-0.8 -2.9,-1.1 -0.6,-0.1 -1.5,-0.4 -1.8,-0.6 1.8,-1 3.5,-2 5.2,-3 1.4,-0.8 2.8,-1.7 4.3,-2.5 0.1,0.2 0.3,0.5 0.4,0.8 2.8,5.5 5.1,9.8 7.8,10.8 0.5,0.2 1,0.1 1.3,-0.2 0.3,-0.3 0.7,-0.5 1,-0.8 0.3,-0.2 0.5,-0.6 0.5,-1 0.2,-3 2.7,-4.8 5.1,-4.8 2.4,0 4.1,1.7 4.7,4.7 0.4,1.8 0.4,3.1 -0.2,3.9 z"
     id="path6791"
     inkscape:connector-curvature="0" /><path
     d="M 302.9,74.2 C 301.1,67.4 295,62.6 288,62.6 c -7,0 -13.1,4.7 -14.9,11.6 -0.3,1.3 -0.5,2.6 -0.5,3.9 l 0,7 0,1.4 0,7.7 0,2.8 0,5.6 c 0,2.7 2.2,4.9 4.9,4.9 l 3.9,0 0,7.4 c 0,3.7 3,6.7 6.7,6.7 3.7,0 6.7,-3 6.7,-6.7 l 0,-7.4 3.9,0 c 2.7,0 4.9,-2.2 4.9,-4.9 l 0,-5.6 0,-2.8 0,-7.7 0,-1.5 0,-7 c -0.2,-1.3 -0.4,-2.6 -0.7,-3.8 z m -2.3,3.8 0,5.6 -2.4,0 0,-7.7 2.2,0 c 0.1,0.7 0.2,1.4 0.2,2.1 z M 288,65.4 c 5.1,0 9.7,3.1 11.6,7.7 l -2.8,0 c -0.8,0 -1.4,0.6 -1.4,1.4 l 0,12.2 c 0,0.2 -0.2,0.4 -0.4,0.4 -0.2,0 -0.3,-0.2 -0.3,-0.4 l 0,-12.2 c 0,-0.8 -0.6,-1.4 -1.4,-1.4 l -3.5,0 c -0.8,0 -1.4,0.6 -1.4,1.4 l 0,1.8 c 0,0.2 -0.2,0.4 -0.3,0.4 -0.1,0 -0.3,-0.2 -0.3,-0.4 l 0,-1.8 c 0,-0.8 -0.6,-1.4 -1.4,-1.4 l -9.8,0 c 1.7,-4.6 6.3,-7.7 11.4,-7.7 z M 275.4,78 c 0,-0.7 0.1,-1.4 0.2,-2.1 l 9.2,0 0,0.4 c 0,1.7 1.4,3.1 3.2,3.1 1.8,0 3.2,-1.4 3.2,-3.1 l 0,-0.4 0.7,0 0,7.7 -16.5,0 0,-5.6 z m 16.4,36.7 c 0,2.1 -1.7,3.9 -3.8,3.9 -2.1,0 -3.8,-1.7 -3.8,-3.9 l 0,-7.4 7.7,0 0,7.4 z m 8.8,-12.2 c 0,1.2 -0.9,2.1 -2.1,2.1 l -3.9,0 -13.3,0 -3.9,0 c -1.2,0 -2.1,-0.9 -2.1,-2.1 l 0,-5.6 25.2,0 0,5.6 z m 0,-8.4 -25.2,0 0,-7.7 16.5,0 0,0.4 c 0,1.7 1.4,3.1 3.2,3.1 1.8,0 3.2,-1.4 3.2,-3.1 l 0,-0.4 2.4,0 0,7.7 z"
     id="path6793"
     inkscape:connector-curvature="0" /><path
     d="m 180,221.8 5.2,0 c 2.3,0 4.2,-1.9 4.2,-4.2 l 0,-7 c 0,-2.3 -1.9,-4.2 -4.2,-4.2 l -5.2,0 0,-2.8 0,0 c -0.3,-4.6 -12.7,-5.9 -20,-5.9 -7.3,0 -19.7,1.2 -20,5.9 l 0,0 0,19 c 0,0.3 0,0.6 0,0.9 -6,2 -9.4,4.8 -9.4,8 0,7 15.1,10.7 29.3,10.7 14.2,0 29.3,-3.8 29.3,-10.7 0,-3.2 -3.3,-6 -9.4,-8 0,-0.3 0,-0.6 0,-0.9 l 0,-0.8 z m -10.4,8.4 -19.3,0 c -4.2,0 -7.6,-3.4 -7.6,-7.6 l 0,-15.5 c 4.1,2.1 12,2.7 17.2,2.7 5.3,0 13.1,-0.6 17.2,-2.7 l 0,15.5 c 0.1,4.2 -3.3,7.6 -7.5,7.6 z m 15.6,-21 c 0.8,0 1.4,0.6 1.4,1.4 l 0,7 c 0,0.8 -0.6,1.4 -1.4,1.4 l -5.2,0 0,-9.8 5.2,0 z m -25.3,-8.7 c 10.5,0 16.8,2.1 17.2,3.2 l 0,0 c -0.5,1.2 -6.7,3.3 -17.2,3.3 -10.5,0 -16.8,-2.1 -17.2,-3.2 l 0,0 c 0.5,-1.1 6.8,-3.3 17.2,-3.3 z m 26.6,31 c 0,3.7 -11.4,7.9 -26.5,7.9 -15.1,0 -26.5,-4.2 -26.5,-7.9 0,-1.8 2.7,-3.8 7.2,-5.3 1.5,3.9 5.3,6.8 9.7,6.8 l 19.3,0 c 1.1,0 2.2,-0.2 3.2,-0.5 -0.2,0.7 -3.4,2.3 -12.8,2.3 -3.1,0 -6.1,-0.3 -8.4,-1 -0.8,-0.2 -1.5,0.3 -1.7,1 -0.2,0.7 0.3,1.5 1,1.7 2.6,0.7 5.8,1.1 9.2,1.1 7.1,0 15.6,-0.9 15.6,-5.2 0,-0.4 -0.2,-0.8 -0.5,-1 1.9,-1.2 3.4,-3 4.2,-5.2 4.3,1.6 7,3.5 7,5.3 z"
     id="path6795"
     inkscape:connector-curvature="0" /><g
     id="g6797"
     transform="translate(0,-4)"><path
       d="m 73.6,228.2 c -1.8,0 -3.3,1.5 -3.3,3.3 0,1.8 1.5,3.3 3.3,3.3 1.8,0 3.3,-1.5 3.3,-3.3 0,-1.8 -1.5,-3.3 -3.3,-3.3 z m 0,3.7 c -0.3,0 -0.5,-0.2 -0.5,-0.5 0,-0.3 0.2,-0.5 0.5,-0.5 0.3,0 0.5,0.2 0.5,0.5 0,0.3 -0.2,0.5 -0.5,0.5 z"
       id="path6799"
       inkscape:connector-curvature="0" /><path
       d="m 73.6,194.6 c -3.9,0 -7,3.1 -7,7 l 0,44.8 c 0,3.9 3.1,7 7,7 3.9,0 7,-3.1 7,-7 l 0,-44.8 c 0,-3.9 -3.1,-7 -7,-7 z m 4.2,51.8 c 0,2.3 -1.9,4.2 -4.2,4.2 -2.3,0 -4.2,-1.9 -4.2,-4.2 l 0,-44.8 c 0,-2.3 1.9,-4.2 4.2,-4.2 2.3,0 4.2,1.9 4.2,4.2 l 0,44.8 z"
       id="path6801"
       inkscape:connector-curvature="0" /><path
       d="m 73.6,213.2 c -1.8,0 -3.3,1.5 -3.3,3.3 0,1.8 1.5,3.3 3.3,3.3 1.8,0 3.3,-1.5 3.3,-3.3 0,-1.8 -1.5,-3.3 -3.3,-3.3 z m 0,3.8 c -0.3,0 -0.5,-0.2 -0.5,-0.5 0,-0.3 0.2,-0.5 0.5,-0.5 0.3,0 0.5,0.2 0.5,0.5 0,0.3 -0.2,0.5 -0.5,0.5 z"
       id="path6803"
       inkscape:connector-curvature="0" /><path
       d="m 88.5,219.8 c 1.8,0 3.3,-1.5 3.3,-3.3 0,-1.8 -1.5,-3.3 -3.3,-3.3 -1.8,0 -3.3,1.5 -3.3,3.3 0,1.8 1.5,3.3 3.3,3.3 z m 0,-3.8 c 0.3,0 0.5,0.2 0.5,0.5 0,0.3 -0.2,0.5 -0.5,0.5 -0.3,0 -0.5,-0.2 -0.5,-0.5 0,-0.3 0.3,-0.5 0.5,-0.5 z"
       id="path6805"
       inkscape:connector-curvature="0" /><path
       d="m 103.5,202 c -3.9,0 -7,3.1 -7,7 l 0,29.9 c 0,0.8 0.2,1.6 0.4,2.4 l -1.4,-2.4 0,-33.6 c 0,-3.9 -3.1,-7 -7,-7 -3.9,0 -7,3.1 -7,7 l 0,21.6 c -0.6,1.6 -0.6,3.5 0,5.2 l 0,10.6 c 0,3.9 3.1,7 7,7 2.9,0 5.4,-1.8 6.5,-4.4 l 3.3,5.8 c 0.3,0.6 0.9,0.9 1.5,0.9 0.3,0 0.6,-0.1 0.9,-0.2 0.9,-0.5 1.1,-1.6 0.7,-2.5 l -3.3,-6 c 1.3,1.6 3.3,2.6 5.5,2.6 3.9,0 7,-3.1 7,-7 l 0,-29.9 c -0.1,-3.8 -3.3,-7 -7.1,-7 z m -15,-0.9 c 2.3,0 4.2,1.9 4.2,4.2 l 0,18.5 c -1.3,-1.1 -2.9,-1.7 -4.5,-1.7 -1.2,0 -2.4,0.3 -3.6,1 -0.1,0.1 -0.2,0.1 -0.3,0.2 l 0,-18 c 0,-2.3 1.9,-4.2 4.2,-4.2 z m 4.2,41.5 c 0,2.3 -1.9,4.2 -4.2,4.2 -2.3,0 -4.2,-1.9 -4.2,-4.2 l 0,-7 c 1.2,0.8 2.5,1.2 3.9,1.2 0.6,0 1.3,-0.1 1.9,-0.3 l 2.6,4.7 0,1.4 z m 15,-3.7 c 0,2.3 -1.9,4.2 -4.2,4.2 -2.3,0 -4.2,-1.9 -4.2,-4.2 l 0,-29.9 c 0,-2.3 1.9,-4.2 4.2,-4.2 2.3,0 4.2,1.9 4.2,4.2 l 0,29.9 z"
       id="path6807"
       inkscape:connector-curvature="0" /><path
       d="m 103.5,228.2 c -1.8,0 -3.3,1.5 -3.3,3.3 0,1.8 1.5,3.3 3.3,3.3 1.8,0 3.3,-1.5 3.3,-3.3 0,-1.8 -1.5,-3.3 -3.3,-3.3 z m 0,3.7 c -0.3,0 -0.5,-0.2 -0.5,-0.5 0,-0.3 0.2,-0.5 0.5,-0.5 0.3,0 0.5,0.2 0.5,0.5 0,0.3 -0.3,0.5 -0.5,0.5 z"
       id="path6809"
       inkscape:connector-curvature="0" /><path
       d="m 103.5,213.2 c -1.8,0 -3.3,1.5 -3.3,3.3 0,1.8 1.5,3.3 3.3,3.3 1.8,0 3.3,-1.5 3.3,-3.3 0,-1.8 -1.5,-3.3 -3.3,-3.3 z m 0,3.8 c -0.3,0 -0.5,-0.2 -0.5,-0.5 0,-0.3 0.2,-0.5 0.5,-0.5 0.3,0 0.5,0.2 0.5,0.5 0,0.3 -0.3,0.5 -0.5,0.5 z"
       id="path6811"
       inkscape:connector-curvature="0" /><path
       d="m 118.4,205.8 c -3.9,0 -7,3.1 -7,7 l 0,22.4 c 0,3.9 3.1,7 7,7 3.9,0 7,-3.1 7,-7 l 0,-22.4 c 0,-3.9 -3.1,-7 -7,-7 z m 4.2,29.4 c 0,2.3 -1.9,4.2 -4.2,4.2 -2.3,0 -4.2,-1.9 -4.2,-4.2 l 0,-22.4 c 0,-2.3 1.9,-4.2 4.2,-4.2 2.3,0 4.2,1.9 4.2,4.2 l 0,22.4 z"
       id="path6813"
       inkscape:connector-curvature="0" /><path
       d="m 118.4,213.2 c -1.8,0 -3.3,1.5 -3.3,3.3 0,1.8 1.5,3.3 3.3,3.3 1.8,0 3.3,-1.5 3.3,-3.3 0,-1.8 -1.5,-3.3 -3.3,-3.3 z m 0,3.8 c -0.3,0 -0.5,-0.2 -0.5,-0.5 0,-0.3 0.2,-0.5 0.5,-0.5 0.3,0 0.5,0.2 0.5,0.5 0,0.3 -0.2,0.5 -0.5,0.5 z"
       id="path6815"
       inkscape:connector-curvature="0" /><path
       d="m 118.4,228.2 c -1.8,0 -3.3,1.5 -3.3,3.3 0,1.8 1.5,3.3 3.3,3.3 1.8,0 3.3,-1.5 3.3,-3.3 0,-1.8 -1.5,-3.3 -3.3,-3.3 z m 0,3.7 c -0.3,0 -0.5,-0.2 -0.5,-0.5 0,-0.3 0.2,-0.5 0.5,-0.5 0.3,0 0.5,0.2 0.5,0.5 0,0.3 -0.2,0.5 -0.5,0.5 z"
       id="path6817"
       inkscape:connector-curvature="0" /></g><g
     id="g6819"
     transform="translate(0,-4)"><path
       d="m 32,218.6 c -3,0 -5.4,2.4 -5.4,5.4 0,3 2.4,5.4 5.4,5.4 3,0 5.4,-2.4 5.4,-5.4 0,-3 -2.4,-5.4 -5.4,-5.4 z m 0,8 c -1.4,0 -2.6,-1.2 -2.6,-2.6 0,-1.4 1.2,-2.6 2.6,-2.6 1.4,0 2.6,1.2 2.6,2.6 0,1.4 -1.2,2.6 -2.6,2.6 z"
       id="path6821"
       inkscape:connector-curvature="0" /><path
       d="m 32,194.6 c -16.2,0 -29.4,13.2 -29.4,29.4 0,16.2 13.2,29.4 29.4,29.4 3,0 5.4,-2.4 5.4,-5.4 0,-3 -2.4,-5.4 -5.4,-5.4 -10.3,0 -18.6,-8.3 -18.6,-18.6 0,-10.3 8.3,-18.6 18.6,-18.6 10.3,0 18.6,8.3 18.6,18.6 l 0,4 c 0,1.4 -1.2,2.6 -2.6,2.6 -1.4,0 -2.6,-1.2 -2.6,-2.6 l 0,-12 c 0,-3 -2.4,-5.4 -5.4,-5.4 -1.1,0 -2.2,0.3 -3.1,1 -1.6,-0.6 -3.2,-1 -4.9,-1 -7.4,0 -13.4,6 -13.4,13.4 0,7.4 6,13.4 13.4,13.4 1.9,0 3.7,-0.4 5.4,-1.2 2.5,3.3 6.4,5.2 10.6,5.2 7,0 12.9,-5.5 13.4,-12.4 0,-0.3 0,-0.6 0,-0.9 l 0,-0.1 C 61.4,208.6 49,194.6 32,194.6 Z m 26.6,34.1 c -0.4,5.5 -5,9.9 -10.6,9.9 -3.6,0 -7,-1.8 -8.9,-4.9 l -0.7,-1.1 -1.2,0.7 c -1.6,0.9 -3.4,1.4 -5.2,1.4 -5.8,0 -10.6,-4.8 -10.6,-10.6 0,-5.8 4.8,-10.6 10.6,-10.6 1.6,0 3.1,0.4 4.6,1 l 0.9,0.4 0.7,-0.7 c 0.5,-0.5 1.1,-0.8 1.8,-0.8 1.4,0 2.6,1.2 2.6,2.6 l 0,12 c 0,3 2.4,5.4 5.4,5.4 3,0 5.4,-2.4 5.4,-5.4 l 0,-4 c 0,-11.8 -9.6,-21.4 -21.4,-21.4 -11.8,0 -21.4,9.6 -21.4,21.4 0,11.8 9.6,21.4 21.4,21.4 1.4,0 2.6,1.2 2.6,2.6 0,1.4 -1.2,2.6 -2.6,2.6 -14.7,0 -26.6,-11.9 -26.6,-26.6 0,-14.7 11.9,-26.6 26.6,-26.6 15.6,0 26.6,12.6 26.6,30.6 l 0,0.1 c 0,0.2 0,0.4 0,0.6 z"
       id="path6823"
       inkscape:connector-curvature="0" /></g></svg>