<?xml version="1.0" encoding="utf-8"?>
<!-- Generator: Adobe Illustrator 18.1.1, SVG Export Plug-In . SVG Version: 6.00 Build 0)  -->
<!DOCTYPE svg PUBLIC "-//W3C//DTD SVG 1.1//EN" "http://www.w3.org/Graphics/SVG/1.1/DTD/svg11.dtd">
<svg version="1.1" id="Layer_1" xmlns="http://www.w3.org/2000/svg" xmlns:xlink="http://www.w3.org/1999/xlink" x="0px" y="0px"
	 viewBox="0 0 320 320" enable-background="new 0 0 320 320" xml:space="preserve">
<g>
	<line fill="none" stroke="#1A95FC" stroke-width="3" stroke-miterlimit="10" x1="2" y1="17.3" x2="62" y2="17.3"/>
	<path fill="none" stroke="#1A95FC" stroke-width="3" stroke-linecap="round" stroke-miterlimit="10" d="M41.4,41.2
		c1.1-2,4-2.8,6.1-1.8c2.1,1,3.3,3.5,2.9,5.8c-0.4,2.3-2.3,4.2-4.5,4.8c-2.2,0.6-4.7,0-6.5-1.5c-1-0.8-1.9-1.9-2.3-3.1
		c-0.7-1.9-0.5-4.1,0.5-5.8c1-1.7,2.9-3,4.9-3.2"/>
	
		<line fill="none" stroke="#1A95FC" stroke-width="3" stroke-linecap="round" stroke-miterlimit="10" x1="13.8" y1="2.2" x2="13.8" y2="11.2"/>
	
		<line fill="none" stroke="#1A95FC" stroke-width="3" stroke-linecap="round" stroke-miterlimit="10" x1="49.8" y1="2.2" x2="49.8" y2="11.2"/>
	<path fill="none" stroke="#1A95FC" stroke-width="3" stroke-miterlimit="10" d="M59,61.8H5c-1.7,0-3-1.4-3-3V8.7c0-1.7,1.4-3,3-3
		h54c1.7,0,3,1.4,3,3v50.1C62,60.5,60.7,61.8,59,61.8z"/>
</g>
<g>
	<path fill="none" stroke="#1A95FC" stroke-width="3" stroke-linejoin="round" stroke-miterlimit="10" d="M80.4,3.7
		c-4.8,0-9.5-0.6-14-1.7v21.1c0,7.6,6.5,13.9,14,13.9c7.5,0,14-6.3,14-13.9V2C89.4,3.1,85.3,3.7,80.4,3.7z"/>
	<path fill="none" stroke="#1A95FC" stroke-width="3" stroke-linecap="round" stroke-miterlimit="10" d="M78,15.1
		c-0.8-0.7-1.8-1-2.9-1c-1.1,0-2.1,0.3-2.9,1"/>
	<path fill="none" stroke="#1A95FC" stroke-width="3" stroke-linejoin="round" stroke-miterlimit="10" d="M71.9,14.1
		c0-1.8,1.4-3.2,3.2-3.2s3.2,1.4,3.2,3.2l-1-0.6l-2.2-0.1l-2.3,0.2L71.9,14.1z"/>
	<path fill="none" stroke="#1A95FC" stroke-width="3" stroke-linecap="round" stroke-miterlimit="10" d="M88.7,15.1
		c-0.8-0.7-1.8-1-2.9-1c-1.1,0-2.1,0.3-2.9,1"/>
	<path fill="none" stroke="#1A95FC" stroke-width="3" stroke-linejoin="round" stroke-miterlimit="10" d="M82.6,14.1
		c0-1.8,1.4-3.2,3.2-3.2s3.2,1.4,3.2,3.2l-1-0.6l-2.2-0.1l-2.3,0.2L82.6,14.1z"/>
	<path fill="none" stroke="#1A95FC" stroke-width="3" stroke-linecap="round" stroke-miterlimit="10" d="M72.4,24.2
		c2.2,1.8,5,2.7,8.1,2.7s5.8-0.9,8.1-2.7"/>
	<path fill="none" stroke="#1A95FC" stroke-width="3" stroke-linejoin="round" stroke-miterlimit="10" d="M111.6,28.7
		c-4.8,0-9.5-0.6-14-1.7v21.1c0,7.6,6.5,13.9,14,13.9c7.5,0,14-6.3,14-13.9V27C120.5,28.1,116.5,28.7,111.6,28.7z"/>
	<path fill="none" stroke="#1A95FC" stroke-width="3" stroke-linecap="round" stroke-miterlimit="10" d="M114,37.5
		c0.8,0.7,1.8,1,2.9,1s2.1-0.3,2.9-1"/>
	<path fill="none" stroke="#1A95FC" stroke-width="3" stroke-linejoin="round" stroke-miterlimit="10" d="M120.1,38.5
		c0,1.8-1.4,3.2-3.2,3.2s-3.2-1.4-3.2-3.2l1,0.6l2.2,0.1l2.3-0.2L120.1,38.5z"/>
	<path fill="none" stroke="#1A95FC" stroke-width="3" stroke-linecap="round" stroke-miterlimit="10" d="M103.3,37.5
		c0.8,0.7,1.8,1,2.9,1s2.1-0.3,2.9-1"/>
	<path fill="none" stroke="#1A95FC" stroke-width="3" stroke-linejoin="round" stroke-miterlimit="10" d="M109.4,38.5
		c0,1.8-1.4,3.2-3.2,3.2s-3.2-1.4-3.2-3.2l1,0.6l2.2,0.1l2.3-0.2L109.4,38.5z"/>
	<path fill="none" stroke="#1A95FC" stroke-width="3" stroke-linecap="round" stroke-miterlimit="10" d="M119.6,51.9
		c-2.2-1.8-5-2.7-8.1-2.7s-5.8,0.9-8.1,2.7"/>
</g>
<g>
	<path fill="none" stroke="#1A95FC" stroke-width="3" stroke-linecap="round" stroke-linejoin="round" stroke-miterlimit="10" d="
		M180.3,12h2c1.8,0,3.3,1.3,3.3,3l4.4,38.3c0,1.6-1.5,3-3.3,3h-53.4c-1.8,0-3.3-1.3-3.3-3l4.4-38.3c0-1.6,1.5-3,3.3-3h2.2"/>
	<path fill="none" stroke="#1A95FC" stroke-width="3" stroke-linecap="round" stroke-miterlimit="10" d="M154.9,10.3
		c1.1,0.4,2.2,0.9,3.2,1.5c1.1,0.7,2.5,0.7,3.6,0c2.6-1.5,5.6-2.3,8.8-2.3c3.4,0,6.6,0.9,9.2,2.6c0.8,0.5,1.4,1.4,1.5,2.4L185,48
		c0.3,2.5-2.1,4.4-4.4,3.5c-2.4-0.9-5-1.4-7.7-1.4c-4,0-7.8,1-11,3c-1.1,0.7-2.6,0.7-3.7,0c-3.2-2-7-3-11-3c-2.7,0-5.3,0.5-7.7,1.4
		c-2.3,0.9-4.7-1-4.4-3.5l3.6-33.5c0.1-1,0.7-1.9,1.5-2.4c1.3-0.9,2.7-1.5,4.2-1.9"/>
	
		<line fill="none" stroke="#1A95FC" stroke-width="3" stroke-linecap="round" stroke-miterlimit="10" x1="159.5" y1="18" x2="159.5" y2="52"/>
	<path fill="none" stroke="#1A95FC" stroke-width="3" stroke-linecap="round" stroke-miterlimit="10" d="M151.9,26.4l-2.4-2.8
		c-0.4-0.4-1-0.5-1.4-0.1l-2.8,2.4c-0.7,0.6-1.7,0.1-1.7-0.8l1.1-16.5c0-0.6,0.5-1,1.1-0.9l8,0.5c0.6,0,1,0.5,0.9,1.1l-1.1,16.5
		C153.6,26.7,152.5,27.1,151.9,26.4z"/>
</g>
<g>
	
		<line fill="none" stroke="#1A95FC" stroke-width="3" stroke-linecap="round" stroke-linejoin="round" stroke-miterlimit="10" x1="200.1" y1="2" x2="200.1" y2="62"/>
	<path fill="none" stroke="#1A95FC" stroke-width="3" stroke-linecap="round" stroke-linejoin="round" stroke-miterlimit="10" d="
		M201.2,34.6c0,1.4,0.9,2.7,2.3,3c3.1,0.9,9.5,1.6,19.8-2.2c8.7-3.2,16-1.7,20.3-0.1c2.1,0.8,4.3-0.7,4.3-2.9V7.8
		c0-1.2-0.6-2.2-1.7-2.8c-3.5-1.8-12-5.1-22.9-1.1c-8.9,3.3-14.9,3.2-18.4,2.5c-1.9-0.4-3.8,1.1-3.8,3.1V34.6z"/>
</g>
<g>
	<g>
		<path fill="none" stroke="#1A95FC" stroke-width="3" stroke-linecap="round" stroke-linejoin="round" stroke-miterlimit="10" d="
			M307.8,17.5l-14.1,14.1l-5.1,5.1l-23.8,23.8l-0.5,0.5c-1.4,1.4-3.7,1.4-5.1,0s-1.4-3.7,0-5.1l0.5-0.5l23.8-23.8l5.1-5.1l14.1-14.1
			"/>
		
			<rect x="295.9" y="20.7" transform="matrix(0.7072 0.707 -0.707 0.7072 102.2954 -205.6873)" fill="none" stroke="#1A95FC" stroke-width="3" stroke-linecap="round" stroke-linejoin="round" stroke-miterlimit="10" width="7.2" height="0"/>
		<path fill="none" stroke="#1A95FC" stroke-width="3" stroke-linecap="round" stroke-linejoin="round" stroke-miterlimit="10" d="
			M307.8,16.9c0,0,4.1-1.6,6.4-5.7c2.3-4.1,1.7-6.5,3.8-9l0,0c-2.5,2.1-4.9,1.5-9,3.8c-4.1,2.3-5.7,6.4-5.7,6.4l0,0l0,0L307.8,16.9z
			"/>
	</g>
	<g>
		
			<rect x="307.6" y="55.4" transform="matrix(0.707 -0.7072 0.7072 0.707 52.0351 236.3294)" fill="none" stroke="#1A95FC" stroke-width="3" stroke-linecap="round" stroke-linejoin="round" stroke-miterlimit="10" width="7.2" height="0"/>
		
			<rect x="302.8" y="50.6" transform="matrix(0.707 -0.7072 0.7072 0.707 54.019 231.5387)" fill="none" stroke="#1A95FC" stroke-width="3" stroke-linecap="round" stroke-linejoin="round" stroke-miterlimit="10" width="7.2" height="0"/>
		
			<line fill="none" stroke="#1A95FC" stroke-width="3" stroke-linecap="round" stroke-linejoin="round" stroke-miterlimit="10" x1="282.8" y1="32.1" x2="268.3" y2="17.5"/>
		<path fill="none" stroke="#1A95FC" stroke-width="3" stroke-linecap="round" stroke-linejoin="round" stroke-miterlimit="10" d="
			M293.1,32.1l23.3,23.3l0.5,0.5c1.4,1.4,1.4,3.7,0,5.1s-3.7,1.4-5.1,0l-0.5-0.5L288,37.3"/>
		
			<line fill="none" stroke="#1A95FC" stroke-width="3" stroke-linecap="round" stroke-linejoin="round" stroke-miterlimit="10" x1="273.4" y1="12.4" x2="287.9" y2="26.9"/>
		
			<polygon fill="none" stroke="#1A95FC" stroke-width="3" stroke-linecap="round" stroke-linejoin="round" stroke-miterlimit="10" points="
			273.5,12.4 271.2,14.7 268.5,17.4 258,1.9 		"/>
	</g>
</g>
<g>
	<path fill="none" stroke="#1A95FC" stroke-width="3" stroke-linecap="round" stroke-miterlimit="10" d="M42.5,106.7l0,18.4
		c0,0.8-1,1.2-1.5,0.6l-8.6-5c-0.3-0.3-0.9-0.3-1.3,0l-8.6,5c-0.6,0.6-1.5,0.2-1.5-0.6l0-18.4"/>
	
		<circle fill="none" stroke="#1A95FC" stroke-width="3" stroke-linecap="round" stroke-linejoin="round" stroke-miterlimit="10" cx="31.8" cy="91.6" r="17.8"/>
	<path fill="none" stroke="#1A95FC" stroke-width="3" stroke-linecap="round" stroke-linejoin="round" stroke-miterlimit="10" d="
		M32.6,82.4l2.4,4.9c0.1,0.3,0.4,0.4,0.7,0.5l5.5,0.8c0.7,0.1,1,1,0.5,1.5L37.7,94c-0.2,0.2-0.3,0.5-0.3,0.8l0.9,5.4
		c0.1,0.7-0.6,1.3-1.3,0.9l-4.9-2.6c-0.3-0.1-0.6-0.1-0.8,0l-4.9,2.6c-0.7,0.3-1.4-0.2-1.3-0.9l0.9-5.4c0-0.3,0-0.6-0.3-0.8
		l-3.9-3.8c-0.5-0.5-0.2-1.4,0.5-1.5l5.5-0.8c0.3,0,0.5-0.2,0.7-0.5l2.4-4.9C31.3,81.7,32.2,81.7,32.6,82.4z"/>
	<path fill="none" stroke="#1A95FC" stroke-width="3" stroke-linecap="round" stroke-linejoin="round" stroke-miterlimit="10" d="
		M20.9,112.1l-1.8,0.4c-1.6,0.4-3.2-0.8-3.3-2.4l-0.1-1.8c-0.1-1.2-1-2.3-2.2-2.5l-1.8-0.3c-1.7-0.3-2.6-2-2-3.6l0.6-1.7
		c0.4-1.2,0-2.5-1-3.2l-1.5-1c-1.4-0.9-1.6-2.9-0.4-4.1l1.3-1.3c0.9-0.9,1-2.2,0.4-3.3l-1-1.5c-0.9-1.4-0.3-3.3,1.3-3.9l1.7-0.7
		c1.2-0.5,1.9-1.6,1.7-2.9l-0.3-1.8c-0.2-1.7,1.1-3.1,2.8-3l1.8,0.1c1.2,0.1,2.4-0.7,2.7-1.9l0.5-1.8c0.5-1.6,2.3-2.4,3.8-1.7
		l1.6,0.8c1.1,0.6,2.5,0.3,3.3-0.7l1.2-1.4c1.1-1.3,3.1-1.3,4.1,0l1.2,1.4c0.8,1,2.1,1.3,3.2,0.7l1.6-0.8c1.5-0.7,3.3,0.1,3.8,1.7
		l0.5,1.8c0.3,1.2,1.4,2,2.7,2l1.8-0.1c1.7-0.1,3,1.4,2.7,3.1l-0.3,1.8c-0.2,1.2,0.5,2.4,1.6,2.9l1.7,0.7c1.6,0.6,2.2,2.5,1.3,3.9
		l-1,1.5c-0.7,1-0.5,2.4,0.3,3.3l1.3,1.3c1.2,1.2,0.9,3.2-0.5,4.1l-1.5,1c-1,0.7-1.5,2-1,3.2l0.6,1.7c0.6,1.6-0.4,3.3-2.1,3.6
		l-1.8,0.3c-1.2,0.2-2.2,1.2-2.2,2.5l-0.1,1.8c-0.1,1.7-1.7,2.8-3.3,2.4l-1.8-0.5"/>
</g>
<g>
	<path fill="none" stroke="#1A95FC" stroke-width="3" stroke-linecap="round" stroke-linejoin="round" stroke-miterlimit="10" d="
		M124.1,88l-26,7.6c-1.4,0.4-2.9,0.4-4.4,0l-26-7.6c-2.5-0.7-2.5-4.2,0-5l26-7.6c1.4-0.4,2.9-0.4,4.4,0l26,7.6
		C126.6,83.8,126.6,87.3,124.1,88z"/>
	<path fill="none" stroke="#1A95FC" stroke-width="3" stroke-linecap="round" stroke-miterlimit="10" d="M74.4,89.9v10.3
		c0,0.8,0.4,1.6,1,2c5.8,4.4,12.9,6.6,20.6,6.6s14.8-2.2,20.6-6.6c0.6-0.5,1-1.2,1-2V89.9"/>
	<path fill="none" stroke="#1A95FC" stroke-width="3" stroke-linecap="round" stroke-miterlimit="10" d="M95.7,85.4L81.5,91
		c-1,0.4-1.6,1.3-1.6,2.4v23.5"/>
	<path fill="none" stroke="#1A95FC" stroke-width="3" stroke-linecap="round" stroke-miterlimit="10" d="M75.6,114.8l2.1-3.8v0
		c0.9-1.7,3.3-1.7,4.2,0v0l2.1,3.8"/>
</g>
<g>
	<path fill="none" stroke="#1A95FC" stroke-width="3" stroke-linejoin="round" stroke-miterlimit="10" d="M189.3,107l-5-10.7
		c0.7-2.1,0.9-4.5-0.1-7c-1.5-4-5.2-6.5-9.4-6.5c-2.5,0-4.9,0.9-6.6,2.5h-16.4c-1.8-1.6-4-2.5-6.6-2.5c-4.1,0-7.9,2.5-9.4,6.3
		c-1,2.5-0.9,5-0.2,7.2l-5,10.7c-1.8,3.8-0.1,8.3,3.6,10c3.8,1.8,8.2,0.1,10-3.7l4.9-10.8c0.2-0.4,0.5-0.8,0.8-1.1
		c0.6-0.5,1.2-1.3,1.7-1.3h16.4c0.5,0,1.1,0.8,1.7,1.3c0.4,0.3,0.6,0.7,0.8,1.1l4.9,10.7c1.8,3.8,6.2,5.4,10,3.7
		C189.4,115.3,191,110.8,189.3,107z"/>
	<g>
		<g>
			<path fill="#1A95FC" d="M172.5,92.9c-1.2,0-2.2,1-2.2,2.2s1,2.2,2.2,2.2c1.2,0,2.2-1,2.2-2.2S173.8,92.9,172.5,92.9L172.5,92.9z"
				/>
		</g>
		<g>
			<path fill="#1A95FC" d="M177.5,88c-1.2,0-2.2,1-2.2,2.2c0,1.2,1,2.2,2.2,2.2c1.2,0,2.2-1,2.2-2.2C179.7,89,178.7,88,177.5,88
				L177.5,88z"/>
		</g>
	</g>
	<path fill="none" stroke="#1A95FC" stroke-width="3" stroke-linecap="round" stroke-linejoin="round" stroke-miterlimit="10" d="
		M171.7,74.2L171.7,74.2c-6.3,0-11.7,4.5-11.7,10.7v0.4"/>
	
		<line fill="none" stroke="#1A95FC" stroke-width="3" stroke-linecap="round" stroke-linejoin="round" stroke-miterlimit="10" x1="145" y1="88.4" x2="145" y2="96.4"/>
	
		<line fill="none" stroke="#1A95FC" stroke-width="3" stroke-linecap="round" stroke-linejoin="round" stroke-miterlimit="10" x1="149" y1="92.4" x2="141" y2="92.4"/>
</g>
<g>
	
		<circle fill="none" stroke="#1A95FC" stroke-width="3" stroke-linecap="round" stroke-linejoin="round" stroke-miterlimit="10" cx="268.6" cy="105.6" r="10.6"/>
	
		<circle fill="none" stroke="#1A95FC" stroke-width="3" stroke-linecap="round" stroke-linejoin="round" stroke-miterlimit="10" cx="307.4" cy="105.6" r="10.6"/>
	<path fill="none" stroke="#1A95FC" stroke-width="3" stroke-linecap="round" stroke-linejoin="round" stroke-miterlimit="10" d="
		M290.5,104l7.5-17.4c0.3-0.8,1.5-0.8,1.8,0l8.2,17.4c0.3,0.7-0.2,1.4-0.9,1.4h-15.6C290.7,105.4,290.2,104.7,290.5,104z"/>
	<path fill="none" stroke="#1A95FC" stroke-width="3" stroke-linecap="round" stroke-linejoin="round" stroke-miterlimit="10" d="
		M275.5,84.6h22.1c0.6,0,1,0.6,0.7,1.1l-7.9,18.4c-0.2,0.6-1,0.7-1.4,0.2l-14.2-18.4C274.4,85.4,274.8,84.6,275.5,84.6z"/>
	
		<line fill="none" stroke="#1A95FC" stroke-width="3" stroke-linecap="round" stroke-linejoin="round" stroke-miterlimit="10" x1="268.6" y1="105.4" x2="274.4" y2="77.6"/>
	
		<line fill="none" stroke="#1A95FC" stroke-width="2.9551" stroke-linecap="round" stroke-linejoin="round" stroke-miterlimit="10" x1="289.9" y1="104.6" x2="300.7" y2="80.3"/>
	<path fill="none" stroke="#1A95FC" stroke-width="3" stroke-linecap="round" stroke-linejoin="round" stroke-miterlimit="10" d="
		M267.8,84c-1.8,0-3.2-1.4-3.2-3.2s1.4-3.2,3.2-3.2h6.3"/>
	<path fill="none" stroke="#1A95FC" stroke-width="3" stroke-miterlimit="10" d="M291.5,78.4c-0.7,0-1.3-0.6-1.3-1.3
		c0-0.7,0.6-1.3,1.3-1.3h12.1c1.4,0,2.6,1.1,2.6,2.6c0,1.4-1.1,2.6-2.6,2.6L291.5,78.4z"/>
</g>
<g>
	<path fill="none" stroke="#1A95FC" stroke-width="3" stroke-linecap="round" stroke-linejoin="round" stroke-miterlimit="10" d="
		M2,153l28,29.8c1.3,1.4,3.5,1.4,4.8,0l26.3-28c1-1.1,1.2-2.7,0.4-3.9l-7.9-13.4c-0.6-1-1.7-1.4-2.8-1.4H14c-1.2,0-2.2,0.4-2.8,1.4
		L2,153"/>
	<line fill="none" stroke="#1A95FC" stroke-width="3" stroke-miterlimit="10" x1="3.3" y1="153.5" x2="61.9" y2="153.5"/>
	<g>
		
			<line fill="none" stroke="#1A95FC" stroke-width="3" stroke-linecap="round" stroke-miterlimit="10" x1="20.3" y1="153.4" x2="32.5" y2="182.8"/>
		
			<line fill="none" stroke="#1A95FC" stroke-width="3" stroke-linecap="round" stroke-miterlimit="10" x1="44.6" y1="153.4" x2="32.5" y2="182.8"/>
	</g>
	<g>
		<line fill="none" stroke="#1A95FC" stroke-width="3" stroke-miterlimit="10" x1="44.6" y1="152.4" x2="32.5" y2="136.1"/>
		<line fill="none" stroke="#1A95FC" stroke-width="3" stroke-miterlimit="10" x1="20.3" y1="152.4" x2="32.5" y2="136.1"/>
	</g>
	<line fill="none" stroke="#1A95FC" stroke-width="3" stroke-miterlimit="10" x1="52.7" y1="136.1" x2="44.6" y2="152.4"/>
	<line fill="none" stroke="#1A95FC" stroke-width="3" stroke-miterlimit="10" x1="12.2" y1="136.1" x2="20.2" y2="152.4"/>
</g>
<g>
	<ellipse fill="none" stroke="#1A95FC" stroke-width="3" stroke-miterlimit="10" cx="95.9" cy="142.7" rx="20" ry="5"/>
	<g>
		<path fill="none" stroke="#1A95FC" stroke-width="3" stroke-miterlimit="10" d="M115.9,142.5v20.4c0,5.3-4.3,9.6-9.6,9.6H85.6
			c-5.3,0-9.6-4.3-9.6-9.6v-20.4"/>
	</g>
	<g>
		<path fill="none" stroke="#1A95FC" stroke-width="3" stroke-miterlimit="10" d="M115.9,147h7.1c1.7,0,3,1.3,3,3v7.5
			c0,1.6-1.3,3-3,3h-7.1"/>
	</g>
	<g>
		<path fill="none" stroke="#1A95FC" stroke-width="3" stroke-linecap="round" stroke-miterlimit="10" d="M111.2,173.3
			c0,2.8-6.8,4.1-15.3,4.1c-3.6,0-6.8-0.4-9.4-1.1"/>
		<path fill="none" stroke="#1A95FC" stroke-width="3" stroke-miterlimit="10" d="M115.9,164.9c6.1,1.8,10,4.5,10,7.5
			c0,5.5-13.4,10-29.9,10s-29.9-4.5-29.9-10c0-3,3.9-5.6,10-7.5"/>
	</g>
</g>
<g>
	<g id="_x39_73-user_x40_2x.png">
		<g>
			<path fill="none" stroke="#1A95FC" stroke-width="3" stroke-miterlimit="10" d="M170,167.6c-1.8-0.8-2.9-1.8-3.2-3.1
				c-0.6-2.3,1.5-4.8,1.4-4.8c0.2-0.2,3.5-3.6,3.5-11.5c0-6-1.2-13.9-11.8-13.9c-10.6,0-11.8,7.9-11.8,13.9c0,7.9,3.4,11.3,3.5,11.4
				c0,0,2.1,2.6,1.5,4.8c-0.3,1.3-1.4,2.3-3.2,3.1c-12.3,3.8-20,8.3-20,11.7v4.3c0,1.4,1.1,2.1,2.1,2.1h55.7c1,0,2.1-0.8,2.1-2.1
				v-4.3C190,175.9,182.3,171.4,170,167.6z"/>
		</g>
	</g>
	<g>
		<path fill="none" stroke="#1A95FC" stroke-width="3" stroke-linecap="round" stroke-miterlimit="10" d="M154,152.2
			c1.7,1.4,3.8,2.1,6,2.1s4.4-0.7,6-2.1"/>
	</g>
</g>
<g>
	
		<circle fill="none" stroke="#1A95FC" stroke-width="3" stroke-linecap="round" stroke-miterlimit="10" cx="224" cy="151.1" r="10.6"/>
	<path fill="none" stroke="#1A95FC" stroke-width="3" stroke-miterlimit="10" d="M245.1,151.1c0-11.7-9.4-21.1-21.1-21.1
		s-21.1,9.4-21.1,21.1c0,4.4,1.3,8.4,3.6,11.8c0,0,0,0.1,0.1,0.1l7.2,12.6l7.1,12.5c1.4,2.5,5,2.5,6.5,0l7.1-12.5l7.2-12.6
		c0,0,0-0.1,0.1-0.1C243.8,159.5,245.1,155.5,245.1,151.1z"/>
</g>
<g>
	<path fill="none" stroke="#1A95FC" stroke-width="3" stroke-miterlimit="10" d="M313.2,176l-2.5,0.9c-0.9,0.3-1.5,1.1-1.6,2
		l-0.4,2.6c-0.2,1.2-1.2,2.1-2.5,2.1l-2.4,0c-1.1,0-2.1,0.6-2.7,1.6l-1.1,2.1c-0.6,1.1-1.9,1.6-3.1,1.1l-2.2-0.8
		c-1-0.4-2.2-0.2-3,0.6l-1.5,1.3c-1.1,1-2.8,1-3.9,0l-1.5-1.3c-0.8-0.7-2-0.9-3-0.5l-1.8,0.7c-1.4,0.5-3,0-3.7-1.3l-0.9-1.6
		c-0.5-1-1.6-1.6-2.7-1.5l-2.4,0.1c-1.2,0-2.3-0.8-2.5-2.1l-0.4-2.6c-0.1-0.9-0.8-1.6-1.7-1.9l-2.6-0.8c-1.2-0.4-1.9-1.6-1.7-2.8
		l0.4-2.3c0.2-1.1-0.2-2.2-1.1-2.9l-1.4-1.1c-1.2-0.9-1.5-2.6-0.7-3.9l0.9-1.5c0.6-1,0.6-2.2,0-3.1l-0.9-1.5c-0.8-1.3-0.5-3,0.7-3.9
		l1.4-1.1c0.9-0.7,1.3-1.8,1.1-3l-0.5-2.3c-0.2-1.2,0.4-2.4,1.6-2.8l2.5-0.9c0.9-0.3,1.5-1.1,1.6-2l0.4-2.6c0.2-1.2,1.2-2.1,2.5-2.1
		l2.4,0c1.1,0,2.1-0.6,2.7-1.6l1.1-2.1c0.6-1.1,1.9-1.6,3.1-1.1l2.2,0.8c1,0.4,2.2,0.2,3-0.6l1.5-1.3c1.1-1,2.8-1,3.9,0l1.5,1.3
		c0.8,0.7,2,0.9,3,0.5l1.8-0.7c1.4-0.5,3,0,3.7,1.3l0.9,1.6c0.5,1,1.6,1.6,2.7,1.5l2.4-0.1c1.2,0,2.3,0.8,2.5,2.1l0.4,2.6
		c0.1,0.9,0.8,1.6,1.7,1.9l2.6,0.8c1.2,0.4,1.9,1.6,1.7,2.8l-0.4,2.3c-0.2,1.1,0.2,2.2,1.1,2.9l1.4,1.1c1.2,0.9,1.5,2.6,0.7,3.9
		l-0.9,1.5c-0.6,1-0.6,2.2,0,3.1l0.9,1.5c0.8,1.3,0.5,3-0.7,3.9l-1.4,1.1c-0.9,0.7-1.3,1.8-1.1,3l0.5,2.3
		C315.1,174.4,314.4,175.6,313.2,176z"/>
	<g>
		<path fill="none" stroke="#1A95FC" stroke-width="3" stroke-linejoin="round" stroke-miterlimit="10" d="M279.2,151.7
			c0,0.9,0.4,1.6,1.2,2.1c0-0.1,0-0.3,0-0.5c0-0.5,0.2-0.9,0.5-1.2c0.3-0.3,0.8-0.5,1.3-0.5c1.5,0,2.2,0.7,2.2,2.2
			c0,1-0.4,1.8-1.1,2.4c-0.8,0.6-1.7,1-2.8,1c-1.5,0-2.7-0.5-3.6-1.5c-0.9-1-1.4-2.2-1.4-3.8c0-2.8,1.2-5.1,3.6-6.9
			c2.4-1.8,5.4-2.7,9.2-2.7c3.7,0,6.7,0.9,8.9,2.6c2.2,1.7,3.4,4,3.4,6.8c0,3.6-1.8,6.2-5.3,8c-0.6,0.3-1.4,0.6-2.3,1
			c-2,0.8-3.3,1.6-4,2.4c-0.7,0.8-1.1,1.8-1.1,3c0,0.9-0.1,1.6-0.2,1.9c-0.3,0.5-0.8,0.7-1.6,0.7c-1.4,0-2.1-0.9-2.1-2.6
			c0-1.6,0.4-3,1.2-4.1c1-1.4,2.8-2.8,5.5-4.2c2.4-1.3,3.9-2.3,4.6-3.1c0.7-0.8,1-1.9,1-3.2c0-1.8-0.7-3.3-2.2-4.4
			c-1.5-1.1-3.5-1.7-5.9-1.7c-2.5,0-4.6,0.6-6.3,1.8C280.1,148.5,279.2,150,279.2,151.7z M286.4,177.6c-0.9,0-1.6-0.3-2.2-0.9
			c-0.6-0.6-0.9-1.4-0.9-2.2c0-0.9,0.3-1.6,0.9-2.2c0.6-0.6,1.4-0.9,2.2-0.9c0.9,0,1.6,0.3,2.2,0.9c0.6,0.6,0.9,1.4,0.9,2.2
			c0,0.9-0.3,1.6-0.9,2.2C288,177.3,287.3,177.6,286.4,177.6z"/>
	</g>
</g>
<g>
	
		<circle fill="none" stroke="#1A95FC" stroke-width="3.2575" stroke-linecap="round" stroke-miterlimit="10" cx="12.9" cy="243.7" r="10.3"/>
	
		<path fill="none" stroke="#1A95FC" stroke-width="3.2575" stroke-linecap="round" stroke-linejoin="round" stroke-miterlimit="10" d="
		M23.3,243.7v-39.4c0-1.5,1.1-2.8,2.6-3.2l31.6-7c2-0.5,4,1.1,4,3.2v37.9"/>
	
		<circle fill="none" stroke="#1A95FC" stroke-width="3.2575" stroke-linecap="round" stroke-miterlimit="10" cx="51.1" cy="235.2" r="10.3"/>
	
		<line fill="none" stroke="#1A95FC" stroke-width="3.2575" stroke-linecap="round" stroke-linejoin="round" stroke-miterlimit="10" x1="24" y1="213.8" x2="60.3" y2="205.4"/>
</g>
<g>
	<path fill="none" stroke="#1A95FC" stroke-width="3" stroke-linecap="round" stroke-miterlimit="10" d="M126,247.1
		c0.3,2.9-2.6,5.2-5.3,4.2c-2.9-1.1-6-1.6-9.2-1.6c-4.8,0-9.4,1.2-13.2,3.6c-1.4,0.9-3.1,0.9-4.4,0c-3.8-2.4-8.4-3.6-13.2-3.6
		c-3.3,0-6.4,0.5-9.2,1.6c-2.8,1.1-5.7-1.2-5.3-4.2l4.4-21.2c0.1-1.2,0.8-2.3,1.8-2.9c3.2-2.1,7-3.1,11.1-3.1
		c3.8,0,7.4,0.9,10.5,2.8c1.3,0.8,3,0.8,4.3,0c3.1-1.9,6.7-2.8,10.5-2.8c4.1,0,7.9,1,11.1,3.1c1,0.6,1.6,1.7,1.8,2.9L126,247.1z"/>
	<g>
		<path fill="none" stroke="#1A95FC" stroke-width="3" stroke-linecap="round" stroke-miterlimit="10" d="M75.7,229.4
			c2.2-1.5,4.9-2.2,7.7-2.2c2.7,0,5.2,0.6,7.3,1.9"/>
		<path fill="none" stroke="#1A95FC" stroke-width="3" stroke-linecap="round" stroke-miterlimit="10" d="M74.7,236.5
			c2.4-1.6,5.2-2.3,8.2-2.3c2.8,0,5.5,0.7,7.8,2.1"/>
		<path fill="none" stroke="#1A95FC" stroke-width="3" stroke-linecap="round" stroke-miterlimit="10" d="M73.7,243.7
			c2.5-1.6,5.5-2.5,8.7-2.5c3,0,5.8,0.7,8.3,2.2"/>
		<path fill="none" stroke="#1A95FC" stroke-width="3" stroke-linecap="round" stroke-miterlimit="10" d="M101.3,229.5
			c2.2-1.5,4.9-2.2,7.7-2.2c2.7,0,5.2,0.6,7.3,1.9"/>
		<path fill="none" stroke="#1A95FC" stroke-width="3" stroke-linecap="round" stroke-miterlimit="10" d="M101.3,236.6
			c2.4-1.6,5.2-2.3,8.2-2.3c2.8,0,5.5,0.7,7.8,2.1"/>
		<path fill="none" stroke="#1A95FC" stroke-width="3" stroke-linecap="round" stroke-miterlimit="10" d="M101.3,243.8
			c2.5-1.6,5.5-2.5,8.7-2.5c3,0,5.8,0.7,8.3,2.2"/>
	</g>
	
		<line fill="none" stroke="#1A95FC" stroke-width="3" stroke-linecap="round" stroke-miterlimit="10" x1="95.9" y1="230.1" x2="95.9" y2="252.1"/>
	<path fill="none" stroke="#1A95FC" stroke-width="3" stroke-linecap="round" stroke-miterlimit="10" d="M81.1,219.2
		c0-8.3,6.7-15,15-15s15,6.7,15,15"/>
	<g>
		<g>
			<path fill="#1A95FC" d="M75.4,208c-0.7,0-1.3,0.4-1.6,1c-0.4,0.9,0,1.9,0.9,2.2L79,213c0.3-1.1,0.8-2.1,1.3-3.1l-4.2-1.8
				C75.8,208,75.6,208,75.4,208L75.4,208z"/>
		</g>
		<g>
			<path fill="#1A95FC" d="M117.1,208.1c-0.2,0-0.4,0-0.6,0.1l-4.3,1.7c0.5,1,1,2,1.3,3.1l4.2-1.7c0.9-0.4,1.3-1.3,0.9-2.2
				C118.4,208.5,117.8,208.1,117.1,208.1L117.1,208.1z"/>
		</g>
		<g>
			<path fill="#1A95FC" d="M78.2,217.1L78.2,217.1L78.2,217.1z M78.2,217.1h-4.6c-0.9,0-1.7,0.6-1.7,1.5s0.8,1.5,1.7,1.5h4.6
				c-0.1-0.6-0.1-0.9-0.1-1.5S78.2,217.1,78.2,217.1L78.2,217.1z"/>
		</g>
		<g>
			<path fill="#1A95FC" d="M87.5,195.8c-0.2,0-0.4,0-0.6,0.1c-0.9,0.4-1.2,1.3-0.9,2.2l1.8,4.3c0.9-0.5,1.9-0.9,3-1.2l-1.7-4.3
				C88.8,196.2,88.2,195.8,87.5,195.8L87.5,195.8z"/>
		</g>
		<g>
			<path fill="#1A95FC" d="M80.2,200.7c-0.4,0-0.9,0.2-1.2,0.5c-0.7,0.7-0.7,1.7,0,2.4l3.3,3.3c0.7-0.9,1.5-1.7,2.4-2.4l-3.3-3.3
				C81.1,200.9,80.7,200.7,80.2,200.7L80.2,200.7z"/>
		</g>
		<g>
			<path fill="#1A95FC" d="M112.2,200.7c-0.4,0-0.9,0.2-1.2,0.5l-3.2,3.2c0.9,0.7,1.7,1.5,2.4,2.4l3.2-3.2c0.7-0.7,0.7-1.7,0-2.4
				C113,200.9,112.6,200.7,112.2,200.7L112.2,200.7z"/>
		</g>
		<g>
			<path fill="#1A95FC" d="M104.9,195.9c-0.7,0-1.4,0.4-1.7,1l-1.8,4.2c1.2,0.3,2.3,0.8,3.3,1.4l1.8-4.2c0.4-0.9,0-1.9-0.9-2.2
				C105.3,195.9,105.1,195.9,104.9,195.9L104.9,195.9z"/>
		</g>
		<g>
			<path fill="#1A95FC" d="M95.9,194.1c-0.9,0-1.5,0.8-1.5,1.7v4.6c0-0.1,1.1-0.1,1.8-0.1c0.5,0,1.2,0,1.2,0.1v-4.6
				C97.4,194.9,96.9,194.1,95.9,194.1L95.9,194.1z"/>
		</g>
		<g>
			<path fill="#1A95FC" d="M118.8,217.1h-4.6c0.1,0,0.1,0.9,0.1,1.5s0,0.9-0.1,1.5h4.6c0.9,0,1.7-0.6,1.7-1.5
				S119.7,217.1,118.8,217.1L118.8,217.1z"/>
		</g>
	</g>
</g>
<g>
	<path fill="none" stroke="#1A95FC" stroke-width="3" stroke-miterlimit="10" d="M187,250.1h-54c-1.6,0-3-1.3-3-3v-44
		c0-1.6,1.4-3,3-3h54c1.6,0,3,1.4,3,3v44C190,248.7,188.6,250.1,187,250.1z"/>
	<path fill="none" stroke="#1A95FC" stroke-width="3" stroke-miterlimit="10" d="M184.3,213.5h-10.9c-0.3,0-0.6-0.3-0.6-0.6V205
		c0-0.3,0.3-0.6,0.6-0.6h10.9c0.3,0,0.6,0.3,0.6,0.6v7.9C184.9,213.2,184.7,213.5,184.3,213.5z"/>
	<path fill="none" stroke="#1A95FC" stroke-width="3" stroke-miterlimit="10" d="M151.7,200.1h-11.4c-0.2,0-0.3-0.1-0.3-0.3v-1.6
		c0-0.2,0.1-0.3,0.3-0.3h11.4c0.2,0,0.3,0.1,0.3,0.3v1.6C152,199.9,151.9,200.1,151.7,200.1z"/>
	<line fill="none" stroke="#1A95FC" stroke-width="3" stroke-miterlimit="10" x1="130.6" y1="217.8" x2="148.6" y2="217.8"/>
	<line fill="none" stroke="#1A95FC" stroke-width="2.9521" stroke-miterlimit="10" x1="171.2" y1="217.8" x2="190" y2="217.8"/>
	<circle fill="none" stroke="#1A95FC" stroke-width="3" stroke-miterlimit="10" cx="160" cy="229.2" r="16.4"/>
	<circle fill="none" stroke="#1A95FC" stroke-width="3" stroke-miterlimit="10" cx="160" cy="229.2" r="8.2"/>
</g>
<g>
	<g>
		
			<path fill="none" stroke="#1A95FC" stroke-width="2.9498" stroke-linecap="round" stroke-linejoin="round" stroke-miterlimit="10" d="
			M253.5,211.5c0.1-1.3-0.9-2.4-2.2-2.4l-6.2,0c0,0-4.8,0-6-5.2c-1-4.1-1.8-6.9-6.8-6.9c-1.3,0-2.8,0-4.3,0c0,0-3.9,0-7.9,0
			c-1.5,0-3,0-4.3,0c-5,0-5.8,2.9-6.8,6.9c-1.3,5.2-6,5.2-6,5.2l-6.2,0c-1.3,0-2.3,1.1-2.2,2.4l0.9,16c0,0.1,0,0.1,0,0.2l-0.9,21
			c-0.1,1.3,1,2.3,2.2,2.3h54.5c1.3,0,2.3-1.1,2.2-2.3l-0.9-21.1c0-0.1,0-0.1,0-0.2L253.5,211.5z M220.1,203.1h7.7
			c1.1,0,2.1,0.8,2.2,1.9c0.1,1.2-0.9,2.3-2.1,2.3h-7.7c-1,0-2.1-0.8-2.2-1.9C217.9,204.2,218.9,203.1,220.1,203.1z"/>
	</g>
</g>
<g>
	<g>
		
			<circle fill="none" stroke="#1A95FC" stroke-width="3" stroke-linecap="round" stroke-miterlimit="10" cx="288" cy="242.6" r="11.4"/>
	</g>
	
		<line fill="none" stroke="#1A95FC" stroke-width="3" stroke-linecap="round" stroke-miterlimit="10" x1="281.2" y1="228.1" x2="294.8" y2="228.1"/>
	
		<line fill="none" stroke="#1A95FC" stroke-width="3" stroke-linecap="round" stroke-miterlimit="10" x1="288" y1="228.5" x2="288" y2="230.4"/>
	<g>
		<g>
			<path fill="none" stroke="#1A95FC" stroke-width="3" stroke-linecap="round" stroke-linejoin="round" stroke-miterlimit="10" d="
				M293.2,227.1l15.8-27.4c0.7-1.2,0.3-2.7-0.9-3.4l-3.6-2.1c-1.2-0.7-2.7-0.3-3.4,0.9L288,217.9l4.9,8.5
				C293,226.7,293.1,226.9,293.2,227.1z"/>
			<path fill="none" stroke="#1A95FC" stroke-width="3" stroke-linecap="round" stroke-linejoin="round" stroke-miterlimit="10" d="
				M288.2,218.2l-13.3-23c-0.7-1.2-2.2-1.6-3.4-0.9l-3.6,2.1c-1.2,0.7-1.6,2.2-0.9,3.4l15.8,27l0.8,1.3h9.1"/>
		</g>
		
			<line fill="none" stroke="#1A95FC" stroke-width="3" stroke-linejoin="round" stroke-miterlimit="10" x1="272.8" y1="194" x2="302.8" y2="194"/>
		
			<line fill="none" stroke="#1A95FC" stroke-width="3" stroke-linejoin="round" stroke-miterlimit="10" x1="279.1" y1="203.5" x2="296.4" y2="203.5"/>
	</g>
</g>
<g>
	<path fill="none" stroke="#1A95FC" stroke-width="3" stroke-miterlimit="10" d="M32.5,260.8c-13,1-23.6,11.4-24.9,24.4
		c-0.7,6.7,1.1,12.9,4.5,17.9c0.8,1.2,0.8,2.7-0.1,3.8c-1.7,2.1-4.1,3.7-7.4,4.4c-8,1.5,4.5,7.3,16.2,1.5c0.8-0.4,1.8-0.4,2.7,0
		c4.2,1.9,9,2.8,14.1,2.3c13-1.3,23.4-12,24.4-25C63.2,273.3,49.3,259.4,32.5,260.8z"/>
	<g>
		<g>
			<path fill="none" stroke="#1A95FC" stroke-width="3" stroke-linecap="round" stroke-linejoin="round" stroke-miterlimit="10" d="
				M29.1,290.5c1,0,1.5,0.6,1.5,1.5c0,0.6-0.1,0.9-0.5,1.7l-2,4.2h-1.3l1.4-4.6c-0.4-0.3-0.7-0.7-0.7-1.3
				C27.5,291.1,28.1,290.5,29.1,290.5z M29.1,278.1c0.9,0,1.5,0.6,1.5,1.5s-0.6,1.5-1.5,1.5c-0.9,0-1.5-0.6-1.5-1.5
				S28.1,278.1,29.1,278.1z"/>
		</g>
		<g>
			<path fill="none" stroke="#1A95FC" stroke-width="3" stroke-linecap="round" stroke-miterlimit="10" d="M38.7,301.3
				c3-3.7,4.5-8.3,4.5-13.3s-1.5-9.6-4.5-13.3"/>
		</g>
	</g>
</g>
<g>
	<g>
		<g>
			<g>
				
					<path fill="none" stroke="#1A95FC" stroke-width="3" stroke-linecap="round" stroke-linejoin="round" stroke-miterlimit="10" d="
					M112.2,276.6"/>
				
					<path fill="none" stroke="#1A95FC" stroke-width="3" stroke-linecap="round" stroke-linejoin="round" stroke-miterlimit="10" d="
					M107.5,271.9L68,311.4l-0.5,0.5c-0.4,0.4-1.2,1.6-1.1,2.2c0.4,3.5,3.9,4.4,5.8,2.5l0.5-0.5l39.5-39.5"/>
			</g>
		</g>
		<g>
			<g>
				<path fill="none" stroke="#1A95FC" stroke-width="3" stroke-linecap="round" stroke-linejoin="round" d="M112.2,276.6l0.5,0.5
					c0.2,0.2,0.5,0.4,0.9,0.5c3.3,0.9,7,0.1,9.6-2.5c2.7-2.7,2.5-8.2,2.5-8.2c0-1-1.5-2.1-2.2-1.3l-3.5,3.5c-0.8,0.8-2,0.8-2.8,0
					l-2.1-2.1c-0.7-0.7-0.7-1.9,0-2.6l3.6-3.6c0.7-0.7-0.3-2.1-1.3-2.2c0,0-5.5-0.2-8.2,2.5c-2.6,2.6-3.4,6.3-2.5,9.6
					c0.1,0.3,0.3,0.6,0.5,0.9l0.5,0.5"/>
			</g>
		</g>
	</g>
	<g>
		<g>
			<g>
				
					<path fill="none" stroke="#1A95FC" stroke-width="3" stroke-linecap="round" stroke-linejoin="round" stroke-miterlimit="10" d="
					M84.3,272.4"/>
				
					<line fill="none" stroke="#1A95FC" stroke-width="3" stroke-linecap="round" stroke-linejoin="round" stroke-miterlimit="10" x1="95.6" y1="283.7" x2="84.3" y2="272.4"/>
				
					<path fill="none" stroke="#1A95FC" stroke-width="3" stroke-linecap="round" stroke-linejoin="round" stroke-miterlimit="10" d="
					M95.6,293.1l23.4,23.4l0.5,0.5c1.3,1.3,3.4,1.3,4.7,0c1.3-1.3,1.3-3.4,0-4.7l-0.5-0.5l-23.4-23.5"/>
				
					<line fill="none" stroke="#1A95FC" stroke-width="3" stroke-linecap="round" stroke-linejoin="round" stroke-miterlimit="10" x1="79.6" y1="277.1" x2="90.9" y2="288.4"/>
			</g>
		</g>
		<g>
			<path fill="none" stroke="#1A95FC" stroke-width="3" stroke-linecap="round" stroke-linejoin="round" stroke-miterlimit="10" d="
				M92.6,263.2c0.9,0.9,1,2.1,0.3,2.9l-2.4,2.4c-0.7,0.7-2,0.6-2.8-0.2l-4.5-4.5c-0.9-0.9-1.1-2.1-0.4-2.8l2.4-2.4
				c0.7-0.7,2-0.7,2.9,0.1L92.6,263.2z"/>
			<path fill="none" stroke="#1A95FC" stroke-width="3" stroke-miterlimit="10" d="M73.5,272.1c-1-0.9-1-2.5,0-3.4l2.7-2.6
				c1-0.9,2.5-0.9,3.5,0"/>
			<path fill="none" stroke="#1A95FC" stroke-width="3" stroke-linecap="round" stroke-linejoin="round" stroke-miterlimit="10" d="
				M76.5,279.8l9.2-9.2c0.9-0.9,0.9-2.3,0-3.1l-2-2c-0.8-0.8-2.2-0.8-3.1,0l-9.6,9.4c0,0-3.8,3.4-4.2,8.5c-0.2,2.2,2.7,3.2,4,1.4
				c1.2-1.7,2.8-3.5,5.1-4.6C76.1,279.9,76.4,279.9,76.5,279.8z"/>
		</g>
	</g>
</g>
<g>
	<path fill="none" stroke="#1A95FC" stroke-width="3" stroke-miterlimit="10" d="M187,314.5h-54c-1.7,0-3-1.4-3-3v-44
		c0-1.6,1.3-3,3-3h54c1.6,0,3,1.4,3,3v44C190,313.2,188.6,314.5,187,314.5z"/>
	<path fill="none" stroke="#1A95FC" stroke-width="3" stroke-linecap="round" stroke-miterlimit="10" d="M153,264.5V262
		c0-1.2,0.7-2.3,1.9-2.8c2.2-0.9,6.2-1.9,10.3-0.1c1.1,0.5,1.8,1.6,1.8,2.8v2.6"/>
	<path fill="none" stroke="#1A95FC" stroke-width="3" stroke-linecap="round" stroke-miterlimit="10" d="M147.6,314.5H140v-48.6
		c0-1.6,1.3-3,3-3h1.7c1.6,0,3,1.3,3,3V314.5z"/>
	<path fill="none" stroke="#1A95FC" stroke-width="3" stroke-linecap="round" stroke-miterlimit="10" d="M180,314.5h-7.6v-48.6
		c0-1.6,1.3-3,3-3h1.7c1.6,0,3,1.3,3,3V314.5z"/>
	<path fill="none" stroke="#1A95FC" stroke-width="3" stroke-miterlimit="10" d="M144,313.8c0,2.2-1.8,4-4,4s-4-1.8-4-4"/>
	<path fill="none" stroke="#1A95FC" stroke-width="3" stroke-miterlimit="10" d="M184,313.8c0,2.2-1.8,4-4,4s-4-1.8-4-4"/>
</g>
<g>
	
		<line fill="none" stroke="#1A95FC" stroke-width="3" stroke-linecap="round" stroke-miterlimit="10" x1="254" y1="300.1" x2="194" y2="300.1"/>
	
		<line fill="none" stroke="#1A95FC" stroke-width="3" stroke-linecap="round" stroke-miterlimit="10" x1="224" y1="260" x2="224" y2="258"/>
	<path fill="none" stroke="#1A95FC" stroke-width="3" stroke-linecap="round" stroke-miterlimit="10" d="M204.2,285.8l8.8,3.8
		c0.7,0.3,1.6,0.2,2.2-0.3l8.4-7.4c0.6-0.6,1.6-0.7,2.3-0.3l5.2,2.8c1,0.5,2.2,0.2,2.8-0.8l4.8-8.7c0.2-0.3,0.4-0.5,0.7-0.7l4.3-2.8
		"/>
	<path fill="none" stroke="#1A95FC" stroke-width="3" stroke-miterlimit="10" d="M196,300.6v-37c0-1.6,1.3-3,2.8-3h50.4
		c1.5,0,2.8,1.4,2.8,3v37"/>
	<polyline fill="none" stroke="#1A95FC" stroke-width="3" stroke-linecap="round" stroke-miterlimit="10" points="241.5,318 
		223.8,300.1 223.9,300.1 206.5,318 	"/>
</g>
<g>
	<g id="Cover_16_">
		<g>
			<path fill="none" stroke="#1A95FC" stroke-width="3" stroke-miterlimit="10" d="M271.3,271.3h-11.7c-0.9,0-1.7,0.7-1.7,1.7v40
				c0,0.9,0.7,1.7,1.7,1.7h11.7c0.9,0,1.7-0.7,1.7-1.7v-40C273,272.1,272.3,271.3,271.3,271.3z"/>
		</g>
	</g>
	<g id="Decoration_16_">
		<g>
			<path fill="none" stroke="#1A95FC" stroke-width="3" stroke-linejoin="round" stroke-miterlimit="10" d="M261.1,307.3h8.9v-2.9
				h-8.9V307.3z M261.1,278.7v2.9h8.9v-2.9H261.1z"/>
		</g>
	</g>
	<g id="Cover_14_">
		<g>
			<path fill="none" stroke="#1A95FC" stroke-width="3" stroke-miterlimit="10" d="M288,261.3h-10c-0.9,0-1.7,0.7-1.7,1.7v50
				c0,0.9,0.7,1.7,1.7,1.7h10c0.9,0,1.7-0.7,1.7-1.7v-50C289.7,262.1,288.9,261.3,288,261.3z"/>
		</g>
	</g>
	<g id="Decoration_14_">
		<g>
			<path fill="none" stroke="#1A95FC" stroke-width="3" stroke-linejoin="round" stroke-miterlimit="10" d="M279.7,306.1h6.7v-2.8
				h-6.7V306.1z M279.7,275.5v25h6.7v-25H279.7z"/>
		</g>
	</g>
	<g id="Cover_12_">
		<g>
			<path fill="none" stroke="#1A95FC" stroke-width="3" stroke-miterlimit="10" d="M317.9,309.9l-11.6-42.4
				c-0.2-0.9-1.2-1.4-2.1-1.2l-10,2.6c-0.9,0.2-1.5,1.2-1.2,2.1l11.6,42.4c0.2,0.9,1.2,1.4,2.1,1.2l10-2.6
				C317.6,311.7,318.2,310.8,317.9,309.9z"/>
		</g>
	</g>
	<g id="Decoration_12_">
		<g>
			<path fill="none" stroke="#1A95FC" stroke-width="3" stroke-linejoin="round" stroke-miterlimit="10" d="M311.6,299.5l-6.7,1.8
				l0.6,2.2l6.7-1.8L311.6,299.5z M306.8,281.9l-6.7,1.8l4.2,15.4l6.7-1.8L306.8,281.9z M305.6,277.5l-6.7,1.8l0.6,2.2l6.7-1.8
				L305.6,277.5z"/>
		</g>
	</g>
</g>
<g>
	<path fill="none" stroke="#1A95FC" stroke-width="3" stroke-linecap="round" stroke-linejoin="round" stroke-miterlimit="10" d="
		M225.1,82.6l3.3,6.7c0.2,0.4,0.5,0.6,0.9,0.7l7.3,1.1c1,0.1,1.4,1.4,0.7,2l-5.3,5.2c-0.3,0.3-0.4,0.7-0.3,1.1l1.3,7.3
		c0.2,1-0.9,1.7-1.7,1.3l-6.6-3.5c-0.3-0.2-0.8-0.2-1.1,0l-6.6,3.5c-0.9,0.5-1.9-0.3-1.7-1.3l1.3-7.3c0.1-0.4-0.1-0.8-0.3-1.1
		l-5.3-5.2c-0.7-0.7-0.3-1.9,0.7-2l7.3-1.1c0.4-0.1,0.7-0.3,0.9-0.7l3.3-6.7C223.4,81.7,224.6,81.7,225.1,82.6z"/>
	<g>
		<path fill="none" stroke="#1A95FC" stroke-width="3" stroke-linecap="round" stroke-linejoin="round" stroke-miterlimit="10" d="
			M208.6,80.6l-5.8-5.8L208.6,80.6 M203.9,87.6l-7.6-3.1L203.9,87.6 M202.2,96H194H202.2 M203.8,104.3l-7.6,3.1L203.8,104.3
			 M208.6,111.4l-5.8,5.8L208.6,111.4 M215.6,116.1l-3.1,7.6L215.6,116.1 M224,117.8v8.2V117.8 M232.3,116.2l3.1,7.6L232.3,116.2
			 M239.4,111.4l5.8,5.8L239.4,111.4 M244.1,104.4l7.6,3.1L244.1,104.4 M245.8,96h8.2H245.8 M244.2,87.7l7.6-3.1L244.2,87.7
			 M239.4,80.6l5.8-5.8L239.4,80.6 M232.4,75.9l3.1-7.6L232.4,75.9 M224,74.2V66V74.2 M215.7,75.8l-3.1-7.6L215.7,75.8"/>
	</g>
</g>
</svg>
