<?xml version="1.0" encoding="UTF-8" standalone="no"?>
<!-- Created with Inkscape (http://www.inkscape.org/) -->

<svg
   xmlns:dc="http://purl.org/dc/elements/1.1/"
   xmlns:cc="http://creativecommons.org/ns#"
   xmlns:rdf="http://www.w3.org/1999/02/22-rdf-syntax-ns#"
   xmlns:svg="http://www.w3.org/2000/svg"
   xmlns="http://www.w3.org/2000/svg"
   xmlns:xlink="http://www.w3.org/1999/xlink"
   version="1.1"
   width="180"
   height="1218.75"
   viewBox="0 0 180 1218.75"
   id="svg2">
  <title
     id="title4">Cat Icons</title>
  <metadata
     id="metadata176">
    <rdf:RDF>
      <cc:Work
         rdf:about="">
        <dc:format>image/svg+xml</dc:format>
        <dc:type
           rdf:resource="http://purl.org/dc/dcmitype/StillImage" />
        <dc:title>Cat Icons</dc:title>
      </cc:Work>
    </rdf:RDF>
  </metadata>
  <description
     id="description6" />
  <defs
     id="defs8">
    <g
       transform="matrix(0.43557711,0,0,0.43557711,-0.43523341,75.360158)"
       id="Iconography">
      <path
         d="m 115.43,-170.57 c -1.85,-0.44 -3.66,-0.70 -5.41,-0.82 -0.98,-1.15 -2.52,-1.79 -4.13,-1.56 l -16.61,2.39 c -1.6,0.23 -2.88,1.26 -3.50,2.63 -5.97,0.67 -13.62,0.77 -15.76,0.78 -2.13,-0.01 -9.79,-0.11 -15.76,-0.78 -0.62,-1.36 -1.90,-2.40 -3.51,-2.63 l -16.61,-2.39 c -1.61,-0.23 -3.15,0.41 -4.13,1.56 -1.75,0.12 -3.55,0.38 -5.40,0.82 -10.35,2.49 -27.60,46.99 -12.65,70.64 14.95,23.64 27.93,-0.78 36.80,-13.38 5.74,-8.15 17.07,-8.98 20.70,-9.03 l 0,0.01 c 0,0 0.20,-0.01 0.57,-0.01 0.36,0.00 0.57,0.01 0.57,0.01 l 0,-0.01 c 3.63,0.04 14.95,0.87 20.70,9.03 8.87,12.59 21.85,37.03 36.80,13.38 14.95,-23.64 -2.30,-68.15 -12.65,-70.64 l 0,0 0,0 z m -79.77,44.80 c -8.85,0 -16.02,-7.16 -16.02,-16.00 0,-8.83 7.17,-16.00 16.02,-16.00 8.84,0 16.02,7.16 16.02,16.00 0,8.83 -7.17,16.00 -16.02,16.00 l 0,0 0,0 z m 68.67,-32.00 c 2.95,0 5.34,2.38 5.34,5.33 0,2.94 -2.39,5.33 -5.34,5.33 -2.94,0 -5.34,-2.38 -5.34,-5.33 0,-2.94 2.39,-5.33 5.34,-5.33 l 0,0 0,0 z m -10.68,21.33 c -2.95,0 -5.34,-2.38 -5.34,-5.33 0,-2.94 2.39,-5.33 5.34,-5.33 2.94,0 5.34,2.38 5.34,5.33 0,2.94 -2.39,5.33 -5.34,5.33 l 0,0 0,0 z m 10.68,10.66 c -2.94,0 -5.34,-2.38 -5.34,-5.33 0,-2.94 2.39,-5.33 5.34,-5.33 2.95,0 5.34,2.38 5.34,5.33 0,2.94 -2.39,5.33 -5.34,5.33 l 0,0 0,0 z m 10.68,-10.66 c -2.94,0 -5.33,-2.38 -5.33,-5.33 0,-2.94 2.39,-5.33 5.33,-5.33 2.95,0 5.34,2.38 5.34,5.33 -10e-4,2.94 -2.39,5.33 -5.34,5.33 l 0,0 0,0 z m -79.35,-17.57 c -5.72,0 -10.36,4.63 -10.36,10.35 0,5.71 4.64,10.35 10.36,10.35 5.72,0 10.36,-4.63 10.36,-10.35 -10e-4,-5.72 -4.64,-10.35 -10.36,-10.35 l 0,0 0,0 z m 0,0"
         id="Shape" />
      <path
         d="m 133.99,29.86 -6.99,-7.98 2.58,-10.28 -9.65,-4.46 -1.84,-10.44 -10.64,-0.16 -5.94,-8.79 -9.78,4.15 -9.02,-5.62 -7.24,7.76 -10.54,-1.48 -3.44,10.03 -10.23,2.91 0.94,10.56 -7.85,6.56 15.77,0 c 4.12,-11.6 15.19,-19.92 28.25,-19.92 16.56,0 29.99,13.38 29.99,29.88 0,10.48 -6.03,19.32 -14.23,24.65 -0.01,5.13 0.01,10.69 0,15.03 l 5.15,-7.68 10.61,-0.73 1.28,-10.52 9.40,-4.96 -3.13,-10.13 6.55,-8.35 0,0 z m -43.26,51.42 c -0.04,0 -0.08,-0.00 -0.13,-0.00 -0.02,0 -0.05,0.00 -0.07,0.00 l 0.21,0.00 0,0 z m 9.61,-49.34 c -0.62,0 -0.76,0.60 -0.76,1.22 l 0,43.61 c 0,3.52 -4.01,7.51 -7.54,7.51 l -76.97,0 c -3.53,0 -6.03,-2.49 -6.03,-6.01 l 0,-48.12 c 0.01,-0.43 0.12,-1.50 1.51,-1.50 l 73.95,0 c 0.01,0 0.02,-0.00 0.03,-0.00 -0.01,0.05 -0.02,0.13 -0.01,0.29 l 0,46.14 c 0,3.37 2.72,6.12 6.09,6.19 3.39,-0.04 5.96,-2.61 5.96,-6.01 l 0,-43.61 c 0,-0.62 0.09,-1.22 -0.53,-1.22 -0.62,0 -1.13,0.50 -1.13,1.12 l 0,43.52 c 0,2.17 -2.18,3.19 -4.37,3.19 -2.18,0 -3.02,-0.83 -3.02,-3.00 l 0,-46.61 c -0.01,-1.13 -0.85,-3.00 -3.01,-3.00 l -73.95,0 c -2.75,0 -4.50,2.86 -4.52,4.51 l 0,48.12 c 0,4.76 4.27,9.02 9.05,9.02 l 76.97,0 c 4.78,0 9.05,-5.75 9.05,-10.52 l 0,-43.61 c -0.00,-0.62 -0.11,-1.22 -0.74,-1.22 l 0,0 0,0 z m -20.38,1.22 -66.41,0 0,4.51 66.41,0 0,-4.51 0,0 z m 0,10.52 -19.62,0 0,3.00 19.62,0 c 0.15,0.00 0,-3.00 0,-3.00 l 0,0 0,0 z m 11.14,31.81 c 0.62,0 0.93,-1.11 0.93,-1.73 l 0,-43.61 c 0,-0.62 -0.30,-1.75 -0.93,-1.75 -0.62,0 -0.57,1.13 -0.57,1.75 l 0,43.61 c 0,0.62 -0.04,1.73 0.57,1.73 l 0,0 0,0 z m -50.77,-10.59 c -0.41,2.12 -5.26,1.17 -2.91,2.54 2.35,1.37 7.75,0.82 9.00,3.03 1.24,2.20 2.49,4.92 2.90,6.94 0.00,0.03 0.45,0.81 0.43,0.84 l 3.02,0 c 1.14,0 3.01,-1.86 3.01,-3.00 l 0,-28.57 c 0,-1.14 -1.87,-3.00 -3.01,-3.00 l -36.22,0 c -1.14,0 -3.01,1.86 -3.01,3.00 l 0,28.57 c 0,1.14 1.87,3.00 3.01,3.00 l 1.51,0 c 0.09,-2.35 0.33,-7.26 3.27,-8.34 4.15,-1.51 8.86,-2.89 9.00,-3.86 0.13,-0.96 -1.52,-4.27 -1.79,-7.72 -0.27,-3.45 2.21,-6.35 3.60,-7.18 1.38,-0.82 5.12,-0.77 6.92,0.92 1.80,1.69 2.47,1.97 2.13,6.11 -0.33,4.14 -0.47,4.58 -0.89,6.71 l 0,0 0,0 z m 39.63,-15.20 -19.62,0 0,3.00 19.62,0 c 0.15,0 0,-3.00 0,-3.00 l 0,0 0,0 z m 0,6.01 -19.62,0 0,3.00 19.62,0 c 0.15,-10e-4 0,-3.00 0,-3.00 l 0,0 0,0 z m 0,6.01 -19.62,0 0,3.00 19.62,0 c 0.15,0 0,-3.00 0,-3.00 l 0,0 0,0 z m 0,6.01 -19.62,0 0,3.00 19.62,0 c 0.15,0 0,-3.00 0,-3.00 l 0,0 0,0 z m 0,0"
         id="path19" />
      <path
         d="m 118.91,161.17 c -3.45,-0.45 -21.35,-2.96 -33.15,-6.84 -11.08,-3.64 -26.47,-10.92 -30.96,-13.08 -0.81,-0.39 -1.27,0.12 -1.27,0.85 l 0,2.11 0,27.66 0,56.62 c -3.44,-2.90 -8.53,-4.74 -14.22,-4.74 -10.38,0 -18.80,6.12 -18.80,13.67 0,7.55 8.41,13.68 18.80,13.68 10.38,0 18.80,-6.12 18.80,-13.68 l 0,-63.22 c 6.03,2.98 16.96,8.1 26.30,10.95 9.79,2.99 23.47,5.45 30.51,6.62 l 0,54.61 c -3.44,-2.90 -8.53,-4.75 -14.22,-4.75 -10.38,0 -18.80,6.12 -18.80,13.68 0,7.55 8.41,13.67 18.80,13.67 10.38,0 18.80,-6.12 18.80,-13.67 l 0,-62.82 0,-30.39 0,-0.24 c -10e-4,-0.24 -0.20,-0.63 -0.58,-0.69 l 0,0 0,0 z m 0,0"
         id="path21" />
      <path
         d="m 138.39,407.72 c 1.41,-5.42 0.02,-10.08 -0.88,-12.30 -41.33,-10.95 -58.59,-9.70 -69.15,-6.77 l 35.31,15.61 0.13,0.06 30.68,5.48 c -0.88,0.20 0.10,-0.20 0,0 -1.21,2.38 -3.60,5.54 -9.18,4.04 -4.11,-1.10 -26.60,-7.00 -49.88,-13.36 -28.39,-7.75 -60.64,-16.25 -68.02,-18.22 -2.39,-0.64 -3.13,-2.47 -3.72,-4.25 -1.17,-3.54 2.35,-7.71 4.76,-11.73 0.81,-1.36 1.66,-1.72 2.32,-2.63 l 54.28,23.54 c 10.35,-3.41 26.60,-5.98 69.44,5.00 -3.61,-2.80 -10.97,-8.53 -19.30,-15.11 0.90,-1.78 0.55,-4.07 -1.03,-5.58 -0.60,-0.58 -1.35,-1 -2.14,-1.21 -1.50,-0.40 -3.05,-0.01 -4.17,0.97 -0.94,-0.75 -1.89,-1.51 -2.84,-2.27 1.06,-1.80 0.74,-4.25 -0.91,-5.83 -0.60,-0.58 -1.35,-1.00 -2.14,-1.21 -1.47,-0.39 -2.99,-0.02 -4.09,0.91 -0.94,-0.94 -1.84,-1.92 -2.69,-2.91 0.95,-1.79 0.61,-4.12 -0.99,-5.66 -0.60,-0.58 -1.35,-1.00 -2.15,-1.21 -0.71,-0.19 -1.43,-0.18 -2.12,-0.04 -1.10,-1.60 -2.17,-3.19 -3.17,-4.73 -4.20,-6.40 -7.82,-11.94 -12.92,-13.38 -2.99,-0.80 -7.15,1.93 -9.75,4.82 -2.26,2.51 -3.38,5.03 -3.25,7.15 -3.48,0.70 -7.44,0.74 -11.64,-0.37 -10.91,-2.92 -13.62,-7.43 -17.40,-14.17 -1.96,-3.51 -5.28,-3.50 -6.45,-2.58 -9.15,7.20 -15.59,22.88 -17.54,31.58 -2.05,2.82 -8.39,12.28 -6.29,18.61 0.84,2.54 1.99,4.51 5.16,5.36 7.36,1.97 39.63,10.47 68.02,18.22 23.27,6.35 46.06,12.40 50.18,13.50 8.09,2.16 12.22,-4.30 13.27,-8.03 l 0.35,-1.26 -0.03,-0.00 0,0 z m -27.00,-35.17 c 0.42,0.11 0.81,0.33 1.13,0.64 0.97,0.93 1.08,2.40 0.25,3.28 l -3.16,3.32 c -0.80,0.84 -2.32,0.81 -3.27,-0.10 -0.97,-0.93 -1.09,-2.41 -0.25,-3.29 l 3.16,-3.32 c 0.53,-0.55 1.33,-0.75 2.14,-0.54 l 0,0 0,0 z m -10.08,-8.35 c 0.42,0.11 0.81,0.33 1.14,0.64 0.97,0.93 1.08,2.40 0.25,3.28 l -3.16,3.32 c -0.80,0.84 -2.33,0.81 -3.28,-0.09 -0.97,-0.93 -1.08,-2.41 -0.25,-3.29 l 3.16,-3.32 c 0.53,-0.56 1.33,-0.76 2.14,-0.54 l 0,0 0,0 z m -8.79,-8.22 c 0.97,0.93 1.08,2.40 0.25,3.28 l -3.16,3.32 c -0.80,0.84 -2.33,0.81 -3.28,-0.09 -0.97,-0.93 -1.09,-2.41 -0.25,-3.29 l 3.16,-3.32 c 0.53,-0.55 1.33,-0.76 2.14,-0.54 0.41,0.11 0.81,0.33 1.13,0.64 l 0,0 0,0 z m -26.76,-14.68 c 2.48,-2.76 5.73,-4.57 7.42,-4.12 4.20,1.19 7.60,6.38 11.54,12.40 0.95,1.45 1.97,2.97 3.02,4.50 -0.06,0.06 -0.14,0.10 -0.21,0.16 l -0.28,0.29 c -5.26,-4.40 -9.36,-8 -11.05,-9.87 -2.14,-2.37 -5.31,-2.22 -8.26,-0.48 -1.40,0.83 -3.04,1.54 -4.83,2.09 0.12,-1.39 1.06,-3.21 2.65,-4.98 l 0,0 0,0 z m -6.84,17.36 c 7.55,-0.13 10.95,0.71 14.31,3.51 3.43,2.87 4.50,7.17 2.83,10.70 -1.85,3.91 -6.67,6.50 -12.90,4.88 -17.11,-4.44 -13.39,-15.61 -13.39,-15.61 0,0 4.05,8.83 11.54,9.48 3.05,0.26 6.07,-2.79 3.80,-5.83 -2.28,-3.08 -10.96,-2.49 -15.06,-8.01 -2.44,-3.29 -1.26,-7.47 -1.37,-7.59 -0.11,-0.11 2.47,8.59 10.23,8.45 l 0,0 0,0 z m 0,0"
         id="path23" />
      <path
         d="m 120.96,874.20 c -2.91,0 -5.59,0.96 -7.76,2.58 -0.03,-0.87 -0.26,-1.72 -0.73,-2.54 -3.52,-6.51 -19.30,-11.72 -39.72,-13.32 2.49,-2.89 5.87,-8.21 5.87,-15.78 0,-11.99 -8.49,-13.05 -8.49,-25.57 0,0 -6.14,15.34 0,24.34 4.25,6.22 2.61,13.20 1.20,16.91 -1.01,-0.07 -2.02,-0.13 -3.05,-0.18 0.16,-1.37 0.28,-2.78 0.28,-4.28 0,-17.25 -12.21,-18.77 -12.21,-36.79 0,0 -8.83,22.07 0,35.01 1.30,1.91 2.19,3.87 2.81,5.83 -1.48,0.00 -2.95,0.02 -4.40,0.06 -2.28,-6.39 -7.40,-9.22 -7.40,-18.95 0,0 -4.26,10.71 -2.08,19.48 -19.84,1.70 -35.06,6.84 -38.52,13.23 -0.51,0.89 -0.76,1.82 -0.76,2.77 l 0,6.16 c 0,29.60 24.01,53.61 53.61,53.61 25.08,0 46.14,-17.23 51.99,-40.50 2.36,2.44 5.68,3.97 9.35,3.97 7.19,0 13.03,-5.83 13.03,-13.03 0.00,-7.19 -5.83,-13.02 -13.03,-13.02 l 0,0 0,0 z m -13.09,4.84 c -0.01,0.00 -0.03,0.00 -0.04,0.01 -0.02,0.10 -0.04,0.21 -0.07,0.31 -2.13,7.65 -22.89,13.66 -48.16,13.66 -25.27,0 -46.02,-6.00 -48.16,-13.66 -0.01,-0.02 -0.01,-0.05 -0.01,-0.07 -0.01,-0.00 -0.03,-0.01 -0.04,-0.01 0,-0.03 0.01,-0.06 0.02,-0.1 -0.00,-0.03 -0.01,-0.06 -0.02,-0.1 0.01,-0.00 0.03,-0.01 0.04,-0.01 0.02,-0.10 0.04,-0.21 0.07,-0.31 1.77,-6.35 16.37,-11.57 35.73,-13.16 0.05,0.08 0.09,0.17 0.15,0.26 6.14,8.99 0,19.57 0,19.57 0,0 8.49,-6.35 8.49,-18.34 0,-0.68 -0.03,-1.33 -0.08,-1.95 1.27,-0.03 2.56,-0.05 3.86,-0.05 0.16,0 0.33,0.00 0.49,0.00 0.93,9.46 -3.77,17.63 -3.77,17.63 0,0 8.01,-5.99 11.06,-17.44 21.63,1.08 38.47,6.61 40.38,13.46 0.01,0.02 0.01,0.05 0.01,0.07 0.01,0.00 0.03,0.00 0.04,0.01 -0.00,0.03 -0.01,0.06 -0.02,0.1 0.00,0.03 0.01,0.06 0.02,0.1 l 0,0 0,0 z m 13.09,15.82 c -4.21,0 -7.64,-3.42 -7.64,-7.64 0,-4.22 3.42,-7.64 7.64,-7.64 4.22,0 7.64,3.42 7.64,7.64 -0.00,4.22 -3.42,7.64 -7.64,7.64 l 0,0 0,0 z m 0,0"
         id="path25" />
      <path
         d="m 69.99,497.61 -64.00,31.78 23.62,11.73 0,-6.19 c 0,0 14.37,-12.82 40.56,-12.82 26.19,0 38.87,12.82 38.87,12.82 l 0,6.85 9.72,-4.83 0,-15.11 -48.78,-24.23 0,0 z m 51.31,25.49 0,12.59 12.68,-6.29 -12.68,-6.29 0,0 z m 1.40,33.99 c 0.91,-0.77 1.51,-1.91 1.51,-3.21 0,-1.87 -1.23,-3.45 -2.91,-3.98 l 0,-14.19 -2.53,1.25 0,12.96 c -1.64,0.55 -2.84,2.10 -2.84,3.95 0,1.29 0.59,2.44 1.51,3.21 -3.02,3.50 -3.60,11.99 -3.62,12.31 0,10e-4 -0.00,0.00 -0.00,0.00 l 0,10e-4 c 0,10e-4 0.00,0.00 0.00,0.00 0,0.00 -0.00,0.02 -0.00,0.02 l 0.01,0 c 0.07,0.73 2.83,1.33 6.24,1.33 3.40,0 6.16,-0.59 6.24,-1.33 l 0.01,0 0,-0.02 0,-0.00 c 0,0 -0.00,-0.00 -0.00,-0.00 -0.02,-0.32 -0.6,-8.80 -3.62,-12.31 l 0,0 0,0 z m -45.83,3.14 c -2.49,-0.19 -5.09,2.26 -7.75,2.26 -2.78,0 -5.48,-2.45 -8.08,-2.23 -15.48,1.29 -27.07,6.21 -27.53,12.14 -0.00,0.12 -0.04,0.23 -0.04,0.36 0,7.08 15.96,12.83 35.65,12.83 19.69,0 35.65,-5.74 35.65,-12.83 0,-0.12 -0.03,-0.24 -0.04,-0.36 -0.46,-5.96 -12.21,-10.91 -27.85,-12.16 l 0,0 0,0 z m -43.15,-22.36 0,5.29 0,22.99 c 3.86,-4.55 14.29,-8.07 27.34,-9.12 2.59,-0.20 5.28,2.25 8.05,2.25 2.77,0 5.47,-2.45 8.07,-2.24 13.51,1.08 24.25,4.82 27.74,9.61 l 0,-22.83 0,-5.95 c 0,0 -11.36,-11.5 -34.85,-11.5 -23.48,10e-4 -36.36,11.50 -36.36,11.50 l 0,0 0,0 z m 0,0"
         id="path27" />
      <path
         d="m 121.60,687.07 c -4.31,4.33 -9.94,6.47 -15.46,6.41 -0.78,0.03 -3.49,0.20 -6.66,0.91 -3.77,0.84 -5.98,3.7 -5.98,3.7 l -34.98,34.67 c 0,0 -2.83,2.21 -3.68,6.01 -0.73,3.30 -0.88,6.11 -0.91,6.78 0.16,5.66 -1.97,11.48 -6.38,15.91 -5.04,5.06 -11.88,7.14 -18.25,6.19 l 8.52,-13.17 -0.45,-5.54 -5.98,-4.62 -6.44,0 -9.75,13.77 c -4.54,-7.87 -3.26,-18.37 3.72,-25.39 4.31,-4.33 9.94,-6.47 15.46,-6.41 0.79,-0.03 3.49,-0.20 6.66,-0.91 3.77,-0.84 5.98,-3.69 5.98,-3.69 l 34.98,-34.67 c 0,0 2.83,-2.21 3.68,-6.01 0.73,-3.30 0.88,-6.11 0.91,-6.78 -0.16,-5.66 1.97,-11.48 6.38,-15.91 5.04,-5.06 11.88,-7.14 18.25,-6.19 l -8.52,13.17 0.46,5.54 5.98,4.62 6.44,0 9.75,-13.77 c 4.54,7.87 3.26,18.38 -3.73,25.39 l 0,0 0,0 z m -49.51,5.03 -11.22,11.27 c -0.81,-1.34 -0.92,-1.96 -1.44,-2.96 -3.36,-6.54 -11.51,-16.18 -11.51,-16.18 0,0 -3.85,-3.91 -7.82,-4.16 -3.96,-0.24 -8.27,3.59 -8.28,5.08 -0.01,1.48 0.92,2.77 0.92,2.77 l -6.90,6.47 -4.60,-0.46 -9.20,-9.24 0,-5.08 c 0,0 6.44,-3.76 8.74,-5.54 2.29,-1.78 0.40,-3.1 5.98,-9.71 6.24,-7.39 9.99,-10.89 23.01,-12.02 15.10,-1.30 22.55,5.08 22.55,5.08 l -3.22,0 2.30,2.77 c 0,0 -6.00,-2.97 -11.50,-3.23 -5.50,-0.26 -8.86,1.84 -11.05,5.54 -1.79,3.04 0.60,7.01 3.68,11.09 2.34,3.11 8.55,7.73 19.57,18.50 l 0,0 0,0 z m 41.65,47.15 c 3.09,4.53 5.81,7.19 8.28,9.24 2.47,2.04 3.22,3.23 3.22,3.23 0,0 -1.24,5.70 -7.36,11.56 -6.12,5.85 -11.05,3.23 -11.05,3.23 l -3.22,-1.84 c 0,0 -0.19,-9.10 -1.83,-12.94 -1.64,-3.84 -10.23,-9.01 -19.33,-19.42 -2.84,-3.25 -5.83,-6.94 -8.69,-10.69 l 13.64,-13.70 c 15.83,17.15 23.44,27.06 26.35,31.33 l 0,0 0,0 z m 0,0"
         id="path29" />
      <path
         d="m 48.34,1057.73 8.34,8.35 30.20,-30.22 7.15,7.15 17.20,-17.21 -4.21,-4.21 -12.99,13.00 -7.15,-7.15 -30.20,30.22 -8.34,-8.35 -19.19,19.20 4.21,4.21 14.98,-14.99 0,0 z m 81.65,-48.01 0,-11.24 -120.00,0 0,11.24 8.09,0 0,73.49 -8.09,0 0,11.24 120.00,0 0,-11.24 -7.89,0 0,-73.49 7.89,0 0,0 z m -10.92,73.49 -97.95,0 0,-73.49 97.95,0 0,73.49 0,0 z m 0,0"
         id="path31" />
      <path
         d="m 49.89,1186.76 5.73,-11.63 -11.66,0 4.48,8.98 1.44,2.65 0,0 z m 41.66,-2.65 4.48,-8.98 -11.66,0 5.73,11.63 1.44,-2.65 0,0 z m -22.86,37.18 0.42,0.77 0,0.92 c 0.29,-0.01 0.58,-0.04 0.88,-0.04 0.29,0 0.59,0.03 0.88,0.04 l 0,-0.92 0.42,-0.77 16.77,-30.82 -18.08,-36.72 -18.08,36.72 16.77,30.82 0,0 z m 65.30,-20.95 -27.43,-3.99 -19.22,35.31 c 2.72,3.63 4.35,8.13 4.35,13.03 0,6.99 -3.31,13.20 -8.43,17.18 l 26.29,13.85 -7.55,-44.13 32.00,-31.25 0,0 z m -85.69,44.35 c 0,-4.89 1.63,-9.39 4.35,-13.03 l -19.22,-35.31 -27.43,3.99 32.00,31.25 -7.55,44.13 26.29,-13.85 c -5.12,-3.97 -8.43,-10.18 -8.43,-17.18 l 0,0 0,0 z m 17.35,-21.30 0,-0.43 -26.03,-47.83 -4.34,0 0,17.39 19.81,36.40 c 2.89,-2.73 6.51,-4.70 10.56,-5.52 l 0,0 0,0 z m 8.68,0 c 4.04,0.82 7.67,2.78 10.56,5.52 l 19.81,-36.40 0,-17.39 -4.34,0 -26.03,47.83 0,0.43 0,0 z m -4.34,3.91 c -9.58,0 -17.35,7.78 -17.35,17.39 0,9.60 7.77,17.39 17.35,17.39 9.58,0 17.35,-7.78 17.35,-17.39 0,-9.60 -7.77,-17.39 -17.35,-17.39 l 0,0 0,0 z m 0,0"
         id="path33" />
      <path
         d="m 99.07,1360.82 6.95,0 c 0,0 -22.01,-28.68 -22.97,-29.82 -0.96,-1.14 -2.68,-1.29 -3.84,-0.34 -1.15,0.95 -1.31,2.64 -0.34,3.78 0.96,1.13 20.22,26.38 20.22,26.38 l 0,0 0,0 z m -37.87,-26.38 c 0.96,-1.14 0.80,-2.83 -0.35,-3.78 -1.15,-0.95 -2.87,-0.79 -3.84,0.34 -0.96,1.14 -22.98,29.82 -22.98,29.82 l 6.95,0 c 0.00,0 19.26,-25.24 20.22,-26.38 l 0,0 0,0 z m 58.97,50.27 -101.89,0 c -2.67,0 -2.47,0 -2.96,0.51 -0.49,0.51 0.49,3.10 0.49,3.10 l 11.87,39.90 c 0,0 0.66,3.04 2.96,5.18 3.21,2.97 6.43,2.59 6.43,2.59 l 64.23,-0.01 c 0,0 3.20,0.38 6.40,-2.57 2.29,-2.12 2.95,-5.15 2.95,-5.15 l 11.83,-39.70 c 0,0 0.98,-2.58 0.49,-3.09 -0.73,-0.77 -0.77,-0.74 -2.82,-0.74 l 0,0 0,0 z m -80.41,41.28 c -3.71,0 -4.46,-2.99 -4.46,-2.99 l -7.43,-25.47 c 0,0 -1.54,-4.49 3.47,-4.49 4.18,0 4.95,4.49 4.95,4.49 l 6.94,25.47 c -0.00,0 0.24,2.99 -3.47,2.99 l 0,0 0,0 z m 14.87,0 c -3.71,0 -4.46,-2.99 -4.46,-2.99 l -2.97,-25.47 c 0,0 -1.04,-4.49 3.96,-4.49 4.18,0 4.46,4.49 4.46,4.49 l 2.47,25.47 c -10e-4,0 0.24,2.99 -3.47,2.99 l 0,0 0,0 z m 19.33,-3.49 c 0,0 -0.24,3.49 -3.96,3.49 -3.72,0 -3.96,-3.49 -3.96,-3.49 l -0.49,-24.97 c 0,0 0.05,-4.49 4.46,-4.49 4.40,0 4.46,4.49 4.46,4.49 l -0.49,24.97 0,0 z m 18.76,-24.97 -2.95,25.47 c 0,0 -0.74,2.99 -4.43,2.99 -3.68,0 -3.44,-2.99 -3.44,-2.99 l 2.46,-25.47 c 0,0 0.28,-4.49 4.43,-4.49 4.97,0 3.93,4.49 3.93,4.49 l 0,0 0,0 z m 19.20,0 -7.38,25.47 c 0,0 -0.74,2.99 -4.43,2.99 -3.68,0 -3.44,-2.99 -3.44,-2.99 l 6.89,-25.47 c 0,0 0.77,-4.49 4.92,-4.49 4.98,0 3.44,4.49 3.44,4.49 l 0,0 0,0 z m 14.49,-33.11 -112.86,0 c -1.97,0 -3.57,1.60 -3.57,3.57 l 0,9.75 c 0,1.97 1.59,3.58 3.57,3.58 l 112.85,0 c 1.97,0 3.57,-1.60 3.57,-3.58 l 0,-9.75 c 0.00,-1.97 -1.59,-3.57 -3.56,-3.57 l 0,0 0,0 z m 0,0"
         id="path35" />
      <path
         d="m 69.99,1530.66 c -0.48,0 -0.87,0.39 -0.87,0.87 0,0.48 0.39,0.87 0.87,0.87 7.19,0 13.05,5.89 13.05,13.14 0,0.48 0.38,0.87 0.87,0.87 0.47,0 0.86,-0.39 0.86,-0.87 0,-8.21 -6.63,-14.89 -14.79,-14.89 l 0,0 0,0 z m -0.00,-13.75 c -15.68,0 -28.44,12.85 -28.44,28.65 0,15.80 12.75,28.65 28.44,28.65 15.68,0 28.44,-12.85 28.44,-28.65 0.00,-15.79 -12.75,-28.65 -28.44,-28.65 l 0,0 0,0 z m 0.00,47.99 c -10.60,0 -19.20,-8.66 -19.20,-19.34 0,-10.68 8.59,-19.34 19.20,-19.34 10.60,0 19.20,8.66 19.20,19.34 0.00,10.68 -8.60,19.34 -19.20,19.34 l 0,0 0,0 z m 49.39,-57.13 -31.75,0 c -1.88,-4.54 -4.08,-12.43 -5.29,-12.43 l -24.69,0 c -1.20,0 -3.40,7.89 -5.29,12.43 l -31.75,0 c -5.68,0 -10.60,5.34 -10.60,11.07 l 0,56.99 c 0,5.73 4.91,10.13 10.60,10.13 l 42.33,0 -11.01,18.12 3.05,1.90 13.25,-20.03 0,21.32 3.52,0 0,-21.32 12.68,20.03 3.05,-1.90 -10.44,-18.12 42.33,0 c 5.69,0 10.60,-4.4 10.60,-10.13 l 0,-56.99 c 0,-5.73 -4.91,-11.07 -10.60,-11.07 l 0,0 0,0 z m -79.38,65.75 c -1.77,0 -3.52,-1.76 -3.52,-3.55 0,-1.78 1.75,-3.55 3.52,-3.55 1.77,0 3.53,1.76 3.53,3.55 0,1.78 -1.75,3.55 -3.53,3.55 l 0,0 0,0 z m 29.98,2.88 c -16.88,0 -30.62,-13.83 -30.62,-30.85 0,-17.00 13.73,-30.84 30.62,-30.84 16.88,0 30.62,13.84 30.62,30.84 0.00,17.01 -13.73,30.85 -30.62,30.85 l 0,0 0,0 z m 49.39,-52.64 c 0,0.90 -0.85,1.77 -1.76,1.77 l -12.35,0 c -0.90,0 -1.76,-0.86 -1.76,-1.77 l 0,-5.33 c 0,-0.91 0.85,-1.77 1.76,-1.77 l 12.35,0 c 0.90,0 1.76,0.86 1.76,1.77 l 0,5.33 0,0 z m 0,0"
         id="path37" />
      <path
         d="m 17.28,1771.01 c -1.50,-1.34 -2.33,-1.45 -2.74,-1.33 l -4.53,8.47 8.99,-4.79 c -0.05,-0.44 -0.41,-1.18 -1.70,-2.34 l 0,0 0,0 z m 6.44,-18.50 -8.32,15.55 c 0.52,-0.24 1.87,-0.61 3.53,0.88 1.63,1.48 1.58,3.00 1.46,3.65 l 15.29,-8.16 c 0.01,-1.39 -0.13,-6.25 -2.97,-8.97 -2.83,-2.71 -7.61,-2.95 -8.99,-2.96 l 0,0 0,0 z m 66.76,-54.72 c -4.77,-4.53 -9.86,-3.45 -9.87,-3.45 l -8.88,8.87 c 0.00,0 5.74,-0.53 9.87,3.45 4.13,3.99 3.45,9.86 3.45,9.86 l -0.09,0.09 8.48,-8.47 c 0,-10e-4 1.81,-5.81 -2.96,-10.35 l 0,0 0,0 z m 39.50,-18.73 -2.96,-2.95 -3.95,3.94 c 0,0 0.86,0.30 0,1.47 -0.76,1.03 -20.70,22.63 -25.59,27.92 l -1.19,-4.13 30.24,-30.19 c 0,0 2.15,-6.22 -2.47,-10.84 -4.62,-4.62 -10.86,-2.46 -10.86,-2.46 l -4.44,4.43 c 0.00,-9e-4 5.74,-0.53 9.87,3.45 4.13,3.98 3.45,9.86 3.45,9.86 l -1.97,1.97 c 0,0 1.81,-5.81 -2.96,-10.35 -4.77,-4.53 -9.87,-3.45 -9.87,-3.45 l -16.95,16.92 -5.27,-18.24 -7.89,2.34 -1.49,-5.55 c -0.50,-1.86 -2.42,-2.97 -4.30,-2.47 -1.87,0.50 -2.98,2.42 -2.48,4.29 l 1.54,5.74 -3.89,1.15 -1.39,-5.20 c -0.5,-1.87 -2.42,-2.98 -4.29,-2.47 -1.87,0.50 -2.98,2.42 -2.48,4.29 l 1.44,5.39 -3.89,1.15 -1.30,-4.85 c -0.50,-1.87 -2.42,-2.97 -4.30,-2.47 -1.87,0.5 -2.98,2.42 -2.48,4.29 l 1.35,5.03 -3.89,1.15 -1.20,-4.50 c -0.5,-1.87 -2.42,-2.98 -4.30,-2.47 -1.87,0.5 -2.98,2.42 -2.48,4.29 l 1.25,4.68 -3.89,1.15 -1.11,-4.15 c -0.50,-1.87 -2.42,-2.98 -4.3,-2.47 -1.87,0.5 -2.98,2.42 -2.48,4.29 l 1.16,4.33 -7.81,2.31 15.26,53.84 -10.04,10.02 c 1.49,0.01 6.08,0.31 9.86,3.45 3.78,3.15 3.67,8.13 3.52,9.79 l 2.53,-2.52 5.19,18.31 64.96,-21.03 -12.88,-44.59 30.99,-30.94 0.49,-2.95 0,0 z m -58.17,-16.65 4.99,18.62 c -0.93,0.24 -1.89,-0.30 -2.15,-1.24 l -4.09,-15.23 c -0.25,-0.93 0.30,-1.89 1.24,-2.14 l 0,0 0,0 z m -10.53,3.50 4.99,18.62 c -0.93,0.25 -1.90,-0.30 -2.15,-1.24 l -4.09,-15.23 c -0.25,-0.93 0.30,-1.89 1.24,-2.14 l 0,0 0,0 z m -10.53,3.50 4.99,18.62 c -0.93,0.25 -1.89,-0.30 -2.14,-1.24 l -4.09,-15.23 c -0.25,-0.93 0.30,-1.89 1.24,-2.14 l 0,0 0,0 z m -10.53,3.50 5.00,18.62 c -0.93,0.25 -1.90,-0.30 -2.15,-1.24 l -4.09,-15.23 c -0.24,-0.93 0.30,-1.89 1.24,-2.14 l 0,0 0,0 z m -10.53,3.50 4.99,18.62 c -0.93,0.25 -1.89,-0.30 -2.14,-1.23 l -4.09,-15.23 c -0.25,-0.93 0.30,-1.89 1.24,-2.15 l 0,0 0,0 z m 74.04,66.84 c -0.59,0.41 -1.49,0.86 -2.86,1.29 -5.30,1.67 -9.35,-0.74 -9.34,-0.72 0,0 0.90,4.10 -0.18,9.36 -0.75,3.62 -2.13,5.79 -3.26,7.05 l -39.30,12.77 -4.50,-15.75 38.83,-38.77 c 0.00,-0.01 1.80,-5.81 -2.96,-10.35 -4.77,-4.53 -9.87,-3.45 -9.87,-3.45 l 0.74,-0.74 -32.66,32.60 -13.72,-48.04 4.34,-1.28 1.89,7.04 c 0.50,1.87 2.42,2.97 4.30,2.47 1.87,-0.49 2.98,-2.42 2.48,-4.29 l -1.93,-7.22 3.89,-1.15 1.79,6.68 c 0.5,1.87 2.42,2.98 4.3,2.47 1.87,-0.5 2.98,-2.42 2.48,-4.29 l -1.84,-6.86 3.89,-1.15 1.7,6.33 c 0.50,1.87 2.42,2.98 4.30,2.48 1.87,-0.50 2.98,-2.42 2.48,-4.29 l -1.74,-6.51 3.89,-1.15 1.60,5.98 c 0.50,1.87 2.42,2.98 4.30,2.48 1.87,-0.50 2.98,-2.42 2.48,-4.29 l -1.65,-6.16 3.89,-1.15 1.51,5.62 c 0.50,1.87 2.42,2.98 4.30,2.48 1.87,-0.50 2.98,-2.42 2.48,-4.29 l -1.56,-5.81 4.53,-1.34 4.72,16.22 -5.37,5.36 c 0.01,-10e-4 5.74,-0.53 9.87,3.45 4.13,3.99 3.45,9.85 3.45,9.85 l -1.95,1.94 0.68,2.36 c -0.91,0.14 -1.92,0.55 -2.69,1.60 -3.02,4.14 0.98,6.90 0.98,6.90 l 3.23,-3.23 8.02,27.51 0,0 z m 0,0"
         id="path39" />
      <path
         d="m 84.89,1876.99 c 12.22,0 23.32,3.46 31.48,9.1 2.43,-4.30 3.78,-8.97 3.78,-13.87 0,-21.01 -24.59,-38.05 -54.92,-38.05 -30.33,0 -54.92,17.03 -54.92,38.05 0,9.97 5.55,19.05 14.62,25.83 -0.55,1.95 -1.45,4.47 -2.80,6.53 -2.60,3.96 -11.22,4.54 -11.22,4.54 0,0 9.19,2.95 18.30,1.70 3.79,-0.52 7.39,-1.69 10.31,-2.88 1.15,-17.23 21.01,-30.96 45.36,-30.96 l 0,0 0,0 z m 34.73,58.26 c -1.55,-2.08 -2.39,-5.24 -2.74,-6.88 6.23,-5.08 9.99,-11.65 9.99,-18.85 0,-16.08 -18.79,-29.12 -41.98,-29.12 -23.18,0 -41.98,13.03 -41.98,29.12 0,16.08 18.79,29.12 41.98,29.12 6.49,0 12.64,-1.02 18.13,-2.85 1.20,1.15 4.52,3.87 10.10,5.14 7.54,1.71 16.53,-0.56 16.53,-0.56 0,0 -7.87,-2.18 -10.04,-5.11 l 0,0 0,0 z m 0,0"
         id="path41" />
      <path
         d="m 106.37,2012.15 -6.74,2.01 -2.03,-7.06 -18.15,5.40 -2.38,-8.26 -6.75,2.01 -2.03,-7.06 -58.27,17.35 0.17,0.62 c -0.00,-0.01 -0.01,-0.03 -0.02,-0.05 1.92,7.07 21.41,78.49 23.46,83.05 2.16,4.79 8.78,5.06 8.78,5.06 l 17.79,-5.78 c 1.36,4.63 2.34,7.79 2.73,8.64 2.15,4.79 8.78,5.06 8.78,5.06 l 58.27,-18.93 -23.62,-82.04 0,0 z m -85.45,8.80 c -4.89,0.67 -6.87,-1.87 -6.87,-1.87 l 52.15,-15.52 1.04,3.60 -46.32,13.79 0,0 z m 74.59,-9.47 1.04,3.60 -46.32,13.79 c -4.89,0.67 -6.87,-1.87 -6.87,-1.87 l 52.15,-15.52 0,0 z m -30.94,92.13 c -1.94,-6.27 -21.08,-73.09 -21.08,-73.09 0,0 1.81,1.31 3.62,1.64 1.49,0.27 2.47,0.16 2.47,0.16 l 20.91,76.39 c 0,0 -4.44,-0.32 -5.93,-5.11 l 0,0 0,0 z m -12.20,-71.6 52.15,-15.69 21.66,75.38 -52.15,17.18 -21.66,-76.88 0,0 z m 43.66,4.41 -25.15,7.88 1.37,4.41 25.15,-7.88 -1.37,-4.41 0,0 z m -22.79,15.44 1.37,4.40 25.15,-7.87 -1.37,-4.40 -25.15,7.88 0,0 z m 0,0"
         id="path43" />
      <path
         d="m 129.99,2165.44 c -2.53,0.11 -8.55,1.64 -13.86,4.02 -6.73,3.02 -10.82,6.58 -10.82,6.58 l -12.15,11.94 c -1.01,0.69 -2.12,1.49 -3.35,2.42 l -11.47,-0.70 c 3.28,-3.19 4.56,-5.37 4.56,-5.37 0,0 -0.14,-2.74 -2.78,-5.23 -2.63,-2.48 -4.96,-3.33 -4.96,-3.33 0,0 -2.42,0.29 -8.74,7.64 -1.00,1.17 -1.89,2.40 -2.69,3.65 l -38.27,-12.54 -6.7,3.03 18.01,11.03 c -2.22,2.05 -3.97,4.71 -3.58,5.18 0.33,0.4 4.28,-1.30 6.51,-3.38 l 9.83,6.02 c -2.63,2.08 -4.94,5.43 -4.50,5.97 0.34,0.41 4.49,-1.39 6.69,-3.54 0.13,-0.13 0.26,-0.26 0.39,-0.39 l 5.27,4.45 3.96,4.42 c -0.29,0.20 -0.58,0.41 -0.87,0.63 -2.68,2.07 -5.08,5.54 -4.63,6.08 0.34,0.41 4.5,-1.39 6.69,-3.54 0.30,-0.29 0.58,-0.59 0.85,-0.89 l 2.89,3.23 c -1.45,1.85 -2.66,3.58 -3.66,5.17 l -20.17,19.83 c 0,0 -0.88,0.87 -2.35,3.27 l -30.10,1.79 0,2.02 23.66,10.49 c -0.72,2.12 -1.25,3.93 -1.59,5.13 l 0.07,0.07 c 0,0 -0.41,0.66 0,1.01 0.41,0.34 1.03,0 1.03,0 l 0.03,0.09 c 1.22,-0.33 3.07,-0.85 5.26,-1.57 l 10.66,23.25 2.06,0 1.82,-29.58 c 2.43,-1.44 3.32,-2.31 3.32,-2.31 l 20.17,-19.83 c 1.61,-0.98 3.37,-2.17 5.25,-3.59 l 3.29,2.84 c -0.3,0.26 -0.60,0.53 -0.90,0.83 -2.18,2.16 -4.02,6.24 -3.60,6.58 0.55,0.44 4.07,-1.91 6.18,-4.55 0.22,-0.28 0.44,-0.56 0.64,-0.85 l 4.50,3.89 4.52,5.18 c -0.13,0.12 -0.26,0.24 -0.40,0.38 -2.18,2.16 -4.02,6.24 -3.60,6.58 0.54,0.43 3.95,-1.84 6.06,-4.42 l 6.12,9.66 c -2.11,2.19 -3.84,6.07 -3.43,6.40 0.47,0.38 3.17,-1.33 5.26,-3.52 l 11.21,17.69 3.09,-6.57 -12.75,-37.61 c 1.27,-0.77 2.52,-1.65 3.71,-2.64 7.47,-6.21 7.77,-8.59 7.77,-8.59 0,0 -0.85,-2.28 -3.38,-4.87 -2.52,-2.59 -5.32,-2.73 -5.32,-2.73 0,0 -2.22,1.26 -5.47,4.49 l -0.71,-11.27 c 0.94,-1.2 1.75,-2.29 2.46,-3.29 l 12.14,-11.94 c 0,0 3.61,-4.01 6.69,-10.63 2.42,-5.21 3.97,-11.13 4.08,-13.62 l -65.40,64.30 65.44,-64.35 0,0 z m 0,0"
         id="path45" />
      <g
         transform="translate(19.49,2342.09)"
         id="Group">
        <path
           d="M 5.02,0.61 C 2.24,0.61 0,2.85 0,5.63 l 0,33.71 c 0,2.77 2.22,5.02 5.02,5.02 l 33.71,0 c 2.77,0 5.01,-2.23 5.01,-5.02 l 0,-33.71 c 0,-2.77 -2.22,-5.01 -5.01,-5.01 l -33.71,0 0,0 z m 0,0"
           id="path48" />
        <path
           d="m 61.27,0.61 c -2.77,0 -5.02,2.23 -5.02,5.01 l 0,33.71 c 0,2.77 2.22,5.02 5.02,5.02 l 33.71,0 c 2.77,0 5.02,-2.23 5.02,-5.02 l 0,-33.71 c 0,-2.77 -2.22,-5.01 -5.02,-5.01 l -33.71,0 0,0 z m 0,0"
           id="path50" />
        <path
           d="M 5.02,56.86 C 2.24,56.86 0,59.10 0,61.88 L 0,95.6 c 0,2.77 2.22,5.01 5.02,5.01 l 33.71,0 c 2.77,0 5.01,-2.23 5.01,-5.01 l 0,-33.71 c 0,-2.77 -2.22,-5.02 -5.01,-5.02 l -33.71,0 0,0 z m 0,0"
           id="path52" />
        <path
           d="m 61.27,56.86 c -2.77,0 -5.02,2.23 -5.02,5.02 l 0,33.71 c 0,2.77 2.22,5.01 5.02,5.01 l 33.71,0 c 2.77,0 5.02,-2.23 5.02,-5.01 l 0,-33.71 c 0,-2.77 -2.22,-5.02 -5.02,-5.02 l -33.71,0 0,0 z m 0,0"
           id="path54" />
      </g>
      <g
         transform="translate(6,2497)"
         id="g56">
        <path
           d="m 0,128 128,0 -23.43,-52.06 -16.66,0 C 95.90,63.40 102.82,49.83 102.82,40.41 102.82,18.09 85.44,0.00 64,0.00 c -21.44,0 -38.82,18.09 -38.82,40.41 0,9.42 6.92,22.99 14.92,35.52 l -14.25,0 L 0,128 0,128 z M 64,11.47 c 13.40,0 24.26,11.30 24.26,25.25 0,13.94 -10.86,25.25 -24.26,25.25 -6.86,0 -13.05,-2.98 -17.47,-7.75 C 42.32,49.69 39.73,43.53 39.73,36.73 39.73,22.78 50.59,11.47 64,11.47 l 0,0 z M 43.96,81.79 C 53.87,96.39 64,108.26 64,108.26 c 0,0 10.12,-11.87 20.03,-26.47 l 17.00,0 18.15,40.34 -109.98,0 20.02,-40.34 14.74,0 0,0 z m 0,0"
           id="path58" />
        <path
           d="M 59.71,32.52 46.52,54.23 68.26,40.96 81.47,19.23 59.71,32.52 z m 0,0"
           id="path60" />
      </g>
    </g>
  </defs>
  <use
     id="use3268"
     style="fill:#4cb1ff"
     x="0"
     y="0"
     width="418"
     height="2624"
     xlink:href="#Iconography" />
  <use
     transform="translate(60,0)"
     id="use3272"
     style="fill-opacity:0"
     x="0"
     y="0"
     width="418"
     height="2624"
     xlink:href="#Iconography" />
  <use
     transform="translate(120,0)"
     id="use3270"
     style="fill:#ffffff"
     x="0"
     y="0"
     width="418"
     height="2624"
     xlink:href="#Iconography" />
</svg>
