<?xml version="1.0" encoding="utf-8"?>
<!-- Generator: Adobe Illustrator 18.0.0, SVG Export Plug-In . SVG Version: 6.00 Build 0)  -->
<!DOCTYPE svg PUBLIC "-//W3C//DTD SVG 1.1//EN" "http://www.w3.org/Graphics/SVG/1.1/DTD/svg11.dtd">
<svg version="1.1" id="Layer_1" xmlns="http://www.w3.org/2000/svg" xmlns:xlink="http://www.w3.org/1999/xlink" x="0px" y="0px"
	 viewBox="0 0 32 32" enable-background="new 0 0 32 32" xml:space="preserve">
<g id="_x39_12-gears_x40_2x.png_6_">
	<g>
		<path fill="none" stroke="#F1F1F1" stroke-width="2" stroke-linecap="round" stroke-linejoin="round" stroke-miterlimit="10" d="
			M30.5,13.9L30.5,13.9l-3.6-1.2c-0.2-0.7-0.5-1.4-0.9-2.1l1.7-3.4l0,0c0.1-0.3,0.1-0.6-0.1-0.8l-2-2c-0.2-0.2-0.6-0.3-0.8-0.1l0,0
			L21.4,6c-0.7-0.4-1.3-0.7-2.1-0.9l-1.2-3.6l0,0C18,1.2,17.7,1,17.4,1h-2.9c-0.3,0-0.6,0.2-0.7,0.5l0,0l-1.2,3.6
			C12,5.3,11.3,5.6,10.6,6L7.2,4.2l0,0C7,4.1,6.6,4.2,6.4,4.4l-2,2C4.2,6.6,4.1,7,4.3,7.2l0,0L6,10.6c-0.4,0.7-0.7,1.3-0.9,2.1
			l-3.6,1.2l0,0C1.2,14,1,14.3,1,14.6v2.9c0,0.3,0.2,0.6,0.5,0.7l0,0l3.6,1.2C5.3,20,5.6,20.7,6,21.4l-1.7,3.4l0,0
			c-0.1,0.3-0.1,0.6,0.1,0.8l2,2c0.2,0.2,0.6,0.3,0.8,0.1l0,0l3.4-1.7c0.7,0.4,1.3,0.7,2.1,0.9l1.2,3.6l0,0c0.1,0.3,0.4,0.5,0.7,0.5
			h2.9c0.3,0,0.6-0.2,0.7-0.5l0,0l1.2-3.6c0.7-0.2,1.4-0.5,2.1-0.9l3.4,1.7l0,0c0.3,0.1,0.6,0.1,0.8-0.1l2-2
			c0.2-0.2,0.3-0.6,0.1-0.8l0,0L26,21.4c0.4-0.7,0.7-1.3,0.9-2.1l3.6-1.2l0,0c0.3-0.1,0.5-0.4,0.5-0.7v-2.9
			C31,14.3,30.8,14,30.5,13.9z M16,22.4c-3.6,0-6.4-2.9-6.4-6.4c0-3.6,2.9-6.4,6.4-6.4s6.4,2.9,6.4,6.4C22.4,19.6,19.6,22.4,16,22.4
			z"/>
	</g>
</g>
</svg>
