<?xml version="1.0" encoding="utf-8"?>
<!-- Generator: Adobe Illustrator 18.1.1, SVG Export Plug-In . SVG Version: 6.00 Build 0)  -->
<!DOCTYPE svg PUBLIC "-//W3C//DTD SVG 1.1//EN" "http://www.w3.org/Graphics/SVG/1.1/DTD/svg11.dtd">
<svg version="1.1" id="Layer_1" xmlns="http://www.w3.org/2000/svg" xmlns:xlink="http://www.w3.org/1999/xlink" x="0px" y="0px"
     viewBox="0 0 90 86.8" enable-background="new 0 0 90 86.8" xml:space="preserve">
<g>
    <g>
        <g>
            <path fill="#3D85BC" d="M35,86.3H5c-2.8,0-5-2.2-5-5v-30c0-2.8,2.2-5,5-5h30c2.8,0,5,2.2,5,5v30C40,84.1,37.8,86.3,35,86.3z"/>
        </g>
        <g>
            <path fill="#4CB0FF" d="M35,85H5c-2.8,0-5-2.2-5-5V50c0-2.8,2.2-5,5-5h30c2.8,0,5,2.2,5,5v30C40,82.8,37.8,85,35,85z"/>
        </g>
    </g>
    <g>
        <g>
            <circle fill="#FFFFFF" cx="10" cy="55" r="2.3"/>
            <path fill="#FFFFFF" d="M30,57.3H17.7c-1.3,0-2.3-1-2.3-2.3v0c0-1.3,1-2.3,2.3-2.3H30c1.3,0,2.3,1,2.3,2.3v0
                C32.4,56.3,31.3,57.3,30,57.3z"/>
        </g>
        <g>
            <circle fill="#FFFFFF" cx="10" cy="75" r="2.3"/>
            <path fill="#FFFFFF" d="M30,77.3H17.7c-1.3,0-2.3-1.1-2.3-2.3v0c0-1.3,1-2.3,2.3-2.3H30c1.3,0,2.3,1,2.3,2.3v0
                C32.4,76.3,31.3,77.3,30,77.3z"/>
        </g>
        <g>
            <circle fill="#FFFFFF" cx="10" cy="65" r="2.3"/>
            <path fill="#FFFFFF" d="M30,67.3H17.7c-1.3,0-2.3-1.1-2.3-2.3v0c0-1.3,1-2.3,2.3-2.3H30c1.3,0,2.3,1,2.3,2.3v0
                C32.4,66.3,31.3,67.3,30,67.3z"/>
        </g>
    </g>
</g>
<g>
    <path fill="#CBCBCB" d="M85,86.4H55c-2.8,0-5-2.2-5-5v-30c0-2.8,2.2-5,5-5h30c2.8,0,5,2.2,5,5v30C90,84.1,87.8,86.4,85,86.4z"/>
    <g>
        <circle fill="#FFFFFF" cx="59.8" cy="56.3" r="2.3"/>
        <path fill="#FFFFFF" d="M80.2,58.5H67.8c-1.3,0-2.3-1-2.3-2.3v0c0-1.3,1-2.3,2.3-2.3h12.3c1.3,0,2.3,1,2.3,2.3v0
            C82.5,57.5,81.4,58.5,80.2,58.5z"/>
        <path fill="#FFFFFF" d="M80.2,78.9H59.8c-1.3,0-2.3-1.1-2.3-2.3V66.2c0-1.3,1.1-2.3,2.3-2.3h20.3c1.3,0,2.3,1.1,2.3,2.3v10.3
            C82.5,77.8,81.4,78.9,80.2,78.9z"/>
    </g>
</g>
<g>
    <path fill="#CBCBCB" d="M35,41.5H5c-2.8,0-5-2.2-5-5v-30c0-2.8,2.2-5,5-5h30c2.8,0,5,2.2,5,5v30C40,39.2,37.8,41.5,35,41.5z"/>
    <g>
        <g>
            <circle fill="#FFFFFF" cx="10" cy="11.5" r="2.3"/>
            <path fill="#FFFFFF" d="M30,13.8H17.7c-1.3,0-2.3-1-2.3-2.3v0c0-1.3,1-2.3,2.3-2.3H30c1.3,0,2.3,1,2.3,2.3v0
                C32.4,12.8,31.3,13.8,30,13.8z"/>
        </g>
        <g>
            <circle fill="#FFFFFF" cx="10" cy="31.5" r="2.3"/>
            <path fill="#FFFFFF" d="M30,33.8H17.7c-1.3,0-2.3-1-2.3-2.3v0c0-1.3,1-2.3,2.3-2.3H30c1.3,0,2.3,1,2.3,2.3v0
                C32.4,32.8,31.3,33.8,30,33.8z"/>
        </g>
        <g>
            <circle fill="#FFFFFF" cx="10" cy="21.5" r="2.3"/>
            <path fill="#FFFFFF" d="M30,23.8H17.7c-1.3,0-2.3-1-2.3-2.3v0c0-1.3,1-2.3,2.3-2.3H30c1.3,0,2.3,1,2.3,2.3v0
                C32.4,22.8,31.3,23.8,30,23.8z"/>
        </g>
    </g>
</g>
<g>
    <g>
        <g>
            <path fill="#3D85BC" d="M85,41.3H55c-2.8,0-5-2.2-5-5v-30c0-2.8,2.2-5,5-5h30c2.8,0,5,2.2,5,5v30C90,39.1,87.8,41.3,85,41.3z"/>
        </g>
        <g>
            <path fill="#4CB0FF" d="M85,40H55c-2.8,0-5-2.2-5-5V5c0-2.8,2.2-5,5-5h30c2.8,0,5,2.2,5,5v30C90,37.8,87.8,40,85,40z"/>
        </g>
    </g>
    <g>
        <circle fill="#FFFFFF" cx="59.8" cy="9.9" r="2.3"/>
        <path fill="#FFFFFF" d="M80.2,12.2H67.8c-1.3,0-2.3-1-2.3-2.3v0c0-1.3,1-2.3,2.3-2.3h12.3c1.3,0,2.3,1,2.3,2.3v0
            C82.5,11.1,81.5,12.2,80.2,12.2z"/>
        <path fill="#FFFFFF" d="M80.2,32.5H59.8c-1.3,0-2.3-1.1-2.3-2.3V19.8c0-1.3,1.1-2.3,2.3-2.3h20.3c1.3,0,2.3,1.1,2.3,2.3v10.3
            C82.5,31.4,81.4,32.5,80.2,32.5z"/>
    </g>
</g>
</svg>
