<?xml version="1.0" encoding="utf-8"?>
<!-- Generator: Adobe Illustrator 18.0.0, SVG Export Plug-In . SVG Version: 6.00 Build 0)  -->
<!DOCTYPE svg PUBLIC "-//W3C//DTD SVG 1.1//EN" "http://www.w3.org/Graphics/SVG/1.1/DTD/svg11.dtd">
<svg version="1.1" id="Layer_1" xmlns="http://www.w3.org/2000/svg" xmlns:xlink="http://www.w3.org/1999/xlink" x="0px" y="0px"
	 viewBox="0 0 32 32" enable-background="new 0 0 32 32" xml:space="preserve">
<g>
	<path fill="none" stroke="#F1F1F1" stroke-width="2" stroke-linejoin="round" stroke-miterlimit="10" d="M30,8.8l-4,0
		c0,0-2.3,0-2.9-2.5c-0.5-2-0.8-3.3-3.2-3.3c-0.6,0-1.3,0-2,0c0,0-1.9,0-3.7,0c-0.7,0-1.4,0-2,0c-2.4,0-2.8,1.4-3.2,3.3
		C8.3,8.8,6,8.8,6,8.8l-4,0l0.5,8.9L2,29.1h28l-0.5-11.4L30,8.8z"/>
	<path fill="#FFFFFF" d="M14.1,5h3.7c0.5,0,1,0.4,1,1c0,0.6-0.4,1-1,1h-3.7c-0.5,0-1-0.4-1-1C13.2,5.4,13.6,5,14.1,5z"/>
	<path fill="#F1F1F1" d="M16,26.3c-0.4,0-1.4-1.1-1.4-2.6c0-0.4,0-0.8,0.1-1.1h0.7c-0.1,0.2-0.1,0.4-0.1,0.7c0,0.6,0.5,1.2,0.6,1.2
		c0.2,0,0.6-0.5,0.6-1.2c0-0.2,0-0.5-0.1-0.7h0.8c0.1,0.3,0.1,0.7,0.1,1.1C17.4,25.2,16.4,26.3,16,26.3z"/>
	<path fill="none" stroke="#F1F1F1" stroke-width="2" stroke-linejoin="round" stroke-miterlimit="10" d="M21.3,23.4h-1.4l-2-2
		c-0.2,0.2-0.4,0.4-0.7,0.5h-2.5c-0.2-0.1-0.5-0.3-0.7-0.5l-2,2h-1.4V18l2-2.1c0.6-3,2.4-6.1,3.3-6.1c0.9,0,2.7,3.1,3.3,6.1l2,2.1
		V23.4z"/>
	<path fill="#F1F1F1" d="M16,13c-0.3,0-0.8,0.9-1.2,1.9c0.4-0.1,0.8-0.1,1.2-0.1c0.4,0,0.8,0,1.1,0.1C16.8,13.9,16.3,13,16,13z"/>
</g>
</svg>
