<?xml version="1.0" encoding="utf-8"?>
<!-- Generator: Adobe Illustrator 18.0.0, SVG Export Plug-In . SVG Version: 6.00 Build 0)  -->
<!DOCTYPE svg PUBLIC "-//W3C//DTD SVG 1.1//EN" "http://www.w3.org/Graphics/SVG/1.1/DTD/svg11.dtd">
<svg version="1.1" id="Layer_1" xmlns="http://www.w3.org/2000/svg" xmlns:xlink="http://www.w3.org/1999/xlink" x="0px" y="0px"
	 viewBox="0 0 100 77" enable-background="new 0 0 100 77" xml:space="preserve">
<g>
	<g>
		<rect y="57.6" fill="#919191" width="14.4" height="14.4"/>
		<rect x="20.2" y="43.2" fill="#919191" width="14.4" height="28.8"/>
		<rect x="40.3" y="28.8" fill="#919191" width="14.4" height="43.2"/>
		<rect x="60.5" y="14.4" fill="#919191" width="14.4" height="57.6"/>
		<rect x="80.6" y="0" fill="#919191" width="14.4" height="72"/>
	</g>
	<g>
		<polygon fill="#414042" points="99.3,46.5 93.1,40.3 81.3,52.1 69.5,40.3 63.3,46.5 75.1,58.3 63.3,70.1 69.5,76.3 81.3,64.5 
			93.1,76.3 99.3,70.1 87.5,58.3 		"/>
		<path fill="#FFFFFF" d="M93.1,77L81.3,65.2L69.5,77l-6.9-6.9l11.8-11.8L62.7,46.5l6.9-6.9l11.8,11.8l11.8-11.8l6.9,6.9L88.2,58.3
			L100,70.1L93.1,77z M81.3,63.8l11.8,11.8l5.5-5.5L86.8,58.3l11.8-11.8L93.1,41L81.3,52.8L69.5,41L64,46.5l11.8,11.8L64,70.1
			l5.5,5.5L81.3,63.8z"/>
	</g>
</g>
</svg>
