<?xml version="1.0" encoding="UTF-8" standalone="no"?>
<svg width="541px" height="40px" viewBox="0 0 541 40" version="1.1" xmlns="http://www.w3.org/2000/svg" xmlns:xlink="http://www.w3.org/1999/xlink" xmlns:sketch="http://www.bohemiancoding.com/sketch/ns">
    <title>Review_Stars_large</title>
    <description>Created with Sketch (http://www.bohemiancoding.com/sketch)</description>
    <defs></defs>
    <g id="Assets" stroke="none" stroke-width="1" fill="none" fill-rule="evenodd">
        <g id="Review_Stars_large">
            <g id="Group" transform="translate(-1.000000, 0.000000)" fill="#0096DD">
                <path d="M21.1862064,33 L8.73326793,39.7983746 L11.111567,25.3991874 L1.03692662,15.2016266 L14.9597389,13.1008116 L21.1862071,2.44249065e-15 L27.4126792,13.1008148 L41.3354904,15.2016371 L31.260846,25.3991901 L33.6391455,39.7983749 L21.1862064,33 Z M21.1862064,33" id="Star 1"></path>
            </g>
            <g id="Group" transform="translate(49.000000, 0.000000)" fill="#0096DD">
                <path d="M21.1862064,33 L8.73326793,39.7983746 L11.111567,25.3991874 L1.03692662,15.2016266 L14.9597389,13.1008116 L21.1862071,2.44249065e-15 L27.4126792,13.1008148 L41.3354904,15.2016371 L31.260846,25.3991901 L33.6391455,39.7983749 L21.1862064,33 Z M21.1862064,33" id="Star 1"></path>
            </g>
            <g id="Group" transform="translate(99.000000, 0.000000)" fill="#0096DD">
                <path d="M21.1862064,33 L8.73326793,39.7983746 L11.111567,25.3991874 L1.03692662,15.2016266 L14.9597389,13.1008116 L21.1862071,2.44249065e-15 L27.4126792,13.1008148 L41.3354904,15.2016371 L31.260846,25.3991901 L33.6391455,39.7983749 L21.1862064,33 Z M21.1862064,33" id="Star 1"></path>
            </g>
            <g id="Group" transform="translate(149.000000, 0.000000)" fill="#0096DD">
                <path d="M21.1862064,33 L8.73326793,39.7983746 L11.111567,25.3991874 L1.03692662,15.2016266 L14.9597389,13.1008116 L21.1862071,2.44249065e-15 L27.4126792,13.1008148 L41.3354904,15.2016371 L31.260846,25.3991901 L33.6391455,39.7983749 L21.1862064,33 Z M21.1862064,33" id="Star 1"></path>
            </g>
            <g id="Group" transform="translate(199.000000, 0.000000)" fill="#0096DD">
                <path d="M21.1862064,33 L8.73326793,39.7983746 L11.111567,25.3991874 L1.03692662,15.2016266 L14.9597389,13.1008116 L21.1862071,2.44249065e-15 L27.4126792,13.1008148 L41.3354904,15.2016371 L31.260846,25.3991901 L33.6391455,39.7983749 L21.1862064,33 Z M21.1862064,33" id="Star 1"></path>
            </g>
            <g id="Group" transform="translate(249.000000, 0.000000)" fill="#0096DD">
                <path d="M21.1862064,33 L8.73326793,39.7983746 L11.111567,25.3991874 L1.03692662,15.2016266 L14.9597389,13.1008116 L21.1862071,2.44249065e-15 L27.4126792,13.1008148 L41.3354904,15.2016371 L31.260846,25.3991901 L33.6391455,39.7983749 L21.1862064,33 Z M21.1862064,33" id="Star 1"></path>
            </g>
            <g id="Group" transform="translate(299.000000, 0.000000)" fill="#A7A7A7">
                <path d="M21.1862064,33 L8.73326793,39.7983746 L11.111567,25.3991874 L1.03692662,15.2016266 L14.9597389,13.1008116 L21.1862071,2.44249065e-15 L27.4126792,13.1008148 L41.3354904,15.2016371 L31.260846,25.3991901 L33.6391455,39.7983749 L21.1862064,33 Z M21.1862064,33" id="Star 1"></path>
            </g>
            <g id="Group" transform="translate(349.000000, 0.000000)" fill="#A7A7A7">
                <path d="M21.1862064,33 L8.73326793,39.7983746 L11.111567,25.3991874 L1.03692662,15.2016266 L14.9597389,13.1008116 L21.1862071,2.44249065e-15 L27.4126792,13.1008148 L41.3354904,15.2016371 L31.260846,25.3991901 L33.6391455,39.7983749 L21.1862064,33 Z M21.1862064,33" id="Star 1"></path>
            </g>
            <g id="Group" transform="translate(399.000000, 0.000000)" fill="#A7A7A7">
                <path d="M21.1862064,33 L8.73326793,39.7983746 L11.111567,25.3991874 L1.03692662,15.2016266 L14.9597389,13.1008116 L21.1862071,2.44249065e-15 L27.4126792,13.1008148 L41.3354904,15.2016371 L31.260846,25.3991901 L33.6391455,39.7983749 L21.1862064,33 Z M21.1862064,33" id="Star 1"></path>
            </g>
            <g id="Group" transform="translate(449.000000, 0.000000)" fill="#A7A7A7">
                <path d="M21.1862064,33 L8.73326793,39.7983746 L11.111567,25.3991874 L1.03692662,15.2016266 L14.9597389,13.1008116 L21.1862071,2.44249065e-15 L27.4126792,13.1008148 L41.3354904,15.2016371 L31.260846,25.3991901 L33.6391455,39.7983749 L21.1862064,33 Z M21.1862064,33" id="Star 1"></path>
            </g>
            <g id="Group" transform="translate(499.000000, 0.000000)" fill="#A7A7A7">
                <path d="M21.1862064,33 L8.73326793,39.7983746 L11.111567,25.3991874 L1.03692662,15.2016266 L14.9597389,13.1008116 L21.1862071,2.44249065e-15 L27.4126792,13.1008148 L41.3354904,15.2016371 L31.260846,25.3991901 L33.6391455,39.7983749 L21.1862064,33 Z M21.1862064,33" id="Star 1"></path>
            </g>
        </g>
    </g>
</svg>