<?xml version="1.0" encoding="utf-8"?>
<!-- Generator: Adobe Illustrator 18.1.1, SVG Export Plug-In . SVG Version: 6.00 Build 0)  -->
<!DOCTYPE svg PUBLIC "-//W3C//DTD SVG 1.1//EN" "http://www.w3.org/Graphics/SVG/1.1/DTD/svg11.dtd">
<svg version="1.1" id="Layer_1" xmlns="http://www.w3.org/2000/svg" xmlns:xlink="http://www.w3.org/1999/xlink" x="0px" y="0px"
	 viewBox="0 0 1090 100" enable-background="new 0 0 1090 100" xml:space="preserve">
<g id="Stars">
	<path fill-rule="evenodd" clip-rule="evenodd" fill="#5BBEFF" d="M47.7,86.5L24.4,99.4c-3.4,1.9-7.5-1-6.9-4.8l4.6-28.1
		c0.2-1.5-0.2-2.9-1.3-4L1.3,42.3C-1.3,39.6,0.2,35,4,34.4l26.6-4.1c1.5-0.2,2.9-1.2,3.5-2.6l11.7-25c1.7-3.6,6.8-3.6,8.5,0l11.7,25
		c0.7,1.4,2,2.4,3.5,2.6L96,34.4c3.8,0.6,5.3,5.2,2.6,7.9L79.1,62.4c-1,1.1-1.5,2.5-1.3,4l4.6,28.1c0.6,3.9-3.5,6.7-6.9,4.8
		L52.3,86.5C50.9,85.7,49.1,85.7,47.7,86.5z"/>
	<path fill-rule="evenodd" clip-rule="evenodd" fill="#5BBEFF" d="M157.7,86.5l-23.3,12.9c-3.4,1.9-7.5-1-6.9-4.8l4.6-28.1
		c0.2-1.5-0.2-2.9-1.3-4l-19.5-20.1c-2.6-2.7-1.1-7.3,2.6-7.9l26.6-4.1c1.5-0.2,2.9-1.2,3.5-2.6l11.7-25c1.7-3.6,6.8-3.6,8.5,0
		l11.7,25c0.7,1.4,2,2.4,3.5,2.6l26.6,4.1c3.8,0.6,5.3,5.2,2.6,7.9l-19.5,20.1c-1,1.1-1.5,2.5-1.3,4l4.6,28.1
		c0.6,3.9-3.5,6.7-6.9,4.8l-23.3-12.9C160.9,85.7,159.1,85.7,157.7,86.5z"/>
	<path fill-rule="evenodd" clip-rule="evenodd" fill="#5BBEFF" d="M267.7,86.5l-23.3,12.9c-3.4,1.9-7.5-1-6.9-4.8l4.6-28.1
		c0.2-1.5-0.2-2.9-1.3-4l-19.5-20.1c-2.6-2.7-1.1-7.3,2.6-7.9l26.6-4.1c1.5-0.2,2.9-1.2,3.5-2.6l11.7-25c1.7-3.6,6.8-3.6,8.5,0
		l11.7,25c0.7,1.4,2,2.4,3.5,2.6l26.6,4.1c3.8,0.6,5.3,5.2,2.6,7.9l-19.5,20.1c-1,1.1-1.5,2.5-1.3,4l4.6,28.1
		c0.6,3.9-3.5,6.7-6.9,4.8l-23.3-12.9C270.9,85.7,269.1,85.7,267.7,86.5z"/>
	<path fill-rule="evenodd" clip-rule="evenodd" fill="#5BBEFF" d="M377.7,86.5l-23.3,12.9c-3.4,1.9-7.5-1-6.9-4.8l4.6-28.1
		c0.2-1.5-0.2-2.9-1.3-4l-19.5-20.1c-2.6-2.7-1.1-7.3,2.6-7.9l26.6-4.1c1.5-0.2,2.9-1.2,3.5-2.6l11.7-25c1.7-3.6,6.8-3.6,8.5,0
		l11.7,25c0.7,1.4,2,2.4,3.5,2.6l26.6,4.1c3.8,0.6,5.3,5.2,2.6,7.9l-19.5,20.1c-1,1.1-1.5,2.5-1.3,4l4.6,28.1
		c0.6,3.9-3.5,6.7-6.9,4.8l-23.3-12.9C380.9,85.7,379.1,85.7,377.7,86.5z"/>
	<path fill-rule="evenodd" clip-rule="evenodd" fill="#5BBEFF" d="M487.7,86.5l-23.3,12.9c-3.4,1.9-7.5-1-6.9-4.8l4.6-28.1
		c0.2-1.5-0.2-2.9-1.3-4l-19.5-20.1c-2.6-2.7-1.1-7.3,2.6-7.9l26.6-4.1c1.5-0.2,2.9-1.2,3.5-2.6l11.7-25c1.7-3.6,6.8-3.6,8.5,0
		l11.7,25c0.7,1.4,2,2.4,3.5,2.6l26.6,4.1c3.8,0.6,5.3,5.2,2.6,7.9l-19.5,20.1c-1,1.1-1.5,2.5-1.3,4l4.6,28.1
		c0.6,3.9-3.5,6.7-6.9,4.8l-23.3-12.9C490.9,85.7,489.1,85.7,487.7,86.5z"/>
	<path fill="#D3D3D3" d="M600,21.3l5.4,11.5c2.3,4.9,6.9,8.3,12.2,9.1l13.2,2l-10.1,10.4c-3.6,3.7-5.2,8.8-4.4,13.9l2.3,13.9
		l-10.7-5.9c-2.4-1.3-5.1-2-7.9-2c-2.7,0-5.5,0.7-7.9,2l-10.7,5.9l2.3-13.9c0.8-5-0.8-10.2-4.4-13.9L569.3,44l13.2-2
		c5.4-0.8,9.9-4.2,12.2-9.1L600,21.3 M600,0c-1.6,0-3.3,0.9-4.1,2.6l-11.8,25.3c-0.6,1.4-1.9,2.3-3.4,2.6l-26.8,4.1
		c-3.6,0.6-5.1,5-2.6,7.7L571,62.5c1,1,1.5,2.5,1.2,3.9l-4.6,28.4c-0.5,2.9,1.9,5.3,4.5,5.3c0.7,0,1.5-0.2,2.2-0.6l23.5-13
		c0.7-0.4,1.4-0.6,2.2-0.6c0.8,0,1.5,0.2,2.2,0.6l23.5,13c0.7,0.4,1.5,0.6,2.2,0.6c2.6,0,5-2.3,4.5-5.3l-4.6-28.4
		c-0.2-1.4,0.2-2.9,1.2-3.9l19.7-20.3c2.6-2.6,1.1-7.1-2.6-7.7l-26.8-4.1c-1.5-0.2-2.8-1.2-3.4-2.6L604.1,2.6
		C603.3,0.9,601.6,0,600,0L600,0z"/>
	<path fill="#D3D3D3" d="M710,21.3l5.4,11.5c2.3,4.9,6.9,8.3,12.2,9.1l13.2,2l-10.1,10.4c-3.6,3.7-5.2,8.8-4.4,13.9l2.3,13.9
		l-10.7-5.9c-2.4-1.3-5.1-2-7.9-2c-2.7,0-5.5,0.7-7.9,2l-10.7,5.9l2.3-13.9c0.8-5-0.8-10.2-4.4-13.9L679.3,44l13.2-2
		c5.4-0.8,9.9-4.2,12.2-9.1L710,21.3 M710,0c-1.6,0-3.3,0.9-4.1,2.6l-11.8,25.3c-0.6,1.4-1.9,2.3-3.4,2.6l-26.8,4.1
		c-3.6,0.6-5.1,5-2.6,7.7L681,62.5c1,1,1.5,2.5,1.2,3.9l-4.6,28.4c-0.5,2.9,1.9,5.3,4.5,5.3c0.7,0,1.5-0.2,2.2-0.6l23.5-13
		c0.7-0.4,1.4-0.6,2.2-0.6c0.8,0,1.5,0.2,2.2,0.6l23.5,13c0.7,0.4,1.5,0.6,2.2,0.6c2.6,0,5-2.3,4.5-5.3l-4.6-28.4
		c-0.2-1.4,0.2-2.9,1.2-3.9l19.7-20.3c2.6-2.6,1.1-7.1-2.6-7.7l-26.8-4.1c-1.5-0.2-2.8-1.2-3.4-2.6L714.1,2.6
		C713.3,0.9,711.6,0,710,0L710,0z"/>
	<path fill="#D3D3D3" d="M820,21.3l5.4,11.5c2.3,4.9,6.9,8.3,12.2,9.1l13.2,2l-10.1,10.4c-3.6,3.7-5.2,8.8-4.4,13.9l2.3,13.9
		l-10.7-5.9c-2.4-1.3-5.1-2-7.9-2c-2.7,0-5.5,0.7-7.9,2l-10.7,5.9l2.3-13.9c0.8-5-0.8-10.2-4.4-13.9L789.3,44l13.2-2
		c5.4-0.8,9.9-4.2,12.2-9.1L820,21.3 M820,0c-1.6,0-3.3,0.9-4.1,2.6l-11.8,25.3c-0.6,1.4-1.9,2.3-3.4,2.6l-26.8,4.1
		c-3.6,0.6-5.1,5-2.6,7.7L791,62.5c1,1,1.5,2.5,1.2,3.9l-4.6,28.4c-0.5,2.9,1.9,5.3,4.5,5.3c0.7,0,1.5-0.2,2.2-0.6l23.5-13
		c0.7-0.4,1.4-0.6,2.2-0.6c0.8,0,1.5,0.2,2.2,0.6l23.5,13c0.7,0.4,1.5,0.6,2.2,0.6c2.6,0,5-2.3,4.5-5.3l-4.6-28.4
		c-0.2-1.4,0.2-2.9,1.2-3.9l19.7-20.3c2.6-2.6,1.1-7.1-2.6-7.7l-26.8-4.1c-1.5-0.2-2.8-1.2-3.4-2.6L824.1,2.6
		C823.3,0.9,821.6,0,820,0L820,0z"/>
	<path fill="#D3D3D3" d="M930,21.3l5.4,11.5c2.3,4.9,6.9,8.3,12.2,9.1l13.2,2l-10.1,10.4c-3.6,3.7-5.2,8.8-4.4,13.9l2.3,13.9
		l-10.7-5.9c-2.4-1.3-5.1-2-7.9-2c-2.7,0-5.5,0.7-7.9,2l-10.7,5.9l2.3-13.9c0.8-5-0.8-10.2-4.4-13.9L899.3,44l13.2-2
		c5.4-0.8,9.9-4.2,12.2-9.1L930,21.3 M930,0c-1.6,0-3.3,0.9-4.1,2.6l-11.8,25.3c-0.6,1.4-1.9,2.3-3.4,2.6l-26.8,4.1
		c-3.6,0.6-5.1,5-2.6,7.7L901,62.5c1,1,1.5,2.5,1.2,3.9l-4.6,28.4c-0.5,2.9,1.9,5.3,4.5,5.3c0.7,0,1.5-0.2,2.2-0.6l23.5-13
		c0.7-0.4,1.4-0.6,2.2-0.6c0.8,0,1.5,0.2,2.2,0.6l23.5,13c0.7,0.4,1.5,0.6,2.2,0.6c2.6,0,5-2.3,4.5-5.3l-4.6-28.4
		c-0.2-1.4,0.2-2.9,1.2-3.9l19.7-20.3c2.6-2.6,1.1-7.1-2.6-7.7l-26.8-4.1c-1.5-0.2-2.8-1.2-3.4-2.6L934.1,2.6
		C933.3,0.9,931.6,0,930,0L930,0z"/>
	<path fill="#D3D3D3" d="M1040,21.3l5.4,11.5c2.3,4.9,6.9,8.3,12.2,9.1l13.2,2l-10.1,10.4c-3.6,3.7-5.2,8.8-4.4,13.9l2.3,13.9
		l-10.7-5.9c-2.4-1.3-5.1-2-7.9-2s-5.5,0.7-7.9,2l-10.7,5.9l2.3-13.9c0.8-5-0.8-10.2-4.4-13.9L1009.3,44l13.2-2
		c5.4-0.8,9.9-4.2,12.2-9.1L1040,21.3 M1040,0c-1.6,0-3.3,0.9-4.1,2.6l-11.8,25.3c-0.6,1.4-1.9,2.3-3.4,2.6l-26.8,4.1
		c-3.6,0.6-5.1,5-2.6,7.7l19.7,20.3c1,1,1.5,2.5,1.2,3.9l-4.6,28.4c-0.5,2.9,1.9,5.3,4.5,5.3c0.7,0,1.5-0.2,2.2-0.6l23.5-13
		c0.7-0.4,1.4-0.6,2.2-0.6s1.5,0.2,2.2,0.6l23.5,13c0.7,0.4,1.5,0.6,2.2,0.6c2.6,0,5-2.3,4.5-5.3l-4.6-28.4
		c-0.2-1.4,0.2-2.9,1.2-3.9l19.7-20.3c2.6-2.6,1.1-7.1-2.6-7.7l-26.8-4.1c-1.5-0.2-2.8-1.2-3.4-2.6l-11.8-25.3
		C1043.3,0.9,1041.6,0,1040,0L1040,0z"/>
</g>
</svg>
